<?xml version="1.0" encoding="utf-8" standalone="no"?>
<!DOCTYPE svg PUBLIC "-//W3C//DTD SVG 1.1//EN"
  "http://www.w3.org/Graphics/SVG/1.1/DTD/svg11.dtd">
<svg height="345.6pt" version="1.1" viewBox="0 0 460.8 345.6" width="460.8pt" xmlns="http://www.w3.org/2000/svg" xmlns:xlink="http://www.w3.org/1999/xlink">
 <metadata>
  <rdf:RDF xmlns:cc="http://creativecommons.org/ns#" xmlns:dc="http://purl.org/dc/elements/1.1/" xmlns:rdf="http://www.w3.org/1999/02/22-rdf-syntax-ns#">
   <cc:Work>
    <dc:type rdf:resource="http://purl.org/dc/dcmitype/StillImage"/>
    <dc:date>2023-03-16T20:34:13.313857</dc:date>
    <dc:format>image/svg+xml</dc:format>
    <dc:creator>
     <cc:Agent>
      <dc:title>Matplotlib v3.4.3, https://matplotlib.org/</dc:title>
     </cc:Agent>
    </dc:creator>
   </cc:Work>
  </rdf:RDF>
 </metadata>
 <defs>
  <style type="text/css">*{stroke-linecap:butt;stroke-linejoin:round;}</style>
 </defs>
 <g id="figure_1">
  <g id="patch_1">
   <path d="M 0 345.6 
L 460.8 345.6 
L 460.8 0 
L 0 0 
z
" style="fill:#ffffff;"/>
  </g>
  <g id="axes_1">
   <g id="patch_2">
    <path d="M 118.815253 234.59504 
L 225.545759 234.59504 
L 225.545759 159.8636 
L 118.815253 159.8636 
z
" style="fill:#ffffff;"/>
   </g>
   <g id="matplotlib.axis_1">
    <g id="xtick_1">
     <g id="line2d_1">
      <defs>
       <path d="M 0 0 
L 0 3.5 
" id="me627a5d502" style="stroke:#000000;stroke-width:0.8;"/>
      </defs>
      <g>
       <use style="stroke:#000000;stroke-width:0.8;" x="151.388849" xlink:href="#me627a5d502" y="234.59504"/>
      </g>
     </g>
     <g id="text_1">
      <!-- $\mathdefault{10^{1}}$ -->
      <g transform="translate(138.188849 252.992696)scale(0.15 -0.15)">
       <defs>
        <path d="M 794 531 
L 1825 531 
L 1825 4091 
L 703 3866 
L 703 4441 
L 1819 4666 
L 2450 4666 
L 2450 531 
L 3481 531 
L 3481 0 
L 794 0 
L 794 531 
z
" id="DejaVuSans-31" transform="scale(0.015625)"/>
        <path d="M 2034 4250 
Q 1547 4250 1301 3770 
Q 1056 3291 1056 2328 
Q 1056 1369 1301 889 
Q 1547 409 2034 409 
Q 2525 409 2770 889 
Q 3016 1369 3016 2328 
Q 3016 3291 2770 3770 
Q 2525 4250 2034 4250 
z
M 2034 4750 
Q 2819 4750 3233 4129 
Q 3647 3509 3647 2328 
Q 3647 1150 3233 529 
Q 2819 -91 2034 -91 
Q 1250 -91 836 529 
Q 422 1150 422 2328 
Q 422 3509 836 4129 
Q 1250 4750 2034 4750 
z
" id="DejaVuSans-30" transform="scale(0.015625)"/>
       </defs>
       <use transform="translate(0 0.684375)" xlink:href="#DejaVuSans-31"/>
       <use transform="translate(63.623047 0.684375)" xlink:href="#DejaVuSans-30"/>
       <use transform="translate(128.203125 38.965625)scale(0.7)" xlink:href="#DejaVuSans-31"/>
      </g>
     </g>
    </g>
    <g id="xtick_2">
     <g id="line2d_2">
      <g>
       <use style="stroke:#000000;stroke-width:0.8;" x="206.833267" xlink:href="#me627a5d502" y="234.59504"/>
      </g>
     </g>
     <g id="text_2">
      <!-- $\mathdefault{10^{3}}$ -->
      <g transform="translate(193.633267 252.992696)scale(0.15 -0.15)">
       <defs>
        <path d="M 2597 2516 
Q 3050 2419 3304 2112 
Q 3559 1806 3559 1356 
Q 3559 666 3084 287 
Q 2609 -91 1734 -91 
Q 1441 -91 1130 -33 
Q 819 25 488 141 
L 488 750 
Q 750 597 1062 519 
Q 1375 441 1716 441 
Q 2309 441 2620 675 
Q 2931 909 2931 1356 
Q 2931 1769 2642 2001 
Q 2353 2234 1838 2234 
L 1294 2234 
L 1294 2753 
L 1863 2753 
Q 2328 2753 2575 2939 
Q 2822 3125 2822 3475 
Q 2822 3834 2567 4026 
Q 2313 4219 1838 4219 
Q 1578 4219 1281 4162 
Q 984 4106 628 3988 
L 628 4550 
Q 988 4650 1302 4700 
Q 1616 4750 1894 4750 
Q 2613 4750 3031 4423 
Q 3450 4097 3450 3541 
Q 3450 3153 3228 2886 
Q 3006 2619 2597 2516 
z
" id="DejaVuSans-33" transform="scale(0.015625)"/>
       </defs>
       <use transform="translate(0 0.765625)" xlink:href="#DejaVuSans-31"/>
       <use transform="translate(63.623047 0.765625)" xlink:href="#DejaVuSans-30"/>
       <use transform="translate(128.203125 39.046875)scale(0.7)" xlink:href="#DejaVuSans-33"/>
      </g>
     </g>
    </g>
    <g id="text_3">
     <!-- $R_0$ -->
     <g transform="translate(163.405506 271.509884)scale(0.15 -0.15)">
      <defs>
       <path d="M 1613 4147 
L 1294 2491 
L 2106 2491 
Q 2584 2491 2879 2755 
Q 3175 3019 3175 3444 
Q 3175 3784 2976 3965 
Q 2778 4147 2406 4147 
L 1613 4147 
z
M 2772 2241 
Q 2972 2194 3105 2009 
Q 3238 1825 3413 1275 
L 3809 0 
L 3144 0 
L 2778 1197 
Q 2638 1659 2453 1815 
Q 2269 1972 1888 1972 
L 1191 1972 
L 806 0 
L 172 0 
L 1081 4666 
L 2503 4666 
Q 3150 4666 3495 4373 
Q 3841 4081 3841 3531 
Q 3841 3044 3547 2687 
Q 3253 2331 2772 2241 
z
" id="DejaVuSans-Oblique-52" transform="scale(0.015625)"/>
      </defs>
      <use transform="translate(0 0.09375)" xlink:href="#DejaVuSans-Oblique-52"/>
      <use transform="translate(69.482422 -16.3125)scale(0.7)" xlink:href="#DejaVuSans-30"/>
     </g>
    </g>
   </g>
   <g id="matplotlib.axis_2">
    <g id="ytick_1">
     <g id="line2d_3">
      <defs>
       <path d="M 0 0 
L -3.5 0 
" id="m7f5be13bbf" style="stroke:#000000;stroke-width:0.8;"/>
      </defs>
      <g>
       <use style="stroke:#000000;stroke-width:0.8;" x="118.815253" xlink:href="#m7f5be13bbf" y="232.723291"/>
      </g>
     </g>
     <g id="text_4">
      <!-- 0 -->
      <g transform="translate(102.271503 238.422119)scale(0.15 -0.15)">
       <use xlink:href="#DejaVuSans-30"/>
      </g>
     </g>
    </g>
    <g id="ytick_2">
     <g id="line2d_4">
      <g>
       <use style="stroke:#000000;stroke-width:0.8;" x="118.815253" xlink:href="#m7f5be13bbf" y="182.668486"/>
      </g>
     </g>
     <g id="text_5">
      <!-- 3 -->
      <g transform="translate(102.271503 188.367315)scale(0.15 -0.15)">
       <use xlink:href="#DejaVuSans-33"/>
      </g>
     </g>
    </g>
    <g id="text_6">
     <!-- $\mathcal{I}(\theta)$ -->
     <g transform="translate(95.151972 212.00432)rotate(-90)scale(0.15 -0.15)">
      <defs>
       <path d="M 3782 4237 
L 3744 4083 
Q 3482 4083 3347 4067 
Q 3213 4051 3069 3977 
Q 2925 3904 2838 3753 
Q 2752 3603 2675 3334 
L 1920 710 
Q 1901 634 1901 557 
Q 1901 352 2208 352 
Q 2790 352 3283 819 
L 3398 698 
Q 3008 320 2566 160 
Q 2125 0 1549 0 
L 243 0 
L 282 154 
Q 467 154 556 160 
Q 646 166 777 201 
Q 909 237 982 310 
Q 1056 384 1139 521 
Q 1222 659 1280 870 
L 1946 3187 
Q 2061 3590 2061 3674 
Q 2061 3878 1754 3878 
Q 1523 3878 1203 3750 
Q 883 3622 678 3411 
L 570 3533 
Q 947 3904 1385 4070 
Q 1824 4237 2579 4237 
L 3782 4237 
z
" id="STIXNonUnicode-Italic-e235" transform="scale(0.015625)"/>
       <path d="M 1984 4856 
Q 1566 4138 1362 3434 
Q 1159 2731 1159 2009 
Q 1159 1288 1364 580 
Q 1569 -128 1984 -844 
L 1484 -844 
Q 1016 -109 783 600 
Q 550 1309 550 2009 
Q 550 2706 781 3412 
Q 1013 4119 1484 4856 
L 1984 4856 
z
" id="DejaVuSans-28" transform="scale(0.015625)"/>
       <path d="M 2913 2219 
L 925 2219 
Q 791 1284 928 888 
Q 1100 400 1566 400 
Q 2034 400 2391 891 
Q 2703 1322 2913 2219 
z
M 3009 2750 
Q 3094 3638 2984 3950 
Q 2813 4444 2353 4444 
Q 1875 4444 1525 3956 
Q 1250 3563 1034 2750 
L 3009 2750 
z
M 2444 4913 
Q 3194 4913 3494 4250 
Q 3794 3591 3566 2422 
Q 3341 1256 2781 594 
Q 2225 -72 1475 -72 
Q 722 -72 425 594 
Q 128 1256 353 2422 
Q 581 3591 1134 4250 
Q 1691 4913 2444 4913 
z
" id="DejaVuSans-Oblique-3b8" transform="scale(0.015625)"/>
       <path d="M 513 4856 
L 1013 4856 
Q 1481 4119 1714 3412 
Q 1947 2706 1947 2009 
Q 1947 1309 1714 600 
Q 1481 -109 1013 -844 
L 513 -844 
Q 928 -128 1133 580 
Q 1338 1288 1338 2009 
Q 1338 2731 1133 3434 
Q 928 4138 513 4856 
z
" id="DejaVuSans-29" transform="scale(0.015625)"/>
      </defs>
      <use transform="translate(0 0.234375)" xlink:href="#STIXNonUnicode-Italic-e235"/>
      <use transform="translate(57.499985 0.234375)" xlink:href="#DejaVuSans-28"/>
      <use transform="translate(96.513657 0.234375)" xlink:href="#DejaVuSans-Oblique-3b8"/>
      <use transform="translate(157.695297 0.234375)" xlink:href="#DejaVuSans-29"/>
     </g>
    </g>
   </g>
   <g id="line2d_5">
    <path clip-path="url(#p60ca97fc8d)" d="M 123.666639 231.198156 
L 124.646718 231.075392 
L 125.626796 230.943335 
L 126.606874 230.801382 
L 127.586952 230.648906 
L 128.56703 230.485264 
L 129.547108 230.309793 
L 130.527186 230.121817 
L 131.507264 229.920652 
L 132.487342 229.705609 
L 133.467421 229.476002 
L 134.447499 229.231153 
L 135.427577 228.9704 
L 136.407655 228.693107 
L 137.387733 228.398669 
L 138.367811 228.086524 
L 139.347889 227.756162 
L 140.327967 227.40713 
L 141.308045 227.039045 
L 142.288123 226.651597 
L 143.268202 226.244556 
L 144.24828 225.817776 
L 145.228358 225.371197 
L 146.208436 224.904845 
L 147.188514 224.418827 
L 148.168592 223.913329 
L 149.14867 223.38861 
L 150.128748 222.844995 
L 151.108826 222.282863 
L 152.088905 221.702645 
L 153.068983 221.104807 
L 154.049061 220.48985 
L 155.029139 219.858295 
L 156.009217 219.210682 
L 156.989295 218.547559 
L 157.969373 217.869481 
L 158.949451 217.177003 
L 159.929529 216.470678 
L 160.909607 215.751052 
L 161.889686 215.018666 
L 162.869764 214.27405 
L 163.849842 213.517725 
L 164.82992 212.750199 
L 165.809998 211.97197 
L 166.790076 211.183521 
L 167.770154 210.385324 
L 168.750232 209.577837 
L 169.73031 208.761507 
L 170.710389 207.936765 
L 171.690467 207.104031 
L 172.670545 206.263713 
L 173.650623 205.416205 
L 174.630701 204.56189 
L 175.610779 203.701138 
L 176.590857 202.834308 
L 177.570935 201.961749 
L 178.551013 201.083798 
L 179.531091 200.200786 
L 180.51117 199.313031 
L 181.491248 198.420845 
L 182.471326 197.524535 
L 183.451404 196.6244 
L 184.431482 195.720736 
L 185.41156 194.813837 
L 186.391638 193.903996 
L 187.371716 192.991509 
L 188.351794 192.076674 
L 189.331873 191.159796 
L 190.311951 190.241192 
L 191.292029 189.321187 
L 192.272107 188.40012 
L 193.252185 187.478345 
L 194.232263 186.556232 
L 195.212341 185.634162 
L 196.192419 184.712533 
L 197.172497 183.791749 
L 198.152575 182.872223 
L 199.132654 181.954374 
L 200.112732 181.038621 
L 201.09281 180.125387 
L 202.072888 179.215096 
L 203.052966 178.308179 
L 204.033044 177.405074 
L 205.013122 176.506237 
L 205.9932 175.612145 
L 206.973278 174.723307 
L 207.953357 173.840273 
L 208.933435 172.963642 
L 209.913513 172.094072 
L 210.893591 171.232288 
L 211.873669 170.379086 
L 212.853747 169.535338 
L 213.833825 168.701996 
L 214.813903 167.880098 
L 215.793981 167.070777 
L 216.77406 166.275267 
L 217.754138 165.494921 
L 218.734216 164.731225 
L 219.714294 163.985814 
L 220.694372 163.260484 
" style="fill:none;stroke:#0000ff;stroke-linecap:square;stroke-width:1.5;"/>
   </g>
   <g id="patch_3">
    <path d="M 118.815253 234.59504 
L 118.815253 159.8636 
" style="fill:none;stroke:#000000;stroke-linecap:square;stroke-linejoin:miter;stroke-width:0.8;"/>
   </g>
   <g id="patch_4">
    <path d="M 118.815253 234.59504 
L 225.545759 234.59504 
" style="fill:none;stroke:#000000;stroke-linecap:square;stroke-linejoin:miter;stroke-width:0.8;"/>
   </g>
  </g>
  <g id="axes_2">
   <g id="patch_5">
    <path clip-path="url(#peb349ef820)" d="M 210.661572 113.496878 
L 210.676243 113.496878 
L 210.676243 112.741753 
L 210.661572 112.741753 
z
" style="fill:#99ccff;"/>
   </g>
   <g id="patch_6">
    <path clip-path="url(#peb349ef820)" d="M 210.661572 112.741753 
L 210.705583 112.741753 
L 210.705583 111.986628 
L 210.661572 111.986628 
z
" style="fill:#99ccff;"/>
   </g>
   <g id="patch_7">
    <path clip-path="url(#peb349ef820)" d="M 210.661572 111.986628 
L 210.676243 111.986628 
L 210.676243 111.231503 
L 210.661572 111.231503 
z
" style="fill:#99ccff;"/>
   </g>
   <g id="patch_8">
    <path clip-path="url(#peb349ef820)" d="M 210.661572 111.231503 
L 210.676243 111.231503 
L 210.676243 110.476378 
L 210.661572 110.476378 
z
" style="fill:#99ccff;"/>
   </g>
   <g id="patch_9">
    <path clip-path="url(#peb349ef820)" d="M 210.661572 110.476378 
L 210.764265 110.476378 
L 210.764265 109.721253 
L 210.661572 109.721253 
z
" style="fill:#99ccff;"/>
   </g>
   <g id="patch_10">
    <path clip-path="url(#peb349ef820)" d="M 210.661572 109.721253 
L 210.852287 109.721253 
L 210.852287 108.966128 
L 210.661572 108.966128 
z
" style="fill:#99ccff;"/>
   </g>
   <g id="patch_11">
    <path clip-path="url(#peb349ef820)" d="M 210.661572 108.966128 
L 211.116353 108.966128 
L 211.116353 108.211003 
L 210.661572 108.211003 
z
" style="fill:#99ccff;"/>
   </g>
   <g id="patch_12">
    <path clip-path="url(#peb349ef820)" d="M 210.661572 108.211003 
L 211.600475 108.211003 
L 211.600475 107.455878 
L 210.661572 107.455878 
z
" style="fill:#99ccff;"/>
   </g>
   <g id="patch_13">
    <path clip-path="url(#peb349ef820)" d="M 210.661572 107.455878 
L 211.937893 107.455878 
L 211.937893 106.700753 
L 210.661572 106.700753 
z
" style="fill:#99ccff;"/>
   </g>
   <g id="patch_14">
    <path clip-path="url(#peb349ef820)" d="M 210.661572 106.700753 
L 212.818114 106.700753 
L 212.818114 105.945628 
L 210.661572 105.945628 
z
" style="fill:#99ccff;"/>
   </g>
   <g id="patch_15">
    <path clip-path="url(#peb349ef820)" d="M 210.661572 105.945628 
L 214.490534 105.945628 
L 214.490534 105.190503 
L 210.661572 105.190503 
z
" style="fill:#99ccff;"/>
   </g>
   <g id="patch_16">
    <path clip-path="url(#peb349ef820)" d="M 210.661572 105.190503 
L 216.676417 105.190503 
L 216.676417 104.435378 
L 210.661572 104.435378 
z
" style="fill:#99ccff;"/>
   </g>
   <g id="patch_17">
    <path clip-path="url(#peb349ef820)" d="M 210.661572 104.435378 
L 220.10928 104.435378 
L 220.10928 103.680253 
L 210.661572 103.680253 
z
" style="fill:#99ccff;"/>
   </g>
   <g id="patch_18">
    <path clip-path="url(#peb349ef820)" d="M 210.661572 103.680253 
L 223.923571 103.680253 
L 223.923571 102.925128 
L 210.661572 102.925128 
z
" style="fill:#99ccff;"/>
   </g>
   <g id="patch_19">
    <path clip-path="url(#peb349ef820)" d="M 210.661572 102.925128 
L 228.896821 102.925128 
L 228.896821 102.170003 
L 210.661572 102.170003 
z
" style="fill:#99ccff;"/>
   </g>
   <g id="patch_20">
    <path clip-path="url(#peb349ef820)" d="M 210.661572 102.170003 
L 237.58167 102.170003 
L 237.58167 101.414878 
L 210.661572 101.414878 
z
" style="fill:#99ccff;"/>
   </g>
   <g id="patch_21">
    <path clip-path="url(#peb349ef820)" d="M 210.661572 101.414878 
L 245.327616 101.414878 
L 245.327616 100.659753 
L 210.661572 100.659753 
z
" style="fill:#99ccff;"/>
   </g>
   <g id="patch_22">
    <path clip-path="url(#peb349ef820)" d="M 210.661572 100.659753 
L 253.132244 100.659753 
L 253.132244 99.904628 
L 210.661572 99.904628 
z
" style="fill:#99ccff;"/>
   </g>
   <g id="patch_23">
    <path clip-path="url(#peb349ef820)" d="M 210.661572 99.904628 
L 260.364728 99.904628 
L 260.364728 99.149503 
L 210.661572 99.149503 
z
" style="fill:#99ccff;"/>
   </g>
   <g id="patch_24">
    <path clip-path="url(#peb349ef820)" d="M 210.661572 99.149503 
L 269.577709 99.149503 
L 269.577709 98.394378 
L 210.661572 98.394378 
z
" style="fill:#99ccff;"/>
   </g>
   <g id="patch_25">
    <path clip-path="url(#peb349ef820)" d="M 210.661572 98.394378 
L 274.228211 98.394378 
L 274.228211 97.639253 
L 210.661572 97.639253 
z
" style="fill:#99ccff;"/>
   </g>
   <g id="patch_26">
    <path clip-path="url(#peb349ef820)" d="M 210.661572 97.639253 
L 274.462937 97.639253 
L 274.462937 96.884128 
L 210.661572 96.884128 
z
" style="fill:#99ccff;"/>
   </g>
   <g id="patch_27">
    <path clip-path="url(#peb349ef820)" d="M 210.661572 96.884128 
L 273.303979 96.884128 
L 273.303979 96.129003 
L 210.661572 96.129003 
z
" style="fill:#99ccff;"/>
   </g>
   <g id="patch_28">
    <path clip-path="url(#peb349ef820)" d="M 210.661572 96.129003 
L 271.939636 96.129003 
L 271.939636 95.373878 
L 210.661572 95.373878 
z
" style="fill:#99ccff;"/>
   </g>
   <g id="patch_29">
    <path clip-path="url(#peb349ef820)" d="M 210.661572 95.373878 
L 265.293966 95.373878 
L 265.293966 94.618753 
L 210.661572 94.618753 
z
" style="fill:#99ccff;"/>
   </g>
   <g id="patch_30">
    <path clip-path="url(#peb349ef820)" d="M 210.661572 94.618753 
L 254.687301 94.618753 
L 254.687301 93.863628 
L 210.661572 93.863628 
z
" style="fill:#99ccff;"/>
   </g>
   <g id="patch_31">
    <path clip-path="url(#peb349ef820)" d="M 210.661572 93.863628 
L 246.457233 93.863628 
L 246.457233 93.108503 
L 210.661572 93.108503 
z
" style="fill:#99ccff;"/>
   </g>
   <g id="patch_32">
    <path clip-path="url(#peb349ef820)" d="M 210.661572 93.108503 
L 237.831066 93.108503 
L 237.831066 92.353378 
L 210.661572 92.353378 
z
" style="fill:#99ccff;"/>
   </g>
   <g id="patch_33">
    <path clip-path="url(#peb349ef820)" d="M 210.661572 92.353378 
L 230.026438 92.353378 
L 230.026438 91.598253 
L 210.661572 91.598253 
z
" style="fill:#99ccff;"/>
   </g>
   <g id="patch_34">
    <path clip-path="url(#peb349ef820)" d="M 210.661572 91.598253 
L 223.46879 91.598253 
L 223.46879 90.843128 
L 210.661572 90.843128 
z
" style="fill:#99ccff;"/>
   </g>
   <g id="patch_35">
    <path clip-path="url(#peb349ef820)" d="M 210.661572 90.843128 
L 219.30241 90.843128 
L 219.30241 90.088003 
L 210.661572 90.088003 
z
" style="fill:#99ccff;"/>
   </g>
   <g id="patch_36">
    <path clip-path="url(#peb349ef820)" d="M 210.661572 90.088003 
L 215.98691 90.088003 
L 215.98691 89.332878 
L 210.661572 89.332878 
z
" style="fill:#99ccff;"/>
   </g>
   <g id="patch_37">
    <path clip-path="url(#peb349ef820)" d="M 210.661572 89.332878 
L 213.551632 89.332878 
L 213.551632 88.577752 
L 210.661572 88.577752 
z
" style="fill:#99ccff;"/>
   </g>
   <g id="patch_38">
    <path clip-path="url(#peb349ef820)" d="M 210.661572 88.577752 
L 212.025915 88.577752 
L 212.025915 87.822627 
L 210.661572 87.822627 
z
" style="fill:#99ccff;"/>
   </g>
   <g id="patch_39">
    <path clip-path="url(#peb349ef820)" d="M 210.661572 87.822627 
L 211.527123 87.822627 
L 211.527123 87.067502 
L 210.661572 87.067502 
z
" style="fill:#99ccff;"/>
   </g>
   <g id="patch_40">
    <path clip-path="url(#peb349ef820)" d="M 210.661572 87.067502 
L 211.028331 87.067502 
L 211.028331 86.312377 
L 210.661572 86.312377 
z
" style="fill:#99ccff;"/>
   </g>
   <g id="patch_41">
    <path clip-path="url(#peb349ef820)" d="M 210.661572 86.312377 
L 210.778935 86.312377 
L 210.778935 85.557252 
L 210.661572 85.557252 
z
" style="fill:#99ccff;"/>
   </g>
   <g id="patch_42">
    <path clip-path="url(#peb349ef820)" d="M 210.661572 85.557252 
L 210.793606 85.557252 
L 210.793606 84.802127 
L 210.661572 84.802127 
z
" style="fill:#99ccff;"/>
   </g>
   <g id="patch_43">
    <path clip-path="url(#peb349ef820)" d="M 210.661572 84.802127 
L 210.705583 84.802127 
L 210.705583 84.047002 
L 210.661572 84.047002 
z
" style="fill:#99ccff;"/>
   </g>
   <g id="patch_44">
    <path clip-path="url(#peb349ef820)" d="M 210.661572 84.047002 
L 210.676243 84.047002 
L 210.676243 83.291877 
L 210.661572 83.291877 
z
" style="fill:#99ccff;"/>
   </g>
   <g id="patch_45">
    <path clip-path="url(#peb349ef820)" d="M 297.788516 125.324513 
L 297.814165 125.324513 
L 297.814165 124.028791 
L 297.788516 124.028791 
z
" style="fill:#99ccff;"/>
   </g>
   <g id="patch_46">
    <path clip-path="url(#peb349ef820)" d="M 297.788516 124.028791 
L 297.822714 124.028791 
L 297.822714 122.733068 
L 297.788516 122.733068 
z
" style="fill:#99ccff;"/>
   </g>
   <g id="patch_47">
    <path clip-path="url(#peb349ef820)" d="M 297.788516 122.733068 
L 297.822714 122.733068 
L 297.822714 121.437346 
L 297.788516 121.437346 
z
" style="fill:#99ccff;"/>
   </g>
   <g id="patch_48">
    <path clip-path="url(#peb349ef820)" d="M 297.788516 121.437346 
L 297.848363 121.437346 
L 297.848363 120.141624 
L 297.788516 120.141624 
z
" style="fill:#99ccff;"/>
   </g>
   <g id="patch_49">
    <path clip-path="url(#peb349ef820)" d="M 297.788516 120.141624 
L 297.93386 120.141624 
L 297.93386 118.845902 
L 297.788516 118.845902 
z
" style="fill:#99ccff;"/>
   </g>
   <g id="patch_50">
    <path clip-path="url(#peb349ef820)" d="M 297.788516 118.845902 
L 298.002257 118.845902 
L 298.002257 117.550179 
L 297.788516 117.550179 
z
" style="fill:#99ccff;"/>
   </g>
   <g id="patch_51">
    <path clip-path="url(#peb349ef820)" d="M 297.788516 117.550179 
L 298.190349 117.550179 
L 298.190349 116.254457 
L 297.788516 116.254457 
z
" style="fill:#99ccff;"/>
   </g>
   <g id="patch_52">
    <path clip-path="url(#peb349ef820)" d="M 297.788516 116.254457 
L 298.472486 116.254457 
L 298.472486 114.958735 
L 297.788516 114.958735 
z
" style="fill:#99ccff;"/>
   </g>
   <g id="patch_53">
    <path clip-path="url(#peb349ef820)" d="M 297.788516 114.958735 
L 298.985465 114.958735 
L 298.985465 113.663013 
L 297.788516 113.663013 
z
" style="fill:#99ccff;"/>
   </g>
   <g id="patch_54">
    <path clip-path="url(#peb349ef820)" d="M 297.788516 113.663013 
L 299.447145 113.663013 
L 299.447145 112.36729 
L 297.788516 112.36729 
z
" style="fill:#99ccff;"/>
   </g>
   <g id="patch_55">
    <path clip-path="url(#peb349ef820)" d="M 297.788516 112.36729 
L 300.447452 112.36729 
L 300.447452 111.071568 
L 297.788516 111.071568 
z
" style="fill:#99ccff;"/>
   </g>
   <g id="patch_56">
    <path clip-path="url(#peb349ef820)" d="M 297.788516 111.071568 
L 301.89234 111.071568 
L 301.89234 109.775846 
L 297.788516 109.775846 
z
" style="fill:#99ccff;"/>
   </g>
   <g id="patch_57">
    <path clip-path="url(#peb349ef820)" d="M 297.788516 109.775846 
L 303.679213 109.775846 
L 303.679213 108.480124 
L 297.788516 108.480124 
z
" style="fill:#99ccff;"/>
   </g>
   <g id="patch_58">
    <path clip-path="url(#peb349ef820)" d="M 297.788516 108.480124 
L 306.227004 108.480124 
L 306.227004 107.184401 
L 297.788516 107.184401 
z
" style="fill:#99ccff;"/>
   </g>
   <g id="patch_59">
    <path clip-path="url(#peb349ef820)" d="M 297.788516 107.184401 
L 309.604109 107.184401 
L 309.604109 105.888679 
L 297.788516 105.888679 
z
" style="fill:#99ccff;"/>
   </g>
   <g id="patch_60">
    <path clip-path="url(#peb349ef820)" d="M 297.788516 105.888679 
L 313.254803 105.888679 
L 313.254803 104.592957 
L 297.788516 104.592957 
z
" style="fill:#99ccff;"/>
   </g>
   <g id="patch_61">
    <path clip-path="url(#peb349ef820)" d="M 297.788516 104.592957 
L 317.794658 104.592957 
L 317.794658 103.297235 
L 297.788516 103.297235 
z
" style="fill:#99ccff;"/>
   </g>
   <g id="patch_62">
    <path clip-path="url(#peb349ef820)" d="M 297.788516 103.297235 
L 322.402911 103.297235 
L 322.402911 102.001512 
L 297.788516 102.001512 
z
" style="fill:#99ccff;"/>
   </g>
   <g id="patch_63">
    <path clip-path="url(#peb349ef820)" d="M 297.788516 102.001512 
L 327.31895 102.001512 
L 327.31895 100.70579 
L 297.788516 100.70579 
z
" style="fill:#99ccff;"/>
   </g>
   <g id="patch_64">
    <path clip-path="url(#peb349ef820)" d="M 297.788516 100.70579 
L 330.901247 100.70579 
L 330.901247 99.410068 
L 297.788516 99.410068 
z
" style="fill:#99ccff;"/>
   </g>
   <g id="patch_65">
    <path clip-path="url(#peb349ef820)" d="M 297.788516 99.410068 
L 333.089953 99.410068 
L 333.089953 98.114346 
L 297.788516 98.114346 
z
" style="fill:#99ccff;"/>
   </g>
   <g id="patch_66">
    <path clip-path="url(#peb349ef820)" d="M 297.788516 98.114346 
L 333.483236 98.114346 
L 333.483236 96.818623 
L 297.788516 96.818623 
z
" style="fill:#99ccff;"/>
   </g>
   <g id="patch_67">
    <path clip-path="url(#peb349ef820)" d="M 297.788516 96.818623 
L 334.201405 96.818623 
L 334.201405 95.522901 
L 297.788516 95.522901 
z
" style="fill:#99ccff;"/>
   </g>
   <g id="patch_68">
    <path clip-path="url(#peb349ef820)" d="M 297.788516 95.522901 
L 332.517128 95.522901 
L 332.517128 94.227179 
L 297.788516 94.227179 
z
" style="fill:#99ccff;"/>
   </g>
   <g id="patch_69">
    <path clip-path="url(#peb349ef820)" d="M 297.788516 94.227179 
L 328.011471 94.227179 
L 328.011471 92.931457 
L 297.788516 92.931457 
z
" style="fill:#99ccff;"/>
   </g>
   <g id="patch_70">
    <path clip-path="url(#peb349ef820)" d="M 297.788516 92.931457 
L 323.420317 92.931457 
L 323.420317 91.635734 
L 297.788516 91.635734 
z
" style="fill:#99ccff;"/>
   </g>
   <g id="patch_71">
    <path clip-path="url(#peb349ef820)" d="M 297.788516 91.635734 
L 319.230997 91.635734 
L 319.230997 90.340012 
L 297.788516 90.340012 
z
" style="fill:#99ccff;"/>
   </g>
   <g id="patch_72">
    <path clip-path="url(#peb349ef820)" d="M 297.788516 90.340012 
L 314.092667 90.340012 
L 314.092667 89.04429 
L 297.788516 89.04429 
z
" style="fill:#99ccff;"/>
   </g>
   <g id="patch_73">
    <path clip-path="url(#peb349ef820)" d="M 297.788516 89.04429 
L 309.928996 89.04429 
L 309.928996 87.748568 
L 297.788516 87.748568 
z
" style="fill:#99ccff;"/>
   </g>
   <g id="patch_74">
    <path clip-path="url(#peb349ef820)" d="M 297.788516 87.748568 
L 305.782423 87.748568 
L 305.782423 86.452845 
L 297.788516 86.452845 
z
" style="fill:#99ccff;"/>
   </g>
   <g id="patch_75">
    <path clip-path="url(#peb349ef820)" d="M 297.788516 86.452845 
L 303.106388 86.452845 
L 303.106388 85.157123 
L 297.788516 85.157123 
z
" style="fill:#99ccff;"/>
   </g>
   <g id="patch_76">
    <path clip-path="url(#peb349ef820)" d="M 297.788516 85.157123 
L 300.584246 85.157123 
L 300.584246 83.861401 
L 297.788516 83.861401 
z
" style="fill:#99ccff;"/>
   </g>
   <g id="patch_77">
    <path clip-path="url(#peb349ef820)" d="M 297.788516 83.861401 
L 299.378748 83.861401 
L 299.378748 82.565679 
L 297.788516 82.565679 
z
" style="fill:#99ccff;"/>
   </g>
   <g id="patch_78">
    <path clip-path="url(#peb349ef820)" d="M 297.788516 82.565679 
L 298.677678 82.565679 
L 298.677678 81.269956 
L 297.788516 81.269956 
z
" style="fill:#99ccff;"/>
   </g>
   <g id="patch_79">
    <path clip-path="url(#peb349ef820)" d="M 297.788516 81.269956 
L 298.369891 81.269956 
L 298.369891 79.974234 
L 297.788516 79.974234 
z
" style="fill:#99ccff;"/>
   </g>
   <g id="patch_80">
    <path clip-path="url(#peb349ef820)" d="M 297.788516 79.974234 
L 298.010806 79.974234 
L 298.010806 78.678512 
L 297.788516 78.678512 
z
" style="fill:#99ccff;"/>
   </g>
   <g id="patch_81">
    <path clip-path="url(#peb349ef820)" d="M 297.788516 78.678512 
L 297.856913 78.678512 
L 297.856913 77.38279 
L 297.788516 77.38279 
z
" style="fill:#99ccff;"/>
   </g>
   <g id="patch_82">
    <path clip-path="url(#peb349ef820)" d="M 297.788516 77.38279 
L 297.822714 77.38279 
L 297.822714 76.087067 
L 297.788516 76.087067 
z
" style="fill:#99ccff;"/>
   </g>
   <g id="patch_83">
    <path clip-path="url(#peb349ef820)" d="M 297.788516 76.087067 
L 297.797065 76.087067 
L 297.797065 74.791345 
L 297.788516 74.791345 
z
" style="fill:#99ccff;"/>
   </g>
   <g id="patch_84">
    <path clip-path="url(#peb349ef820)" d="M 297.788516 74.791345 
L 297.797065 74.791345 
L 297.797065 73.495623 
L 297.788516 73.495623 
z
" style="fill:#99ccff;"/>
   </g>
   <g id="patch_85">
    <path clip-path="url(#peb349ef820)" d="M 370.394302 145.750826 
L 370.409627 145.750826 
L 370.409627 143.582185 
L 370.394302 143.582185 
z
" style="fill:#99ccff;"/>
   </g>
   <g id="patch_86">
    <path clip-path="url(#peb349ef820)" d="M 370.394302 143.582185 
L 370.39941 143.582185 
L 370.39941 141.413545 
L 370.394302 141.413545 
z
" style="fill:#99ccff;"/>
   </g>
   <g id="patch_87">
    <path clip-path="url(#peb349ef820)" d="M 370.394302 141.413545 
L 370.404518 141.413545 
L 370.404518 139.244904 
L 370.394302 139.244904 
z
" style="fill:#99ccff;"/>
   </g>
   <g id="patch_88">
    <path clip-path="url(#peb349ef820)" d="M 370.394302 139.244904 
L 370.43006 139.244904 
L 370.43006 137.076264 
L 370.394302 137.076264 
z
" style="fill:#99ccff;"/>
   </g>
   <g id="patch_89">
    <path clip-path="url(#peb349ef820)" d="M 370.394302 137.076264 
L 370.435168 137.076264 
L 370.435168 134.907623 
L 370.394302 134.907623 
z
" style="fill:#99ccff;"/>
   </g>
   <g id="patch_90">
    <path clip-path="url(#peb349ef820)" d="M 370.394302 134.907623 
L 370.491359 134.907623 
L 370.491359 132.738983 
L 370.394302 132.738983 
z
" style="fill:#99ccff;"/>
   </g>
   <g id="patch_91">
    <path clip-path="url(#peb349ef820)" d="M 370.394302 132.738983 
L 370.583307 132.738983 
L 370.583307 130.570342 
L 370.394302 130.570342 
z
" style="fill:#99ccff;"/>
   </g>
   <g id="patch_92">
    <path clip-path="url(#peb349ef820)" d="M 370.394302 130.570342 
L 370.72123 130.570342 
L 370.72123 128.401702 
L 370.394302 128.401702 
z
" style="fill:#99ccff;"/>
   </g>
   <g id="patch_93">
    <path clip-path="url(#peb349ef820)" d="M 370.394302 128.401702 
L 370.813178 128.401702 
L 370.813178 126.233061 
L 370.394302 126.233061 
z
" style="fill:#99ccff;"/>
   </g>
   <g id="patch_94">
    <path clip-path="url(#peb349ef820)" d="M 370.394302 126.233061 
L 371.150323 126.233061 
L 371.150323 124.064421 
L 370.394302 124.064421 
z
" style="fill:#99ccff;"/>
   </g>
   <g id="patch_95">
    <path clip-path="url(#peb349ef820)" d="M 370.394302 124.064421 
L 371.610065 124.064421 
L 371.610065 121.89578 
L 370.394302 121.89578 
z
" style="fill:#99ccff;"/>
   </g>
   <g id="patch_96">
    <path clip-path="url(#peb349ef820)" d="M 370.394302 121.89578 
L 372.248596 121.89578 
L 372.248596 119.72714 
L 370.394302 119.72714 
z
" style="fill:#99ccff;"/>
   </g>
   <g id="patch_97">
    <path clip-path="url(#peb349ef820)" d="M 370.394302 119.72714 
L 373.229379 119.72714 
L 373.229379 117.558499 
L 370.394302 117.558499 
z
" style="fill:#99ccff;"/>
   </g>
   <g id="patch_98">
    <path clip-path="url(#peb349ef820)" d="M 370.394302 117.558499 
L 374.266353 117.558499 
L 374.266353 115.389859 
L 370.394302 115.389859 
z
" style="fill:#99ccff;"/>
   </g>
   <g id="patch_99">
    <path clip-path="url(#peb349ef820)" d="M 370.394302 115.389859 
L 376.028698 115.389859 
L 376.028698 113.221218 
L 370.394302 113.221218 
z
" style="fill:#99ccff;"/>
   </g>
   <g id="patch_100">
    <path clip-path="url(#peb349ef820)" d="M 370.394302 113.221218 
L 378.184378 113.221218 
L 378.184378 111.052578 
L 370.394302 111.052578 
z
" style="fill:#99ccff;"/>
   </g>
   <g id="patch_101">
    <path clip-path="url(#peb349ef820)" d="M 370.394302 111.052578 
L 380.278759 111.052578 
L 380.278759 108.883937 
L 370.394302 108.883937 
z
" style="fill:#99ccff;"/>
   </g>
   <g id="patch_102">
    <path clip-path="url(#peb349ef820)" d="M 370.394302 108.883937 
L 383.583795 108.883937 
L 383.583795 106.715297 
L 370.394302 106.715297 
z
" style="fill:#99ccff;"/>
   </g>
   <g id="patch_103">
    <path clip-path="url(#peb349ef820)" d="M 370.394302 106.715297 
L 386.383114 106.715297 
L 386.383114 104.546656 
L 370.394302 104.546656 
z
" style="fill:#99ccff;"/>
   </g>
   <g id="patch_104">
    <path clip-path="url(#peb349ef820)" d="M 370.394302 104.546656 
L 389.499145 104.546656 
L 389.499145 102.378016 
L 370.394302 102.378016 
z
" style="fill:#99ccff;"/>
   </g>
   <g id="patch_105">
    <path clip-path="url(#peb349ef820)" d="M 370.394302 102.378016 
L 391.537335 102.378016 
L 391.537335 100.209376 
L 370.394302 100.209376 
z
" style="fill:#99ccff;"/>
   </g>
   <g id="patch_106">
    <path clip-path="url(#peb349ef820)" d="M 370.394302 100.209376 
L 392.410845 100.209376 
L 392.410845 98.040735 
L 370.394302 98.040735 
z
" style="fill:#99ccff;"/>
   </g>
   <g id="patch_107">
    <path clip-path="url(#peb349ef820)" d="M 370.394302 98.040735 
L 393.498902 98.040735 
L 393.498902 95.872095 
L 370.394302 95.872095 
z
" style="fill:#99ccff;"/>
   </g>
   <g id="patch_108">
    <path clip-path="url(#peb349ef820)" d="M 370.394302 95.872095 
L 392.492577 95.872095 
L 392.492577 93.703454 
L 370.394302 93.703454 
z
" style="fill:#99ccff;"/>
   </g>
   <g id="patch_109">
    <path clip-path="url(#peb349ef820)" d="M 370.394302 93.703454 
L 390.954995 93.703454 
L 390.954995 91.534814 
L 370.394302 91.534814 
z
" style="fill:#99ccff;"/>
   </g>
   <g id="patch_110">
    <path clip-path="url(#peb349ef820)" d="M 370.394302 91.534814 
L 387.987104 91.534814 
L 387.987104 89.366173 
L 370.394302 89.366173 
z
" style="fill:#99ccff;"/>
   </g>
   <g id="patch_111">
    <path clip-path="url(#peb349ef820)" d="M 370.394302 89.366173 
L 384.738259 89.366173 
L 384.738259 87.197533 
L 370.394302 87.197533 
z
" style="fill:#99ccff;"/>
   </g>
   <g id="patch_112">
    <path clip-path="url(#peb349ef820)" d="M 370.394302 87.197533 
L 381.53028 87.197533 
L 381.53028 85.028892 
L 370.394302 85.028892 
z
" style="fill:#99ccff;"/>
   </g>
   <g id="patch_113">
    <path clip-path="url(#peb349ef820)" d="M 370.394302 85.028892 
L 378.240569 85.028892 
L 378.240569 82.860252 
L 370.394302 82.860252 
z
" style="fill:#99ccff;"/>
   </g>
   <g id="patch_114">
    <path clip-path="url(#peb349ef820)" d="M 370.394302 82.860252 
L 375.783502 82.860252 
L 375.783502 80.691611 
L 370.394302 80.691611 
z
" style="fill:#99ccff;"/>
   </g>
   <g id="patch_115">
    <path clip-path="url(#peb349ef820)" d="M 370.394302 80.691611 
L 373.699338 80.691611 
L 373.699338 78.522971 
L 370.394302 78.522971 
z
" style="fill:#99ccff;"/>
   </g>
   <g id="patch_116">
    <path clip-path="url(#peb349ef820)" d="M 370.394302 78.522971 
L 372.238379 78.522971 
L 372.238379 76.35433 
L 370.394302 76.35433 
z
" style="fill:#99ccff;"/>
   </g>
   <g id="patch_117">
    <path clip-path="url(#peb349ef820)" d="M 370.394302 76.35433 
L 371.334219 76.35433 
L 371.334219 74.18569 
L 370.394302 74.18569 
z
" style="fill:#99ccff;"/>
   </g>
   <g id="patch_118">
    <path clip-path="url(#peb349ef820)" d="M 370.394302 74.18569 
L 370.889802 74.18569 
L 370.889802 72.017049 
L 370.394302 72.017049 
z
" style="fill:#99ccff;"/>
   </g>
   <g id="patch_119">
    <path clip-path="url(#peb349ef820)" d="M 370.394302 72.017049 
L 370.593524 72.017049 
L 370.593524 69.848409 
L 370.394302 69.848409 
z
" style="fill:#99ccff;"/>
   </g>
   <g id="patch_120">
    <path clip-path="url(#peb349ef820)" d="M 370.394302 69.848409 
L 370.501575 69.848409 
L 370.501575 67.679768 
L 370.394302 67.679768 
z
" style="fill:#99ccff;"/>
   </g>
   <g id="patch_121">
    <path clip-path="url(#peb349ef820)" d="M 370.394302 67.679768 
L 370.414735 67.679768 
L 370.414735 65.511128 
L 370.394302 65.511128 
z
" style="fill:#99ccff;"/>
   </g>
   <g id="patch_122">
    <path clip-path="url(#peb349ef820)" d="M 370.394302 65.511128 
L 370.394302 65.511128 
L 370.394302 63.342487 
L 370.394302 63.342487 
z
" style="fill:#99ccff;"/>
   </g>
   <g id="patch_123">
    <path clip-path="url(#peb349ef820)" d="M 370.394302 63.342487 
L 370.394302 63.342487 
L 370.394302 61.173847 
L 370.394302 61.173847 
z
" style="fill:#99ccff;"/>
   </g>
   <g id="patch_124">
    <path clip-path="url(#peb349ef820)" d="M 370.394302 61.173847 
L 370.39941 61.173847 
L 370.39941 59.005207 
L 370.394302 59.005207 
z
" style="fill:#99ccff;"/>
   </g>
   <g id="matplotlib.axis_3"/>
   <g id="patch_125">
    <path d="M 65.45 284.416 
L 65.45 35.3112 
" style="fill:none;stroke:#000000;stroke-linecap:square;stroke-linejoin:miter;stroke-width:0.8;"/>
   </g>
   <g id="patch_126">
    <path d="M 65.45 284.416 
L 421.218352 284.416 
" style="fill:none;stroke:#000000;stroke-linecap:square;stroke-linejoin:miter;stroke-width:0.8;"/>
   </g>
  </g>
  <g id="axes_3">
   <g id="patch_127">
    <path d="M 65.45 284.416 
L 421.218352 284.416 
L 421.218352 35.3112 
L 65.45 35.3112 
z
" style="fill:none;"/>
   </g>
   <g id="PathCollection_1">
    <defs>
     <path d="M 0 3 
C 0.795609 3 1.55874 2.683901 2.12132 2.12132 
C 2.683901 1.55874 3 0.795609 3 0 
C 3 -0.795609 2.683901 -1.55874 2.12132 -2.12132 
C 1.55874 -2.683901 0.795609 -3 0 -3 
C -0.795609 -3 -1.55874 -2.683901 -2.12132 -2.12132 
C -2.683901 -1.55874 -3 -0.795609 -3 0 
C -3 0.795609 -2.683901 1.55874 -2.12132 2.12132 
C -1.55874 2.683901 -0.795609 3 0 3 
z
" id="mabb61c29ae" style="stroke:#000000;"/>
    </defs>
    <g clip-path="url(#peb349ef820)">
     <use style="stroke:#000000;" x="210.661572" xlink:href="#mabb61c29ae" y="97.281657"/>
     <use style="stroke:#000000;" x="297.788516" xlink:href="#mabb61c29ae" y="97.604839"/>
     <use style="stroke:#000000;" x="370.394302" xlink:href="#mabb61c29ae" y="98.312498"/>
    </g>
   </g>
   <g id="matplotlib.axis_4">
    <g id="xtick_3">
     <g id="line2d_6">
      <g>
       <use style="stroke:#000000;stroke-width:0.8;" x="243.334176" xlink:href="#me627a5d502" y="284.416"/>
      </g>
     </g>
     <g id="text_7">
      <!-- $\mathdefault{10^{-1}}$ -->
      <g transform="translate(225.709176 302.813656)scale(0.15 -0.15)">
       <defs>
        <path d="M 678 2272 
L 4684 2272 
L 4684 1741 
L 678 1741 
L 678 2272 
z
" id="DejaVuSans-2212" transform="scale(0.015625)"/>
       </defs>
       <use transform="translate(0 0.684375)" xlink:href="#DejaVuSans-31"/>
       <use transform="translate(63.623047 0.684375)" xlink:href="#DejaVuSans-30"/>
       <use transform="translate(128.203125 38.965625)scale(0.7)" xlink:href="#DejaVuSans-2212"/>
       <use transform="translate(186.855469 38.965625)scale(0.7)" xlink:href="#DejaVuSans-31"/>
      </g>
     </g>
    </g>
    <g id="xtick_4">
     <g id="line2d_7">
      <defs>
       <path d="M 0 0 
L 0 2 
" id="mcbcfe62a46" style="stroke:#000000;stroke-width:0.6;"/>
      </defs>
      <g>
       <use style="stroke:#000000;stroke-width:0.6;" x="101.759715" xlink:href="#mcbcfe62a46" y="284.416"/>
      </g>
     </g>
     <g id="text_8">
      <!-- $\mathdefault{4\times10^{-2}}$ -->
      <g transform="translate(70.184715 301.213656)scale(0.15 -0.15)">
       <defs>
        <path d="M 2419 4116 
L 825 1625 
L 2419 1625 
L 2419 4116 
z
M 2253 4666 
L 3047 4666 
L 3047 1625 
L 3713 1625 
L 3713 1100 
L 3047 1100 
L 3047 0 
L 2419 0 
L 2419 1100 
L 313 1100 
L 313 1709 
L 2253 4666 
z
" id="DejaVuSans-34" transform="scale(0.015625)"/>
        <path d="M 4488 3438 
L 3059 2003 
L 4488 575 
L 4116 197 
L 2681 1631 
L 1247 197 
L 878 575 
L 2303 2003 
L 878 3438 
L 1247 3816 
L 2681 2381 
L 4116 3816 
L 4488 3438 
z
" id="DejaVuSans-d7" transform="scale(0.015625)"/>
        <path d="M 1228 531 
L 3431 531 
L 3431 0 
L 469 0 
L 469 531 
Q 828 903 1448 1529 
Q 2069 2156 2228 2338 
Q 2531 2678 2651 2914 
Q 2772 3150 2772 3378 
Q 2772 3750 2511 3984 
Q 2250 4219 1831 4219 
Q 1534 4219 1204 4116 
Q 875 4013 500 3803 
L 500 4441 
Q 881 4594 1212 4672 
Q 1544 4750 1819 4750 
Q 2544 4750 2975 4387 
Q 3406 4025 3406 3419 
Q 3406 3131 3298 2873 
Q 3191 2616 2906 2266 
Q 2828 2175 2409 1742 
Q 1991 1309 1228 531 
z
" id="DejaVuSans-32" transform="scale(0.015625)"/>
       </defs>
       <use transform="translate(0 0.765625)" xlink:href="#DejaVuSans-34"/>
       <use transform="translate(83.105469 0.765625)" xlink:href="#DejaVuSans-d7"/>
       <use transform="translate(186.376953 0.765625)" xlink:href="#DejaVuSans-31"/>
       <use transform="translate(250 0.765625)" xlink:href="#DejaVuSans-30"/>
       <use transform="translate(314.580078 39.046875)scale(0.7)" xlink:href="#DejaVuSans-2212"/>
       <use transform="translate(373.232422 39.046875)scale(0.7)" xlink:href="#DejaVuSans-32"/>
      </g>
     </g>
    </g>
    <g id="xtick_5">
     <g id="line2d_8">
      <g>
       <use style="stroke:#000000;stroke-width:0.6;" x="136.237231" xlink:href="#mcbcfe62a46" y="284.416"/>
      </g>
     </g>
    </g>
    <g id="xtick_6">
     <g id="line2d_9">
      <g>
       <use style="stroke:#000000;stroke-width:0.6;" x="164.407412" xlink:href="#mcbcfe62a46" y="284.416"/>
      </g>
     </g>
     <g id="text_9">
      <!-- $\mathdefault{6\times10^{-2}}$ -->
      <g transform="translate(132.832412 301.213656)scale(0.15 -0.15)">
       <defs>
        <path d="M 2113 2584 
Q 1688 2584 1439 2293 
Q 1191 2003 1191 1497 
Q 1191 994 1439 701 
Q 1688 409 2113 409 
Q 2538 409 2786 701 
Q 3034 994 3034 1497 
Q 3034 2003 2786 2293 
Q 2538 2584 2113 2584 
z
M 3366 4563 
L 3366 3988 
Q 3128 4100 2886 4159 
Q 2644 4219 2406 4219 
Q 1781 4219 1451 3797 
Q 1122 3375 1075 2522 
Q 1259 2794 1537 2939 
Q 1816 3084 2150 3084 
Q 2853 3084 3261 2657 
Q 3669 2231 3669 1497 
Q 3669 778 3244 343 
Q 2819 -91 2113 -91 
Q 1303 -91 875 529 
Q 447 1150 447 2328 
Q 447 3434 972 4092 
Q 1497 4750 2381 4750 
Q 2619 4750 2861 4703 
Q 3103 4656 3366 4563 
z
" id="DejaVuSans-36" transform="scale(0.015625)"/>
       </defs>
       <use transform="translate(0 0.765625)" xlink:href="#DejaVuSans-36"/>
       <use transform="translate(83.105469 0.765625)" xlink:href="#DejaVuSans-d7"/>
       <use transform="translate(186.376953 0.765625)" xlink:href="#DejaVuSans-31"/>
       <use transform="translate(250 0.765625)" xlink:href="#DejaVuSans-30"/>
       <use transform="translate(314.580078 39.046875)scale(0.7)" xlink:href="#DejaVuSans-2212"/>
       <use transform="translate(373.232422 39.046875)scale(0.7)" xlink:href="#DejaVuSans-32"/>
      </g>
     </g>
    </g>
    <g id="xtick_7">
     <g id="line2d_10">
      <g>
       <use style="stroke:#000000;stroke-width:0.6;" x="188.224961" xlink:href="#mcbcfe62a46" y="284.416"/>
      </g>
     </g>
    </g>
    <g id="xtick_8">
     <g id="line2d_11">
      <g>
       <use style="stroke:#000000;stroke-width:0.6;" x="208.856661" xlink:href="#mcbcfe62a46" y="284.416"/>
      </g>
     </g>
    </g>
    <g id="xtick_9">
     <g id="line2d_12">
      <g>
       <use style="stroke:#000000;stroke-width:0.6;" x="227.055109" xlink:href="#mcbcfe62a46" y="284.416"/>
      </g>
     </g>
    </g>
    <g id="xtick_10">
     <g id="line2d_13">
      <g>
       <use style="stroke:#000000;stroke-width:0.6;" x="350.431122" xlink:href="#mcbcfe62a46" y="284.416"/>
      </g>
     </g>
     <g id="text_10">
      <!-- $\mathdefault{2\times10^{-1}}$ -->
      <g transform="translate(318.856122 301.213656)scale(0.15 -0.15)">
       <use transform="translate(0 0.684375)" xlink:href="#DejaVuSans-32"/>
       <use transform="translate(83.105469 0.684375)" xlink:href="#DejaVuSans-d7"/>
       <use transform="translate(186.376953 0.684375)" xlink:href="#DejaVuSans-31"/>
       <use transform="translate(250 0.684375)" xlink:href="#DejaVuSans-30"/>
       <use transform="translate(314.580078 38.965625)scale(0.7)" xlink:href="#DejaVuSans-2212"/>
       <use transform="translate(373.232422 38.965625)scale(0.7)" xlink:href="#DejaVuSans-31"/>
      </g>
     </g>
    </g>
    <g id="xtick_11">
     <g id="line2d_14">
      <g>
       <use style="stroke:#000000;stroke-width:0.6;" x="413.078819" xlink:href="#mcbcfe62a46" y="284.416"/>
      </g>
     </g>
     <g id="text_11">
      <!-- $\mathdefault{3\times10^{-1}}$ -->
      <g transform="translate(381.503819 301.213656)scale(0.15 -0.15)">
       <use transform="translate(0 0.684375)" xlink:href="#DejaVuSans-33"/>
       <use transform="translate(83.105469 0.684375)" xlink:href="#DejaVuSans-d7"/>
       <use transform="translate(186.376953 0.684375)" xlink:href="#DejaVuSans-31"/>
       <use transform="translate(250 0.684375)" xlink:href="#DejaVuSans-30"/>
       <use transform="translate(314.580078 38.965625)scale(0.7)" xlink:href="#DejaVuSans-2212"/>
       <use transform="translate(373.232422 38.965625)scale(0.7)" xlink:href="#DejaVuSans-31"/>
      </g>
     </g>
    </g>
    <g id="text_12">
     <!-- Variation of $R_0$ (CV) -->
     <g transform="translate(170.059176 321.330844)scale(0.15 -0.15)">
      <defs>
       <path d="M 1831 0 
L 50 4666 
L 709 4666 
L 2188 738 
L 3669 4666 
L 4325 4666 
L 2547 0 
L 1831 0 
z
" id="DejaVuSans-56" transform="scale(0.015625)"/>
       <path d="M 2194 1759 
Q 1497 1759 1228 1600 
Q 959 1441 959 1056 
Q 959 750 1161 570 
Q 1363 391 1709 391 
Q 2188 391 2477 730 
Q 2766 1069 2766 1631 
L 2766 1759 
L 2194 1759 
z
M 3341 1997 
L 3341 0 
L 2766 0 
L 2766 531 
Q 2569 213 2275 61 
Q 1981 -91 1556 -91 
Q 1019 -91 701 211 
Q 384 513 384 1019 
Q 384 1609 779 1909 
Q 1175 2209 1959 2209 
L 2766 2209 
L 2766 2266 
Q 2766 2663 2505 2880 
Q 2244 3097 1772 3097 
Q 1472 3097 1187 3025 
Q 903 2953 641 2809 
L 641 3341 
Q 956 3463 1253 3523 
Q 1550 3584 1831 3584 
Q 2591 3584 2966 3190 
Q 3341 2797 3341 1997 
z
" id="DejaVuSans-61" transform="scale(0.015625)"/>
       <path d="M 2631 2963 
Q 2534 3019 2420 3045 
Q 2306 3072 2169 3072 
Q 1681 3072 1420 2755 
Q 1159 2438 1159 1844 
L 1159 0 
L 581 0 
L 581 3500 
L 1159 3500 
L 1159 2956 
Q 1341 3275 1631 3429 
Q 1922 3584 2338 3584 
Q 2397 3584 2469 3576 
Q 2541 3569 2628 3553 
L 2631 2963 
z
" id="DejaVuSans-72" transform="scale(0.015625)"/>
       <path d="M 603 3500 
L 1178 3500 
L 1178 0 
L 603 0 
L 603 3500 
z
M 603 4863 
L 1178 4863 
L 1178 4134 
L 603 4134 
L 603 4863 
z
" id="DejaVuSans-69" transform="scale(0.015625)"/>
       <path d="M 1172 4494 
L 1172 3500 
L 2356 3500 
L 2356 3053 
L 1172 3053 
L 1172 1153 
Q 1172 725 1289 603 
Q 1406 481 1766 481 
L 2356 481 
L 2356 0 
L 1766 0 
Q 1100 0 847 248 
Q 594 497 594 1153 
L 594 3053 
L 172 3053 
L 172 3500 
L 594 3500 
L 594 4494 
L 1172 4494 
z
" id="DejaVuSans-74" transform="scale(0.015625)"/>
       <path d="M 1959 3097 
Q 1497 3097 1228 2736 
Q 959 2375 959 1747 
Q 959 1119 1226 758 
Q 1494 397 1959 397 
Q 2419 397 2687 759 
Q 2956 1122 2956 1747 
Q 2956 2369 2687 2733 
Q 2419 3097 1959 3097 
z
M 1959 3584 
Q 2709 3584 3137 3096 
Q 3566 2609 3566 1747 
Q 3566 888 3137 398 
Q 2709 -91 1959 -91 
Q 1206 -91 779 398 
Q 353 888 353 1747 
Q 353 2609 779 3096 
Q 1206 3584 1959 3584 
z
" id="DejaVuSans-6f" transform="scale(0.015625)"/>
       <path d="M 3513 2113 
L 3513 0 
L 2938 0 
L 2938 2094 
Q 2938 2591 2744 2837 
Q 2550 3084 2163 3084 
Q 1697 3084 1428 2787 
Q 1159 2491 1159 1978 
L 1159 0 
L 581 0 
L 581 3500 
L 1159 3500 
L 1159 2956 
Q 1366 3272 1645 3428 
Q 1925 3584 2291 3584 
Q 2894 3584 3203 3211 
Q 3513 2838 3513 2113 
z
" id="DejaVuSans-6e" transform="scale(0.015625)"/>
       <path id="DejaVuSans-20" transform="scale(0.015625)"/>
       <path d="M 2375 4863 
L 2375 4384 
L 1825 4384 
Q 1516 4384 1395 4259 
Q 1275 4134 1275 3809 
L 1275 3500 
L 2222 3500 
L 2222 3053 
L 1275 3053 
L 1275 0 
L 697 0 
L 697 3053 
L 147 3053 
L 147 3500 
L 697 3500 
L 697 3744 
Q 697 4328 969 4595 
Q 1241 4863 1831 4863 
L 2375 4863 
z
" id="DejaVuSans-66" transform="scale(0.015625)"/>
       <path d="M 4122 4306 
L 4122 3641 
Q 3803 3938 3442 4084 
Q 3081 4231 2675 4231 
Q 1875 4231 1450 3742 
Q 1025 3253 1025 2328 
Q 1025 1406 1450 917 
Q 1875 428 2675 428 
Q 3081 428 3442 575 
Q 3803 722 4122 1019 
L 4122 359 
Q 3791 134 3420 21 
Q 3050 -91 2638 -91 
Q 1578 -91 968 557 
Q 359 1206 359 2328 
Q 359 3453 968 4101 
Q 1578 4750 2638 4750 
Q 3056 4750 3426 4639 
Q 3797 4528 4122 4306 
z
" id="DejaVuSans-43" transform="scale(0.015625)"/>
      </defs>
      <use transform="translate(0 0.015625)" xlink:href="#DejaVuSans-56"/>
      <use transform="translate(68.408203 0.015625)" xlink:href="#DejaVuSans-61"/>
      <use transform="translate(129.6875 0.015625)" xlink:href="#DejaVuSans-72"/>
      <use transform="translate(170.800781 0.015625)" xlink:href="#DejaVuSans-69"/>
      <use transform="translate(198.583984 0.015625)" xlink:href="#DejaVuSans-61"/>
      <use transform="translate(259.863281 0.015625)" xlink:href="#DejaVuSans-74"/>
      <use transform="translate(299.072266 0.015625)" xlink:href="#DejaVuSans-69"/>
      <use transform="translate(326.855469 0.015625)" xlink:href="#DejaVuSans-6f"/>
      <use transform="translate(388.037109 0.015625)" xlink:href="#DejaVuSans-6e"/>
      <use transform="translate(451.416016 0.015625)" xlink:href="#DejaVuSans-20"/>
      <use transform="translate(483.203125 0.015625)" xlink:href="#DejaVuSans-6f"/>
      <use transform="translate(544.384766 0.015625)" xlink:href="#DejaVuSans-66"/>
      <use transform="translate(579.589844 0.015625)" xlink:href="#DejaVuSans-20"/>
      <use transform="translate(611.376953 0.015625)" xlink:href="#DejaVuSans-Oblique-52"/>
      <use transform="translate(680.859375 -16.390625)scale(0.7)" xlink:href="#DejaVuSans-30"/>
      <use transform="translate(728.129883 0.015625)" xlink:href="#DejaVuSans-20"/>
      <use transform="translate(759.916992 0.015625)" xlink:href="#DejaVuSans-28"/>
      <use transform="translate(798.930664 0.015625)" xlink:href="#DejaVuSans-43"/>
      <use transform="translate(868.754883 0.015625)" xlink:href="#DejaVuSans-56"/>
      <use transform="translate(937.163086 0.015625)" xlink:href="#DejaVuSans-29"/>
     </g>
    </g>
   </g>
   <g id="matplotlib.axis_5">
    <g id="ytick_3">
     <g id="line2d_15">
      <g>
       <use style="stroke:#000000;stroke-width:0.8;" x="65.45" xlink:href="#m7f5be13bbf" y="284.416"/>
      </g>
     </g>
     <g id="text_13">
      <!-- 0.0 -->
      <g transform="translate(34.595313 290.114828)scale(0.15 -0.15)">
       <defs>
        <path d="M 684 794 
L 1344 794 
L 1344 0 
L 684 0 
L 684 794 
z
" id="DejaVuSans-2e" transform="scale(0.015625)"/>
       </defs>
       <use xlink:href="#DejaVuSans-30"/>
       <use x="63.623047" xlink:href="#DejaVuSans-2e"/>
       <use x="95.410156" xlink:href="#DejaVuSans-30"/>
      </g>
     </g>
    </g>
    <g id="ytick_4">
     <g id="line2d_16">
      <g>
       <use style="stroke:#000000;stroke-width:0.8;" x="65.45" xlink:href="#m7f5be13bbf" y="253.2779"/>
      </g>
     </g>
     <g id="text_14">
      <!-- 0.5 -->
      <g transform="translate(34.595313 258.976728)scale(0.15 -0.15)">
       <defs>
        <path d="M 691 4666 
L 3169 4666 
L 3169 4134 
L 1269 4134 
L 1269 2991 
Q 1406 3038 1543 3061 
Q 1681 3084 1819 3084 
Q 2600 3084 3056 2656 
Q 3513 2228 3513 1497 
Q 3513 744 3044 326 
Q 2575 -91 1722 -91 
Q 1428 -91 1123 -41 
Q 819 9 494 109 
L 494 744 
Q 775 591 1075 516 
Q 1375 441 1709 441 
Q 2250 441 2565 725 
Q 2881 1009 2881 1497 
Q 2881 1984 2565 2268 
Q 2250 2553 1709 2553 
Q 1456 2553 1204 2497 
Q 953 2441 691 2322 
L 691 4666 
z
" id="DejaVuSans-35" transform="scale(0.015625)"/>
       </defs>
       <use xlink:href="#DejaVuSans-30"/>
       <use x="63.623047" xlink:href="#DejaVuSans-2e"/>
       <use x="95.410156" xlink:href="#DejaVuSans-35"/>
      </g>
     </g>
    </g>
    <g id="ytick_5">
     <g id="line2d_17">
      <g>
       <use style="stroke:#000000;stroke-width:0.8;" x="65.45" xlink:href="#m7f5be13bbf" y="222.1398"/>
      </g>
     </g>
     <g id="text_15">
      <!-- 1.0 -->
      <g transform="translate(34.595313 227.838628)scale(0.15 -0.15)">
       <use xlink:href="#DejaVuSans-31"/>
       <use x="63.623047" xlink:href="#DejaVuSans-2e"/>
       <use x="95.410156" xlink:href="#DejaVuSans-30"/>
      </g>
     </g>
    </g>
    <g id="ytick_6">
     <g id="line2d_18">
      <g>
       <use style="stroke:#000000;stroke-width:0.8;" x="65.45" xlink:href="#m7f5be13bbf" y="191.0017"/>
      </g>
     </g>
     <g id="text_16">
      <!-- 1.5 -->
      <g transform="translate(34.595313 196.700528)scale(0.15 -0.15)">
       <use xlink:href="#DejaVuSans-31"/>
       <use x="63.623047" xlink:href="#DejaVuSans-2e"/>
       <use x="95.410156" xlink:href="#DejaVuSans-35"/>
      </g>
     </g>
    </g>
    <g id="ytick_7">
     <g id="line2d_19">
      <g>
       <use style="stroke:#000000;stroke-width:0.8;" x="65.45" xlink:href="#m7f5be13bbf" y="159.8636"/>
      </g>
     </g>
     <g id="text_17">
      <!-- 2.0 -->
      <g transform="translate(34.595313 165.562428)scale(0.15 -0.15)">
       <use xlink:href="#DejaVuSans-32"/>
       <use x="63.623047" xlink:href="#DejaVuSans-2e"/>
       <use x="95.410156" xlink:href="#DejaVuSans-30"/>
      </g>
     </g>
    </g>
    <g id="ytick_8">
     <g id="line2d_20">
      <g>
       <use style="stroke:#000000;stroke-width:0.8;" x="65.45" xlink:href="#m7f5be13bbf" y="128.7255"/>
      </g>
     </g>
     <g id="text_18">
      <!-- 2.5 -->
      <g transform="translate(34.595313 134.424328)scale(0.15 -0.15)">
       <use xlink:href="#DejaVuSans-32"/>
       <use x="63.623047" xlink:href="#DejaVuSans-2e"/>
       <use x="95.410156" xlink:href="#DejaVuSans-35"/>
      </g>
     </g>
    </g>
    <g id="ytick_9">
     <g id="line2d_21">
      <g>
       <use style="stroke:#000000;stroke-width:0.8;" x="65.45" xlink:href="#m7f5be13bbf" y="97.5874"/>
      </g>
     </g>
     <g id="text_19">
      <!-- 3.0 -->
      <g transform="translate(34.595313 103.286228)scale(0.15 -0.15)">
       <use xlink:href="#DejaVuSans-33"/>
       <use x="63.623047" xlink:href="#DejaVuSans-2e"/>
       <use x="95.410156" xlink:href="#DejaVuSans-30"/>
      </g>
     </g>
    </g>
    <g id="ytick_10">
     <g id="line2d_22">
      <g>
       <use style="stroke:#000000;stroke-width:0.8;" x="65.45" xlink:href="#m7f5be13bbf" y="66.4493"/>
      </g>
     </g>
     <g id="text_20">
      <!-- 3.5 -->
      <g transform="translate(34.595313 72.148128)scale(0.15 -0.15)">
       <use xlink:href="#DejaVuSans-33"/>
       <use x="63.623047" xlink:href="#DejaVuSans-2e"/>
       <use x="95.410156" xlink:href="#DejaVuSans-35"/>
      </g>
     </g>
    </g>
    <g id="ytick_11">
     <g id="line2d_23">
      <g>
       <use style="stroke:#000000;stroke-width:0.8;" x="65.45" xlink:href="#m7f5be13bbf" y="35.3112"/>
      </g>
     </g>
     <g id="text_21">
      <!-- 4.0 -->
      <g transform="translate(34.595313 41.010028)scale(0.15 -0.15)">
       <use xlink:href="#DejaVuSans-34"/>
       <use x="63.623047" xlink:href="#DejaVuSans-2e"/>
       <use x="95.410156" xlink:href="#DejaVuSans-30"/>
      </g>
     </g>
    </g>
    <g id="text_22">
     <!-- Mutual Information (Bits) -->
     <g transform="translate(27.475781 253.571413)rotate(-90)scale(0.15 -0.15)">
      <defs>
       <path d="M 628 4666 
L 1569 4666 
L 2759 1491 
L 3956 4666 
L 4897 4666 
L 4897 0 
L 4281 0 
L 4281 4097 
L 3078 897 
L 2444 897 
L 1241 4097 
L 1241 0 
L 628 0 
L 628 4666 
z
" id="DejaVuSans-4d" transform="scale(0.015625)"/>
       <path d="M 544 1381 
L 544 3500 
L 1119 3500 
L 1119 1403 
Q 1119 906 1312 657 
Q 1506 409 1894 409 
Q 2359 409 2629 706 
Q 2900 1003 2900 1516 
L 2900 3500 
L 3475 3500 
L 3475 0 
L 2900 0 
L 2900 538 
Q 2691 219 2414 64 
Q 2138 -91 1772 -91 
Q 1169 -91 856 284 
Q 544 659 544 1381 
z
M 1991 3584 
L 1991 3584 
z
" id="DejaVuSans-75" transform="scale(0.015625)"/>
       <path d="M 603 4863 
L 1178 4863 
L 1178 0 
L 603 0 
L 603 4863 
z
" id="DejaVuSans-6c" transform="scale(0.015625)"/>
       <path d="M 628 4666 
L 1259 4666 
L 1259 0 
L 628 0 
L 628 4666 
z
" id="DejaVuSans-49" transform="scale(0.015625)"/>
       <path d="M 3328 2828 
Q 3544 3216 3844 3400 
Q 4144 3584 4550 3584 
Q 5097 3584 5394 3201 
Q 5691 2819 5691 2113 
L 5691 0 
L 5113 0 
L 5113 2094 
Q 5113 2597 4934 2840 
Q 4756 3084 4391 3084 
Q 3944 3084 3684 2787 
Q 3425 2491 3425 1978 
L 3425 0 
L 2847 0 
L 2847 2094 
Q 2847 2600 2669 2842 
Q 2491 3084 2119 3084 
Q 1678 3084 1418 2786 
Q 1159 2488 1159 1978 
L 1159 0 
L 581 0 
L 581 3500 
L 1159 3500 
L 1159 2956 
Q 1356 3278 1631 3431 
Q 1906 3584 2284 3584 
Q 2666 3584 2933 3390 
Q 3200 3197 3328 2828 
z
" id="DejaVuSans-6d" transform="scale(0.015625)"/>
       <path d="M 1259 2228 
L 1259 519 
L 2272 519 
Q 2781 519 3026 730 
Q 3272 941 3272 1375 
Q 3272 1813 3026 2020 
Q 2781 2228 2272 2228 
L 1259 2228 
z
M 1259 4147 
L 1259 2741 
L 2194 2741 
Q 2656 2741 2882 2914 
Q 3109 3088 3109 3444 
Q 3109 3797 2882 3972 
Q 2656 4147 2194 4147 
L 1259 4147 
z
M 628 4666 
L 2241 4666 
Q 2963 4666 3353 4366 
Q 3744 4066 3744 3513 
Q 3744 3084 3544 2831 
Q 3344 2578 2956 2516 
Q 3422 2416 3680 2098 
Q 3938 1781 3938 1306 
Q 3938 681 3513 340 
Q 3088 0 2303 0 
L 628 0 
L 628 4666 
z
" id="DejaVuSans-42" transform="scale(0.015625)"/>
       <path d="M 2834 3397 
L 2834 2853 
Q 2591 2978 2328 3040 
Q 2066 3103 1784 3103 
Q 1356 3103 1142 2972 
Q 928 2841 928 2578 
Q 928 2378 1081 2264 
Q 1234 2150 1697 2047 
L 1894 2003 
Q 2506 1872 2764 1633 
Q 3022 1394 3022 966 
Q 3022 478 2636 193 
Q 2250 -91 1575 -91 
Q 1294 -91 989 -36 
Q 684 19 347 128 
L 347 722 
Q 666 556 975 473 
Q 1284 391 1588 391 
Q 1994 391 2212 530 
Q 2431 669 2431 922 
Q 2431 1156 2273 1281 
Q 2116 1406 1581 1522 
L 1381 1569 
Q 847 1681 609 1914 
Q 372 2147 372 2553 
Q 372 3047 722 3315 
Q 1072 3584 1716 3584 
Q 2034 3584 2315 3537 
Q 2597 3491 2834 3397 
z
" id="DejaVuSans-73" transform="scale(0.015625)"/>
      </defs>
      <use xlink:href="#DejaVuSans-4d"/>
      <use x="86.279297" xlink:href="#DejaVuSans-75"/>
      <use x="149.658203" xlink:href="#DejaVuSans-74"/>
      <use x="188.867188" xlink:href="#DejaVuSans-75"/>
      <use x="252.246094" xlink:href="#DejaVuSans-61"/>
      <use x="313.525391" xlink:href="#DejaVuSans-6c"/>
      <use x="341.308594" xlink:href="#DejaVuSans-20"/>
      <use x="373.095703" xlink:href="#DejaVuSans-49"/>
      <use x="402.587891" xlink:href="#DejaVuSans-6e"/>
      <use x="465.966797" xlink:href="#DejaVuSans-66"/>
      <use x="501.171875" xlink:href="#DejaVuSans-6f"/>
      <use x="562.353516" xlink:href="#DejaVuSans-72"/>
      <use x="601.716797" xlink:href="#DejaVuSans-6d"/>
      <use x="699.128906" xlink:href="#DejaVuSans-61"/>
      <use x="760.408203" xlink:href="#DejaVuSans-74"/>
      <use x="799.617188" xlink:href="#DejaVuSans-69"/>
      <use x="827.400391" xlink:href="#DejaVuSans-6f"/>
      <use x="888.582031" xlink:href="#DejaVuSans-6e"/>
      <use x="951.960938" xlink:href="#DejaVuSans-20"/>
      <use x="983.748047" xlink:href="#DejaVuSans-28"/>
      <use x="1022.761719" xlink:href="#DejaVuSans-42"/>
      <use x="1091.365234" xlink:href="#DejaVuSans-69"/>
      <use x="1119.148438" xlink:href="#DejaVuSans-74"/>
      <use x="1158.357422" xlink:href="#DejaVuSans-73"/>
      <use x="1210.457031" xlink:href="#DejaVuSans-29"/>
     </g>
    </g>
   </g>
   <g id="line2d_24">
    <path clip-path="url(#peb349ef820)" d="M 65.45 97.200377 
L 72.710579 97.201568 
L 79.971157 97.20404 
L 87.231736 97.198532 
L 94.492314 97.213398 
L 101.752893 97.207281 
L 109.013472 97.20384 
L 116.27405 97.209047 
L 123.534629 97.216348 
L 130.795208 97.230169 
L 138.055786 97.209066 
L 145.316365 97.22174 
L 152.576943 97.244159 
L 159.837522 97.236365 
L 167.098101 97.276429 
L 174.358679 97.279858 
L 181.619258 97.284152 
L 188.879837 97.279389 
L 196.140415 97.274252 
L 203.400994 97.30048 
L 210.661572 97.281657 
L 217.922151 97.337453 
L 225.18273 97.316544 
L 232.443308 97.366048 
L 239.703887 97.370012 
L 246.964465 97.428143 
L 254.225044 97.455272 
L 261.485623 97.41318 
L 268.746201 97.49145 
L 276.00678 97.514699 
L 283.267359 97.509649 
L 290.527937 97.539469 
L 297.788516 97.604839 
L 305.049094 97.636434 
L 312.309673 97.692701 
L 319.570252 97.764263 
L 326.83083 97.860917 
L 334.091409 97.947759 
L 341.351988 97.996635 
L 348.612566 98.035213 
L 355.873145 98.050097 
L 363.133723 98.210229 
L 370.394302 98.312498 
L 377.654881 98.450376 
L 384.915459 98.47608 
L 392.176038 98.613274 
L 399.436616 98.723978 
L 406.697195 98.932188 
L 413.957774 99.16878 
L 421.218352 99.397207 
" style="fill:none;stroke:#000000;stroke-linecap:square;stroke-width:1.5;"/>
   </g>
   <g id="line2d_25">
    <path clip-path="url(#peb349ef820)" d="M 65.45 103.430029 
L 72.710579 103.998323 
L 79.971157 104.602075 
L 87.231736 105.253509 
L 94.492314 105.933086 
L 101.752893 106.674695 
L 109.013472 107.510858 
L 116.27405 108.352662 
L 123.534629 109.268101 
L 130.795208 110.218437 
L 138.055786 111.297153 
L 145.316365 112.437245 
L 152.576943 113.601862 
L 159.837522 114.84199 
L 167.098101 116.154862 
L 174.358679 117.55268 
L 181.619258 119.065328 
L 188.879837 120.582815 
L 196.140415 122.205113 
L 203.400994 123.859509 
L 210.661572 125.70933 
L 217.922151 127.507654 
L 225.18273 129.432712 
L 232.443308 131.444999 
L 239.703887 133.492004 
L 246.964465 135.664604 
L 254.225044 137.874147 
L 261.485623 140.186934 
L 268.746201 142.463653 
L 276.00678 144.919238 
L 283.267359 147.344255 
L 290.527937 149.832134 
L 297.788516 152.496024 
L 305.049094 155.076622 
L 312.309673 157.718797 
L 319.570252 160.481274 
L 326.83083 163.208791 
L 334.091409 166.062137 
L 341.351988 168.793391 
L 348.612566 171.67625 
L 355.873145 174.455029 
L 363.133723 177.442127 
L 370.394302 180.399036 
L 377.654881 183.293149 
L 384.915459 186.279292 
L 392.176038 189.263614 
L 399.436616 192.231746 
L 406.697195 195.106425 
L 413.957774 198.178597 
L 421.218352 201.174419 
" style="fill:none;stroke:#0000ff;stroke-dasharray:5.55,2.4;stroke-dashoffset:0;stroke-width:1.5;"/>
   </g>
   <g id="patch_128">
    <path d="M 65.45 284.416 
L 65.45 35.3112 
" style="fill:none;stroke:#000000;stroke-linecap:square;stroke-linejoin:miter;stroke-width:0.8;"/>
   </g>
   <g id="patch_129">
    <path d="M 65.45 284.416 
L 421.218352 284.416 
" style="fill:none;stroke:#000000;stroke-linecap:square;stroke-linejoin:miter;stroke-width:0.8;"/>
   </g>
   <g id="legend_1">
    <g id="line2d_26">
     <path d="M 88.984176 30.05072 
L 118.984176 30.05072 
" style="fill:none;stroke:#000000;stroke-linecap:square;stroke-width:1.5;"/>
    </g>
    <g id="line2d_27"/>
    <g id="text_23">
     <!-- $\mathcal{I}_{Cee}$ -->
     <g transform="translate(130.984176 35.30072)scale(0.15 -0.15)">
      <defs>
       <path d="M 4447 4306 
L 4319 3641 
Q 4019 3944 3683 4091 
Q 3347 4238 2956 4238 
Q 2422 4238 2017 3981 
Q 1613 3725 1319 3200 
Q 1131 2863 1032 2486 
Q 934 2109 934 1728 
Q 934 1091 1264 756 
Q 1594 422 2222 422 
Q 2656 422 3056 561 
Q 3456 700 3834 978 
L 3688 231 
Q 3316 72 2936 -9 
Q 2556 -91 2175 -91 
Q 1278 -91 773 396 
Q 269 884 269 1753 
Q 269 2309 461 2846 
Q 653 3384 1013 3828 
Q 1394 4300 1883 4525 
Q 2372 4750 3022 4750 
Q 3422 4750 3780 4639 
Q 4138 4528 4447 4306 
z
" id="DejaVuSans-Oblique-43" transform="scale(0.015625)"/>
       <path d="M 3078 2063 
Q 3088 2113 3092 2166 
Q 3097 2219 3097 2272 
Q 3097 2653 2873 2875 
Q 2650 3097 2266 3097 
Q 1838 3097 1509 2826 
Q 1181 2556 1013 2059 
L 3078 2063 
z
M 3578 1613 
L 903 1613 
Q 884 1494 878 1425 
Q 872 1356 872 1306 
Q 872 872 1139 634 
Q 1406 397 1894 397 
Q 2269 397 2603 481 
Q 2938 566 3225 728 
L 3116 159 
Q 2806 34 2476 -28 
Q 2147 -91 1806 -91 
Q 1078 -91 686 257 
Q 294 606 294 1247 
Q 294 1794 489 2264 
Q 684 2734 1063 3103 
Q 1306 3334 1642 3459 
Q 1978 3584 2356 3584 
Q 2950 3584 3301 3228 
Q 3653 2872 3653 2272 
Q 3653 2128 3634 1964 
Q 3616 1800 3578 1613 
z
" id="DejaVuSans-Oblique-65" transform="scale(0.015625)"/>
      </defs>
      <use transform="translate(0 0.796875)" xlink:href="#STIXNonUnicode-Italic-e235"/>
      <use transform="translate(58.457016 -15.609375)scale(0.7)" xlink:href="#DejaVuSans-Oblique-43"/>
      <use transform="translate(107.333969 -15.609375)scale(0.7)" xlink:href="#DejaVuSans-Oblique-65"/>
      <use transform="translate(150.400375 -15.609375)scale(0.7)" xlink:href="#DejaVuSans-Oblique-65"/>
     </g>
    </g>
    <g id="line2d_28">
     <path d="M 190.534176 30.05072 
L 220.534176 30.05072 
" style="fill:none;stroke:#0000ff;stroke-dasharray:5.55,2.4;stroke-dashoffset:0;stroke-width:1.5;"/>
    </g>
    <g id="line2d_29"/>
    <g id="text_24">
     <!-- $\mathcal{I}_{CSA}$ -->
     <g transform="translate(232.534176 35.30072)scale(0.15 -0.15)">
      <defs>
       <path d="M 3859 4513 
L 3738 3897 
Q 3422 4066 3111 4152 
Q 2800 4238 2509 4238 
Q 1944 4238 1609 3991 
Q 1275 3744 1275 3334 
Q 1275 3109 1398 2989 
Q 1522 2869 2034 2731 
L 2413 2638 
Q 3053 2472 3303 2217 
Q 3553 1963 3553 1503 
Q 3553 797 2998 353 
Q 2444 -91 1538 -91 
Q 1166 -91 791 -17 
Q 416 56 38 206 
L 166 856 
Q 513 641 861 531 
Q 1209 422 1556 422 
Q 2147 422 2503 684 
Q 2859 947 2859 1369 
Q 2859 1650 2717 1795 
Q 2575 1941 2106 2059 
L 1728 2156 
Q 1081 2325 845 2545 
Q 609 2766 609 3163 
Q 609 3859 1145 4304 
Q 1681 4750 2541 4750 
Q 2875 4750 3203 4690 
Q 3531 4631 3859 4513 
z
" id="DejaVuSans-Oblique-53" transform="scale(0.015625)"/>
       <path d="M 2356 4666 
L 3072 4666 
L 3938 0 
L 3278 0 
L 3084 1197 
L 984 1197 
L 325 0 
L -341 0 
L 2356 4666 
z
M 2584 4044 
L 1275 1722 
L 2988 1722 
L 2584 4044 
z
" id="DejaVuSans-Oblique-41" transform="scale(0.015625)"/>
      </defs>
      <use transform="translate(0 0.796875)" xlink:href="#STIXNonUnicode-Italic-e235"/>
      <use transform="translate(58.457016 -15.609375)scale(0.7)" xlink:href="#DejaVuSans-Oblique-43"/>
      <use transform="translate(107.333969 -15.609375)scale(0.7)" xlink:href="#DejaVuSans-Oblique-53"/>
      <use transform="translate(151.767563 -15.609375)scale(0.7)" xlink:href="#DejaVuSans-Oblique-41"/>
     </g>
    </g>
    <g id="patch_130">
     <path d="M 292.984176 35.30072 
L 322.984176 35.30072 
L 322.984176 24.80072 
L 292.984176 24.80072 
z
" style="fill:#99ccff;stroke:#99ccff;stroke-linejoin:miter;"/>
    </g>
    <g id="text_25">
     <!-- $p_{CeeMI}(\mathcal{I})$ -->
     <g transform="translate(334.984176 35.30072)scale(0.15 -0.15)">
      <defs>
       <path d="M 3175 2156 
Q 3175 2616 2975 2859 
Q 2775 3103 2400 3103 
Q 2144 3103 1911 2972 
Q 1678 2841 1497 2591 
Q 1319 2344 1212 1994 
Q 1106 1644 1106 1300 
Q 1106 863 1306 627 
Q 1506 391 1875 391 
Q 2147 391 2380 519 
Q 2613 647 2778 891 
Q 2956 1147 3065 1494 
Q 3175 1841 3175 2156 
z
M 1394 2969 
Q 1625 3272 1939 3428 
Q 2253 3584 2638 3584 
Q 3175 3584 3472 3232 
Q 3769 2881 3769 2247 
Q 3769 1728 3584 1258 
Q 3400 788 3053 416 
Q 2822 169 2531 39 
Q 2241 -91 1919 -91 
Q 1547 -91 1294 64 
Q 1041 219 916 525 
L 556 -1331 
L -19 -1331 
L 922 3500 
L 1497 3500 
L 1394 2969 
z
" id="DejaVuSans-Oblique-70" transform="scale(0.015625)"/>
       <path d="M 1081 4666 
L 2028 4666 
L 2572 1522 
L 4378 4666 
L 5350 4666 
L 4441 0 
L 3828 0 
L 4622 4091 
L 2791 897 
L 2175 897 
L 1581 4103 
L 788 0 
L 172 0 
L 1081 4666 
z
" id="DejaVuSans-Oblique-4d" transform="scale(0.015625)"/>
       <path d="M 1081 4666 
L 1716 4666 
L 806 0 
L 172 0 
L 1081 4666 
z
" id="DejaVuSans-Oblique-49" transform="scale(0.015625)"/>
      </defs>
      <use transform="translate(0 0.125)" xlink:href="#DejaVuSans-Oblique-70"/>
      <use transform="translate(63.476562 -16.28125)scale(0.7)" xlink:href="#DejaVuSans-Oblique-43"/>
      <use transform="translate(112.353516 -16.28125)scale(0.7)" xlink:href="#DejaVuSans-Oblique-65"/>
      <use transform="translate(155.419922 -16.28125)scale(0.7)" xlink:href="#DejaVuSans-Oblique-65"/>
      <use transform="translate(198.486328 -16.28125)scale(0.7)" xlink:href="#DejaVuSans-Oblique-4d"/>
      <use transform="translate(258.881836 -16.28125)scale(0.7)" xlink:href="#DejaVuSans-Oblique-49"/>
      <use transform="translate(282.260742 0.125)" xlink:href="#DejaVuSans-28"/>
      <use transform="translate(321.274414 0.125)" xlink:href="#STIXNonUnicode-Italic-e235"/>
      <use transform="translate(378.774399 0.125)" xlink:href="#DejaVuSans-29"/>
     </g>
    </g>
   </g>
  </g>
 </g>
 <defs>
  <clipPath id="p60ca97fc8d">
   <rect height="74.73144" width="106.730506" x="118.815253" y="159.8636"/>
  </clipPath>
  <clipPath id="peb349ef820">
   <rect height="249.1048" width="355.768352" x="65.45" y="35.3112"/>
  </clipPath>
 </defs>
</svg>
