<?xml version="1.0" encoding="utf-8" standalone="no"?>
<!DOCTYPE svg PUBLIC "-//W3C//DTD SVG 1.1//EN"
  "http://www.w3.org/Graphics/SVG/1.1/DTD/svg11.dtd">
<svg height="345.6pt" version="1.1" viewBox="0 0 460.8 345.6" width="460.8pt" xmlns="http://www.w3.org/2000/svg" xmlns:xlink="http://www.w3.org/1999/xlink">
 <metadata>
  <rdf:RDF xmlns:cc="http://creativecommons.org/ns#" xmlns:dc="http://purl.org/dc/elements/1.1/" xmlns:rdf="http://www.w3.org/1999/02/22-rdf-syntax-ns#">
   <cc:Work>
    <dc:type rdf:resource="http://purl.org/dc/dcmitype/StillImage"/>
    <dc:date>2023-03-16T20:34:20.266950</dc:date>
    <dc:format>image/svg+xml</dc:format>
    <dc:creator>
     <cc:Agent>
      <dc:title>Matplotlib v3.4.3, https://matplotlib.org/</dc:title>
     </cc:Agent>
    </dc:creator>
   </cc:Work>
  </rdf:RDF>
 </metadata>
 <defs>
  <style type="text/css">*{stroke-linecap:butt;stroke-linejoin:round;}</style>
 </defs>
 <g id="figure_1">
  <g id="patch_1">
   <path d="M 0 345.6 
L 460.8 345.6 
L 460.8 0 
L 0 0 
z
" style="fill:#ffffff;"/>
  </g>
  <g id="axes_1">
   <g id="patch_2">
    <path d="M 65.45 289.6 
L 444.6 289.6 
L 444.6 16.2 
L 65.45 16.2 
z
" style="fill:#ffffff;"/>
   </g>
   <g id="patch_3">
    <path clip-path="url(#pda59488178)" d="M 82.684091 289.6 
L 96.471364 289.6 
L 96.471364 289.546035 
L 82.684091 289.546035 
z
" style="fill:#0096ff;opacity:0.55;"/>
   </g>
   <g id="patch_4">
    <path clip-path="url(#pda59488178)" d="M 96.471364 289.6 
L 110.258636 289.6 
L 110.258636 289.49207 
L 96.471364 289.49207 
z
" style="fill:#0096ff;opacity:0.55;"/>
   </g>
   <g id="patch_5">
    <path clip-path="url(#pda59488178)" d="M 110.258636 289.6 
L 124.045909 289.6 
L 124.045909 289.114315 
L 110.258636 289.114315 
z
" style="fill:#0096ff;opacity:0.55;"/>
   </g>
   <g id="patch_6">
    <path clip-path="url(#pda59488178)" d="M 124.045909 289.6 
L 137.833182 289.6 
L 137.833182 288.898455 
L 124.045909 288.898455 
z
" style="fill:#0096ff;opacity:0.55;"/>
   </g>
   <g id="patch_7">
    <path clip-path="url(#pda59488178)" d="M 137.833182 289.6 
L 151.620455 289.6 
L 151.620455 288.898455 
L 137.833182 288.898455 
z
" style="fill:#0096ff;opacity:0.55;"/>
   </g>
   <g id="patch_8">
    <path clip-path="url(#pda59488178)" d="M 151.620455 289.6 
L 165.407727 289.6 
L 165.407727 289.114315 
L 151.620455 289.114315 
z
" style="fill:#0096ff;opacity:0.55;"/>
   </g>
   <g id="patch_9">
    <path clip-path="url(#pda59488178)" d="M 165.407727 289.6 
L 179.195 289.6 
L 179.195 288.736561 
L 165.407727 288.736561 
z
" style="fill:#0096ff;opacity:0.55;"/>
   </g>
   <g id="patch_10">
    <path clip-path="url(#pda59488178)" d="M 179.195 289.6 
L 192.982273 289.6 
L 192.982273 288.358806 
L 179.195 288.358806 
z
" style="fill:#0096ff;opacity:0.55;"/>
   </g>
   <g id="patch_11">
    <path clip-path="url(#pda59488178)" d="M 192.982273 289.6 
L 206.769545 289.6 
L 206.769545 288.736561 
L 192.982273 288.736561 
z
" style="fill:#0096ff;opacity:0.55;"/>
   </g>
   <g id="patch_12">
    <path clip-path="url(#pda59488178)" d="M 206.769545 289.6 
L 220.556818 289.6 
L 220.556818 288.520701 
L 206.769545 288.520701 
z
" style="fill:#0096ff;opacity:0.55;"/>
   </g>
   <g id="patch_13">
    <path clip-path="url(#pda59488178)" d="M 220.556818 289.6 
L 234.344091 289.6 
L 234.344091 287.279507 
L 220.556818 287.279507 
z
" style="fill:#0096ff;opacity:0.55;"/>
   </g>
   <g id="patch_14">
    <path clip-path="url(#pda59488178)" d="M 234.344091 289.6 
L 248.131364 289.6 
L 248.131364 285.552628 
L 234.344091 285.552628 
z
" style="fill:#0096ff;opacity:0.55;"/>
   </g>
   <g id="patch_15">
    <path clip-path="url(#pda59488178)" d="M 248.131364 289.6 
L 261.918636 289.6 
L 261.918636 283.933679 
L 248.131364 283.933679 
z
" style="fill:#0096ff;opacity:0.55;"/>
   </g>
   <g id="patch_16">
    <path clip-path="url(#pda59488178)" d="M 261.918636 289.6 
L 275.705909 289.6 
L 275.705909 283.933679 
L 261.918636 283.933679 
z
" style="fill:#0096ff;opacity:0.55;"/>
   </g>
   <g id="patch_17">
    <path clip-path="url(#pda59488178)" d="M 275.705909 289.6 
L 289.493182 289.6 
L 289.493182 283.717819 
L 275.705909 283.717819 
z
" style="fill:#0096ff;opacity:0.55;"/>
   </g>
   <g id="patch_18">
    <path clip-path="url(#pda59488178)" d="M 289.493182 289.6 
L 303.280455 289.6 
L 303.280455 284.095574 
L 289.493182 284.095574 
z
" style="fill:#0096ff;opacity:0.55;"/>
   </g>
   <g id="patch_19">
    <path clip-path="url(#pda59488178)" d="M 303.280455 289.6 
L 317.067727 289.6 
L 317.067727 283.825749 
L 303.280455 283.825749 
z
" style="fill:#0096ff;opacity:0.55;"/>
   </g>
   <g id="patch_20">
    <path clip-path="url(#pda59488178)" d="M 317.067727 289.6 
L 330.855 289.6 
L 330.855 282.53059 
L 317.067727 282.53059 
z
" style="fill:#0096ff;opacity:0.55;"/>
   </g>
   <g id="patch_21">
    <path clip-path="url(#pda59488178)" d="M 330.855 289.6 
L 344.642273 289.6 
L 344.642273 280.210096 
L 330.855 280.210096 
z
" style="fill:#0096ff;opacity:0.55;"/>
   </g>
   <g id="patch_22">
    <path clip-path="url(#pda59488178)" d="M 344.642273 289.6 
L 358.429545 289.6 
L 358.429545 279.940271 
L 344.642273 279.940271 
z
" style="fill:#0096ff;opacity:0.55;"/>
   </g>
   <g id="patch_23">
    <path clip-path="url(#pda59488178)" d="M 358.429545 289.6 
L 372.216818 289.6 
L 372.216818 279.778377 
L 358.429545 279.778377 
z
" style="fill:#0096ff;opacity:0.55;"/>
   </g>
   <g id="patch_24">
    <path clip-path="url(#pda59488178)" d="M 372.216818 289.6 
L 386.004091 289.6 
L 386.004091 278.213393 
L 372.216818 278.213393 
z
" style="fill:#0096ff;opacity:0.55;"/>
   </g>
   <g id="patch_25">
    <path clip-path="url(#pda59488178)" d="M 386.004091 289.6 
L 399.791364 289.6 
L 399.791364 277.619778 
L 386.004091 277.619778 
z
" style="fill:#0096ff;opacity:0.55;"/>
   </g>
   <g id="patch_26">
    <path clip-path="url(#pda59488178)" d="M 399.791364 289.6 
L 413.578636 289.6 
L 413.578636 272.978791 
L 399.791364 272.978791 
z
" style="fill:#0096ff;opacity:0.55;"/>
   </g>
   <g id="patch_27">
    <path clip-path="url(#pda59488178)" d="M 413.578636 289.6 
L 427.365909 289.6 
L 427.365909 29.219048 
L 413.578636 29.219048 
z
" style="fill:#0096ff;opacity:0.55;"/>
   </g>
   <g id="matplotlib.axis_1">
    <g id="xtick_1">
     <g id="line2d_1">
      <defs>
       <path d="M 0 0 
L 0 3.5 
" id="m96b99343ce" style="stroke:#000000;stroke-width:0.8;"/>
      </defs>
      <g>
       <use style="stroke:#000000;stroke-width:0.8;" x="114.173961" xlink:href="#m96b99343ce" y="289.6"/>
      </g>
     </g>
     <g id="text_1">
      <!-- 1.75 -->
      <g transform="translate(97.474742 307.997656)scale(0.15 -0.15)">
       <defs>
        <path d="M 794 531 
L 1825 531 
L 1825 4091 
L 703 3866 
L 703 4441 
L 1819 4666 
L 2450 4666 
L 2450 531 
L 3481 531 
L 3481 0 
L 794 0 
L 794 531 
z
" id="DejaVuSans-31" transform="scale(0.015625)"/>
        <path d="M 684 794 
L 1344 794 
L 1344 0 
L 684 0 
L 684 794 
z
" id="DejaVuSans-2e" transform="scale(0.015625)"/>
        <path d="M 525 4666 
L 3525 4666 
L 3525 4397 
L 1831 0 
L 1172 0 
L 2766 4134 
L 525 4134 
L 525 4666 
z
" id="DejaVuSans-37" transform="scale(0.015625)"/>
        <path d="M 691 4666 
L 3169 4666 
L 3169 4134 
L 1269 4134 
L 1269 2991 
Q 1406 3038 1543 3061 
Q 1681 3084 1819 3084 
Q 2600 3084 3056 2656 
Q 3513 2228 3513 1497 
Q 3513 744 3044 326 
Q 2575 -91 1722 -91 
Q 1428 -91 1123 -41 
Q 819 9 494 109 
L 494 744 
Q 775 591 1075 516 
Q 1375 441 1709 441 
Q 2250 441 2565 725 
Q 2881 1009 2881 1497 
Q 2881 1984 2565 2268 
Q 2250 2553 1709 2553 
Q 1456 2553 1204 2497 
Q 953 2441 691 2322 
L 691 4666 
z
" id="DejaVuSans-35" transform="scale(0.015625)"/>
       </defs>
       <use xlink:href="#DejaVuSans-31"/>
       <use x="63.623047" xlink:href="#DejaVuSans-2e"/>
       <use x="95.410156" xlink:href="#DejaVuSans-37"/>
       <use x="159.033203" xlink:href="#DejaVuSans-35"/>
      </g>
     </g>
    </g>
    <g id="xtick_2">
     <g id="line2d_2">
      <g>
       <use style="stroke:#000000;stroke-width:0.8;" x="164.351109" xlink:href="#m96b99343ce" y="289.6"/>
      </g>
     </g>
     <g id="text_2">
      <!-- 2.00 -->
      <g transform="translate(147.651891 307.997656)scale(0.15 -0.15)">
       <defs>
        <path d="M 1228 531 
L 3431 531 
L 3431 0 
L 469 0 
L 469 531 
Q 828 903 1448 1529 
Q 2069 2156 2228 2338 
Q 2531 2678 2651 2914 
Q 2772 3150 2772 3378 
Q 2772 3750 2511 3984 
Q 2250 4219 1831 4219 
Q 1534 4219 1204 4116 
Q 875 4013 500 3803 
L 500 4441 
Q 881 4594 1212 4672 
Q 1544 4750 1819 4750 
Q 2544 4750 2975 4387 
Q 3406 4025 3406 3419 
Q 3406 3131 3298 2873 
Q 3191 2616 2906 2266 
Q 2828 2175 2409 1742 
Q 1991 1309 1228 531 
z
" id="DejaVuSans-32" transform="scale(0.015625)"/>
        <path d="M 2034 4250 
Q 1547 4250 1301 3770 
Q 1056 3291 1056 2328 
Q 1056 1369 1301 889 
Q 1547 409 2034 409 
Q 2525 409 2770 889 
Q 3016 1369 3016 2328 
Q 3016 3291 2770 3770 
Q 2525 4250 2034 4250 
z
M 2034 4750 
Q 2819 4750 3233 4129 
Q 3647 3509 3647 2328 
Q 3647 1150 3233 529 
Q 2819 -91 2034 -91 
Q 1250 -91 836 529 
Q 422 1150 422 2328 
Q 422 3509 836 4129 
Q 1250 4750 2034 4750 
z
" id="DejaVuSans-30" transform="scale(0.015625)"/>
       </defs>
       <use xlink:href="#DejaVuSans-32"/>
       <use x="63.623047" xlink:href="#DejaVuSans-2e"/>
       <use x="95.410156" xlink:href="#DejaVuSans-30"/>
       <use x="159.033203" xlink:href="#DejaVuSans-30"/>
      </g>
     </g>
    </g>
    <g id="xtick_3">
     <g id="line2d_3">
      <g>
       <use style="stroke:#000000;stroke-width:0.8;" x="214.528258" xlink:href="#m96b99343ce" y="289.6"/>
      </g>
     </g>
     <g id="text_3">
      <!-- 2.25 -->
      <g transform="translate(197.829039 307.997656)scale(0.15 -0.15)">
       <use xlink:href="#DejaVuSans-32"/>
       <use x="63.623047" xlink:href="#DejaVuSans-2e"/>
       <use x="95.410156" xlink:href="#DejaVuSans-32"/>
       <use x="159.033203" xlink:href="#DejaVuSans-35"/>
      </g>
     </g>
    </g>
    <g id="xtick_4">
     <g id="line2d_4">
      <g>
       <use style="stroke:#000000;stroke-width:0.8;" x="264.705406" xlink:href="#m96b99343ce" y="289.6"/>
      </g>
     </g>
     <g id="text_4">
      <!-- 2.50 -->
      <g transform="translate(248.006187 307.997656)scale(0.15 -0.15)">
       <use xlink:href="#DejaVuSans-32"/>
       <use x="63.623047" xlink:href="#DejaVuSans-2e"/>
       <use x="95.410156" xlink:href="#DejaVuSans-35"/>
       <use x="159.033203" xlink:href="#DejaVuSans-30"/>
      </g>
     </g>
    </g>
    <g id="xtick_5">
     <g id="line2d_5">
      <g>
       <use style="stroke:#000000;stroke-width:0.8;" x="314.882554" xlink:href="#m96b99343ce" y="289.6"/>
      </g>
     </g>
     <g id="text_5">
      <!-- 2.75 -->
      <g transform="translate(298.183335 307.997656)scale(0.15 -0.15)">
       <use xlink:href="#DejaVuSans-32"/>
       <use x="63.623047" xlink:href="#DejaVuSans-2e"/>
       <use x="95.410156" xlink:href="#DejaVuSans-37"/>
       <use x="159.033203" xlink:href="#DejaVuSans-35"/>
      </g>
     </g>
    </g>
    <g id="xtick_6">
     <g id="line2d_6">
      <g>
       <use style="stroke:#000000;stroke-width:0.8;" x="365.059703" xlink:href="#m96b99343ce" y="289.6"/>
      </g>
     </g>
     <g id="text_6">
      <!-- 3.00 -->
      <g transform="translate(348.360484 307.997656)scale(0.15 -0.15)">
       <defs>
        <path d="M 2597 2516 
Q 3050 2419 3304 2112 
Q 3559 1806 3559 1356 
Q 3559 666 3084 287 
Q 2609 -91 1734 -91 
Q 1441 -91 1130 -33 
Q 819 25 488 141 
L 488 750 
Q 750 597 1062 519 
Q 1375 441 1716 441 
Q 2309 441 2620 675 
Q 2931 909 2931 1356 
Q 2931 1769 2642 2001 
Q 2353 2234 1838 2234 
L 1294 2234 
L 1294 2753 
L 1863 2753 
Q 2328 2753 2575 2939 
Q 2822 3125 2822 3475 
Q 2822 3834 2567 4026 
Q 2313 4219 1838 4219 
Q 1578 4219 1281 4162 
Q 984 4106 628 3988 
L 628 4550 
Q 988 4650 1302 4700 
Q 1616 4750 1894 4750 
Q 2613 4750 3031 4423 
Q 3450 4097 3450 3541 
Q 3450 3153 3228 2886 
Q 3006 2619 2597 2516 
z
" id="DejaVuSans-33" transform="scale(0.015625)"/>
       </defs>
       <use xlink:href="#DejaVuSans-33"/>
       <use x="63.623047" xlink:href="#DejaVuSans-2e"/>
       <use x="95.410156" xlink:href="#DejaVuSans-30"/>
       <use x="159.033203" xlink:href="#DejaVuSans-30"/>
      </g>
     </g>
    </g>
    <g id="xtick_7">
     <g id="line2d_7">
      <g>
       <use style="stroke:#000000;stroke-width:0.8;" x="415.236851" xlink:href="#m96b99343ce" y="289.6"/>
      </g>
     </g>
     <g id="text_7">
      <!-- 3.25 -->
      <g transform="translate(398.537632 307.997656)scale(0.15 -0.15)">
       <use xlink:href="#DejaVuSans-33"/>
       <use x="63.623047" xlink:href="#DejaVuSans-2e"/>
       <use x="95.410156" xlink:href="#DejaVuSans-32"/>
       <use x="159.033203" xlink:href="#DejaVuSans-35"/>
      </g>
     </g>
    </g>
    <g id="text_8">
     <!-- Mutual Information (Bits) -->
     <g transform="translate(161.317188 326.514844)scale(0.15 -0.15)">
      <defs>
       <path d="M 628 4666 
L 1569 4666 
L 2759 1491 
L 3956 4666 
L 4897 4666 
L 4897 0 
L 4281 0 
L 4281 4097 
L 3078 897 
L 2444 897 
L 1241 4097 
L 1241 0 
L 628 0 
L 628 4666 
z
" id="DejaVuSans-4d" transform="scale(0.015625)"/>
       <path d="M 544 1381 
L 544 3500 
L 1119 3500 
L 1119 1403 
Q 1119 906 1312 657 
Q 1506 409 1894 409 
Q 2359 409 2629 706 
Q 2900 1003 2900 1516 
L 2900 3500 
L 3475 3500 
L 3475 0 
L 2900 0 
L 2900 538 
Q 2691 219 2414 64 
Q 2138 -91 1772 -91 
Q 1169 -91 856 284 
Q 544 659 544 1381 
z
M 1991 3584 
L 1991 3584 
z
" id="DejaVuSans-75" transform="scale(0.015625)"/>
       <path d="M 1172 4494 
L 1172 3500 
L 2356 3500 
L 2356 3053 
L 1172 3053 
L 1172 1153 
Q 1172 725 1289 603 
Q 1406 481 1766 481 
L 2356 481 
L 2356 0 
L 1766 0 
Q 1100 0 847 248 
Q 594 497 594 1153 
L 594 3053 
L 172 3053 
L 172 3500 
L 594 3500 
L 594 4494 
L 1172 4494 
z
" id="DejaVuSans-74" transform="scale(0.015625)"/>
       <path d="M 2194 1759 
Q 1497 1759 1228 1600 
Q 959 1441 959 1056 
Q 959 750 1161 570 
Q 1363 391 1709 391 
Q 2188 391 2477 730 
Q 2766 1069 2766 1631 
L 2766 1759 
L 2194 1759 
z
M 3341 1997 
L 3341 0 
L 2766 0 
L 2766 531 
Q 2569 213 2275 61 
Q 1981 -91 1556 -91 
Q 1019 -91 701 211 
Q 384 513 384 1019 
Q 384 1609 779 1909 
Q 1175 2209 1959 2209 
L 2766 2209 
L 2766 2266 
Q 2766 2663 2505 2880 
Q 2244 3097 1772 3097 
Q 1472 3097 1187 3025 
Q 903 2953 641 2809 
L 641 3341 
Q 956 3463 1253 3523 
Q 1550 3584 1831 3584 
Q 2591 3584 2966 3190 
Q 3341 2797 3341 1997 
z
" id="DejaVuSans-61" transform="scale(0.015625)"/>
       <path d="M 603 4863 
L 1178 4863 
L 1178 0 
L 603 0 
L 603 4863 
z
" id="DejaVuSans-6c" transform="scale(0.015625)"/>
       <path id="DejaVuSans-20" transform="scale(0.015625)"/>
       <path d="M 628 4666 
L 1259 4666 
L 1259 0 
L 628 0 
L 628 4666 
z
" id="DejaVuSans-49" transform="scale(0.015625)"/>
       <path d="M 3513 2113 
L 3513 0 
L 2938 0 
L 2938 2094 
Q 2938 2591 2744 2837 
Q 2550 3084 2163 3084 
Q 1697 3084 1428 2787 
Q 1159 2491 1159 1978 
L 1159 0 
L 581 0 
L 581 3500 
L 1159 3500 
L 1159 2956 
Q 1366 3272 1645 3428 
Q 1925 3584 2291 3584 
Q 2894 3584 3203 3211 
Q 3513 2838 3513 2113 
z
" id="DejaVuSans-6e" transform="scale(0.015625)"/>
       <path d="M 2375 4863 
L 2375 4384 
L 1825 4384 
Q 1516 4384 1395 4259 
Q 1275 4134 1275 3809 
L 1275 3500 
L 2222 3500 
L 2222 3053 
L 1275 3053 
L 1275 0 
L 697 0 
L 697 3053 
L 147 3053 
L 147 3500 
L 697 3500 
L 697 3744 
Q 697 4328 969 4595 
Q 1241 4863 1831 4863 
L 2375 4863 
z
" id="DejaVuSans-66" transform="scale(0.015625)"/>
       <path d="M 1959 3097 
Q 1497 3097 1228 2736 
Q 959 2375 959 1747 
Q 959 1119 1226 758 
Q 1494 397 1959 397 
Q 2419 397 2687 759 
Q 2956 1122 2956 1747 
Q 2956 2369 2687 2733 
Q 2419 3097 1959 3097 
z
M 1959 3584 
Q 2709 3584 3137 3096 
Q 3566 2609 3566 1747 
Q 3566 888 3137 398 
Q 2709 -91 1959 -91 
Q 1206 -91 779 398 
Q 353 888 353 1747 
Q 353 2609 779 3096 
Q 1206 3584 1959 3584 
z
" id="DejaVuSans-6f" transform="scale(0.015625)"/>
       <path d="M 2631 2963 
Q 2534 3019 2420 3045 
Q 2306 3072 2169 3072 
Q 1681 3072 1420 2755 
Q 1159 2438 1159 1844 
L 1159 0 
L 581 0 
L 581 3500 
L 1159 3500 
L 1159 2956 
Q 1341 3275 1631 3429 
Q 1922 3584 2338 3584 
Q 2397 3584 2469 3576 
Q 2541 3569 2628 3553 
L 2631 2963 
z
" id="DejaVuSans-72" transform="scale(0.015625)"/>
       <path d="M 3328 2828 
Q 3544 3216 3844 3400 
Q 4144 3584 4550 3584 
Q 5097 3584 5394 3201 
Q 5691 2819 5691 2113 
L 5691 0 
L 5113 0 
L 5113 2094 
Q 5113 2597 4934 2840 
Q 4756 3084 4391 3084 
Q 3944 3084 3684 2787 
Q 3425 2491 3425 1978 
L 3425 0 
L 2847 0 
L 2847 2094 
Q 2847 2600 2669 2842 
Q 2491 3084 2119 3084 
Q 1678 3084 1418 2786 
Q 1159 2488 1159 1978 
L 1159 0 
L 581 0 
L 581 3500 
L 1159 3500 
L 1159 2956 
Q 1356 3278 1631 3431 
Q 1906 3584 2284 3584 
Q 2666 3584 2933 3390 
Q 3200 3197 3328 2828 
z
" id="DejaVuSans-6d" transform="scale(0.015625)"/>
       <path d="M 603 3500 
L 1178 3500 
L 1178 0 
L 603 0 
L 603 3500 
z
M 603 4863 
L 1178 4863 
L 1178 4134 
L 603 4134 
L 603 4863 
z
" id="DejaVuSans-69" transform="scale(0.015625)"/>
       <path d="M 1984 4856 
Q 1566 4138 1362 3434 
Q 1159 2731 1159 2009 
Q 1159 1288 1364 580 
Q 1569 -128 1984 -844 
L 1484 -844 
Q 1016 -109 783 600 
Q 550 1309 550 2009 
Q 550 2706 781 3412 
Q 1013 4119 1484 4856 
L 1984 4856 
z
" id="DejaVuSans-28" transform="scale(0.015625)"/>
       <path d="M 1259 2228 
L 1259 519 
L 2272 519 
Q 2781 519 3026 730 
Q 3272 941 3272 1375 
Q 3272 1813 3026 2020 
Q 2781 2228 2272 2228 
L 1259 2228 
z
M 1259 4147 
L 1259 2741 
L 2194 2741 
Q 2656 2741 2882 2914 
Q 3109 3088 3109 3444 
Q 3109 3797 2882 3972 
Q 2656 4147 2194 4147 
L 1259 4147 
z
M 628 4666 
L 2241 4666 
Q 2963 4666 3353 4366 
Q 3744 4066 3744 3513 
Q 3744 3084 3544 2831 
Q 3344 2578 2956 2516 
Q 3422 2416 3680 2098 
Q 3938 1781 3938 1306 
Q 3938 681 3513 340 
Q 3088 0 2303 0 
L 628 0 
L 628 4666 
z
" id="DejaVuSans-42" transform="scale(0.015625)"/>
       <path d="M 2834 3397 
L 2834 2853 
Q 2591 2978 2328 3040 
Q 2066 3103 1784 3103 
Q 1356 3103 1142 2972 
Q 928 2841 928 2578 
Q 928 2378 1081 2264 
Q 1234 2150 1697 2047 
L 1894 2003 
Q 2506 1872 2764 1633 
Q 3022 1394 3022 966 
Q 3022 478 2636 193 
Q 2250 -91 1575 -91 
Q 1294 -91 989 -36 
Q 684 19 347 128 
L 347 722 
Q 666 556 975 473 
Q 1284 391 1588 391 
Q 1994 391 2212 530 
Q 2431 669 2431 922 
Q 2431 1156 2273 1281 
Q 2116 1406 1581 1522 
L 1381 1569 
Q 847 1681 609 1914 
Q 372 2147 372 2553 
Q 372 3047 722 3315 
Q 1072 3584 1716 3584 
Q 2034 3584 2315 3537 
Q 2597 3491 2834 3397 
z
" id="DejaVuSans-73" transform="scale(0.015625)"/>
       <path d="M 513 4856 
L 1013 4856 
Q 1481 4119 1714 3412 
Q 1947 2706 1947 2009 
Q 1947 1309 1714 600 
Q 1481 -109 1013 -844 
L 513 -844 
Q 928 -128 1133 580 
Q 1338 1288 1338 2009 
Q 1338 2731 1133 3434 
Q 928 4138 513 4856 
z
" id="DejaVuSans-29" transform="scale(0.015625)"/>
      </defs>
      <use xlink:href="#DejaVuSans-4d"/>
      <use x="86.279297" xlink:href="#DejaVuSans-75"/>
      <use x="149.658203" xlink:href="#DejaVuSans-74"/>
      <use x="188.867188" xlink:href="#DejaVuSans-75"/>
      <use x="252.246094" xlink:href="#DejaVuSans-61"/>
      <use x="313.525391" xlink:href="#DejaVuSans-6c"/>
      <use x="341.308594" xlink:href="#DejaVuSans-20"/>
      <use x="373.095703" xlink:href="#DejaVuSans-49"/>
      <use x="402.587891" xlink:href="#DejaVuSans-6e"/>
      <use x="465.966797" xlink:href="#DejaVuSans-66"/>
      <use x="501.171875" xlink:href="#DejaVuSans-6f"/>
      <use x="562.353516" xlink:href="#DejaVuSans-72"/>
      <use x="601.716797" xlink:href="#DejaVuSans-6d"/>
      <use x="699.128906" xlink:href="#DejaVuSans-61"/>
      <use x="760.408203" xlink:href="#DejaVuSans-74"/>
      <use x="799.617188" xlink:href="#DejaVuSans-69"/>
      <use x="827.400391" xlink:href="#DejaVuSans-6f"/>
      <use x="888.582031" xlink:href="#DejaVuSans-6e"/>
      <use x="951.960938" xlink:href="#DejaVuSans-20"/>
      <use x="983.748047" xlink:href="#DejaVuSans-28"/>
      <use x="1022.761719" xlink:href="#DejaVuSans-42"/>
      <use x="1091.365234" xlink:href="#DejaVuSans-69"/>
      <use x="1119.148438" xlink:href="#DejaVuSans-74"/>
      <use x="1158.357422" xlink:href="#DejaVuSans-73"/>
      <use x="1210.457031" xlink:href="#DejaVuSans-29"/>
     </g>
    </g>
   </g>
   <g id="matplotlib.axis_2">
    <g id="ytick_1">
     <g id="text_9">
      <!-- 0.0 -->
      <g transform="translate(34.595313 295.298828)scale(0.15 -0.15)">
       <use xlink:href="#DejaVuSans-30"/>
       <use x="63.623047" xlink:href="#DejaVuSans-2e"/>
       <use x="95.410156" xlink:href="#DejaVuSans-30"/>
      </g>
     </g>
    </g>
    <g id="ytick_2">
     <g id="text_10">
      <!-- 0.1 -->
      <g transform="translate(34.595313 257.523353)scale(0.15 -0.15)">
       <use xlink:href="#DejaVuSans-30"/>
       <use x="63.623047" xlink:href="#DejaVuSans-2e"/>
       <use x="95.410156" xlink:href="#DejaVuSans-31"/>
      </g>
     </g>
    </g>
    <g id="ytick_3">
     <g id="text_11">
      <!-- 0.2 -->
      <g transform="translate(34.595313 219.747878)scale(0.15 -0.15)">
       <use xlink:href="#DejaVuSans-30"/>
       <use x="63.623047" xlink:href="#DejaVuSans-2e"/>
       <use x="95.410156" xlink:href="#DejaVuSans-32"/>
      </g>
     </g>
    </g>
    <g id="ytick_4">
     <g id="text_12">
      <!-- 0.3 -->
      <g transform="translate(34.595313 181.972403)scale(0.15 -0.15)">
       <use xlink:href="#DejaVuSans-30"/>
       <use x="63.623047" xlink:href="#DejaVuSans-2e"/>
       <use x="95.410156" xlink:href="#DejaVuSans-33"/>
      </g>
     </g>
    </g>
    <g id="ytick_5">
     <g id="text_13">
      <!-- 0.4 -->
      <g transform="translate(34.595313 144.196928)scale(0.15 -0.15)">
       <defs>
        <path d="M 2419 4116 
L 825 1625 
L 2419 1625 
L 2419 4116 
z
M 2253 4666 
L 3047 4666 
L 3047 1625 
L 3713 1625 
L 3713 1100 
L 3047 1100 
L 3047 0 
L 2419 0 
L 2419 1100 
L 313 1100 
L 313 1709 
L 2253 4666 
z
" id="DejaVuSans-34" transform="scale(0.015625)"/>
       </defs>
       <use xlink:href="#DejaVuSans-30"/>
       <use x="63.623047" xlink:href="#DejaVuSans-2e"/>
       <use x="95.410156" xlink:href="#DejaVuSans-34"/>
      </g>
     </g>
    </g>
    <g id="ytick_6">
     <g id="text_14">
      <!-- 0.5 -->
      <g transform="translate(34.595313 106.421453)scale(0.15 -0.15)">
       <use xlink:href="#DejaVuSans-30"/>
       <use x="63.623047" xlink:href="#DejaVuSans-2e"/>
       <use x="95.410156" xlink:href="#DejaVuSans-35"/>
      </g>
     </g>
    </g>
    <g id="ytick_7">
     <g id="text_15">
      <!-- 0.6 -->
      <g transform="translate(34.595313 68.645978)scale(0.15 -0.15)">
       <defs>
        <path d="M 2113 2584 
Q 1688 2584 1439 2293 
Q 1191 2003 1191 1497 
Q 1191 994 1439 701 
Q 1688 409 2113 409 
Q 2538 409 2786 701 
Q 3034 994 3034 1497 
Q 3034 2003 2786 2293 
Q 2538 2584 2113 2584 
z
M 3366 4563 
L 3366 3988 
Q 3128 4100 2886 4159 
Q 2644 4219 2406 4219 
Q 1781 4219 1451 3797 
Q 1122 3375 1075 2522 
Q 1259 2794 1537 2939 
Q 1816 3084 2150 3084 
Q 2853 3084 3261 2657 
Q 3669 2231 3669 1497 
Q 3669 778 3244 343 
Q 2819 -91 2113 -91 
Q 1303 -91 875 529 
Q 447 1150 447 2328 
Q 447 3434 972 4092 
Q 1497 4750 2381 4750 
Q 2619 4750 2861 4703 
Q 3103 4656 3366 4563 
z
" id="DejaVuSans-36" transform="scale(0.015625)"/>
       </defs>
       <use xlink:href="#DejaVuSans-30"/>
       <use x="63.623047" xlink:href="#DejaVuSans-2e"/>
       <use x="95.410156" xlink:href="#DejaVuSans-36"/>
      </g>
     </g>
    </g>
    <g id="ytick_8">
     <g id="text_16">
      <!-- 0.7 -->
      <g transform="translate(34.595313 30.870503)scale(0.15 -0.15)">
       <use xlink:href="#DejaVuSans-30"/>
       <use x="63.623047" xlink:href="#DejaVuSans-2e"/>
       <use x="95.410156" xlink:href="#DejaVuSans-37"/>
      </g>
     </g>
    </g>
    <g id="text_17">
     <!-- Probability -->
     <g transform="translate(27.475781 192.543359)rotate(-90)scale(0.15 -0.15)">
      <defs>
       <path d="M 1259 4147 
L 1259 2394 
L 2053 2394 
Q 2494 2394 2734 2622 
Q 2975 2850 2975 3272 
Q 2975 3691 2734 3919 
Q 2494 4147 2053 4147 
L 1259 4147 
z
M 628 4666 
L 2053 4666 
Q 2838 4666 3239 4311 
Q 3641 3956 3641 3272 
Q 3641 2581 3239 2228 
Q 2838 1875 2053 1875 
L 1259 1875 
L 1259 0 
L 628 0 
L 628 4666 
z
" id="DejaVuSans-50" transform="scale(0.015625)"/>
       <path d="M 3116 1747 
Q 3116 2381 2855 2742 
Q 2594 3103 2138 3103 
Q 1681 3103 1420 2742 
Q 1159 2381 1159 1747 
Q 1159 1113 1420 752 
Q 1681 391 2138 391 
Q 2594 391 2855 752 
Q 3116 1113 3116 1747 
z
M 1159 2969 
Q 1341 3281 1617 3432 
Q 1894 3584 2278 3584 
Q 2916 3584 3314 3078 
Q 3713 2572 3713 1747 
Q 3713 922 3314 415 
Q 2916 -91 2278 -91 
Q 1894 -91 1617 61 
Q 1341 213 1159 525 
L 1159 0 
L 581 0 
L 581 4863 
L 1159 4863 
L 1159 2969 
z
" id="DejaVuSans-62" transform="scale(0.015625)"/>
       <path d="M 2059 -325 
Q 1816 -950 1584 -1140 
Q 1353 -1331 966 -1331 
L 506 -1331 
L 506 -850 
L 844 -850 
Q 1081 -850 1212 -737 
Q 1344 -625 1503 -206 
L 1606 56 
L 191 3500 
L 800 3500 
L 1894 763 
L 2988 3500 
L 3597 3500 
L 2059 -325 
z
" id="DejaVuSans-79" transform="scale(0.015625)"/>
      </defs>
      <use xlink:href="#DejaVuSans-50"/>
      <use x="58.552734" xlink:href="#DejaVuSans-72"/>
      <use x="97.416016" xlink:href="#DejaVuSans-6f"/>
      <use x="158.597656" xlink:href="#DejaVuSans-62"/>
      <use x="222.074219" xlink:href="#DejaVuSans-61"/>
      <use x="283.353516" xlink:href="#DejaVuSans-62"/>
      <use x="346.830078" xlink:href="#DejaVuSans-69"/>
      <use x="374.613281" xlink:href="#DejaVuSans-6c"/>
      <use x="402.396484" xlink:href="#DejaVuSans-69"/>
      <use x="430.179688" xlink:href="#DejaVuSans-74"/>
      <use x="469.388672" xlink:href="#DejaVuSans-79"/>
     </g>
    </g>
   </g>
   <g id="patch_28">
    <path d="M 65.45 289.6 
L 65.45 16.2 
" style="fill:none;stroke:#000000;stroke-linecap:square;stroke-linejoin:miter;stroke-width:0.8;"/>
   </g>
   <g id="patch_29">
    <path d="M 65.45 289.6 
L 444.6 289.6 
" style="fill:none;stroke:#000000;stroke-linecap:square;stroke-linejoin:miter;stroke-width:0.8;"/>
   </g>
  </g>
  <g id="axes_2">
   <g id="patch_30">
    <path d="M 112.84375 207.58 
L 378.24875 207.58 
L 378.24875 84.55 
L 112.84375 84.55 
z
" style="fill:#ffffff;"/>
   </g>
   <g id="patch_31">
    <path clip-path="url(#p9028a5d6db)" d="M 124.907614 207.58 
L 134.755666 207.58 
L 134.755666 181.626686 
L 124.907614 181.626686 
z
" style="fill:#0096ff;opacity:0.55;"/>
   </g>
   <g id="patch_32">
    <path clip-path="url(#p9028a5d6db)" d="M 149.527744 207.58 
L 159.375795 207.58 
L 159.375795 184.494598 
L 149.527744 184.494598 
z
" style="fill:#0096ff;opacity:0.55;"/>
   </g>
   <g id="patch_33">
    <path clip-path="url(#p9028a5d6db)" d="M 174.147873 207.58 
L 183.995925 207.58 
L 183.995925 183.567912 
L 174.147873 183.567912 
z
" style="fill:#0096ff;opacity:0.55;"/>
   </g>
   <g id="patch_34">
    <path clip-path="url(#p9028a5d6db)" d="M 198.768003 207.58 
L 208.616055 207.58 
L 208.616055 180.639192 
L 198.768003 180.639192 
z
" style="fill:#0096ff;opacity:0.55;"/>
   </g>
   <g id="patch_35">
    <path clip-path="url(#p9028a5d6db)" d="M 223.388133 207.58 
L 233.236185 207.58 
L 233.236185 177.794893 
L 223.388133 177.794893 
z
" style="fill:#0096ff;opacity:0.55;"/>
   </g>
   <g id="patch_36">
    <path clip-path="url(#p9028a5d6db)" d="M 248.008263 207.58 
L 257.856315 207.58 
L 257.856315 175.912464 
L 248.008263 175.912464 
z
" style="fill:#0096ff;opacity:0.55;"/>
   </g>
   <g id="patch_37">
    <path clip-path="url(#p9028a5d6db)" d="M 272.628393 207.58 
L 282.476445 207.58 
L 282.476445 175.143675 
L 272.628393 175.143675 
z
" style="fill:#0096ff;opacity:0.55;"/>
   </g>
   <g id="patch_38">
    <path clip-path="url(#p9028a5d6db)" d="M 297.248523 207.58 
L 307.096575 207.58 
L 307.096575 174.952651 
L 297.248523 174.952651 
z
" style="fill:#0096ff;opacity:0.55;"/>
   </g>
   <g id="patch_39">
    <path clip-path="url(#p9028a5d6db)" d="M 321.868653 207.58 
L 331.716705 207.58 
L 331.716705 174.927684 
L 321.868653 174.927684 
z
" style="fill:#0096ff;opacity:0.55;"/>
   </g>
   <g id="patch_40">
    <path clip-path="url(#p9028a5d6db)" d="M 346.488782 207.58 
L 356.336834 207.58 
L 356.336834 174.92708 
L 346.488782 174.92708 
z
" style="fill:#0096ff;opacity:0.55;"/>
   </g>
   <g id="patch_41">
    <path clip-path="url(#p9028a5d6db)" d="M 134.755666 207.58 
L 144.603718 207.58 
L 144.603718 106.305176 
L 134.755666 106.305176 
z
" style="fill:#52d452;opacity:0.55;"/>
   </g>
   <g id="patch_42">
    <path clip-path="url(#p9028a5d6db)" d="M 159.375795 207.58 
L 169.223847 207.58 
L 169.223847 207.579577 
L 159.375795 207.579577 
z
" style="fill:#52d452;opacity:0.55;"/>
   </g>
   <g id="patch_43">
    <path clip-path="url(#p9028a5d6db)" d="M 183.995925 207.58 
L 193.843977 207.58 
L 193.843977 207.579762 
L 183.995925 207.579762 
z
" style="fill:#52d452;opacity:0.55;"/>
   </g>
   <g id="patch_44">
    <path clip-path="url(#p9028a5d6db)" d="M 208.616055 207.58 
L 218.464107 207.58 
L 218.464107 207.579843 
L 208.616055 207.579843 
z
" style="fill:#52d452;opacity:0.55;"/>
   </g>
   <g id="patch_45">
    <path clip-path="url(#p9028a5d6db)" d="M 233.236185 207.58 
L 243.084237 207.58 
L 243.084237 207.5799 
L 233.236185 207.5799 
z
" style="fill:#52d452;opacity:0.55;"/>
   </g>
   <g id="patch_46">
    <path clip-path="url(#p9028a5d6db)" d="M 257.856315 207.58 
L 267.704367 207.58 
L 267.704367 207.579913 
L 257.856315 207.579913 
z
" style="fill:#52d452;opacity:0.55;"/>
   </g>
   <g id="patch_47">
    <path clip-path="url(#p9028a5d6db)" d="M 282.476445 207.58 
L 292.324497 207.58 
L 292.324497 147.723411 
L 282.476445 147.723411 
z
" style="fill:#52d452;opacity:0.55;"/>
   </g>
   <g id="patch_48">
    <path clip-path="url(#p9028a5d6db)" d="M 307.096575 207.58 
L 316.944627 207.58 
L 316.944627 207.579454 
L 307.096575 207.579454 
z
" style="fill:#52d452;opacity:0.55;"/>
   </g>
   <g id="patch_49">
    <path clip-path="url(#p9028a5d6db)" d="M 331.716705 207.58 
L 341.564756 207.58 
L 341.564756 194.071229 
L 331.716705 194.071229 
z
" style="fill:#52d452;opacity:0.55;"/>
   </g>
   <g id="patch_50">
    <path clip-path="url(#p9028a5d6db)" d="M 356.336834 207.58 
L 366.184886 207.58 
L 366.184886 90.408571 
L 356.336834 90.408571 
z
" style="fill:#52d452;opacity:0.55;"/>
   </g>
   <g id="matplotlib.axis_3">
    <g id="xtick_8">
     <g id="line2d_8">
      <g>
       <use style="stroke:#000000;stroke-width:0.8;" x="134.755666" xlink:href="#m96b99343ce" y="207.58"/>
      </g>
     </g>
     <g id="text_18">
      <!-- 0 -->
      <g transform="translate(129.983791 225.977656)scale(0.15 -0.15)">
       <use xlink:href="#DejaVuSans-30"/>
      </g>
     </g>
    </g>
    <g id="xtick_9">
     <g id="line2d_9">
      <g>
       <use style="stroke:#000000;stroke-width:0.8;" x="159.375795" xlink:href="#m96b99343ce" y="207.58"/>
      </g>
     </g>
     <g id="text_19">
      <!-- $\frac{1}{128}$ -->
      <g transform="translate(148.350795 228.83)scale(0.15 -0.15)">
       <defs>
        <path d="M 2034 2216 
Q 1584 2216 1326 1975 
Q 1069 1734 1069 1313 
Q 1069 891 1326 650 
Q 1584 409 2034 409 
Q 2484 409 2743 651 
Q 3003 894 3003 1313 
Q 3003 1734 2745 1975 
Q 2488 2216 2034 2216 
z
M 1403 2484 
Q 997 2584 770 2862 
Q 544 3141 544 3541 
Q 544 4100 942 4425 
Q 1341 4750 2034 4750 
Q 2731 4750 3128 4425 
Q 3525 4100 3525 3541 
Q 3525 3141 3298 2862 
Q 3072 2584 2669 2484 
Q 3125 2378 3379 2068 
Q 3634 1759 3634 1313 
Q 3634 634 3220 271 
Q 2806 -91 2034 -91 
Q 1263 -91 848 271 
Q 434 634 434 1313 
Q 434 1759 690 2068 
Q 947 2378 1403 2484 
z
M 1172 3481 
Q 1172 3119 1398 2916 
Q 1625 2713 2034 2713 
Q 2441 2713 2670 2916 
Q 2900 3119 2900 3481 
Q 2900 3844 2670 4047 
Q 2441 4250 2034 4250 
Q 1625 4250 1398 4047 
Q 1172 3844 1172 3481 
z
" id="DejaVuSans-38" transform="scale(0.015625)"/>
       </defs>
       <use transform="translate(45 43.965625)scale(0.7)" xlink:href="#DejaVuSans-31"/>
       <use transform="translate(0 -39.2375)scale(0.7)" xlink:href="#DejaVuSans-31"/>
       <use transform="translate(44.536133 -39.2375)scale(0.7)" xlink:href="#DejaVuSans-32"/>
       <use transform="translate(89.072266 -39.2375)scale(0.7)" xlink:href="#DejaVuSans-38"/>
       <path d="M 0 18.965625 
L 0 25.215625 
L 133.608398 25.215625 
L 133.608398 18.965625 
L 0 18.965625 
z
"/>
      </g>
     </g>
    </g>
    <g id="xtick_10">
     <g id="line2d_10">
      <g>
       <use style="stroke:#000000;stroke-width:0.8;" x="183.995925" xlink:href="#m96b99343ce" y="207.58"/>
      </g>
     </g>
     <g id="text_20">
      <!-- $\frac{1}{64}$ -->
      <g transform="translate(176.345925 228.83)scale(0.15 -0.15)">
       <use transform="translate(22 43.965625)scale(0.7)" xlink:href="#DejaVuSans-31"/>
       <use transform="translate(0 -39.2375)scale(0.7)" xlink:href="#DejaVuSans-36"/>
       <use transform="translate(44.536133 -39.2375)scale(0.7)" xlink:href="#DejaVuSans-34"/>
       <path d="M 0 18.965625 
L 0 25.215625 
L 89.072266 25.215625 
L 89.072266 18.965625 
L 0 18.965625 
z
"/>
      </g>
     </g>
    </g>
    <g id="xtick_11">
     <g id="line2d_11">
      <g>
       <use style="stroke:#000000;stroke-width:0.8;" x="208.616055" xlink:href="#m96b99343ce" y="207.58"/>
      </g>
     </g>
     <g id="text_21">
      <!-- $\frac{1}{32}$ -->
      <g transform="translate(200.966055 228.83)scale(0.15 -0.15)">
       <use transform="translate(22 43.965625)scale(0.7)" xlink:href="#DejaVuSans-31"/>
       <use transform="translate(0 -39.2375)scale(0.7)" xlink:href="#DejaVuSans-33"/>
       <use transform="translate(44.536133 -39.2375)scale(0.7)" xlink:href="#DejaVuSans-32"/>
       <path d="M 0 18.965625 
L 0 25.215625 
L 89.072266 25.215625 
L 89.072266 18.965625 
L 0 18.965625 
z
"/>
      </g>
     </g>
    </g>
    <g id="xtick_12">
     <g id="line2d_12">
      <g>
       <use style="stroke:#000000;stroke-width:0.8;" x="233.236185" xlink:href="#m96b99343ce" y="207.58"/>
      </g>
     </g>
     <g id="text_22">
      <!-- $\frac{1}{16}$ -->
      <g transform="translate(225.586185 228.83)scale(0.15 -0.15)">
       <use transform="translate(22 43.965625)scale(0.7)" xlink:href="#DejaVuSans-31"/>
       <use transform="translate(0 -39.2375)scale(0.7)" xlink:href="#DejaVuSans-31"/>
       <use transform="translate(44.536133 -39.2375)scale(0.7)" xlink:href="#DejaVuSans-36"/>
       <path d="M 0 18.965625 
L 0 25.215625 
L 89.072266 25.215625 
L 89.072266 18.965625 
L 0 18.965625 
z
"/>
      </g>
     </g>
    </g>
    <g id="xtick_13">
     <g id="line2d_13">
      <g>
       <use style="stroke:#000000;stroke-width:0.8;" x="257.856315" xlink:href="#m96b99343ce" y="207.58"/>
      </g>
     </g>
     <g id="text_23">
      <!-- $\frac{1}{8}$ -->
      <g transform="translate(253.506315 228.83)scale(0.15 -0.15)">
       <use transform="translate(0 43.965625)scale(0.7)" xlink:href="#DejaVuSans-31"/>
       <use transform="translate(0 -39.2375)scale(0.7)" xlink:href="#DejaVuSans-38"/>
       <path d="M 0 18.965625 
L 0 25.215625 
L 44.536133 25.215625 
L 44.536133 18.965625 
L 0 18.965625 
z
"/>
      </g>
     </g>
    </g>
    <g id="xtick_14">
     <g id="line2d_14">
      <g>
       <use style="stroke:#000000;stroke-width:0.8;" x="282.476445" xlink:href="#m96b99343ce" y="207.58"/>
      </g>
     </g>
     <g id="text_24">
      <!-- $\frac{1}{4}$ -->
      <g transform="translate(278.126445 228.83)scale(0.15 -0.15)">
       <use transform="translate(0 43.965625)scale(0.7)" xlink:href="#DejaVuSans-31"/>
       <use transform="translate(0 -38.31875)scale(0.7)" xlink:href="#DejaVuSans-34"/>
       <path d="M 0 18.965625 
L 0 25.215625 
L 44.536133 25.215625 
L 44.536133 18.965625 
L 0 18.965625 
z
"/>
      </g>
     </g>
    </g>
    <g id="xtick_15">
     <g id="line2d_15">
      <g>
       <use style="stroke:#000000;stroke-width:0.8;" x="307.096575" xlink:href="#m96b99343ce" y="207.58"/>
      </g>
     </g>
     <g id="text_25">
      <!-- $\frac{1}{2}$ -->
      <g transform="translate(302.746575 228.83)scale(0.15 -0.15)">
       <use transform="translate(0 43.965625)scale(0.7)" xlink:href="#DejaVuSans-31"/>
       <use transform="translate(0 -39.2375)scale(0.7)" xlink:href="#DejaVuSans-32"/>
       <path d="M 0 18.965625 
L 0 25.215625 
L 44.536133 25.215625 
L 44.536133 18.965625 
L 0 18.965625 
z
"/>
      </g>
     </g>
    </g>
    <g id="xtick_16">
     <g id="line2d_16">
      <g>
       <use style="stroke:#000000;stroke-width:0.8;" x="331.716705" xlink:href="#m96b99343ce" y="207.58"/>
      </g>
     </g>
     <g id="text_26">
      <!-- 1 -->
      <g transform="translate(326.94483 225.977656)scale(0.15 -0.15)">
       <use xlink:href="#DejaVuSans-31"/>
      </g>
     </g>
    </g>
    <g id="xtick_17">
     <g id="line2d_17">
      <g>
       <use style="stroke:#000000;stroke-width:0.8;" x="356.336834" xlink:href="#m96b99343ce" y="207.58"/>
      </g>
     </g>
     <g id="text_27">
      <!-- 100 -->
      <g transform="translate(342.021209 225.977656)scale(0.15 -0.15)">
       <use xlink:href="#DejaVuSans-31"/>
       <use x="63.623047" xlink:href="#DejaVuSans-30"/>
       <use x="127.246094" xlink:href="#DejaVuSans-30"/>
      </g>
     </g>
    </g>
    <g id="text_28">
     <!-- CC Input Dose (ng/mL) -->
     <g transform="translate(160.237266 250.377656)scale(0.15 -0.15)">
      <defs>
       <path d="M 4122 4306 
L 4122 3641 
Q 3803 3938 3442 4084 
Q 3081 4231 2675 4231 
Q 1875 4231 1450 3742 
Q 1025 3253 1025 2328 
Q 1025 1406 1450 917 
Q 1875 428 2675 428 
Q 3081 428 3442 575 
Q 3803 722 4122 1019 
L 4122 359 
Q 3791 134 3420 21 
Q 3050 -91 2638 -91 
Q 1578 -91 968 557 
Q 359 1206 359 2328 
Q 359 3453 968 4101 
Q 1578 4750 2638 4750 
Q 3056 4750 3426 4639 
Q 3797 4528 4122 4306 
z
" id="DejaVuSans-43" transform="scale(0.015625)"/>
       <path d="M 1159 525 
L 1159 -1331 
L 581 -1331 
L 581 3500 
L 1159 3500 
L 1159 2969 
Q 1341 3281 1617 3432 
Q 1894 3584 2278 3584 
Q 2916 3584 3314 3078 
Q 3713 2572 3713 1747 
Q 3713 922 3314 415 
Q 2916 -91 2278 -91 
Q 1894 -91 1617 61 
Q 1341 213 1159 525 
z
M 3116 1747 
Q 3116 2381 2855 2742 
Q 2594 3103 2138 3103 
Q 1681 3103 1420 2742 
Q 1159 2381 1159 1747 
Q 1159 1113 1420 752 
Q 1681 391 2138 391 
Q 2594 391 2855 752 
Q 3116 1113 3116 1747 
z
" id="DejaVuSans-70" transform="scale(0.015625)"/>
       <path d="M 1259 4147 
L 1259 519 
L 2022 519 
Q 2988 519 3436 956 
Q 3884 1394 3884 2338 
Q 3884 3275 3436 3711 
Q 2988 4147 2022 4147 
L 1259 4147 
z
M 628 4666 
L 1925 4666 
Q 3281 4666 3915 4102 
Q 4550 3538 4550 2338 
Q 4550 1131 3912 565 
Q 3275 0 1925 0 
L 628 0 
L 628 4666 
z
" id="DejaVuSans-44" transform="scale(0.015625)"/>
       <path d="M 3597 1894 
L 3597 1613 
L 953 1613 
Q 991 1019 1311 708 
Q 1631 397 2203 397 
Q 2534 397 2845 478 
Q 3156 559 3463 722 
L 3463 178 
Q 3153 47 2828 -22 
Q 2503 -91 2169 -91 
Q 1331 -91 842 396 
Q 353 884 353 1716 
Q 353 2575 817 3079 
Q 1281 3584 2069 3584 
Q 2775 3584 3186 3129 
Q 3597 2675 3597 1894 
z
M 3022 2063 
Q 3016 2534 2758 2815 
Q 2500 3097 2075 3097 
Q 1594 3097 1305 2825 
Q 1016 2553 972 2059 
L 3022 2063 
z
" id="DejaVuSans-65" transform="scale(0.015625)"/>
       <path d="M 2906 1791 
Q 2906 2416 2648 2759 
Q 2391 3103 1925 3103 
Q 1463 3103 1205 2759 
Q 947 2416 947 1791 
Q 947 1169 1205 825 
Q 1463 481 1925 481 
Q 2391 481 2648 825 
Q 2906 1169 2906 1791 
z
M 3481 434 
Q 3481 -459 3084 -895 
Q 2688 -1331 1869 -1331 
Q 1566 -1331 1297 -1286 
Q 1028 -1241 775 -1147 
L 775 -588 
Q 1028 -725 1275 -790 
Q 1522 -856 1778 -856 
Q 2344 -856 2625 -561 
Q 2906 -266 2906 331 
L 2906 616 
Q 2728 306 2450 153 
Q 2172 0 1784 0 
Q 1141 0 747 490 
Q 353 981 353 1791 
Q 353 2603 747 3093 
Q 1141 3584 1784 3584 
Q 2172 3584 2450 3431 
Q 2728 3278 2906 2969 
L 2906 3500 
L 3481 3500 
L 3481 434 
z
" id="DejaVuSans-67" transform="scale(0.015625)"/>
       <path d="M 1625 4666 
L 2156 4666 
L 531 -594 
L 0 -594 
L 1625 4666 
z
" id="DejaVuSans-2f" transform="scale(0.015625)"/>
       <path d="M 628 4666 
L 1259 4666 
L 1259 531 
L 3531 531 
L 3531 0 
L 628 0 
L 628 4666 
z
" id="DejaVuSans-4c" transform="scale(0.015625)"/>
      </defs>
      <use xlink:href="#DejaVuSans-43"/>
      <use x="69.824219" xlink:href="#DejaVuSans-43"/>
      <use x="139.648438" xlink:href="#DejaVuSans-20"/>
      <use x="171.435547" xlink:href="#DejaVuSans-49"/>
      <use x="200.927734" xlink:href="#DejaVuSans-6e"/>
      <use x="264.306641" xlink:href="#DejaVuSans-70"/>
      <use x="327.783203" xlink:href="#DejaVuSans-75"/>
      <use x="391.162109" xlink:href="#DejaVuSans-74"/>
      <use x="430.371094" xlink:href="#DejaVuSans-20"/>
      <use x="462.158203" xlink:href="#DejaVuSans-44"/>
      <use x="539.160156" xlink:href="#DejaVuSans-6f"/>
      <use x="600.341797" xlink:href="#DejaVuSans-73"/>
      <use x="652.441406" xlink:href="#DejaVuSans-65"/>
      <use x="713.964844" xlink:href="#DejaVuSans-20"/>
      <use x="745.751953" xlink:href="#DejaVuSans-28"/>
      <use x="784.765625" xlink:href="#DejaVuSans-6e"/>
      <use x="848.144531" xlink:href="#DejaVuSans-67"/>
      <use x="911.621094" xlink:href="#DejaVuSans-2f"/>
      <use x="945.3125" xlink:href="#DejaVuSans-6d"/>
      <use x="1042.724609" xlink:href="#DejaVuSans-4c"/>
      <use x="1098.4375" xlink:href="#DejaVuSans-29"/>
     </g>
    </g>
   </g>
   <g id="matplotlib.axis_4">
    <g id="ytick_9">
     <g id="line2d_18">
      <defs>
       <path d="M 0 0 
L -3.5 0 
" id="medba79a83c" style="stroke:#000000;stroke-width:0.8;"/>
      </defs>
      <g>
       <use style="stroke:#000000;stroke-width:0.8;" x="112.84375" xlink:href="#medba79a83c" y="207.58"/>
      </g>
     </g>
     <g id="text_29">
      <!-- 0.0 -->
      <g transform="translate(81.989063 213.278828)scale(0.15 -0.15)">
       <use xlink:href="#DejaVuSans-30"/>
       <use x="63.623047" xlink:href="#DejaVuSans-2e"/>
       <use x="95.410156" xlink:href="#DejaVuSans-30"/>
      </g>
     </g>
    </g>
    <g id="ytick_10">
     <g id="line2d_19">
      <g>
       <use style="stroke:#000000;stroke-width:0.8;" x="112.84375" xlink:href="#medba79a83c" y="149.217367"/>
      </g>
     </g>
     <g id="text_30">
      <!-- 0.2 -->
      <g transform="translate(81.989063 154.916195)scale(0.15 -0.15)">
       <use xlink:href="#DejaVuSans-30"/>
       <use x="63.623047" xlink:href="#DejaVuSans-2e"/>
       <use x="95.410156" xlink:href="#DejaVuSans-32"/>
      </g>
     </g>
    </g>
    <g id="ytick_11">
     <g id="line2d_20">
      <g>
       <use style="stroke:#000000;stroke-width:0.8;" x="112.84375" xlink:href="#medba79a83c" y="90.854734"/>
      </g>
     </g>
     <g id="text_31">
      <!-- 0.4 -->
      <g transform="translate(81.989063 96.553562)scale(0.15 -0.15)">
       <use xlink:href="#DejaVuSans-30"/>
       <use x="63.623047" xlink:href="#DejaVuSans-2e"/>
       <use x="95.410156" xlink:href="#DejaVuSans-34"/>
      </g>
     </g>
    </g>
   </g>
   <g id="patch_51">
    <path d="M 112.84375 207.58 
L 112.84375 84.55 
" style="fill:none;stroke:#000000;stroke-linecap:square;stroke-linejoin:miter;stroke-width:0.8;"/>
   </g>
   <g id="patch_52">
    <path d="M 112.84375 207.58 
L 378.24875 207.58 
" style="fill:none;stroke:#000000;stroke-linecap:square;stroke-linejoin:miter;stroke-width:0.8;"/>
   </g>
  </g>
  <g id="legend_1">
   <g id="patch_53">
    <path d="M 99.225 24.897656 
L 129.225 24.897656 
L 129.225 14.397656 
L 99.225 14.397656 
z
" style="fill:#0096ff;opacity:0.55;"/>
   </g>
   <g id="text_32">
    <!-- Model $\mathcal{I}_{Cee}$ -->
    <g transform="translate(141.225 24.897656)scale(0.15 -0.15)">
     <defs>
      <path d="M 2906 2969 
L 2906 4863 
L 3481 4863 
L 3481 0 
L 2906 0 
L 2906 525 
Q 2725 213 2448 61 
Q 2172 -91 1784 -91 
Q 1150 -91 751 415 
Q 353 922 353 1747 
Q 353 2572 751 3078 
Q 1150 3584 1784 3584 
Q 2172 3584 2448 3432 
Q 2725 3281 2906 2969 
z
M 947 1747 
Q 947 1113 1208 752 
Q 1469 391 1925 391 
Q 2381 391 2643 752 
Q 2906 1113 2906 1747 
Q 2906 2381 2643 2742 
Q 2381 3103 1925 3103 
Q 1469 3103 1208 2742 
Q 947 2381 947 1747 
z
" id="DejaVuSans-64" transform="scale(0.015625)"/>
      <path d="M 3782 4237 
L 3744 4083 
Q 3482 4083 3347 4067 
Q 3213 4051 3069 3977 
Q 2925 3904 2838 3753 
Q 2752 3603 2675 3334 
L 1920 710 
Q 1901 634 1901 557 
Q 1901 352 2208 352 
Q 2790 352 3283 819 
L 3398 698 
Q 3008 320 2566 160 
Q 2125 0 1549 0 
L 243 0 
L 282 154 
Q 467 154 556 160 
Q 646 166 777 201 
Q 909 237 982 310 
Q 1056 384 1139 521 
Q 1222 659 1280 870 
L 1946 3187 
Q 2061 3590 2061 3674 
Q 2061 3878 1754 3878 
Q 1523 3878 1203 3750 
Q 883 3622 678 3411 
L 570 3533 
Q 947 3904 1385 4070 
Q 1824 4237 2579 4237 
L 3782 4237 
z
" id="STIXNonUnicode-Italic-e235" transform="scale(0.015625)"/>
      <path d="M 4447 4306 
L 4319 3641 
Q 4019 3944 3683 4091 
Q 3347 4238 2956 4238 
Q 2422 4238 2017 3981 
Q 1613 3725 1319 3200 
Q 1131 2863 1032 2486 
Q 934 2109 934 1728 
Q 934 1091 1264 756 
Q 1594 422 2222 422 
Q 2656 422 3056 561 
Q 3456 700 3834 978 
L 3688 231 
Q 3316 72 2936 -9 
Q 2556 -91 2175 -91 
Q 1278 -91 773 396 
Q 269 884 269 1753 
Q 269 2309 461 2846 
Q 653 3384 1013 3828 
Q 1394 4300 1883 4525 
Q 2372 4750 3022 4750 
Q 3422 4750 3780 4639 
Q 4138 4528 4447 4306 
z
" id="DejaVuSans-Oblique-43" transform="scale(0.015625)"/>
      <path d="M 3078 2063 
Q 3088 2113 3092 2166 
Q 3097 2219 3097 2272 
Q 3097 2653 2873 2875 
Q 2650 3097 2266 3097 
Q 1838 3097 1509 2826 
Q 1181 2556 1013 2059 
L 3078 2063 
z
M 3578 1613 
L 903 1613 
Q 884 1494 878 1425 
Q 872 1356 872 1306 
Q 872 872 1139 634 
Q 1406 397 1894 397 
Q 2269 397 2603 481 
Q 2938 566 3225 728 
L 3116 159 
Q 2806 34 2476 -28 
Q 2147 -91 1806 -91 
Q 1078 -91 686 257 
Q 294 606 294 1247 
Q 294 1794 489 2264 
Q 684 2734 1063 3103 
Q 1306 3334 1642 3459 
Q 1978 3584 2356 3584 
Q 2950 3584 3301 3228 
Q 3653 2872 3653 2272 
Q 3653 2128 3634 1964 
Q 3616 1800 3578 1613 
z
" id="DejaVuSans-Oblique-65" transform="scale(0.015625)"/>
     </defs>
     <use transform="translate(0 0.015625)" xlink:href="#DejaVuSans-4d"/>
     <use transform="translate(86.279297 0.015625)" xlink:href="#DejaVuSans-6f"/>
     <use transform="translate(147.460938 0.015625)" xlink:href="#DejaVuSans-64"/>
     <use transform="translate(210.9375 0.015625)" xlink:href="#DejaVuSans-65"/>
     <use transform="translate(272.460938 0.015625)" xlink:href="#DejaVuSans-6c"/>
     <use transform="translate(300.244141 0.015625)" xlink:href="#DejaVuSans-20"/>
     <use transform="translate(332.03125 0.015625)" xlink:href="#STIXNonUnicode-Italic-e235"/>
     <use transform="translate(390.488266 -16.390625)scale(0.7)" xlink:href="#DejaVuSans-Oblique-43"/>
     <use transform="translate(439.365219 -16.390625)scale(0.7)" xlink:href="#DejaVuSans-Oblique-65"/>
     <use transform="translate(482.431625 -16.390625)scale(0.7)" xlink:href="#DejaVuSans-Oblique-65"/>
    </g>
   </g>
   <g id="patch_54">
    <path d="M 250.575 24.897656 
L 280.575 24.897656 
L 280.575 14.397656 
L 250.575 14.397656 
z
" style="fill:#52d452;opacity:0.55;"/>
   </g>
   <g id="text_33">
    <!-- Expt $\mathcal{I}_{CSA}$ -->
    <g transform="translate(292.575 24.897656)scale(0.15 -0.15)">
     <defs>
      <path d="M 628 4666 
L 3578 4666 
L 3578 4134 
L 1259 4134 
L 1259 2753 
L 3481 2753 
L 3481 2222 
L 1259 2222 
L 1259 531 
L 3634 531 
L 3634 0 
L 628 0 
L 628 4666 
z
" id="DejaVuSans-45" transform="scale(0.015625)"/>
      <path d="M 3513 3500 
L 2247 1797 
L 3578 0 
L 2900 0 
L 1881 1375 
L 863 0 
L 184 0 
L 1544 1831 
L 300 3500 
L 978 3500 
L 1906 2253 
L 2834 3500 
L 3513 3500 
z
" id="DejaVuSans-78" transform="scale(0.015625)"/>
      <path d="M 3859 4513 
L 3738 3897 
Q 3422 4066 3111 4152 
Q 2800 4238 2509 4238 
Q 1944 4238 1609 3991 
Q 1275 3744 1275 3334 
Q 1275 3109 1398 2989 
Q 1522 2869 2034 2731 
L 2413 2638 
Q 3053 2472 3303 2217 
Q 3553 1963 3553 1503 
Q 3553 797 2998 353 
Q 2444 -91 1538 -91 
Q 1166 -91 791 -17 
Q 416 56 38 206 
L 166 856 
Q 513 641 861 531 
Q 1209 422 1556 422 
Q 2147 422 2503 684 
Q 2859 947 2859 1369 
Q 2859 1650 2717 1795 
Q 2575 1941 2106 2059 
L 1728 2156 
Q 1081 2325 845 2545 
Q 609 2766 609 3163 
Q 609 3859 1145 4304 
Q 1681 4750 2541 4750 
Q 2875 4750 3203 4690 
Q 3531 4631 3859 4513 
z
" id="DejaVuSans-Oblique-53" transform="scale(0.015625)"/>
      <path d="M 2356 4666 
L 3072 4666 
L 3938 0 
L 3278 0 
L 3084 1197 
L 984 1197 
L 325 0 
L -341 0 
L 2356 4666 
z
M 2584 4044 
L 1275 1722 
L 2988 1722 
L 2584 4044 
z
" id="DejaVuSans-Oblique-41" transform="scale(0.015625)"/>
     </defs>
     <use transform="translate(0 0.09375)" xlink:href="#DejaVuSans-45"/>
     <use transform="translate(63.183594 0.09375)" xlink:href="#DejaVuSans-78"/>
     <use transform="translate(122.363281 0.09375)" xlink:href="#DejaVuSans-70"/>
     <use transform="translate(185.839844 0.09375)" xlink:href="#DejaVuSans-74"/>
     <use transform="translate(225.048828 0.09375)" xlink:href="#DejaVuSans-20"/>
     <use transform="translate(256.835938 0.09375)" xlink:href="#STIXNonUnicode-Italic-e235"/>
     <use transform="translate(315.292953 -16.3125)scale(0.7)" xlink:href="#DejaVuSans-Oblique-43"/>
     <use transform="translate(364.169907 -16.3125)scale(0.7)" xlink:href="#DejaVuSans-Oblique-53"/>
     <use transform="translate(408.6035 -16.3125)scale(0.7)" xlink:href="#DejaVuSans-Oblique-41"/>
    </g>
   </g>
  </g>
 </g>
 <defs>
  <clipPath id="pda59488178">
   <rect height="273.4" width="379.15" x="65.45" y="16.2"/>
  </clipPath>
  <clipPath id="p9028a5d6db">
   <rect height="123.03" width="265.405" x="112.84375" y="84.55"/>
  </clipPath>
 </defs>
</svg>
