<?xml version="1.0" encoding="utf-8" standalone="no"?>
<!DOCTYPE svg PUBLIC "-//W3C//DTD SVG 1.1//EN"
  "http://www.w3.org/Graphics/SVG/1.1/DTD/svg11.dtd">
<svg height="576pt" version="1.1" viewBox="0 0 302.4 576" width="302.4pt" xmlns="http://www.w3.org/2000/svg" xmlns:xlink="http://www.w3.org/1999/xlink">
 <metadata>
  <rdf:RDF xmlns:cc="http://creativecommons.org/ns#" xmlns:dc="http://purl.org/dc/elements/1.1/" xmlns:rdf="http://www.w3.org/1999/02/22-rdf-syntax-ns#">
   <cc:Work>
    <dc:type rdf:resource="http://purl.org/dc/dcmitype/StillImage"/>
    <dc:date>2023-03-16T20:48:47.818246</dc:date>
    <dc:format>image/svg+xml</dc:format>
    <dc:creator>
     <cc:Agent>
      <dc:title>Matplotlib v3.4.3, https://matplotlib.org/</dc:title>
     </cc:Agent>
    </dc:creator>
   </cc:Work>
  </rdf:RDF>
 </metadata>
 <defs>
  <style type="text/css">*{stroke-linecap:butt;stroke-linejoin:round;}</style>
 </defs>
 <g id="figure_1">
  <g id="patch_1">
   <path d="M 0 576 
L 302.4 576 
L 302.4 0 
L 0 0 
z
" style="fill:#ffffff;"/>
  </g>
  <g id="axes_1">
   <g id="patch_2">
    <path d="M 20.97 85.192453 
L 286.2 85.192453 
L 286.2 50.541509 
L 20.97 50.541509 
z
" style="fill:#ffffff;"/>
   </g>
   <g id="matplotlib.axis_1">
    <g id="xtick_1">
     <g id="line2d_1">
      <defs>
       <path d="M 0 0 
L 0 3.5 
" id="m3c03e8826b" style="stroke:#000000;stroke-width:0.8;"/>
      </defs>
      <g>
       <use style="stroke:#000000;stroke-width:0.8;" x="20.97" xlink:href="#m3c03e8826b" y="85.192453"/>
      </g>
     </g>
    </g>
    <g id="xtick_2">
     <g id="line2d_2">
      <g>
       <use style="stroke:#000000;stroke-width:0.8;" x="91.698" xlink:href="#m3c03e8826b" y="85.192453"/>
      </g>
     </g>
    </g>
    <g id="xtick_3">
     <g id="line2d_3">
      <g>
       <use style="stroke:#000000;stroke-width:0.8;" x="162.426" xlink:href="#m3c03e8826b" y="85.192453"/>
      </g>
     </g>
    </g>
    <g id="xtick_4">
     <g id="line2d_4">
      <g>
       <use style="stroke:#000000;stroke-width:0.8;" x="233.154" xlink:href="#m3c03e8826b" y="85.192453"/>
      </g>
     </g>
    </g>
   </g>
   <g id="line2d_5">
    <path clip-path="url(#p3eeac027eb)" d="M 20.97 82.073505 
L 21.32364 77.452302 
L 22.38456 55.518641 
L 22.7382 52.171044 
L 23.09184 52.202635 
L 23.44548 54.937235 
L 25.21368 76.195796 
L 25.92096 80.352456 
L 26.2746 81.541771 
L 26.62824 82.330015 
L 27.33552 83.15371 
L 28.0428 83.462743 
L 29.10372 83.590972 
L 32.99376 83.617393 
L 286.55364 83.61741 
L 286.55364 83.61741 
" style="fill:none;stroke:#000000;stroke-linecap:square;stroke-width:1.5;"/>
   </g>
   <g id="line2d_6">
    <path clip-path="url(#p3eeac027eb)" d="M 20.97 82.091605 
L 21.32364 77.489931 
L 22.38456 55.470356 
L 22.7382 52.116552 
L 23.09184 52.165216 
L 23.44548 54.925383 
L 25.21368 76.211689 
L 25.92096 80.357394 
L 26.2746 81.54286 
L 26.62824 82.328545 
L 27.33552 83.150294 
L 28.0428 83.459861 
L 29.10372 83.589779 
L 32.99376 83.617389 
L 286.55364 83.61741 
L 286.55364 83.61741 
" style="fill:none;stroke:#ff0000;stroke-dasharray:5.55,2.4;stroke-dashoffset:0;stroke-width:1.5;"/>
   </g>
   <g id="patch_3">
    <path d="M 20.97 85.192453 
L 286.2 85.192453 
" style="fill:none;stroke:#000000;stroke-linecap:square;stroke-linejoin:miter;stroke-width:0.8;"/>
   </g>
   <g id="text_1">
    <!-- 0.2 a.u. L -->
    <g transform="translate(216.220313 62.285675)scale(0.15 -0.15)">
     <defs>
      <path d="M 2034 4250 
Q 1547 4250 1301 3770 
Q 1056 3291 1056 2328 
Q 1056 1369 1301 889 
Q 1547 409 2034 409 
Q 2525 409 2770 889 
Q 3016 1369 3016 2328 
Q 3016 3291 2770 3770 
Q 2525 4250 2034 4250 
z
M 2034 4750 
Q 2819 4750 3233 4129 
Q 3647 3509 3647 2328 
Q 3647 1150 3233 529 
Q 2819 -91 2034 -91 
Q 1250 -91 836 529 
Q 422 1150 422 2328 
Q 422 3509 836 4129 
Q 1250 4750 2034 4750 
z
" id="DejaVuSans-30" transform="scale(0.015625)"/>
      <path d="M 684 794 
L 1344 794 
L 1344 0 
L 684 0 
L 684 794 
z
" id="DejaVuSans-2e" transform="scale(0.015625)"/>
      <path d="M 1228 531 
L 3431 531 
L 3431 0 
L 469 0 
L 469 531 
Q 828 903 1448 1529 
Q 2069 2156 2228 2338 
Q 2531 2678 2651 2914 
Q 2772 3150 2772 3378 
Q 2772 3750 2511 3984 
Q 2250 4219 1831 4219 
Q 1534 4219 1204 4116 
Q 875 4013 500 3803 
L 500 4441 
Q 881 4594 1212 4672 
Q 1544 4750 1819 4750 
Q 2544 4750 2975 4387 
Q 3406 4025 3406 3419 
Q 3406 3131 3298 2873 
Q 3191 2616 2906 2266 
Q 2828 2175 2409 1742 
Q 1991 1309 1228 531 
z
" id="DejaVuSans-32" transform="scale(0.015625)"/>
      <path id="DejaVuSans-20" transform="scale(0.015625)"/>
      <path d="M 2194 1759 
Q 1497 1759 1228 1600 
Q 959 1441 959 1056 
Q 959 750 1161 570 
Q 1363 391 1709 391 
Q 2188 391 2477 730 
Q 2766 1069 2766 1631 
L 2766 1759 
L 2194 1759 
z
M 3341 1997 
L 3341 0 
L 2766 0 
L 2766 531 
Q 2569 213 2275 61 
Q 1981 -91 1556 -91 
Q 1019 -91 701 211 
Q 384 513 384 1019 
Q 384 1609 779 1909 
Q 1175 2209 1959 2209 
L 2766 2209 
L 2766 2266 
Q 2766 2663 2505 2880 
Q 2244 3097 1772 3097 
Q 1472 3097 1187 3025 
Q 903 2953 641 2809 
L 641 3341 
Q 956 3463 1253 3523 
Q 1550 3584 1831 3584 
Q 2591 3584 2966 3190 
Q 3341 2797 3341 1997 
z
" id="DejaVuSans-61" transform="scale(0.015625)"/>
      <path d="M 544 1381 
L 544 3500 
L 1119 3500 
L 1119 1403 
Q 1119 906 1312 657 
Q 1506 409 1894 409 
Q 2359 409 2629 706 
Q 2900 1003 2900 1516 
L 2900 3500 
L 3475 3500 
L 3475 0 
L 2900 0 
L 2900 538 
Q 2691 219 2414 64 
Q 2138 -91 1772 -91 
Q 1169 -91 856 284 
Q 544 659 544 1381 
z
M 1991 3584 
L 1991 3584 
z
" id="DejaVuSans-75" transform="scale(0.015625)"/>
      <path d="M 628 4666 
L 1259 4666 
L 1259 531 
L 3531 531 
L 3531 0 
L 628 0 
L 628 4666 
z
" id="DejaVuSans-4c" transform="scale(0.015625)"/>
     </defs>
     <use xlink:href="#DejaVuSans-30"/>
     <use x="63.623047" xlink:href="#DejaVuSans-2e"/>
     <use x="95.410156" xlink:href="#DejaVuSans-32"/>
     <use x="159.033203" xlink:href="#DejaVuSans-20"/>
     <use x="190.820312" xlink:href="#DejaVuSans-61"/>
     <use x="252.099609" xlink:href="#DejaVuSans-2e"/>
     <use x="283.886719" xlink:href="#DejaVuSans-75"/>
     <use x="347.265625" xlink:href="#DejaVuSans-2e"/>
     <use x="379.052734" xlink:href="#DejaVuSans-20"/>
     <use x="410.839844" xlink:href="#DejaVuSans-4c"/>
    </g>
   </g>
   <g id="legend_1">
    <g id="line2d_7">
     <path d="M 85.848281 35.538222 
L 115.848281 35.538222 
" style="fill:none;stroke:#000000;stroke-linecap:square;stroke-width:1.5;"/>
    </g>
    <g id="line2d_8"/>
    <g id="text_2">
     <!-- Avg. Poisson -->
     <g transform="translate(127.848281 40.788222)scale(0.15 -0.15)">
      <defs>
       <path d="M 2188 4044 
L 1331 1722 
L 3047 1722 
L 2188 4044 
z
M 1831 4666 
L 2547 4666 
L 4325 0 
L 3669 0 
L 3244 1197 
L 1141 1197 
L 716 0 
L 50 0 
L 1831 4666 
z
" id="DejaVuSans-41" transform="scale(0.015625)"/>
       <path d="M 191 3500 
L 800 3500 
L 1894 563 
L 2988 3500 
L 3597 3500 
L 2284 0 
L 1503 0 
L 191 3500 
z
" id="DejaVuSans-76" transform="scale(0.015625)"/>
       <path d="M 2906 1791 
Q 2906 2416 2648 2759 
Q 2391 3103 1925 3103 
Q 1463 3103 1205 2759 
Q 947 2416 947 1791 
Q 947 1169 1205 825 
Q 1463 481 1925 481 
Q 2391 481 2648 825 
Q 2906 1169 2906 1791 
z
M 3481 434 
Q 3481 -459 3084 -895 
Q 2688 -1331 1869 -1331 
Q 1566 -1331 1297 -1286 
Q 1028 -1241 775 -1147 
L 775 -588 
Q 1028 -725 1275 -790 
Q 1522 -856 1778 -856 
Q 2344 -856 2625 -561 
Q 2906 -266 2906 331 
L 2906 616 
Q 2728 306 2450 153 
Q 2172 0 1784 0 
Q 1141 0 747 490 
Q 353 981 353 1791 
Q 353 2603 747 3093 
Q 1141 3584 1784 3584 
Q 2172 3584 2450 3431 
Q 2728 3278 2906 2969 
L 2906 3500 
L 3481 3500 
L 3481 434 
z
" id="DejaVuSans-67" transform="scale(0.015625)"/>
       <path d="M 1259 4147 
L 1259 2394 
L 2053 2394 
Q 2494 2394 2734 2622 
Q 2975 2850 2975 3272 
Q 2975 3691 2734 3919 
Q 2494 4147 2053 4147 
L 1259 4147 
z
M 628 4666 
L 2053 4666 
Q 2838 4666 3239 4311 
Q 3641 3956 3641 3272 
Q 3641 2581 3239 2228 
Q 2838 1875 2053 1875 
L 1259 1875 
L 1259 0 
L 628 0 
L 628 4666 
z
" id="DejaVuSans-50" transform="scale(0.015625)"/>
       <path d="M 1959 3097 
Q 1497 3097 1228 2736 
Q 959 2375 959 1747 
Q 959 1119 1226 758 
Q 1494 397 1959 397 
Q 2419 397 2687 759 
Q 2956 1122 2956 1747 
Q 2956 2369 2687 2733 
Q 2419 3097 1959 3097 
z
M 1959 3584 
Q 2709 3584 3137 3096 
Q 3566 2609 3566 1747 
Q 3566 888 3137 398 
Q 2709 -91 1959 -91 
Q 1206 -91 779 398 
Q 353 888 353 1747 
Q 353 2609 779 3096 
Q 1206 3584 1959 3584 
z
" id="DejaVuSans-6f" transform="scale(0.015625)"/>
       <path d="M 603 3500 
L 1178 3500 
L 1178 0 
L 603 0 
L 603 3500 
z
M 603 4863 
L 1178 4863 
L 1178 4134 
L 603 4134 
L 603 4863 
z
" id="DejaVuSans-69" transform="scale(0.015625)"/>
       <path d="M 2834 3397 
L 2834 2853 
Q 2591 2978 2328 3040 
Q 2066 3103 1784 3103 
Q 1356 3103 1142 2972 
Q 928 2841 928 2578 
Q 928 2378 1081 2264 
Q 1234 2150 1697 2047 
L 1894 2003 
Q 2506 1872 2764 1633 
Q 3022 1394 3022 966 
Q 3022 478 2636 193 
Q 2250 -91 1575 -91 
Q 1294 -91 989 -36 
Q 684 19 347 128 
L 347 722 
Q 666 556 975 473 
Q 1284 391 1588 391 
Q 1994 391 2212 530 
Q 2431 669 2431 922 
Q 2431 1156 2273 1281 
Q 2116 1406 1581 1522 
L 1381 1569 
Q 847 1681 609 1914 
Q 372 2147 372 2553 
Q 372 3047 722 3315 
Q 1072 3584 1716 3584 
Q 2034 3584 2315 3537 
Q 2597 3491 2834 3397 
z
" id="DejaVuSans-73" transform="scale(0.015625)"/>
       <path d="M 3513 2113 
L 3513 0 
L 2938 0 
L 2938 2094 
Q 2938 2591 2744 2837 
Q 2550 3084 2163 3084 
Q 1697 3084 1428 2787 
Q 1159 2491 1159 1978 
L 1159 0 
L 581 0 
L 581 3500 
L 1159 3500 
L 1159 2956 
Q 1366 3272 1645 3428 
Q 1925 3584 2291 3584 
Q 2894 3584 3203 3211 
Q 3513 2838 3513 2113 
z
" id="DejaVuSans-6e" transform="scale(0.015625)"/>
      </defs>
      <use xlink:href="#DejaVuSans-41"/>
      <use x="62.533203" xlink:href="#DejaVuSans-76"/>
      <use x="121.712891" xlink:href="#DejaVuSans-67"/>
      <use x="185.189453" xlink:href="#DejaVuSans-2e"/>
      <use x="216.976562" xlink:href="#DejaVuSans-20"/>
      <use x="248.763672" xlink:href="#DejaVuSans-50"/>
      <use x="305.441406" xlink:href="#DejaVuSans-6f"/>
      <use x="366.623047" xlink:href="#DejaVuSans-69"/>
      <use x="394.40625" xlink:href="#DejaVuSans-73"/>
      <use x="446.505859" xlink:href="#DejaVuSans-73"/>
      <use x="498.605469" xlink:href="#DejaVuSans-6f"/>
      <use x="559.787109" xlink:href="#DejaVuSans-6e"/>
     </g>
    </g>
    <g id="line2d_9">
     <path d="M 85.848281 57.55541 
L 115.848281 57.55541 
" style="fill:none;stroke:#ff0000;stroke-dasharray:5.55,2.4;stroke-dashoffset:0;stroke-width:1.5;"/>
    </g>
    <g id="line2d_10"/>
    <g id="text_3">
     <!-- nBinom -->
     <g transform="translate(127.848281 62.80541)scale(0.15 -0.15)">
      <defs>
       <path d="M 1259 2228 
L 1259 519 
L 2272 519 
Q 2781 519 3026 730 
Q 3272 941 3272 1375 
Q 3272 1813 3026 2020 
Q 2781 2228 2272 2228 
L 1259 2228 
z
M 1259 4147 
L 1259 2741 
L 2194 2741 
Q 2656 2741 2882 2914 
Q 3109 3088 3109 3444 
Q 3109 3797 2882 3972 
Q 2656 4147 2194 4147 
L 1259 4147 
z
M 628 4666 
L 2241 4666 
Q 2963 4666 3353 4366 
Q 3744 4066 3744 3513 
Q 3744 3084 3544 2831 
Q 3344 2578 2956 2516 
Q 3422 2416 3680 2098 
Q 3938 1781 3938 1306 
Q 3938 681 3513 340 
Q 3088 0 2303 0 
L 628 0 
L 628 4666 
z
" id="DejaVuSans-42" transform="scale(0.015625)"/>
       <path d="M 3328 2828 
Q 3544 3216 3844 3400 
Q 4144 3584 4550 3584 
Q 5097 3584 5394 3201 
Q 5691 2819 5691 2113 
L 5691 0 
L 5113 0 
L 5113 2094 
Q 5113 2597 4934 2840 
Q 4756 3084 4391 3084 
Q 3944 3084 3684 2787 
Q 3425 2491 3425 1978 
L 3425 0 
L 2847 0 
L 2847 2094 
Q 2847 2600 2669 2842 
Q 2491 3084 2119 3084 
Q 1678 3084 1418 2786 
Q 1159 2488 1159 1978 
L 1159 0 
L 581 0 
L 581 3500 
L 1159 3500 
L 1159 2956 
Q 1356 3278 1631 3431 
Q 1906 3584 2284 3584 
Q 2666 3584 2933 3390 
Q 3200 3197 3328 2828 
z
" id="DejaVuSans-6d" transform="scale(0.015625)"/>
      </defs>
      <use xlink:href="#DejaVuSans-6e"/>
      <use x="63.378906" xlink:href="#DejaVuSans-42"/>
      <use x="131.982422" xlink:href="#DejaVuSans-69"/>
      <use x="159.765625" xlink:href="#DejaVuSans-6e"/>
      <use x="223.144531" xlink:href="#DejaVuSans-6f"/>
      <use x="284.326172" xlink:href="#DejaVuSans-6d"/>
     </g>
    </g>
   </g>
  </g>
  <g id="axes_2">
   <g id="patch_4">
    <path d="M 20.97 139.543396 
L 286.2 139.543396 
L 286.2 104.892453 
L 20.97 104.892453 
z
" style="fill:#ffffff;"/>
   </g>
   <g id="matplotlib.axis_2">
    <g id="xtick_5">
     <g id="line2d_11">
      <g>
       <use style="stroke:#000000;stroke-width:0.8;" x="20.97" xlink:href="#m3c03e8826b" y="139.543396"/>
      </g>
     </g>
    </g>
    <g id="xtick_6">
     <g id="line2d_12">
      <g>
       <use style="stroke:#000000;stroke-width:0.8;" x="91.698" xlink:href="#m3c03e8826b" y="139.543396"/>
      </g>
     </g>
    </g>
    <g id="xtick_7">
     <g id="line2d_13">
      <g>
       <use style="stroke:#000000;stroke-width:0.8;" x="162.426" xlink:href="#m3c03e8826b" y="139.543396"/>
      </g>
     </g>
    </g>
    <g id="xtick_8">
     <g id="line2d_14">
      <g>
       <use style="stroke:#000000;stroke-width:0.8;" x="233.154" xlink:href="#m3c03e8826b" y="139.543396"/>
      </g>
     </g>
    </g>
   </g>
   <g id="line2d_15">
    <path clip-path="url(#p6f1d84475c)" d="M 20.97 137.968341 
L 23.44548 137.857142 
L 24.15276 137.627995 
L 24.86004 137.157851 
L 25.56732 136.349499 
L 26.2746 135.123895 
L 26.98188 133.433576 
L 28.0428 130.0237 
L 29.10372 125.730087 
L 32.28648 112.066142 
L 32.99376 109.861363 
L 33.70104 108.195141 
L 34.40832 107.106125 
L 35.1156 106.599381 
L 35.46924 106.558306 
L 35.82288 106.652605 
L 36.53016 107.221425 
L 37.23744 108.243688 
L 37.94472 109.643785 
L 39.00564 112.268534 
L 41.12748 118.400307 
L 43.24932 124.321543 
L 44.66388 127.672492 
L 46.07844 130.416394 
L 47.13936 132.076682 
L 48.20028 133.426211 
L 49.61484 134.812003 
L 51.0294 135.817787 
L 52.44396 136.53402 
L 54.21216 137.131803 
L 56.334 137.551548 
L 58.80948 137.794612 
L 62.69952 137.927202 
L 73.30872 137.967631 
L 286.55364 137.968353 
L 286.55364 137.968353 
" style="fill:none;stroke:#000000;stroke-linecap:square;stroke-width:1.5;"/>
   </g>
   <g id="line2d_16">
    <path clip-path="url(#p6f1d84475c)" d="M 20.97 137.968317 
L 23.44548 137.856919 
L 24.15276 137.645524 
L 24.86004 137.209638 
L 25.56732 136.44212 
L 26.2746 135.246952 
L 26.98188 133.561737 
L 27.68916 131.374248 
L 28.75008 127.264458 
L 32.64012 110.738777 
L 33.3474 108.792058 
L 34.05468 107.421627 
L 34.76196 106.650672 
L 35.1156 106.487552 
L 35.46924 106.467496 
L 35.82288 106.584573 
L 36.53016 107.199861 
L 37.23744 108.263071 
L 38.29836 110.519351 
L 39.71292 114.320741 
L 43.24932 124.362281 
L 44.66388 127.690507 
L 46.07844 130.421896 
L 47.493 132.566729 
L 48.55392 133.828268 
L 49.96848 135.11768 
L 51.38304 136.043253 
L 52.7976 136.691167 
L 54.5658 137.220818 
L 56.68764 137.586929 
L 59.51676 137.819714 
L 64.11408 137.939094 
L 77.90604 137.96822 
L 286.55364 137.968353 
L 286.55364 137.968353 
" style="fill:none;stroke:#ff0000;stroke-dasharray:5.55,2.4;stroke-dashoffset:0;stroke-width:1.5;"/>
   </g>
   <g id="patch_5">
    <path d="M 20.97 139.543396 
L 286.2 139.543396 
" style="fill:none;stroke:#000000;stroke-linecap:square;stroke-linejoin:miter;stroke-width:0.8;"/>
   </g>
   <g id="text_4">
    <!-- 1.5 a.u. L -->
    <g transform="translate(216.220313 116.636619)scale(0.15 -0.15)">
     <defs>
      <path d="M 794 531 
L 1825 531 
L 1825 4091 
L 703 3866 
L 703 4441 
L 1819 4666 
L 2450 4666 
L 2450 531 
L 3481 531 
L 3481 0 
L 794 0 
L 794 531 
z
" id="DejaVuSans-31" transform="scale(0.015625)"/>
      <path d="M 691 4666 
L 3169 4666 
L 3169 4134 
L 1269 4134 
L 1269 2991 
Q 1406 3038 1543 3061 
Q 1681 3084 1819 3084 
Q 2600 3084 3056 2656 
Q 3513 2228 3513 1497 
Q 3513 744 3044 326 
Q 2575 -91 1722 -91 
Q 1428 -91 1123 -41 
Q 819 9 494 109 
L 494 744 
Q 775 591 1075 516 
Q 1375 441 1709 441 
Q 2250 441 2565 725 
Q 2881 1009 2881 1497 
Q 2881 1984 2565 2268 
Q 2250 2553 1709 2553 
Q 1456 2553 1204 2497 
Q 953 2441 691 2322 
L 691 4666 
z
" id="DejaVuSans-35" transform="scale(0.015625)"/>
     </defs>
     <use xlink:href="#DejaVuSans-31"/>
     <use x="63.623047" xlink:href="#DejaVuSans-2e"/>
     <use x="95.410156" xlink:href="#DejaVuSans-35"/>
     <use x="159.033203" xlink:href="#DejaVuSans-20"/>
     <use x="190.820312" xlink:href="#DejaVuSans-61"/>
     <use x="252.099609" xlink:href="#DejaVuSans-2e"/>
     <use x="283.886719" xlink:href="#DejaVuSans-75"/>
     <use x="347.265625" xlink:href="#DejaVuSans-2e"/>
     <use x="379.052734" xlink:href="#DejaVuSans-20"/>
     <use x="410.839844" xlink:href="#DejaVuSans-4c"/>
    </g>
   </g>
  </g>
  <g id="axes_3">
   <g id="patch_6">
    <path d="M 20.97 193.89434 
L 286.2 193.89434 
L 286.2 159.243396 
L 20.97 159.243396 
z
" style="fill:#ffffff;"/>
   </g>
   <g id="matplotlib.axis_3">
    <g id="xtick_9">
     <g id="line2d_17">
      <g>
       <use style="stroke:#000000;stroke-width:0.8;" x="20.97" xlink:href="#m3c03e8826b" y="193.89434"/>
      </g>
     </g>
    </g>
    <g id="xtick_10">
     <g id="line2d_18">
      <g>
       <use style="stroke:#000000;stroke-width:0.8;" x="91.698" xlink:href="#m3c03e8826b" y="193.89434"/>
      </g>
     </g>
    </g>
    <g id="xtick_11">
     <g id="line2d_19">
      <g>
       <use style="stroke:#000000;stroke-width:0.8;" x="162.426" xlink:href="#m3c03e8826b" y="193.89434"/>
      </g>
     </g>
    </g>
    <g id="xtick_12">
     <g id="line2d_20">
      <g>
       <use style="stroke:#000000;stroke-width:0.8;" x="233.154" xlink:href="#m3c03e8826b" y="193.89434"/>
      </g>
     </g>
    </g>
   </g>
   <g id="line2d_21">
    <path clip-path="url(#p35e7dd08d8)" d="M 20.97 192.319297 
L 26.2746 192.235685 
L 27.68916 191.992664 
L 28.75008 191.615484 
L 29.811 191.0074 
L 30.87192 190.117731 
L 31.93284 188.909736 
L 32.99376 187.366841 
L 34.40832 184.797708 
L 35.82288 181.698929 
L 37.94472 176.355389 
L 40.77384 169.189259 
L 42.1884 166.173079 
L 43.24932 164.31573 
L 44.31024 162.85382 
L 45.37116 161.806374 
L 46.07844 161.339356 
L 46.78572 161.054272 
L 47.493 160.946726 
L 48.20028 161.011465 
L 48.90756 161.242508 
L 49.96848 161.884939 
L 51.0294 162.85304 
L 52.09032 164.101527 
L 53.50488 166.101644 
L 55.98036 170.112447 
L 60.57768 177.621081 
L 62.69952 180.675835 
L 64.46772 182.902124 
L 66.23592 184.804812 
L 68.00412 186.388088 
L 69.77232 187.680562 
L 71.54052 188.721833 
L 73.66236 189.698062 
L 75.7842 190.438056 
L 78.25968 191.072864 
L 81.0888 191.568897 
L 84.6252 191.940264 
L 89.22252 192.173523 
L 96.64896 192.29029 
L 122.81832 192.319291 
L 286.55364 192.319297 
L 286.55364 192.319297 
" style="fill:none;stroke:#000000;stroke-linecap:square;stroke-width:1.5;"/>
   </g>
   <g id="line2d_22">
    <path clip-path="url(#p35e7dd08d8)" d="M 20.97 192.319296 
L 26.2746 192.229544 
L 27.68916 192.012219 
L 28.75008 191.673625 
L 29.811 191.111011 
L 30.87192 190.260607 
L 31.93284 189.072188 
L 32.99376 187.518258 
L 34.05468 185.600062 
L 35.46924 182.53536 
L 37.23744 178.11826 
L 40.77384 169.055953 
L 42.1884 166.014456 
L 43.24932 164.134007 
L 44.31024 162.654827 
L 45.37116 161.606216 
L 46.07844 161.151577 
L 46.78572 160.890726 
L 47.493 160.818439 
L 48.20028 160.926641 
L 48.90756 161.204852 
L 49.96848 161.913344 
L 51.0294 162.928302 
L 52.44396 164.66807 
L 54.21216 167.286722 
L 57.39492 172.561397 
L 60.57768 177.689986 
L 62.69952 180.708346 
L 64.46772 182.901405 
L 66.23592 184.786435 
L 68.00412 186.371779 
L 69.77232 187.679681 
L 71.54052 188.740323 
L 73.66236 189.733968 
L 75.7842 190.477566 
L 78.25968 191.099361 
L 81.0888 191.572239 
L 84.6252 191.925292 
L 89.57616 192.165407 
L 97.35624 192.287183 
L 119.28192 192.319047 
L 286.55364 192.319297 
L 286.55364 192.319297 
" style="fill:none;stroke:#ff0000;stroke-dasharray:5.55,2.4;stroke-dashoffset:0;stroke-width:1.5;"/>
   </g>
   <g id="patch_7">
    <path d="M 20.97 193.89434 
L 286.2 193.89434 
" style="fill:none;stroke:#000000;stroke-linecap:square;stroke-linejoin:miter;stroke-width:0.8;"/>
   </g>
   <g id="text_5">
    <!-- 3.0 a.u. L -->
    <g transform="translate(216.220313 170.987562)scale(0.15 -0.15)">
     <defs>
      <path d="M 2597 2516 
Q 3050 2419 3304 2112 
Q 3559 1806 3559 1356 
Q 3559 666 3084 287 
Q 2609 -91 1734 -91 
Q 1441 -91 1130 -33 
Q 819 25 488 141 
L 488 750 
Q 750 597 1062 519 
Q 1375 441 1716 441 
Q 2309 441 2620 675 
Q 2931 909 2931 1356 
Q 2931 1769 2642 2001 
Q 2353 2234 1838 2234 
L 1294 2234 
L 1294 2753 
L 1863 2753 
Q 2328 2753 2575 2939 
Q 2822 3125 2822 3475 
Q 2822 3834 2567 4026 
Q 2313 4219 1838 4219 
Q 1578 4219 1281 4162 
Q 984 4106 628 3988 
L 628 4550 
Q 988 4650 1302 4700 
Q 1616 4750 1894 4750 
Q 2613 4750 3031 4423 
Q 3450 4097 3450 3541 
Q 3450 3153 3228 2886 
Q 3006 2619 2597 2516 
z
" id="DejaVuSans-33" transform="scale(0.015625)"/>
     </defs>
     <use xlink:href="#DejaVuSans-33"/>
     <use x="63.623047" xlink:href="#DejaVuSans-2e"/>
     <use x="95.410156" xlink:href="#DejaVuSans-30"/>
     <use x="159.033203" xlink:href="#DejaVuSans-20"/>
     <use x="190.820312" xlink:href="#DejaVuSans-61"/>
     <use x="252.099609" xlink:href="#DejaVuSans-2e"/>
     <use x="283.886719" xlink:href="#DejaVuSans-75"/>
     <use x="347.265625" xlink:href="#DejaVuSans-2e"/>
     <use x="379.052734" xlink:href="#DejaVuSans-20"/>
     <use x="410.839844" xlink:href="#DejaVuSans-4c"/>
    </g>
   </g>
  </g>
  <g id="axes_4">
   <g id="patch_8">
    <path d="M 20.97 248.245283 
L 286.2 248.245283 
L 286.2 213.59434 
L 20.97 213.59434 
z
" style="fill:#ffffff;"/>
   </g>
   <g id="matplotlib.axis_4">
    <g id="xtick_13">
     <g id="line2d_23">
      <g>
       <use style="stroke:#000000;stroke-width:0.8;" x="20.97" xlink:href="#m3c03e8826b" y="248.245283"/>
      </g>
     </g>
    </g>
    <g id="xtick_14">
     <g id="line2d_24">
      <g>
       <use style="stroke:#000000;stroke-width:0.8;" x="91.698" xlink:href="#m3c03e8826b" y="248.245283"/>
      </g>
     </g>
    </g>
    <g id="xtick_15">
     <g id="line2d_25">
      <g>
       <use style="stroke:#000000;stroke-width:0.8;" x="162.426" xlink:href="#m3c03e8826b" y="248.245283"/>
      </g>
     </g>
    </g>
    <g id="xtick_16">
     <g id="line2d_26">
      <g>
       <use style="stroke:#000000;stroke-width:0.8;" x="233.154" xlink:href="#m3c03e8826b" y="248.245283"/>
      </g>
     </g>
    </g>
   </g>
   <g id="line2d_27">
    <path clip-path="url(#p1b763173dd)" d="M 20.97 246.67024 
L 29.45736 246.571245 
L 31.22556 246.341251 
L 32.99376 245.872139 
L 34.40832 245.265259 
L 35.82288 244.407893 
L 37.23744 243.270223 
L 38.652 241.841641 
L 40.06656 240.129583 
L 41.83476 237.612587 
L 43.60296 234.718392 
L 46.43208 229.58162 
L 49.61484 223.894932 
L 51.38304 221.163164 
L 52.7976 219.310787 
L 54.21216 217.797755 
L 55.62672 216.646987 
L 56.68764 216.025152 
L 57.74856 215.60517 
L 58.80948 215.37859 
L 59.8704 215.336953 
L 60.93132 215.474601 
L 61.99224 215.788966 
L 63.4068 216.479118 
L 64.82136 217.463604 
L 66.23592 218.704313 
L 68.35776 220.914065 
L 72.2478 225.426953 
L 77.19876 231.09475 
L 80.38152 234.420521 
L 82.857 236.711611 
L 85.33248 238.682963 
L 87.80796 240.327963 
L 90.28344 241.676573 
L 92.75892 242.769405 
L 95.58804 243.754764 
L 98.7708 244.59632 
L 102.3072 245.286757 
L 106.19724 245.821262 
L 110.79456 246.215062 
L 116.80644 246.477484 
L 126.00108 246.626725 
L 147.92676 246.667946 
L 286.55364 246.67024 
L 286.55364 246.67024 
" style="fill:none;stroke:#000000;stroke-linecap:square;stroke-width:1.5;"/>
   </g>
   <g id="line2d_28">
    <path clip-path="url(#p1b763173dd)" d="M 20.97 246.67024 
L 29.45736 246.56388 
L 31.5792 246.300455 
L 33.3474 245.828004 
L 34.76196 245.207551 
L 36.17652 244.317382 
L 37.59108 243.120976 
L 39.00564 241.600974 
L 40.4202 239.762889 
L 42.1884 237.064789 
L 44.31024 233.383992 
L 50.32212 222.627125 
L 52.09032 220.039715 
L 53.50488 218.321743 
L 54.91944 216.960365 
L 55.98036 216.18782 
L 57.04128 215.63303 
L 58.1022 215.295215 
L 59.16312 215.169383 
L 60.22404 215.246852 
L 61.28496 215.515832 
L 62.69952 216.147373 
L 64.11408 217.0548 
L 65.88228 218.511977 
L 68.00412 220.620557 
L 70.83324 223.80781 
L 77.90604 231.958685 
L 80.73516 234.812097 
L 83.21064 237.006508 
L 85.68612 238.902131 
L 88.1616 240.504805 
L 90.63708 241.834311 
L 93.11256 242.918667 
L 95.94168 243.898571 
L 98.7708 244.647891 
L 101.95356 245.271106 
L 105.8436 245.794551 
L 110.44092 246.178723 
L 116.4528 246.447172 
L 125.64744 246.607892 
L 145.09764 246.666844 
L 286.55364 246.67024 
L 286.55364 246.67024 
" style="fill:none;stroke:#ff0000;stroke-dasharray:5.55,2.4;stroke-dashoffset:0;stroke-width:1.5;"/>
   </g>
   <g id="patch_9">
    <path d="M 20.97 248.245283 
L 286.2 248.245283 
" style="fill:none;stroke:#000000;stroke-linecap:square;stroke-linejoin:miter;stroke-width:0.8;"/>
   </g>
   <g id="text_6">
    <!-- 4.8 a.u. L -->
    <g transform="translate(216.220313 225.338505)scale(0.15 -0.15)">
     <defs>
      <path d="M 2419 4116 
L 825 1625 
L 2419 1625 
L 2419 4116 
z
M 2253 4666 
L 3047 4666 
L 3047 1625 
L 3713 1625 
L 3713 1100 
L 3047 1100 
L 3047 0 
L 2419 0 
L 2419 1100 
L 313 1100 
L 313 1709 
L 2253 4666 
z
" id="DejaVuSans-34" transform="scale(0.015625)"/>
      <path d="M 2034 2216 
Q 1584 2216 1326 1975 
Q 1069 1734 1069 1313 
Q 1069 891 1326 650 
Q 1584 409 2034 409 
Q 2484 409 2743 651 
Q 3003 894 3003 1313 
Q 3003 1734 2745 1975 
Q 2488 2216 2034 2216 
z
M 1403 2484 
Q 997 2584 770 2862 
Q 544 3141 544 3541 
Q 544 4100 942 4425 
Q 1341 4750 2034 4750 
Q 2731 4750 3128 4425 
Q 3525 4100 3525 3541 
Q 3525 3141 3298 2862 
Q 3072 2584 2669 2484 
Q 3125 2378 3379 2068 
Q 3634 1759 3634 1313 
Q 3634 634 3220 271 
Q 2806 -91 2034 -91 
Q 1263 -91 848 271 
Q 434 634 434 1313 
Q 434 1759 690 2068 
Q 947 2378 1403 2484 
z
M 1172 3481 
Q 1172 3119 1398 2916 
Q 1625 2713 2034 2713 
Q 2441 2713 2670 2916 
Q 2900 3119 2900 3481 
Q 2900 3844 2670 4047 
Q 2441 4250 2034 4250 
Q 1625 4250 1398 4047 
Q 1172 3844 1172 3481 
z
" id="DejaVuSans-38" transform="scale(0.015625)"/>
     </defs>
     <use xlink:href="#DejaVuSans-34"/>
     <use x="63.623047" xlink:href="#DejaVuSans-2e"/>
     <use x="95.410156" xlink:href="#DejaVuSans-38"/>
     <use x="159.033203" xlink:href="#DejaVuSans-20"/>
     <use x="190.820312" xlink:href="#DejaVuSans-61"/>
     <use x="252.099609" xlink:href="#DejaVuSans-2e"/>
     <use x="283.886719" xlink:href="#DejaVuSans-75"/>
     <use x="347.265625" xlink:href="#DejaVuSans-2e"/>
     <use x="379.052734" xlink:href="#DejaVuSans-20"/>
     <use x="410.839844" xlink:href="#DejaVuSans-4c"/>
    </g>
   </g>
  </g>
  <g id="axes_5">
   <g id="patch_10">
    <path d="M 20.97 302.596226 
L 286.2 302.596226 
L 286.2 267.945283 
L 20.97 267.945283 
z
" style="fill:#ffffff;"/>
   </g>
   <g id="matplotlib.axis_5">
    <g id="xtick_17">
     <g id="line2d_29">
      <g>
       <use style="stroke:#000000;stroke-width:0.8;" x="20.97" xlink:href="#m3c03e8826b" y="302.596226"/>
      </g>
     </g>
    </g>
    <g id="xtick_18">
     <g id="line2d_30">
      <g>
       <use style="stroke:#000000;stroke-width:0.8;" x="91.698" xlink:href="#m3c03e8826b" y="302.596226"/>
      </g>
     </g>
    </g>
    <g id="xtick_19">
     <g id="line2d_31">
      <g>
       <use style="stroke:#000000;stroke-width:0.8;" x="162.426" xlink:href="#m3c03e8826b" y="302.596226"/>
      </g>
     </g>
    </g>
    <g id="xtick_20">
     <g id="line2d_32">
      <g>
       <use style="stroke:#000000;stroke-width:0.8;" x="233.154" xlink:href="#m3c03e8826b" y="302.596226"/>
      </g>
     </g>
    </g>
   </g>
   <g id="line2d_33">
    <path clip-path="url(#pb6e3e6e9e0)" d="M 20.97 301.021184 
L 32.64012 300.913005 
L 35.1156 300.63564 
L 37.23744 300.167873 
L 39.00564 299.563312 
L 40.77384 298.724538 
L 42.54204 297.623203 
L 44.31024 296.251413 
L 46.07844 294.623004 
L 48.20028 292.347745 
L 50.32212 289.734923 
L 53.15124 285.842753 
L 58.45584 278.420581 
L 60.57768 275.857257 
L 62.34588 274.018417 
L 64.11408 272.485854 
L 65.88228 271.287912 
L 67.29684 270.581617 
L 68.7114 270.095307 
L 70.12596 269.81379 
L 71.54052 269.719181 
L 73.30872 269.848491 
L 74.72328 270.152477 
L 76.13784 270.643878 
L 77.90604 271.525707 
L 79.67424 272.680763 
L 81.79608 274.343013 
L 85.33248 277.454657 
L 93.81984 284.978825 
L 98.06352 288.449694 
L 101.24628 290.780413 
L 104.0754 292.584828 
L 106.90452 294.121051 
L 109.73364 295.411633 
L 112.9164 296.612939 
L 116.09916 297.583982 
L 119.63556 298.430739 
L 123.87924 299.201332 
L 128.8302 299.864487 
L 134.1348 300.347038 
L 140.50032 300.680511 
L 149.34132 300.896119 
L 163.48692 300.999441 
L 249.77508 301.021184 
L 286.55364 301.021184 
L 286.55364 301.021184 
" style="fill:none;stroke:#000000;stroke-linecap:square;stroke-width:1.5;"/>
   </g>
   <g id="line2d_34">
    <path clip-path="url(#pb6e3e6e9e0)" d="M 20.97 301.021184 
L 32.28648 300.924529 
L 35.1156 300.666894 
L 37.23744 300.252639 
L 39.00564 299.694367 
L 40.77384 298.893199 
L 42.54204 297.813375 
L 44.31024 296.434693 
L 46.07844 294.75616 
L 48.20028 292.375202 
L 50.67576 289.185713 
L 54.5658 283.687047 
L 58.1022 278.777127 
L 60.57768 275.726647 
L 62.34588 273.853393 
L 64.11408 272.287676 
L 65.88228 271.060822 
L 67.29684 270.335365 
L 68.7114 269.840683 
L 70.12596 269.574316 
L 71.54052 269.529283 
L 72.95508 269.694709 
L 74.36964 270.056509 
L 76.13784 270.759427 
L 77.90604 271.706797 
L 80.02788 273.111528 
L 82.50336 275.033281 
L 86.03976 278.109577 
L 95.2344 286.289644 
L 98.7708 289.050659 
L 101.95356 291.243327 
L 105.13632 293.141985 
L 108.31908 294.751337 
L 111.50184 296.089992 
L 114.6846 297.184894 
L 118.221 298.15319 
L 122.11104 298.966439 
L 126.35472 299.614179 
L 131.30568 300.132883 
L 137.31756 300.525002 
L 145.09764 300.795681 
L 156.76776 300.956407 
L 181.16892 301.017285 
L 286.55364 301.021184 
L 286.55364 301.021184 
" style="fill:none;stroke:#ff0000;stroke-dasharray:5.55,2.4;stroke-dashoffset:0;stroke-width:1.5;"/>
   </g>
   <g id="patch_11">
    <path d="M 20.97 302.596226 
L 286.2 302.596226 
" style="fill:none;stroke:#000000;stroke-linecap:square;stroke-linejoin:miter;stroke-width:0.8;"/>
   </g>
   <g id="text_7">
    <!-- 6.9 a.u. L -->
    <g transform="translate(216.220313 279.689449)scale(0.15 -0.15)">
     <defs>
      <path d="M 2113 2584 
Q 1688 2584 1439 2293 
Q 1191 2003 1191 1497 
Q 1191 994 1439 701 
Q 1688 409 2113 409 
Q 2538 409 2786 701 
Q 3034 994 3034 1497 
Q 3034 2003 2786 2293 
Q 2538 2584 2113 2584 
z
M 3366 4563 
L 3366 3988 
Q 3128 4100 2886 4159 
Q 2644 4219 2406 4219 
Q 1781 4219 1451 3797 
Q 1122 3375 1075 2522 
Q 1259 2794 1537 2939 
Q 1816 3084 2150 3084 
Q 2853 3084 3261 2657 
Q 3669 2231 3669 1497 
Q 3669 778 3244 343 
Q 2819 -91 2113 -91 
Q 1303 -91 875 529 
Q 447 1150 447 2328 
Q 447 3434 972 4092 
Q 1497 4750 2381 4750 
Q 2619 4750 2861 4703 
Q 3103 4656 3366 4563 
z
" id="DejaVuSans-36" transform="scale(0.015625)"/>
      <path d="M 703 97 
L 703 672 
Q 941 559 1184 500 
Q 1428 441 1663 441 
Q 2288 441 2617 861 
Q 2947 1281 2994 2138 
Q 2813 1869 2534 1725 
Q 2256 1581 1919 1581 
Q 1219 1581 811 2004 
Q 403 2428 403 3163 
Q 403 3881 828 4315 
Q 1253 4750 1959 4750 
Q 2769 4750 3195 4129 
Q 3622 3509 3622 2328 
Q 3622 1225 3098 567 
Q 2575 -91 1691 -91 
Q 1453 -91 1209 -44 
Q 966 3 703 97 
z
M 1959 2075 
Q 2384 2075 2632 2365 
Q 2881 2656 2881 3163 
Q 2881 3666 2632 3958 
Q 2384 4250 1959 4250 
Q 1534 4250 1286 3958 
Q 1038 3666 1038 3163 
Q 1038 2656 1286 2365 
Q 1534 2075 1959 2075 
z
" id="DejaVuSans-39" transform="scale(0.015625)"/>
     </defs>
     <use xlink:href="#DejaVuSans-36"/>
     <use x="63.623047" xlink:href="#DejaVuSans-2e"/>
     <use x="95.410156" xlink:href="#DejaVuSans-39"/>
     <use x="159.033203" xlink:href="#DejaVuSans-20"/>
     <use x="190.820312" xlink:href="#DejaVuSans-61"/>
     <use x="252.099609" xlink:href="#DejaVuSans-2e"/>
     <use x="283.886719" xlink:href="#DejaVuSans-75"/>
     <use x="347.265625" xlink:href="#DejaVuSans-2e"/>
     <use x="379.052734" xlink:href="#DejaVuSans-20"/>
     <use x="410.839844" xlink:href="#DejaVuSans-4c"/>
    </g>
   </g>
  </g>
  <g id="axes_6">
   <g id="patch_12">
    <path d="M 20.97 356.94717 
L 286.2 356.94717 
L 286.2 322.296226 
L 20.97 322.296226 
z
" style="fill:#ffffff;"/>
   </g>
   <g id="matplotlib.axis_6">
    <g id="xtick_21">
     <g id="line2d_35">
      <g>
       <use style="stroke:#000000;stroke-width:0.8;" x="20.97" xlink:href="#m3c03e8826b" y="356.94717"/>
      </g>
     </g>
    </g>
    <g id="xtick_22">
     <g id="line2d_36">
      <g>
       <use style="stroke:#000000;stroke-width:0.8;" x="91.698" xlink:href="#m3c03e8826b" y="356.94717"/>
      </g>
     </g>
    </g>
    <g id="xtick_23">
     <g id="line2d_37">
      <g>
       <use style="stroke:#000000;stroke-width:0.8;" x="162.426" xlink:href="#m3c03e8826b" y="356.94717"/>
      </g>
     </g>
    </g>
    <g id="xtick_24">
     <g id="line2d_38">
      <g>
       <use style="stroke:#000000;stroke-width:0.8;" x="233.154" xlink:href="#m3c03e8826b" y="356.94717"/>
      </g>
     </g>
    </g>
   </g>
   <g id="line2d_39">
    <path clip-path="url(#pb42eefea7b)" d="M 20.97 355.372127 
L 35.82288 355.261858 
L 39.00564 354.959427 
L 41.48112 354.505026 
L 43.60296 353.914865 
L 45.7248 353.104538 
L 47.84664 352.044775 
L 49.96848 350.72626 
L 52.44396 348.888859 
L 54.91944 346.74855 
L 57.39492 344.297603 
L 60.57768 340.772959 
L 68.00412 332.354571 
L 70.4796 329.979865 
L 72.60144 328.225747 
L 74.72328 326.75589 
L 76.49148 325.771887 
L 78.25968 325.025369 
L 80.02788 324.516079 
L 81.79608 324.221883 
L 83.91792 324.109001 
L 86.03976 324.230551 
L 88.1616 324.602365 
L 89.9298 325.131423 
L 91.698 325.871873 
L 93.81984 327.017468 
L 96.29532 328.619714 
L 100.89264 331.930603 
L 109.73364 338.272924 
L 115.74552 342.330224 
L 119.63556 344.709212 
L 123.17196 346.60568 
L 126.35472 348.065234 
L 129.89112 349.432009 
L 133.78116 350.681246 
L 137.6712 351.703373 
L 141.91488 352.580534 
L 146.86584 353.354486 
L 152.87772 354.062936 
L 159.24324 354.59389 
L 166.31604 354.950731 
L 175.86432 355.190709 
L 191.42448 355.339106 
L 231.73944 355.371683 
L 286.55364 355.372127 
L 286.55364 355.372127 
" style="fill:none;stroke:#000000;stroke-linecap:square;stroke-width:1.5;"/>
   </g>
   <g id="line2d_40">
    <path clip-path="url(#pb42eefea7b)" d="M 20.97 355.372127 
L 35.46924 355.269539 
L 38.652 355.036783 
L 41.12748 354.665986 
L 43.24932 354.156181 
L 45.37116 353.423385 
L 47.493 352.432499 
L 49.61484 351.161515 
L 51.73668 349.605073 
L 53.85852 347.776188 
L 56.334 345.34071 
L 59.51676 341.854626 
L 68.35776 331.89697 
L 70.83324 329.531072 
L 72.95508 327.783469 
L 75.07692 326.335678 
L 76.84512 325.377181 
L 78.61332 324.653241 
L 80.38152 324.166312 
L 82.14972 323.91353 
L 83.91792 323.887302 
L 85.68612 324.075989 
L 87.45432 324.464629 
L 89.57616 325.170102 
L 91.698 326.104443 
L 94.17348 327.435848 
L 97.0026 329.204758 
L 100.89264 331.920415 
L 113.97732 341.303539 
L 117.86736 343.715479 
L 121.40376 345.668447 
L 124.94016 347.382418 
L 128.47656 348.860779 
L 132.3666 350.230296 
L 136.25664 351.355526 
L 140.50032 352.339336 
L 145.09764 353.16327 
L 150.0486 353.823404 
L 155.70684 354.356362 
L 162.77964 354.785642 
L 171.62064 355.085977 
L 184.35168 355.275609 
L 207.69192 355.360643 
L 286.55364 355.372123 
L 286.55364 355.372123 
" style="fill:none;stroke:#ff0000;stroke-dasharray:5.55,2.4;stroke-dashoffset:0;stroke-width:1.5;"/>
   </g>
   <g id="patch_13">
    <path d="M 20.97 356.94717 
L 286.2 356.94717 
" style="fill:none;stroke:#000000;stroke-linecap:square;stroke-linejoin:miter;stroke-width:0.8;"/>
   </g>
   <g id="text_8">
    <!-- 9.7 a.u. L -->
    <g transform="translate(216.220313 334.040392)scale(0.15 -0.15)">
     <defs>
      <path d="M 525 4666 
L 3525 4666 
L 3525 4397 
L 1831 0 
L 1172 0 
L 2766 4134 
L 525 4134 
L 525 4666 
z
" id="DejaVuSans-37" transform="scale(0.015625)"/>
     </defs>
     <use xlink:href="#DejaVuSans-39"/>
     <use x="63.623047" xlink:href="#DejaVuSans-2e"/>
     <use x="95.410156" xlink:href="#DejaVuSans-37"/>
     <use x="159.033203" xlink:href="#DejaVuSans-20"/>
     <use x="190.820312" xlink:href="#DejaVuSans-61"/>
     <use x="252.099609" xlink:href="#DejaVuSans-2e"/>
     <use x="283.886719" xlink:href="#DejaVuSans-75"/>
     <use x="347.265625" xlink:href="#DejaVuSans-2e"/>
     <use x="379.052734" xlink:href="#DejaVuSans-20"/>
     <use x="410.839844" xlink:href="#DejaVuSans-4c"/>
    </g>
   </g>
  </g>
  <g id="axes_7">
   <g id="patch_14">
    <path d="M 20.97 411.298113 
L 286.2 411.298113 
L 286.2 376.64717 
L 20.97 376.64717 
z
" style="fill:#ffffff;"/>
   </g>
   <g id="matplotlib.axis_7">
    <g id="xtick_25">
     <g id="line2d_41">
      <g>
       <use style="stroke:#000000;stroke-width:0.8;" x="20.97" xlink:href="#m3c03e8826b" y="411.298113"/>
      </g>
     </g>
    </g>
    <g id="xtick_26">
     <g id="line2d_42">
      <g>
       <use style="stroke:#000000;stroke-width:0.8;" x="91.698" xlink:href="#m3c03e8826b" y="411.298113"/>
      </g>
     </g>
    </g>
    <g id="xtick_27">
     <g id="line2d_43">
      <g>
       <use style="stroke:#000000;stroke-width:0.8;" x="162.426" xlink:href="#m3c03e8826b" y="411.298113"/>
      </g>
     </g>
    </g>
    <g id="xtick_28">
     <g id="line2d_44">
      <g>
       <use style="stroke:#000000;stroke-width:0.8;" x="233.154" xlink:href="#m3c03e8826b" y="411.298113"/>
      </g>
     </g>
    </g>
   </g>
   <g id="line2d_45">
    <path clip-path="url(#pac22436c7d)" d="M 20.97 409.72307 
L 39.00564 409.621032 
L 42.54204 409.359058 
L 45.7248 408.898679 
L 48.55392 408.251643 
L 51.0294 407.4657 
L 53.50488 406.443733 
L 55.98036 405.172834 
L 58.80948 403.45178 
L 61.6386 401.470151 
L 64.46772 399.19922 
L 67.65048 396.332914 
L 73.66236 390.514743 
L 77.19876 387.244651 
L 80.02788 384.918168 
L 82.50336 383.14081 
L 84.97884 381.613499 
L 87.45432 380.363631 
L 89.57616 379.549465 
L 91.698 378.988364 
L 93.81984 378.659079 
L 96.29532 378.506712 
L 99.12444 378.573178 
L 101.59992 378.855328 
L 103.72176 379.310786 
L 105.8436 379.993871 
L 107.96544 380.898628 
L 110.79456 382.376688 
L 115.03824 384.895415 
L 126.35472 391.669174 
L 134.48844 396.282746 
L 139.4394 398.850794 
L 143.32944 400.635873 
L 147.21948 402.169121 
L 151.10952 403.460554 
L 155.70684 404.741084 
L 160.6578 405.880433 
L 165.60876 406.777057 
L 170.91336 407.504019 
L 178.3398 408.2785 
L 186.11988 408.868251 
L 194.2536 409.248046 
L 204.8628 409.50297 
L 222.89844 409.679159 
L 254.01876 409.713702 
L 286.55364 409.723062 
L 286.55364 409.723062 
" style="fill:none;stroke:#000000;stroke-linecap:square;stroke-width:1.5;"/>
   </g>
   <g id="line2d_46">
    <path clip-path="url(#pac22436c7d)" d="M 20.97 409.72307 
L 38.652 409.623625 
L 42.89568 409.356444 
L 46.07844 408.926016 
L 48.90756 408.298708 
L 51.38304 407.513922 
L 53.85852 406.478296 
L 56.334 405.17561 
L 58.80948 403.605016 
L 61.28496 401.782127 
L 64.11408 399.431037 
L 67.65048 396.194614 
L 78.25968 386.249657 
L 81.0888 383.991354 
L 83.56428 382.27456 
L 86.03976 380.8378 
L 88.1616 379.848264 
L 90.28344 379.091891 
L 92.40528 378.571918 
L 94.52712 378.286213 
L 96.64896 378.22785 
L 98.7708 378.385776 
L 100.89264 378.745524 
L 103.36812 379.397329 
L 105.8436 380.269949 
L 108.67272 381.495711 
L 112.20912 383.297553 
L 116.4528 385.730124 
L 126.00108 391.571153 
L 132.01296 395.070917 
L 136.61028 397.503167 
L 140.85396 399.516803 
L 145.09764 401.293223 
L 149.34132 402.832622 
L 153.585 404.145557 
L 158.18232 405.332616 
L 163.13328 406.367872 
L 168.43788 407.237857 
L 174.09612 407.94159 
L 180.81528 408.542162 
L 188.59536 409.003803 
L 198.49728 409.350868 
L 211.9356 409.57743 
L 233.86128 409.694369 
L 286.55364 409.722667 
L 286.55364 409.722667 
" style="fill:none;stroke:#ff0000;stroke-dasharray:5.55,2.4;stroke-dashoffset:0;stroke-width:1.5;"/>
   </g>
   <g id="patch_15">
    <path d="M 20.97 411.298113 
L 286.2 411.298113 
" style="fill:none;stroke:#000000;stroke-linecap:square;stroke-linejoin:miter;stroke-width:0.8;"/>
   </g>
   <g id="text_9">
    <!-- 13.5 a.u. L -->
    <g transform="translate(206.676563 388.391335)scale(0.15 -0.15)">
     <use xlink:href="#DejaVuSans-31"/>
     <use x="63.623047" xlink:href="#DejaVuSans-33"/>
     <use x="127.246094" xlink:href="#DejaVuSans-2e"/>
     <use x="159.033203" xlink:href="#DejaVuSans-35"/>
     <use x="222.65625" xlink:href="#DejaVuSans-20"/>
     <use x="254.443359" xlink:href="#DejaVuSans-61"/>
     <use x="315.722656" xlink:href="#DejaVuSans-2e"/>
     <use x="347.509766" xlink:href="#DejaVuSans-75"/>
     <use x="410.888672" xlink:href="#DejaVuSans-2e"/>
     <use x="442.675781" xlink:href="#DejaVuSans-20"/>
     <use x="474.462891" xlink:href="#DejaVuSans-4c"/>
    </g>
   </g>
  </g>
  <g id="axes_8">
   <g id="patch_16">
    <path d="M 20.97 465.649057 
L 286.2 465.649057 
L 286.2 430.998113 
L 20.97 430.998113 
z
" style="fill:#ffffff;"/>
   </g>
   <g id="matplotlib.axis_8">
    <g id="xtick_29">
     <g id="line2d_47">
      <g>
       <use style="stroke:#000000;stroke-width:0.8;" x="20.97" xlink:href="#m3c03e8826b" y="465.649057"/>
      </g>
     </g>
    </g>
    <g id="xtick_30">
     <g id="line2d_48">
      <g>
       <use style="stroke:#000000;stroke-width:0.8;" x="91.698" xlink:href="#m3c03e8826b" y="465.649057"/>
      </g>
     </g>
    </g>
    <g id="xtick_31">
     <g id="line2d_49">
      <g>
       <use style="stroke:#000000;stroke-width:0.8;" x="162.426" xlink:href="#m3c03e8826b" y="465.649057"/>
      </g>
     </g>
    </g>
    <g id="xtick_32">
     <g id="line2d_50">
      <g>
       <use style="stroke:#000000;stroke-width:0.8;" x="233.154" xlink:href="#m3c03e8826b" y="465.649057"/>
      </g>
     </g>
    </g>
   </g>
   <g id="line2d_51">
    <path clip-path="url(#p83cd3fff97)" d="M 20.97 464.074014 
L 42.89568 463.971187 
L 47.13936 463.704084 
L 50.67576 463.279753 
L 53.85852 462.691236 
L 57.04128 461.869891 
L 59.8704 460.913549 
L 62.69952 459.722003 
L 65.88228 458.138665 
L 69.41868 456.128015 
L 72.60144 454.045201 
L 76.13784 451.430934 
L 81.0888 447.464138 
L 87.80796 442.090848 
L 90.99072 439.83925 
L 94.17348 437.871976 
L 97.35624 436.181674 
L 100.18536 434.925159 
L 102.66084 434.063337 
L 105.13632 433.458721 
L 107.6118 433.100184 
L 110.44092 432.921963 
L 113.97732 432.927178 
L 117.16008 433.14003 
L 119.63556 433.509015 
L 122.11104 434.109199 
L 124.58652 434.947338 
L 127.41564 436.146779 
L 131.65932 438.226578 
L 146.15856 445.495882 
L 157.1214 450.701999 
L 162.77964 453.169323 
L 167.37696 454.952831 
L 171.62064 456.372118 
L 176.21796 457.666228 
L 181.52256 458.921262 
L 187.53444 460.115921 
L 193.19268 461.010198 
L 199.20456 461.724274 
L 208.04556 462.521223 
L 217.2402 463.146852 
L 226.43484 463.542163 
L 238.10496 463.811719 
L 257.55516 464.005439 
L 284.4318 464.056372 
L 286.55364 464.056851 
L 286.55364 464.056851 
" style="fill:none;stroke:#000000;stroke-linecap:square;stroke-width:1.5;"/>
   </g>
   <g id="line2d_52">
    <path clip-path="url(#p83cd3fff97)" d="M 20.97 464.074014 
L 42.54204 463.971404 
L 47.493 463.708543 
L 51.0294 463.317775 
L 54.21216 462.754926 
L 57.04128 462.045795 
L 59.8704 461.111699 
L 62.69952 459.935627 
L 65.52864 458.513022 
L 68.35776 456.853001 
L 71.54052 454.730536 
L 75.43056 451.843886 
L 81.0888 447.321738 
L 87.45432 442.289822 
L 91.34436 439.508031 
L 94.52712 437.505794 
L 97.35624 435.979548 
L 100.18536 434.720494 
L 102.66084 433.852148 
L 105.13632 433.208097 
L 107.6118 432.789247 
L 110.08728 432.591818 
L 112.56276 432.607888 
L 115.03824 432.82601 
L 117.86736 433.304207 
L 120.69648 434.002627 
L 123.87924 435.017324 
L 127.41564 436.380737 
L 131.65932 438.266984 
L 137.31756 441.052277 
L 153.93864 449.401088 
L 159.59688 451.904788 
L 164.90148 454.000023 
L 169.85244 455.721061 
L 174.8034 457.216333 
L 180.108 458.579512 
L 185.4126 459.715374 
L 191.07084 460.704217 
L 197.43636 461.5809 
L 204.50916 462.314482 
L 212.28924 462.893063 
L 221.48388 463.350773 
L 233.154 463.696235 
L 249.0678 463.924818 
L 274.88352 464.043841 
L 286.55364 464.059824 
L 286.55364 464.059824 
" style="fill:none;stroke:#ff0000;stroke-dasharray:5.55,2.4;stroke-dashoffset:0;stroke-width:1.5;"/>
   </g>
   <g id="patch_17">
    <path d="M 20.97 465.649057 
L 286.2 465.649057 
" style="fill:none;stroke:#000000;stroke-linecap:square;stroke-linejoin:miter;stroke-width:0.8;"/>
   </g>
   <g id="text_10">
    <!-- 19.7 a.u. L -->
    <g transform="translate(206.676563 442.742279)scale(0.15 -0.15)">
     <use xlink:href="#DejaVuSans-31"/>
     <use x="63.623047" xlink:href="#DejaVuSans-39"/>
     <use x="127.246094" xlink:href="#DejaVuSans-2e"/>
     <use x="159.033203" xlink:href="#DejaVuSans-37"/>
     <use x="222.65625" xlink:href="#DejaVuSans-20"/>
     <use x="254.443359" xlink:href="#DejaVuSans-61"/>
     <use x="315.722656" xlink:href="#DejaVuSans-2e"/>
     <use x="347.509766" xlink:href="#DejaVuSans-75"/>
     <use x="410.888672" xlink:href="#DejaVuSans-2e"/>
     <use x="442.675781" xlink:href="#DejaVuSans-20"/>
     <use x="474.462891" xlink:href="#DejaVuSans-4c"/>
    </g>
   </g>
  </g>
  <g id="axes_9">
   <g id="patch_18">
    <path d="M 20.97 520 
L 286.2 520 
L 286.2 485.349057 
L 20.97 485.349057 
z
" style="fill:#ffffff;"/>
   </g>
   <g id="matplotlib.axis_9">
    <g id="xtick_33">
     <g id="line2d_53">
      <g>
       <use style="stroke:#000000;stroke-width:0.8;" x="20.97" xlink:href="#m3c03e8826b" y="520"/>
      </g>
     </g>
     <g id="text_11">
      <!-- 0 -->
      <g transform="translate(16.198125 538.397656)scale(0.15 -0.15)">
       <use xlink:href="#DejaVuSans-30"/>
      </g>
     </g>
    </g>
    <g id="xtick_34">
     <g id="line2d_54">
      <g>
       <use style="stroke:#000000;stroke-width:0.8;" x="91.698" xlink:href="#m3c03e8826b" y="520"/>
      </g>
     </g>
     <g id="text_12">
      <!-- 200 -->
      <g transform="translate(77.382375 538.397656)scale(0.15 -0.15)">
       <use xlink:href="#DejaVuSans-32"/>
       <use x="63.623047" xlink:href="#DejaVuSans-30"/>
       <use x="127.246094" xlink:href="#DejaVuSans-30"/>
      </g>
     </g>
    </g>
    <g id="xtick_35">
     <g id="line2d_55">
      <g>
       <use style="stroke:#000000;stroke-width:0.8;" x="162.426" xlink:href="#m3c03e8826b" y="520"/>
      </g>
     </g>
     <g id="text_13">
      <!-- 400 -->
      <g transform="translate(148.110375 538.397656)scale(0.15 -0.15)">
       <use xlink:href="#DejaVuSans-34"/>
       <use x="63.623047" xlink:href="#DejaVuSans-30"/>
       <use x="127.246094" xlink:href="#DejaVuSans-30"/>
      </g>
     </g>
    </g>
    <g id="xtick_36">
     <g id="line2d_56">
      <g>
       <use style="stroke:#000000;stroke-width:0.8;" x="233.154" xlink:href="#m3c03e8826b" y="520"/>
      </g>
     </g>
     <g id="text_14">
      <!-- 600 -->
      <g transform="translate(218.838375 538.397656)scale(0.15 -0.15)">
       <use xlink:href="#DejaVuSans-36"/>
       <use x="63.623047" xlink:href="#DejaVuSans-30"/>
       <use x="127.246094" xlink:href="#DejaVuSans-30"/>
      </g>
     </g>
    </g>
    <g id="text_15">
     <!-- Population Response -->
     <g transform="translate(75.780703 556.914844)scale(0.15 -0.15)">
      <defs>
       <path d="M 1159 525 
L 1159 -1331 
L 581 -1331 
L 581 3500 
L 1159 3500 
L 1159 2969 
Q 1341 3281 1617 3432 
Q 1894 3584 2278 3584 
Q 2916 3584 3314 3078 
Q 3713 2572 3713 1747 
Q 3713 922 3314 415 
Q 2916 -91 2278 -91 
Q 1894 -91 1617 61 
Q 1341 213 1159 525 
z
M 3116 1747 
Q 3116 2381 2855 2742 
Q 2594 3103 2138 3103 
Q 1681 3103 1420 2742 
Q 1159 2381 1159 1747 
Q 1159 1113 1420 752 
Q 1681 391 2138 391 
Q 2594 391 2855 752 
Q 3116 1113 3116 1747 
z
" id="DejaVuSans-70" transform="scale(0.015625)"/>
       <path d="M 603 4863 
L 1178 4863 
L 1178 0 
L 603 0 
L 603 4863 
z
" id="DejaVuSans-6c" transform="scale(0.015625)"/>
       <path d="M 1172 4494 
L 1172 3500 
L 2356 3500 
L 2356 3053 
L 1172 3053 
L 1172 1153 
Q 1172 725 1289 603 
Q 1406 481 1766 481 
L 2356 481 
L 2356 0 
L 1766 0 
Q 1100 0 847 248 
Q 594 497 594 1153 
L 594 3053 
L 172 3053 
L 172 3500 
L 594 3500 
L 594 4494 
L 1172 4494 
z
" id="DejaVuSans-74" transform="scale(0.015625)"/>
       <path d="M 2841 2188 
Q 3044 2119 3236 1894 
Q 3428 1669 3622 1275 
L 4263 0 
L 3584 0 
L 2988 1197 
Q 2756 1666 2539 1819 
Q 2322 1972 1947 1972 
L 1259 1972 
L 1259 0 
L 628 0 
L 628 4666 
L 2053 4666 
Q 2853 4666 3247 4331 
Q 3641 3997 3641 3322 
Q 3641 2881 3436 2590 
Q 3231 2300 2841 2188 
z
M 1259 4147 
L 1259 2491 
L 2053 2491 
Q 2509 2491 2742 2702 
Q 2975 2913 2975 3322 
Q 2975 3731 2742 3939 
Q 2509 4147 2053 4147 
L 1259 4147 
z
" id="DejaVuSans-52" transform="scale(0.015625)"/>
       <path d="M 3597 1894 
L 3597 1613 
L 953 1613 
Q 991 1019 1311 708 
Q 1631 397 2203 397 
Q 2534 397 2845 478 
Q 3156 559 3463 722 
L 3463 178 
Q 3153 47 2828 -22 
Q 2503 -91 2169 -91 
Q 1331 -91 842 396 
Q 353 884 353 1716 
Q 353 2575 817 3079 
Q 1281 3584 2069 3584 
Q 2775 3584 3186 3129 
Q 3597 2675 3597 1894 
z
M 3022 2063 
Q 3016 2534 2758 2815 
Q 2500 3097 2075 3097 
Q 1594 3097 1305 2825 
Q 1016 2553 972 2059 
L 3022 2063 
z
" id="DejaVuSans-65" transform="scale(0.015625)"/>
      </defs>
      <use xlink:href="#DejaVuSans-50"/>
      <use x="56.677734" xlink:href="#DejaVuSans-6f"/>
      <use x="117.859375" xlink:href="#DejaVuSans-70"/>
      <use x="181.335938" xlink:href="#DejaVuSans-75"/>
      <use x="244.714844" xlink:href="#DejaVuSans-6c"/>
      <use x="272.498047" xlink:href="#DejaVuSans-61"/>
      <use x="333.777344" xlink:href="#DejaVuSans-74"/>
      <use x="372.986328" xlink:href="#DejaVuSans-69"/>
      <use x="400.769531" xlink:href="#DejaVuSans-6f"/>
      <use x="461.951172" xlink:href="#DejaVuSans-6e"/>
      <use x="525.330078" xlink:href="#DejaVuSans-20"/>
      <use x="557.117188" xlink:href="#DejaVuSans-52"/>
      <use x="622.099609" xlink:href="#DejaVuSans-65"/>
      <use x="683.623047" xlink:href="#DejaVuSans-73"/>
      <use x="735.722656" xlink:href="#DejaVuSans-70"/>
      <use x="799.199219" xlink:href="#DejaVuSans-6f"/>
      <use x="860.380859" xlink:href="#DejaVuSans-6e"/>
      <use x="923.759766" xlink:href="#DejaVuSans-73"/>
      <use x="975.859375" xlink:href="#DejaVuSans-65"/>
     </g>
    </g>
   </g>
   <g id="line2d_57">
    <path clip-path="url(#p9222e19d11)" d="M 20.97 518.424957 
L 49.2612 518.323177 
L 54.91944 518.036059 
L 59.51676 517.583876 
L 63.76044 516.938787 
L 67.65048 516.120409 
L 71.18688 515.157804 
L 74.72328 513.953883 
L 78.96696 512.264384 
L 83.21064 510.36714 
L 86.74704 508.551094 
L 90.99072 506.088174 
L 97.0026 502.321382 
L 106.55088 496.277579 
L 110.44092 494.125169 
L 113.97732 492.415 
L 117.86736 490.770261 
L 121.7574 489.354431 
L 124.94016 488.439664 
L 127.76928 487.869699 
L 130.5984 487.529013 
L 134.1348 487.348792 
L 139.4394 487.335617 
L 144.03672 487.520525 
L 147.21948 487.881603 
L 150.0486 488.432487 
L 152.87772 489.201837 
L 156.41412 490.409713 
L 161.71872 492.500843 
L 174.8034 497.70541 
L 189.30264 503.199959 
L 198.49728 506.51493 
L 205.21644 508.697471 
L 210.52104 510.196496 
L 215.82564 511.45817 
L 221.83752 512.652228 
L 229.97124 514.029332 
L 237.04404 515.021186 
L 243.7632 515.739068 
L 252.6042 516.433905 
L 266.7498 517.315721 
L 277.359 517.752947 
L 286.55364 517.993858 
L 286.55364 517.993858 
" style="fill:none;stroke:#000000;stroke-linecap:square;stroke-width:1.5;"/>
   </g>
   <g id="line2d_58">
    <path clip-path="url(#p9222e19d11)" d="M 20.97 518.424957 
L 48.90756 518.320489 
L 54.91944 518.072047 
L 59.51676 517.678786 
L 63.76044 517.086864 
L 67.65048 516.301861 
L 71.18688 515.357484 
L 74.72328 514.177518 
L 78.25968 512.758759 
L 81.79608 511.110903 
L 85.68612 509.060849 
L 90.28344 506.379983 
L 97.0026 502.163642 
L 105.8436 496.646281 
L 110.44092 494.045425 
L 114.33096 492.089595 
L 117.86736 490.550122 
L 121.40376 489.26621 
L 124.58652 488.344554 
L 127.76928 487.652202 
L 130.95204 487.191002 
L 134.1348 486.95779 
L 137.31756 486.944946 
L 140.50032 487.141046 
L 144.03672 487.586213 
L 147.57312 488.247902 
L 151.46316 489.1948 
L 156.06048 490.561023 
L 161.36508 492.394009 
L 168.08424 494.974743 
L 191.77812 504.303203 
L 198.49728 506.601041 
L 204.8628 508.550198 
L 211.22832 510.266467 
L 217.59384 511.752027 
L 224.313 513.082625 
L 231.03216 514.189783 
L 238.4586 515.183479 
L 246.59232 516.035369 
L 255.43332 516.732103 
L 265.68888 517.308092 
L 277.71264 517.752758 
L 286.55364 517.968059 
L 286.55364 517.968059 
" style="fill:none;stroke:#ff0000;stroke-dasharray:5.55,2.4;stroke-dashoffset:0;stroke-width:1.5;"/>
   </g>
   <g id="patch_19">
    <path d="M 20.97 520 
L 286.2 520 
" style="fill:none;stroke:#000000;stroke-linecap:square;stroke-linejoin:miter;stroke-width:0.8;"/>
   </g>
   <g id="text_16">
    <!-- 39.1 a.u. L -->
    <g transform="translate(206.676563 497.093222)scale(0.15 -0.15)">
     <use xlink:href="#DejaVuSans-33"/>
     <use x="63.623047" xlink:href="#DejaVuSans-39"/>
     <use x="127.246094" xlink:href="#DejaVuSans-2e"/>
     <use x="159.033203" xlink:href="#DejaVuSans-31"/>
     <use x="222.65625" xlink:href="#DejaVuSans-20"/>
     <use x="254.443359" xlink:href="#DejaVuSans-61"/>
     <use x="315.722656" xlink:href="#DejaVuSans-2e"/>
     <use x="347.509766" xlink:href="#DejaVuSans-75"/>
     <use x="410.888672" xlink:href="#DejaVuSans-2e"/>
     <use x="442.675781" xlink:href="#DejaVuSans-20"/>
     <use x="474.462891" xlink:href="#DejaVuSans-4c"/>
    </g>
   </g>
  </g>
 </g>
 <defs>
  <clipPath id="p3eeac027eb">
   <rect height="34.650943" width="265.23" x="20.97" y="50.541509"/>
  </clipPath>
  <clipPath id="p6f1d84475c">
   <rect height="34.650943" width="265.23" x="20.97" y="104.892453"/>
  </clipPath>
  <clipPath id="p35e7dd08d8">
   <rect height="34.650943" width="265.23" x="20.97" y="159.243396"/>
  </clipPath>
  <clipPath id="p1b763173dd">
   <rect height="34.650943" width="265.23" x="20.97" y="213.59434"/>
  </clipPath>
  <clipPath id="pb6e3e6e9e0">
   <rect height="34.650943" width="265.23" x="20.97" y="267.945283"/>
  </clipPath>
  <clipPath id="pb42eefea7b">
   <rect height="34.650943" width="265.23" x="20.97" y="322.296226"/>
  </clipPath>
  <clipPath id="pac22436c7d">
   <rect height="34.650943" width="265.23" x="20.97" y="376.64717"/>
  </clipPath>
  <clipPath id="p83cd3fff97">
   <rect height="34.650943" width="265.23" x="20.97" y="430.998113"/>
  </clipPath>
  <clipPath id="p9222e19d11">
   <rect height="34.650943" width="265.23" x="20.97" y="485.349057"/>
  </clipPath>
 </defs>
</svg>
