<?xml version="1.0" encoding="utf-8" standalone="no"?>
<!DOCTYPE svg PUBLIC "-//W3C//DTD SVG 1.1//EN"
  "http://www.w3.org/Graphics/SVG/1.1/DTD/svg11.dtd">
<svg height="576pt" version="1.1" viewBox="0 0 302.4 576" width="302.4pt" xmlns="http://www.w3.org/2000/svg" xmlns:xlink="http://www.w3.org/1999/xlink">
 <metadata>
  <rdf:RDF xmlns:cc="http://creativecommons.org/ns#" xmlns:dc="http://purl.org/dc/elements/1.1/" xmlns:rdf="http://www.w3.org/1999/02/22-rdf-syntax-ns#">
   <cc:Work>
    <dc:type rdf:resource="http://purl.org/dc/dcmitype/StillImage"/>
    <dc:date>2023-03-16T20:34:48.414512</dc:date>
    <dc:format>image/svg+xml</dc:format>
    <dc:creator>
     <cc:Agent>
      <dc:title>Matplotlib v3.4.3, https://matplotlib.org/</dc:title>
     </cc:Agent>
    </dc:creator>
   </cc:Work>
  </rdf:RDF>
 </metadata>
 <defs>
  <style type="text/css">*{stroke-linecap:butt;stroke-linejoin:round;}</style>
 </defs>
 <g id="figure_1">
  <g id="patch_1">
   <path d="M 0 576 
L 302.4 576 
L 302.4 0 
L 0 0 
z
" style="fill:#ffffff;"/>
  </g>
  <g id="axes_1">
   <g id="patch_2">
    <path d="M 16.2 85.192453 
L 286.2 85.192453 
L 286.2 50.541509 
L 16.2 50.541509 
z
" style="fill:#ffffff;"/>
   </g>
   <g id="patch_3">
    <path clip-path="url(#p3ea8da7a0b)" d="M 28.472727 85.192453 
L 28.965957 85.192453 
L 28.965957 85.015977 
L 28.472727 85.015977 
z
" style="fill:#8bd3e6;"/>
   </g>
   <g id="patch_4">
    <path clip-path="url(#p3ea8da7a0b)" d="M 28.965957 85.192453 
L 29.459188 85.192453 
L 29.459188 83.251224 
L 28.965957 83.251224 
z
" style="fill:#8bd3e6;"/>
   </g>
   <g id="patch_5">
    <path clip-path="url(#p3ea8da7a0b)" d="M 29.459188 85.192453 
L 29.952418 85.192453 
L 29.952418 78.927576 
L 29.459188 78.927576 
z
" style="fill:#8bd3e6;"/>
   </g>
   <g id="patch_6">
    <path clip-path="url(#p3ea8da7a0b)" d="M 29.952418 85.192453 
L 30.445648 85.192453 
L 30.445648 69.750856 
L 29.952418 69.750856 
z
" style="fill:#8bd3e6;"/>
   </g>
   <g id="patch_7">
    <path clip-path="url(#p3ea8da7a0b)" d="M 30.445648 85.192453 
L 30.938878 85.192453 
L 30.938878 63.397742 
L 30.445648 63.397742 
z
" style="fill:#8bd3e6;"/>
   </g>
   <g id="patch_8">
    <path clip-path="url(#p3ea8da7a0b)" d="M 30.938878 85.192453 
L 31.432108 85.192453 
L 31.432108 52.191554 
L 30.938878 52.191554 
z
" style="fill:#8bd3e6;"/>
   </g>
   <g id="patch_9">
    <path clip-path="url(#p3ea8da7a0b)" d="M 31.432108 85.192453 
L 31.925338 85.192453 
L 31.925338 85.192453 
L 31.432108 85.192453 
z
" style="fill:#8bd3e6;"/>
   </g>
   <g id="patch_10">
    <path clip-path="url(#p3ea8da7a0b)" d="M 31.925338 85.192453 
L 32.418569 85.192453 
L 32.418569 52.36803 
L 31.925338 52.36803 
z
" style="fill:#8bd3e6;"/>
   </g>
   <g id="patch_11">
    <path clip-path="url(#p3ea8da7a0b)" d="M 32.418569 85.192453 
L 32.911799 85.192453 
L 32.911799 53.073931 
L 32.418569 53.073931 
z
" style="fill:#8bd3e6;"/>
   </g>
   <g id="patch_12">
    <path clip-path="url(#p3ea8da7a0b)" d="M 32.911799 85.192453 
L 33.405029 85.192453 
L 33.405029 58.015242 
L 32.911799 58.015242 
z
" style="fill:#8bd3e6;"/>
   </g>
   <g id="patch_13">
    <path clip-path="url(#p3ea8da7a0b)" d="M 33.405029 85.192453 
L 33.898259 85.192453 
L 33.898259 65.78016 
L 33.405029 65.78016 
z
" style="fill:#8bd3e6;"/>
   </g>
   <g id="patch_14">
    <path clip-path="url(#p3ea8da7a0b)" d="M 33.898259 85.192453 
L 34.391489 85.192453 
L 34.391489 71.692085 
L 33.898259 71.692085 
z
" style="fill:#8bd3e6;"/>
   </g>
   <g id="patch_15">
    <path clip-path="url(#p3ea8da7a0b)" d="M 34.391489 85.192453 
L 34.88472 85.192453 
L 34.88472 77.515773 
L 34.391489 77.515773 
z
" style="fill:#8bd3e6;"/>
   </g>
   <g id="patch_16">
    <path clip-path="url(#p3ea8da7a0b)" d="M 34.88472 85.192453 
L 35.37795 85.192453 
L 35.37795 85.192453 
L 34.88472 85.192453 
z
" style="fill:#8bd3e6;"/>
   </g>
   <g id="patch_17">
    <path clip-path="url(#p3ea8da7a0b)" d="M 35.37795 85.192453 
L 35.87118 85.192453 
L 35.87118 80.604093 
L 35.37795 80.604093 
z
" style="fill:#8bd3e6;"/>
   </g>
   <g id="patch_18">
    <path clip-path="url(#p3ea8da7a0b)" d="M 35.87118 85.192453 
L 36.36441 85.192453 
L 36.36441 82.368847 
L 35.87118 82.368847 
z
" style="fill:#8bd3e6;"/>
   </g>
   <g id="patch_19">
    <path clip-path="url(#p3ea8da7a0b)" d="M 36.36441 85.192453 
L 36.85764 85.192453 
L 36.85764 84.1336 
L 36.36441 84.1336 
z
" style="fill:#8bd3e6;"/>
   </g>
   <g id="patch_20">
    <path clip-path="url(#p3ea8da7a0b)" d="M 36.85764 85.192453 
L 37.35087 85.192453 
L 37.35087 84.92774 
L 36.85764 84.92774 
z
" style="fill:#8bd3e6;"/>
   </g>
   <g id="patch_21">
    <path clip-path="url(#p3ea8da7a0b)" d="M 37.35087 85.192453 
L 37.844101 85.192453 
L 37.844101 84.92774 
L 37.35087 84.92774 
z
" style="fill:#8bd3e6;"/>
   </g>
   <g id="patch_22">
    <path clip-path="url(#p3ea8da7a0b)" d="M 37.844101 85.192453 
L 38.337331 85.192453 
L 38.337331 84.92774 
L 37.844101 84.92774 
z
" style="fill:#8bd3e6;"/>
   </g>
   <g id="matplotlib.axis_1">
    <g id="xtick_1">
     <g id="line2d_1">
      <defs>
       <path d="M 0 0 
L 0 3.5 
" id="md129815752" style="stroke:#000000;stroke-width:0.8;"/>
      </defs>
      <g>
       <use style="stroke:#000000;stroke-width:0.8;" x="28.472727" xlink:href="#md129815752" y="85.192453"/>
      </g>
     </g>
    </g>
    <g id="xtick_2">
     <g id="line2d_2">
      <g>
       <use style="stroke:#000000;stroke-width:0.8;" x="86.499807" xlink:href="#md129815752" y="85.192453"/>
      </g>
     </g>
    </g>
    <g id="xtick_3">
     <g id="line2d_3">
      <g>
       <use style="stroke:#000000;stroke-width:0.8;" x="144.526886" xlink:href="#md129815752" y="85.192453"/>
      </g>
     </g>
    </g>
    <g id="xtick_4">
     <g id="line2d_4">
      <g>
       <use style="stroke:#000000;stroke-width:0.8;" x="202.553965" xlink:href="#md129815752" y="85.192453"/>
      </g>
     </g>
    </g>
    <g id="xtick_5">
     <g id="line2d_5">
      <g>
       <use style="stroke:#000000;stroke-width:0.8;" x="260.581044" xlink:href="#md129815752" y="85.192453"/>
      </g>
     </g>
    </g>
   </g>
   <g id="line2d_6">
    <path clip-path="url(#p3ea8da7a0b)" d="M 28.472727 84.948538 
L 29.052998 83.5717 
L 29.633269 79.807712 
L 30.21354 73.265717 
L 30.79381 65.379934 
L 31.374081 58.862641 
L 31.954352 56.033321 
L 32.534623 57.513184 
L 33.114894 62.202255 
L 33.695164 68.218684 
L 34.275435 73.913823 
L 34.855706 78.3794 
L 35.435977 81.419872 
L 36.016248 83.264159 
L 36.596518 84.277237 
L 37.176789 84.787028 
L 37.75706 85.024081 
" style="fill:none;stroke:#ff5733;stroke-linecap:square;stroke-width:2;"/>
   </g>
   <g id="patch_23">
    <path d="M 16.2 85.192453 
L 286.2 85.192453 
" style="fill:none;stroke:#000000;stroke-linecap:square;stroke-linejoin:miter;stroke-width:0.8;"/>
   </g>
   <g id="text_1">
    <!-- 0.2 a.u. L -->
    <g transform="translate(216.220312 61.939166)scale(0.15 -0.15)">
     <defs>
      <path d="M 2034 4250 
Q 1547 4250 1301 3770 
Q 1056 3291 1056 2328 
Q 1056 1369 1301 889 
Q 1547 409 2034 409 
Q 2525 409 2770 889 
Q 3016 1369 3016 2328 
Q 3016 3291 2770 3770 
Q 2525 4250 2034 4250 
z
M 2034 4750 
Q 2819 4750 3233 4129 
Q 3647 3509 3647 2328 
Q 3647 1150 3233 529 
Q 2819 -91 2034 -91 
Q 1250 -91 836 529 
Q 422 1150 422 2328 
Q 422 3509 836 4129 
Q 1250 4750 2034 4750 
z
" id="DejaVuSans-30" transform="scale(0.015625)"/>
      <path d="M 684 794 
L 1344 794 
L 1344 0 
L 684 0 
L 684 794 
z
" id="DejaVuSans-2e" transform="scale(0.015625)"/>
      <path d="M 1228 531 
L 3431 531 
L 3431 0 
L 469 0 
L 469 531 
Q 828 903 1448 1529 
Q 2069 2156 2228 2338 
Q 2531 2678 2651 2914 
Q 2772 3150 2772 3378 
Q 2772 3750 2511 3984 
Q 2250 4219 1831 4219 
Q 1534 4219 1204 4116 
Q 875 4013 500 3803 
L 500 4441 
Q 881 4594 1212 4672 
Q 1544 4750 1819 4750 
Q 2544 4750 2975 4387 
Q 3406 4025 3406 3419 
Q 3406 3131 3298 2873 
Q 3191 2616 2906 2266 
Q 2828 2175 2409 1742 
Q 1991 1309 1228 531 
z
" id="DejaVuSans-32" transform="scale(0.015625)"/>
      <path id="DejaVuSans-20" transform="scale(0.015625)"/>
      <path d="M 2194 1759 
Q 1497 1759 1228 1600 
Q 959 1441 959 1056 
Q 959 750 1161 570 
Q 1363 391 1709 391 
Q 2188 391 2477 730 
Q 2766 1069 2766 1631 
L 2766 1759 
L 2194 1759 
z
M 3341 1997 
L 3341 0 
L 2766 0 
L 2766 531 
Q 2569 213 2275 61 
Q 1981 -91 1556 -91 
Q 1019 -91 701 211 
Q 384 513 384 1019 
Q 384 1609 779 1909 
Q 1175 2209 1959 2209 
L 2766 2209 
L 2766 2266 
Q 2766 2663 2505 2880 
Q 2244 3097 1772 3097 
Q 1472 3097 1187 3025 
Q 903 2953 641 2809 
L 641 3341 
Q 956 3463 1253 3523 
Q 1550 3584 1831 3584 
Q 2591 3584 2966 3190 
Q 3341 2797 3341 1997 
z
" id="DejaVuSans-61" transform="scale(0.015625)"/>
      <path d="M 544 1381 
L 544 3500 
L 1119 3500 
L 1119 1403 
Q 1119 906 1312 657 
Q 1506 409 1894 409 
Q 2359 409 2629 706 
Q 2900 1003 2900 1516 
L 2900 3500 
L 3475 3500 
L 3475 0 
L 2900 0 
L 2900 538 
Q 2691 219 2414 64 
Q 2138 -91 1772 -91 
Q 1169 -91 856 284 
Q 544 659 544 1381 
z
M 1991 3584 
L 1991 3584 
z
" id="DejaVuSans-75" transform="scale(0.015625)"/>
      <path d="M 628 4666 
L 1259 4666 
L 1259 531 
L 3531 531 
L 3531 0 
L 628 0 
L 628 4666 
z
" id="DejaVuSans-4c" transform="scale(0.015625)"/>
     </defs>
     <use xlink:href="#DejaVuSans-30"/>
     <use x="63.623047" xlink:href="#DejaVuSans-2e"/>
     <use x="95.410156" xlink:href="#DejaVuSans-32"/>
     <use x="159.033203" xlink:href="#DejaVuSans-20"/>
     <use x="190.820312" xlink:href="#DejaVuSans-61"/>
     <use x="252.099609" xlink:href="#DejaVuSans-2e"/>
     <use x="283.886719" xlink:href="#DejaVuSans-75"/>
     <use x="347.265625" xlink:href="#DejaVuSans-2e"/>
     <use x="379.052734" xlink:href="#DejaVuSans-20"/>
     <use x="410.839844" xlink:href="#DejaVuSans-4c"/>
    </g>
   </g>
   <g id="legend_1">
    <g id="patch_24">
     <path d="M 98.15625 40.788222 
L 128.15625 40.788222 
L 128.15625 30.288222 
L 98.15625 30.288222 
z
" style="fill:#8bd3e6;stroke:#8bd3e6;stroke-linejoin:miter;"/>
    </g>
    <g id="text_2">
     <!-- Gillespie -->
     <g transform="translate(140.15625 40.788222)scale(0.15 -0.15)">
      <defs>
       <path d="M 3809 666 
L 3809 1919 
L 2778 1919 
L 2778 2438 
L 4434 2438 
L 4434 434 
Q 4069 175 3628 42 
Q 3188 -91 2688 -91 
Q 1594 -91 976 548 
Q 359 1188 359 2328 
Q 359 3472 976 4111 
Q 1594 4750 2688 4750 
Q 3144 4750 3555 4637 
Q 3966 4525 4313 4306 
L 4313 3634 
Q 3963 3931 3569 4081 
Q 3175 4231 2741 4231 
Q 1884 4231 1454 3753 
Q 1025 3275 1025 2328 
Q 1025 1384 1454 906 
Q 1884 428 2741 428 
Q 3075 428 3337 486 
Q 3600 544 3809 666 
z
" id="DejaVuSans-47" transform="scale(0.015625)"/>
       <path d="M 603 3500 
L 1178 3500 
L 1178 0 
L 603 0 
L 603 3500 
z
M 603 4863 
L 1178 4863 
L 1178 4134 
L 603 4134 
L 603 4863 
z
" id="DejaVuSans-69" transform="scale(0.015625)"/>
       <path d="M 603 4863 
L 1178 4863 
L 1178 0 
L 603 0 
L 603 4863 
z
" id="DejaVuSans-6c" transform="scale(0.015625)"/>
       <path d="M 3597 1894 
L 3597 1613 
L 953 1613 
Q 991 1019 1311 708 
Q 1631 397 2203 397 
Q 2534 397 2845 478 
Q 3156 559 3463 722 
L 3463 178 
Q 3153 47 2828 -22 
Q 2503 -91 2169 -91 
Q 1331 -91 842 396 
Q 353 884 353 1716 
Q 353 2575 817 3079 
Q 1281 3584 2069 3584 
Q 2775 3584 3186 3129 
Q 3597 2675 3597 1894 
z
M 3022 2063 
Q 3016 2534 2758 2815 
Q 2500 3097 2075 3097 
Q 1594 3097 1305 2825 
Q 1016 2553 972 2059 
L 3022 2063 
z
" id="DejaVuSans-65" transform="scale(0.015625)"/>
       <path d="M 2834 3397 
L 2834 2853 
Q 2591 2978 2328 3040 
Q 2066 3103 1784 3103 
Q 1356 3103 1142 2972 
Q 928 2841 928 2578 
Q 928 2378 1081 2264 
Q 1234 2150 1697 2047 
L 1894 2003 
Q 2506 1872 2764 1633 
Q 3022 1394 3022 966 
Q 3022 478 2636 193 
Q 2250 -91 1575 -91 
Q 1294 -91 989 -36 
Q 684 19 347 128 
L 347 722 
Q 666 556 975 473 
Q 1284 391 1588 391 
Q 1994 391 2212 530 
Q 2431 669 2431 922 
Q 2431 1156 2273 1281 
Q 2116 1406 1581 1522 
L 1381 1569 
Q 847 1681 609 1914 
Q 372 2147 372 2553 
Q 372 3047 722 3315 
Q 1072 3584 1716 3584 
Q 2034 3584 2315 3537 
Q 2597 3491 2834 3397 
z
" id="DejaVuSans-73" transform="scale(0.015625)"/>
       <path d="M 1159 525 
L 1159 -1331 
L 581 -1331 
L 581 3500 
L 1159 3500 
L 1159 2969 
Q 1341 3281 1617 3432 
Q 1894 3584 2278 3584 
Q 2916 3584 3314 3078 
Q 3713 2572 3713 1747 
Q 3713 922 3314 415 
Q 2916 -91 2278 -91 
Q 1894 -91 1617 61 
Q 1341 213 1159 525 
z
M 3116 1747 
Q 3116 2381 2855 2742 
Q 2594 3103 2138 3103 
Q 1681 3103 1420 2742 
Q 1159 2381 1159 1747 
Q 1159 1113 1420 752 
Q 1681 391 2138 391 
Q 2594 391 2855 752 
Q 3116 1113 3116 1747 
z
" id="DejaVuSans-70" transform="scale(0.015625)"/>
      </defs>
      <use xlink:href="#DejaVuSans-47"/>
      <use x="77.490234" xlink:href="#DejaVuSans-69"/>
      <use x="105.273438" xlink:href="#DejaVuSans-6c"/>
      <use x="133.056641" xlink:href="#DejaVuSans-6c"/>
      <use x="160.839844" xlink:href="#DejaVuSans-65"/>
      <use x="222.363281" xlink:href="#DejaVuSans-73"/>
      <use x="274.462891" xlink:href="#DejaVuSans-70"/>
      <use x="337.939453" xlink:href="#DejaVuSans-69"/>
      <use x="365.722656" xlink:href="#DejaVuSans-65"/>
     </g>
    </g>
    <g id="line2d_7">
     <path d="M 98.15625 57.55541 
L 128.15625 57.55541 
" style="fill:none;stroke:#ff5733;stroke-linecap:square;stroke-width:2;"/>
    </g>
    <g id="line2d_8"/>
    <g id="text_3">
     <!-- Poisson -->
     <g transform="translate(140.15625 62.80541)scale(0.15 -0.15)">
      <defs>
       <path d="M 1259 4147 
L 1259 2394 
L 2053 2394 
Q 2494 2394 2734 2622 
Q 2975 2850 2975 3272 
Q 2975 3691 2734 3919 
Q 2494 4147 2053 4147 
L 1259 4147 
z
M 628 4666 
L 2053 4666 
Q 2838 4666 3239 4311 
Q 3641 3956 3641 3272 
Q 3641 2581 3239 2228 
Q 2838 1875 2053 1875 
L 1259 1875 
L 1259 0 
L 628 0 
L 628 4666 
z
" id="DejaVuSans-50" transform="scale(0.015625)"/>
       <path d="M 1959 3097 
Q 1497 3097 1228 2736 
Q 959 2375 959 1747 
Q 959 1119 1226 758 
Q 1494 397 1959 397 
Q 2419 397 2687 759 
Q 2956 1122 2956 1747 
Q 2956 2369 2687 2733 
Q 2419 3097 1959 3097 
z
M 1959 3584 
Q 2709 3584 3137 3096 
Q 3566 2609 3566 1747 
Q 3566 888 3137 398 
Q 2709 -91 1959 -91 
Q 1206 -91 779 398 
Q 353 888 353 1747 
Q 353 2609 779 3096 
Q 1206 3584 1959 3584 
z
" id="DejaVuSans-6f" transform="scale(0.015625)"/>
       <path d="M 3513 2113 
L 3513 0 
L 2938 0 
L 2938 2094 
Q 2938 2591 2744 2837 
Q 2550 3084 2163 3084 
Q 1697 3084 1428 2787 
Q 1159 2491 1159 1978 
L 1159 0 
L 581 0 
L 581 3500 
L 1159 3500 
L 1159 2956 
Q 1366 3272 1645 3428 
Q 1925 3584 2291 3584 
Q 2894 3584 3203 3211 
Q 3513 2838 3513 2113 
z
" id="DejaVuSans-6e" transform="scale(0.015625)"/>
      </defs>
      <use xlink:href="#DejaVuSans-50"/>
      <use x="56.677734" xlink:href="#DejaVuSans-6f"/>
      <use x="117.859375" xlink:href="#DejaVuSans-69"/>
      <use x="145.642578" xlink:href="#DejaVuSans-73"/>
      <use x="197.742188" xlink:href="#DejaVuSans-73"/>
      <use x="249.841797" xlink:href="#DejaVuSans-6f"/>
      <use x="311.023438" xlink:href="#DejaVuSans-6e"/>
     </g>
    </g>
   </g>
  </g>
  <g id="axes_2">
   <g id="patch_25">
    <path d="M 16.2 139.543396 
L 286.2 139.543396 
L 286.2 104.892453 
L 16.2 104.892453 
z
" style="fill:#ffffff;"/>
   </g>
   <g id="patch_26">
    <path clip-path="url(#pfddf160a95)" d="M 42.979497 139.543396 
L 44.343133 139.543396 
L 44.343133 138.837914 
L 42.979497 138.837914 
z
" style="fill:#8bd3e6;"/>
   </g>
   <g id="patch_27">
    <path clip-path="url(#pfddf160a95)" d="M 44.343133 139.543396 
L 45.70677 139.543396 
L 45.70677 138.916301 
L 44.343133 138.916301 
z
" style="fill:#8bd3e6;"/>
   </g>
   <g id="patch_28">
    <path clip-path="url(#pfddf160a95)" d="M 45.70677 139.543396 
L 47.070406 139.543396 
L 47.070406 135.85921 
L 45.70677 135.85921 
z
" style="fill:#8bd3e6;"/>
   </g>
   <g id="patch_29">
    <path clip-path="url(#pfddf160a95)" d="M 47.070406 139.543396 
L 48.434043 139.543396 
L 48.434043 135.545663 
L 47.070406 135.545663 
z
" style="fill:#8bd3e6;"/>
   </g>
   <g id="patch_30">
    <path clip-path="url(#pfddf160a95)" d="M 48.434043 139.543396 
L 49.797679 139.543396 
L 49.797679 131.626316 
L 48.434043 131.626316 
z
" style="fill:#8bd3e6;"/>
   </g>
   <g id="patch_31">
    <path clip-path="url(#pfddf160a95)" d="M 49.797679 139.543396 
L 51.161315 139.543396 
L 51.161315 120.495372 
L 49.797679 120.495372 
z
" style="fill:#8bd3e6;"/>
   </g>
   <g id="patch_32">
    <path clip-path="url(#pfddf160a95)" d="M 51.161315 139.543396 
L 52.524952 139.543396 
L 52.524952 121.200854 
L 51.161315 121.200854 
z
" style="fill:#8bd3e6;"/>
   </g>
   <g id="patch_33">
    <path clip-path="url(#pfddf160a95)" d="M 52.524952 139.543396 
L 53.888588 139.543396 
L 53.888588 117.281507 
L 52.524952 117.281507 
z
" style="fill:#8bd3e6;"/>
   </g>
   <g id="patch_34">
    <path clip-path="url(#pfddf160a95)" d="M 53.888588 139.543396 
L 55.252224 139.543396 
L 55.252224 106.542498 
L 53.888588 106.542498 
z
" style="fill:#8bd3e6;"/>
   </g>
   <g id="patch_35">
    <path clip-path="url(#pfddf160a95)" d="M 55.252224 139.543396 
L 56.615861 139.543396 
L 56.615861 117.908603 
L 55.252224 117.908603 
z
" style="fill:#8bd3e6;"/>
   </g>
   <g id="patch_36">
    <path clip-path="url(#pfddf160a95)" d="M 56.615861 139.543396 
L 57.979497 139.543396 
L 57.979497 120.965693 
L 56.615861 120.965693 
z
" style="fill:#8bd3e6;"/>
   </g>
   <g id="patch_37">
    <path clip-path="url(#pfddf160a95)" d="M 57.979497 139.543396 
L 59.343133 139.543396 
L 59.343133 119.946663 
L 57.979497 119.946663 
z
" style="fill:#8bd3e6;"/>
   </g>
   <g id="patch_38">
    <path clip-path="url(#pfddf160a95)" d="M 59.343133 139.543396 
L 60.70677 139.543396 
L 60.70677 127.550196 
L 59.343133 127.550196 
z
" style="fill:#8bd3e6;"/>
   </g>
   <g id="patch_39">
    <path clip-path="url(#pfddf160a95)" d="M 60.70677 139.543396 
L 62.070406 139.543396 
L 62.070406 134.134698 
L 60.70677 134.134698 
z
" style="fill:#8bd3e6;"/>
   </g>
   <g id="patch_40">
    <path clip-path="url(#pfddf160a95)" d="M 62.070406 139.543396 
L 63.434043 139.543396 
L 63.434043 133.350829 
L 62.070406 133.350829 
z
" style="fill:#8bd3e6;"/>
   </g>
   <g id="patch_41">
    <path clip-path="url(#pfddf160a95)" d="M 63.434043 139.543396 
L 64.797679 139.543396 
L 64.797679 138.68114 
L 63.434043 138.68114 
z
" style="fill:#8bd3e6;"/>
   </g>
   <g id="patch_42">
    <path clip-path="url(#pfddf160a95)" d="M 64.797679 139.543396 
L 66.161315 139.543396 
L 66.161315 138.367592 
L 64.797679 138.367592 
z
" style="fill:#8bd3e6;"/>
   </g>
   <g id="patch_43">
    <path clip-path="url(#pfddf160a95)" d="M 66.161315 139.543396 
L 67.524952 139.543396 
L 67.524952 138.994688 
L 66.161315 138.994688 
z
" style="fill:#8bd3e6;"/>
   </g>
   <g id="patch_44">
    <path clip-path="url(#pfddf160a95)" d="M 67.524952 139.543396 
L 68.888588 139.543396 
L 68.888588 139.229848 
L 67.524952 139.229848 
z
" style="fill:#8bd3e6;"/>
   </g>
   <g id="patch_45">
    <path clip-path="url(#pfddf160a95)" d="M 68.888588 139.543396 
L 70.252224 139.543396 
L 70.252224 139.465009 
L 68.888588 139.465009 
z
" style="fill:#8bd3e6;"/>
   </g>
   <g id="matplotlib.axis_2">
    <g id="xtick_6">
     <g id="line2d_9">
      <g>
       <use style="stroke:#000000;stroke-width:0.8;" x="28.472727" xlink:href="#md129815752" y="139.543396"/>
      </g>
     </g>
    </g>
    <g id="xtick_7">
     <g id="line2d_10">
      <g>
       <use style="stroke:#000000;stroke-width:0.8;" x="86.499807" xlink:href="#md129815752" y="139.543396"/>
      </g>
     </g>
    </g>
    <g id="xtick_8">
     <g id="line2d_11">
      <g>
       <use style="stroke:#000000;stroke-width:0.8;" x="144.526886" xlink:href="#md129815752" y="139.543396"/>
      </g>
     </g>
    </g>
    <g id="xtick_9">
     <g id="line2d_12">
      <g>
       <use style="stroke:#000000;stroke-width:0.8;" x="202.553965" xlink:href="#md129815752" y="139.543396"/>
      </g>
     </g>
    </g>
    <g id="xtick_10">
     <g id="line2d_13">
      <g>
       <use style="stroke:#000000;stroke-width:0.8;" x="260.581044" xlink:href="#md129815752" y="139.543396"/>
      </g>
     </g>
    </g>
   </g>
   <g id="line2d_14">
    <path clip-path="url(#pfddf160a95)" d="M 42.979497 139.409439 
L 43.559768 139.308038 
L 44.140039 139.145196 
L 44.720309 138.893745 
L 45.30058 138.520058 
L 45.880851 137.985154 
L 46.461122 137.247195 
L 47.041393 136.265488 
L 47.621663 135.005866 
L 48.201934 133.44694 
L 48.782205 131.586455 
L 49.362476 129.446673 
L 49.942747 127.07773 
L 50.523017 124.557984 
L 51.103288 121.99082 
L 51.683559 119.497861 
L 52.26383 117.209187 
L 52.844101 115.251687 
L 53.424371 113.737058 
L 54.004642 112.751066 
L 54.584913 112.345535 
L 55.165184 112.534073 
L 55.745455 113.291987 
L 56.325725 114.56019 
L 56.905996 116.252357 
L 57.486267 118.264179 
L 58.066538 120.483425 
L 58.646809 122.799532 
L 59.227079 125.111726 
L 59.80735 127.334972 
L 60.387621 129.403495 
L 60.967892 131.271931 
L 61.548162 132.914452 
L 62.128433 134.322403 
L 62.708704 135.501009 
L 63.288975 136.465716 
L 63.869246 137.238611 
L 64.449516 137.845248 
L 65.029787 138.312074 
L 65.610058 138.664518 
L 66.190329 138.925733 
L 66.7706 139.115888 
L 67.35087 139.251918 
L 67.931141 139.347586 
L 68.511412 139.413761 
L 69.091683 139.458798 
L 69.671954 139.488966 
" style="fill:none;stroke:#ff5733;stroke-linecap:square;stroke-width:2;"/>
   </g>
   <g id="patch_46">
    <path d="M 16.2 139.543396 
L 286.2 139.543396 
" style="fill:none;stroke:#000000;stroke-linecap:square;stroke-linejoin:miter;stroke-width:0.8;"/>
   </g>
   <g id="text_4">
    <!-- 1.5 a.u. L -->
    <g transform="translate(216.220312 116.290109)scale(0.15 -0.15)">
     <defs>
      <path d="M 794 531 
L 1825 531 
L 1825 4091 
L 703 3866 
L 703 4441 
L 1819 4666 
L 2450 4666 
L 2450 531 
L 3481 531 
L 3481 0 
L 794 0 
L 794 531 
z
" id="DejaVuSans-31" transform="scale(0.015625)"/>
      <path d="M 691 4666 
L 3169 4666 
L 3169 4134 
L 1269 4134 
L 1269 2991 
Q 1406 3038 1543 3061 
Q 1681 3084 1819 3084 
Q 2600 3084 3056 2656 
Q 3513 2228 3513 1497 
Q 3513 744 3044 326 
Q 2575 -91 1722 -91 
Q 1428 -91 1123 -41 
Q 819 9 494 109 
L 494 744 
Q 775 591 1075 516 
Q 1375 441 1709 441 
Q 2250 441 2565 725 
Q 2881 1009 2881 1497 
Q 2881 1984 2565 2268 
Q 2250 2553 1709 2553 
Q 1456 2553 1204 2497 
Q 953 2441 691 2322 
L 691 4666 
z
" id="DejaVuSans-35" transform="scale(0.015625)"/>
     </defs>
     <use xlink:href="#DejaVuSans-31"/>
     <use x="63.623047" xlink:href="#DejaVuSans-2e"/>
     <use x="95.410156" xlink:href="#DejaVuSans-35"/>
     <use x="159.033203" xlink:href="#DejaVuSans-20"/>
     <use x="190.820312" xlink:href="#DejaVuSans-61"/>
     <use x="252.099609" xlink:href="#DejaVuSans-2e"/>
     <use x="283.886719" xlink:href="#DejaVuSans-75"/>
     <use x="347.265625" xlink:href="#DejaVuSans-2e"/>
     <use x="379.052734" xlink:href="#DejaVuSans-20"/>
     <use x="410.839844" xlink:href="#DejaVuSans-4c"/>
    </g>
   </g>
  </g>
  <g id="axes_3">
   <g id="patch_47">
    <path d="M 16.2 193.89434 
L 286.2 193.89434 
L 286.2 159.243396 
L 16.2 159.243396 
z
" style="fill:#ffffff;"/>
   </g>
   <g id="patch_48">
    <path clip-path="url(#p46d3be4e7f)" d="M 59.80735 193.89434 
L 61.69323 193.89434 
L 61.69323 193.453348 
L 59.80735 193.453348 
z
" style="fill:#8bd3e6;"/>
   </g>
   <g id="patch_49">
    <path clip-path="url(#p46d3be4e7f)" d="M 61.69323 193.89434 
L 63.57911 193.89434 
L 63.57911 193.673844 
L 61.69323 193.673844 
z
" style="fill:#8bd3e6;"/>
   </g>
   <g id="patch_50">
    <path clip-path="url(#p46d3be4e7f)" d="M 63.57911 193.89434 
L 65.46499 193.89434 
L 65.46499 192.424366 
L 63.57911 192.424366 
z
" style="fill:#8bd3e6;"/>
   </g>
   <g id="patch_51">
    <path clip-path="url(#p46d3be4e7f)" d="M 65.46499 193.89434 
L 67.35087 193.89434 
L 67.35087 190.5869 
L 65.46499 190.5869 
z
" style="fill:#8bd3e6;"/>
   </g>
   <g id="patch_52">
    <path clip-path="url(#p46d3be4e7f)" d="M 67.35087 193.89434 
L 69.23675 193.89434 
L 69.23675 185.441994 
L 67.35087 185.441994 
z
" style="fill:#8bd3e6;"/>
   </g>
   <g id="patch_53">
    <path clip-path="url(#p46d3be4e7f)" d="M 69.23675 193.89434 
L 71.122631 193.89434 
L 71.122631 183.090037 
L 69.23675 183.090037 
z
" style="fill:#8bd3e6;"/>
   </g>
   <g id="patch_54">
    <path clip-path="url(#p46d3be4e7f)" d="M 71.122631 193.89434 
L 73.008511 193.89434 
L 73.008511 177.651136 
L 71.122631 177.651136 
z
" style="fill:#8bd3e6;"/>
   </g>
   <g id="patch_55">
    <path clip-path="url(#p46d3be4e7f)" d="M 73.008511 193.89434 
L 74.894391 193.89434 
L 74.894391 172.138736 
L 73.008511 172.138736 
z
" style="fill:#8bd3e6;"/>
   </g>
   <g id="patch_56">
    <path clip-path="url(#p46d3be4e7f)" d="M 74.894391 193.89434 
L 76.780271 193.89434 
L 76.780271 160.893441 
L 74.894391 160.893441 
z
" style="fill:#8bd3e6;"/>
   </g>
   <g id="patch_57">
    <path clip-path="url(#p46d3be4e7f)" d="M 76.780271 193.89434 
L 78.666151 193.89434 
L 78.666151 170.742262 
L 76.780271 170.742262 
z
" style="fill:#8bd3e6;"/>
   </g>
   <g id="patch_58">
    <path clip-path="url(#p46d3be4e7f)" d="M 78.666151 193.89434 
L 80.552031 193.89434 
L 80.552031 174.417195 
L 78.666151 174.417195 
z
" style="fill:#8bd3e6;"/>
   </g>
   <g id="patch_59">
    <path clip-path="url(#p46d3be4e7f)" d="M 80.552031 193.89434 
L 82.437911 193.89434 
L 82.437911 178.312624 
L 80.552031 178.312624 
z
" style="fill:#8bd3e6;"/>
   </g>
   <g id="patch_60">
    <path clip-path="url(#p46d3be4e7f)" d="M 82.437911 193.89434 
L 84.323791 193.89434 
L 84.323791 180.370586 
L 82.437911 180.370586 
z
" style="fill:#8bd3e6;"/>
   </g>
   <g id="patch_61">
    <path clip-path="url(#p46d3be4e7f)" d="M 84.323791 193.89434 
L 86.209671 193.89434 
L 86.209671 185.441994 
L 84.323791 185.441994 
z
" style="fill:#8bd3e6;"/>
   </g>
   <g id="patch_62">
    <path clip-path="url(#p46d3be4e7f)" d="M 86.209671 193.89434 
L 88.095551 193.89434 
L 88.095551 189.925412 
L 86.209671 189.925412 
z
" style="fill:#8bd3e6;"/>
   </g>
   <g id="patch_63">
    <path clip-path="url(#p46d3be4e7f)" d="M 88.095551 193.89434 
L 89.981431 193.89434 
L 89.981431 192.056873 
L 88.095551 192.056873 
z
" style="fill:#8bd3e6;"/>
   </g>
   <g id="patch_64">
    <path clip-path="url(#p46d3be4e7f)" d="M 89.981431 193.89434 
L 91.867311 193.89434 
L 91.867311 192.718361 
L 89.981431 192.718361 
z
" style="fill:#8bd3e6;"/>
   </g>
   <g id="patch_65">
    <path clip-path="url(#p46d3be4e7f)" d="M 91.867311 193.89434 
L 93.753191 193.89434 
L 93.753191 193.30635 
L 91.867311 193.30635 
z
" style="fill:#8bd3e6;"/>
   </g>
   <g id="patch_66">
    <path clip-path="url(#p46d3be4e7f)" d="M 93.753191 193.89434 
L 95.639072 193.89434 
L 95.639072 193.747342 
L 93.753191 193.747342 
z
" style="fill:#8bd3e6;"/>
   </g>
   <g id="patch_67">
    <path clip-path="url(#p46d3be4e7f)" d="M 95.639072 193.89434 
L 97.524952 193.89434 
L 97.524952 193.747342 
L 95.639072 193.747342 
z
" style="fill:#8bd3e6;"/>
   </g>
   <g id="matplotlib.axis_3">
    <g id="xtick_11">
     <g id="line2d_15">
      <g>
       <use style="stroke:#000000;stroke-width:0.8;" x="28.472727" xlink:href="#md129815752" y="193.89434"/>
      </g>
     </g>
    </g>
    <g id="xtick_12">
     <g id="line2d_16">
      <g>
       <use style="stroke:#000000;stroke-width:0.8;" x="86.499807" xlink:href="#md129815752" y="193.89434"/>
      </g>
     </g>
    </g>
    <g id="xtick_13">
     <g id="line2d_17">
      <g>
       <use style="stroke:#000000;stroke-width:0.8;" x="144.526886" xlink:href="#md129815752" y="193.89434"/>
      </g>
     </g>
    </g>
    <g id="xtick_14">
     <g id="line2d_18">
      <g>
       <use style="stroke:#000000;stroke-width:0.8;" x="202.553965" xlink:href="#md129815752" y="193.89434"/>
      </g>
     </g>
    </g>
    <g id="xtick_15">
     <g id="line2d_19">
      <g>
       <use style="stroke:#000000;stroke-width:0.8;" x="260.581044" xlink:href="#md129815752" y="193.89434"/>
      </g>
     </g>
    </g>
   </g>
   <g id="line2d_20">
    <path clip-path="url(#p46d3be4e7f)" d="M 59.80735 193.813691 
L 60.387621 193.771769 
L 60.967892 193.711384 
L 61.548162 193.62604 
L 62.128433 193.507669 
L 62.708704 193.346519 
L 63.288975 193.131144 
L 63.869246 192.848523 
L 64.449516 192.48436 
L 65.029787 192.023566 
L 65.610058 191.450964 
L 66.190329 190.752196 
L 66.7706 189.914816 
L 67.35087 188.929499 
L 67.931141 187.79131 
L 68.511412 186.500919 
L 69.091683 185.065646 
L 69.671954 183.500233 
L 70.252224 181.827217 
L 70.832495 180.076826 
L 71.412766 178.28634 
L 71.993037 176.498916 
L 72.573308 174.761894 
L 73.153578 173.124707 
L 73.733849 171.636487 
L 74.31412 170.343564 
L 74.894391 169.287022 
L 75.474662 168.500504 
L 76.054932 168.008425 
L 76.635203 167.824734 
L 77.215474 167.952293 
L 77.795745 168.382936 
L 78.376015 169.098149 
L 78.956286 170.070335 
L 79.536557 171.264518 
L 80.116828 172.640364 
L 80.697099 174.154359 
L 81.277369 175.761978 
L 81.85764 177.419712 
L 82.437911 179.086841 
L 83.018182 180.726852 
L 83.598453 182.308478 
L 84.178723 183.806314 
L 84.758994 185.201063 
L 85.339265 186.47942 
L 85.919536 187.633677 
L 86.499807 188.661115 
L 87.080077 189.563251 
L 87.660348 190.345013 
L 88.240619 191.013907 
L 88.82089 191.57922 
L 89.401161 192.051306 
L 89.981431 192.440969 
L 90.561702 192.758958 
L 91.141973 193.015586 
L 91.722244 193.220449 
L 92.302515 193.38225 
L 92.882785 193.508709 
L 93.463056 193.606532 
L 94.043327 193.681441 
L 94.623598 193.738234 
L 95.203868 193.780873 
L 95.784139 193.812576 
L 96.36441 193.835925 
L 96.944681 193.85296 
" style="fill:none;stroke:#ff5733;stroke-linecap:square;stroke-width:2;"/>
   </g>
   <g id="patch_68">
    <path d="M 16.2 193.89434 
L 286.2 193.89434 
" style="fill:none;stroke:#000000;stroke-linecap:square;stroke-linejoin:miter;stroke-width:0.8;"/>
   </g>
   <g id="text_5">
    <!-- 3.0 a.u. L -->
    <g transform="translate(216.220312 170.641052)scale(0.15 -0.15)">
     <defs>
      <path d="M 2597 2516 
Q 3050 2419 3304 2112 
Q 3559 1806 3559 1356 
Q 3559 666 3084 287 
Q 2609 -91 1734 -91 
Q 1441 -91 1130 -33 
Q 819 25 488 141 
L 488 750 
Q 750 597 1062 519 
Q 1375 441 1716 441 
Q 2309 441 2620 675 
Q 2931 909 2931 1356 
Q 2931 1769 2642 2001 
Q 2353 2234 1838 2234 
L 1294 2234 
L 1294 2753 
L 1863 2753 
Q 2328 2753 2575 2939 
Q 2822 3125 2822 3475 
Q 2822 3834 2567 4026 
Q 2313 4219 1838 4219 
Q 1578 4219 1281 4162 
Q 984 4106 628 3988 
L 628 4550 
Q 988 4650 1302 4700 
Q 1616 4750 1894 4750 
Q 2613 4750 3031 4423 
Q 3450 4097 3450 3541 
Q 3450 3153 3228 2886 
Q 3006 2619 2597 2516 
z
" id="DejaVuSans-33" transform="scale(0.015625)"/>
     </defs>
     <use xlink:href="#DejaVuSans-33"/>
     <use x="63.623047" xlink:href="#DejaVuSans-2e"/>
     <use x="95.410156" xlink:href="#DejaVuSans-30"/>
     <use x="159.033203" xlink:href="#DejaVuSans-20"/>
     <use x="190.820312" xlink:href="#DejaVuSans-61"/>
     <use x="252.099609" xlink:href="#DejaVuSans-2e"/>
     <use x="283.886719" xlink:href="#DejaVuSans-75"/>
     <use x="347.265625" xlink:href="#DejaVuSans-2e"/>
     <use x="379.052734" xlink:href="#DejaVuSans-20"/>
     <use x="410.839844" xlink:href="#DejaVuSans-4c"/>
    </g>
   </g>
  </g>
  <g id="axes_4">
   <g id="patch_69">
    <path d="M 16.2 248.245283 
L 286.2 248.245283 
L 286.2 213.59434 
L 16.2 213.59434 
z
" style="fill:#ffffff;"/>
   </g>
   <g id="patch_70">
    <path clip-path="url(#p7d24405d14)" d="M 76.635203 248.245283 
L 78.753191 248.245283 
L 78.753191 248.0669 
L 76.635203 248.0669 
z
" style="fill:#8bd3e6;"/>
   </g>
   <g id="patch_71">
    <path clip-path="url(#p7d24405d14)" d="M 78.753191 248.245283 
L 80.87118 248.245283 
L 80.87118 247.977708 
L 78.753191 247.977708 
z
" style="fill:#8bd3e6;"/>
   </g>
   <g id="patch_72">
    <path clip-path="url(#p7d24405d14)" d="M 80.87118 248.245283 
L 82.989168 248.245283 
L 82.989168 247.710133 
L 80.87118 247.710133 
z
" style="fill:#8bd3e6;"/>
   </g>
   <g id="patch_73">
    <path clip-path="url(#p7d24405d14)" d="M 82.989168 248.245283 
L 85.107157 248.245283 
L 85.107157 246.372259 
L 82.989168 246.372259 
z
" style="fill:#8bd3e6;"/>
   </g>
   <g id="patch_74">
    <path clip-path="url(#p7d24405d14)" d="M 85.107157 248.245283 
L 87.225145 248.245283 
L 87.225145 243.696511 
L 85.107157 243.696511 
z
" style="fill:#8bd3e6;"/>
   </g>
   <g id="patch_75">
    <path clip-path="url(#p7d24405d14)" d="M 87.225145 248.245283 
L 89.343133 248.245283 
L 89.343133 240.842379 
L 87.225145 240.842379 
z
" style="fill:#8bd3e6;"/>
   </g>
   <g id="patch_76">
    <path clip-path="url(#p7d24405d14)" d="M 89.343133 248.245283 
L 91.461122 248.245283 
L 91.461122 234.955732 
L 89.343133 234.955732 
z
" style="fill:#8bd3e6;"/>
   </g>
   <g id="patch_77">
    <path clip-path="url(#p7d24405d14)" d="M 91.461122 248.245283 
L 93.57911 248.245283 
L 93.57911 227.463636 
L 91.461122 227.463636 
z
" style="fill:#8bd3e6;"/>
   </g>
   <g id="patch_78">
    <path clip-path="url(#p7d24405d14)" d="M 93.57911 248.245283 
L 95.697099 248.245283 
L 95.697099 226.304145 
L 93.57911 226.304145 
z
" style="fill:#8bd3e6;"/>
   </g>
   <g id="patch_79">
    <path clip-path="url(#p7d24405d14)" d="M 95.697099 248.245283 
L 97.815087 248.245283 
L 97.815087 220.149924 
L 95.697099 220.149924 
z
" style="fill:#8bd3e6;"/>
   </g>
   <g id="patch_80">
    <path clip-path="url(#p7d24405d14)" d="M 97.815087 248.245283 
L 99.933075 248.245283 
L 99.933075 215.244385 
L 97.815087 215.244385 
z
" style="fill:#8bd3e6;"/>
   </g>
   <g id="patch_81">
    <path clip-path="url(#p7d24405d14)" d="M 99.933075 248.245283 
L 102.051064 248.245283 
L 102.051064 224.966271 
L 99.933075 224.966271 
z
" style="fill:#8bd3e6;"/>
   </g>
   <g id="patch_82">
    <path clip-path="url(#p7d24405d14)" d="M 102.051064 248.245283 
L 104.169052 248.245283 
L 104.169052 224.431121 
L 102.051064 224.431121 
z
" style="fill:#8bd3e6;"/>
   </g>
   <g id="patch_83">
    <path clip-path="url(#p7d24405d14)" d="M 104.169052 248.245283 
L 106.287041 248.245283 
L 106.287041 228.177169 
L 104.169052 228.177169 
z
" style="fill:#8bd3e6;"/>
   </g>
   <g id="patch_84">
    <path clip-path="url(#p7d24405d14)" d="M 106.287041 248.245283 
L 108.405029 248.245283 
L 108.405029 239.147738 
L 106.287041 239.147738 
z
" style="fill:#8bd3e6;"/>
   </g>
   <g id="patch_85">
    <path clip-path="url(#p7d24405d14)" d="M 108.405029 248.245283 
L 110.523017 248.245283 
L 110.523017 240.396421 
L 108.405029 240.396421 
z
" style="fill:#8bd3e6;"/>
   </g>
   <g id="patch_86">
    <path clip-path="url(#p7d24405d14)" d="M 110.523017 248.245283 
L 112.641006 248.245283 
L 112.641006 244.23166 
L 110.523017 244.23166 
z
" style="fill:#8bd3e6;"/>
   </g>
   <g id="patch_87">
    <path clip-path="url(#p7d24405d14)" d="M 112.641006 248.245283 
L 114.758994 248.245283 
L 114.758994 246.372259 
L 112.641006 246.372259 
z
" style="fill:#8bd3e6;"/>
   </g>
   <g id="patch_88">
    <path clip-path="url(#p7d24405d14)" d="M 114.758994 248.245283 
L 116.876983 248.245283 
L 116.876983 247.53175 
L 114.758994 247.53175 
z
" style="fill:#8bd3e6;"/>
   </g>
   <g id="patch_89">
    <path clip-path="url(#p7d24405d14)" d="M 116.876983 248.245283 
L 118.994971 248.245283 
L 118.994971 247.888517 
L 116.876983 247.888517 
z
" style="fill:#8bd3e6;"/>
   </g>
   <g id="matplotlib.axis_4">
    <g id="xtick_16">
     <g id="line2d_21">
      <g>
       <use style="stroke:#000000;stroke-width:0.8;" x="28.472727" xlink:href="#md129815752" y="248.245283"/>
      </g>
     </g>
    </g>
    <g id="xtick_17">
     <g id="line2d_22">
      <g>
       <use style="stroke:#000000;stroke-width:0.8;" x="86.499807" xlink:href="#md129815752" y="248.245283"/>
      </g>
     </g>
    </g>
    <g id="xtick_18">
     <g id="line2d_23">
      <g>
       <use style="stroke:#000000;stroke-width:0.8;" x="144.526886" xlink:href="#md129815752" y="248.245283"/>
      </g>
     </g>
    </g>
    <g id="xtick_19">
     <g id="line2d_24">
      <g>
       <use style="stroke:#000000;stroke-width:0.8;" x="202.553965" xlink:href="#md129815752" y="248.245283"/>
      </g>
     </g>
    </g>
    <g id="xtick_20">
     <g id="line2d_25">
      <g>
       <use style="stroke:#000000;stroke-width:0.8;" x="260.581044" xlink:href="#md129815752" y="248.245283"/>
      </g>
     </g>
    </g>
   </g>
   <g id="line2d_26">
    <path clip-path="url(#p7d24405d14)" d="M 76.635203 248.199748 
L 77.215474 248.17978 
L 77.795745 248.152164 
L 78.376015 248.114445 
L 78.956286 248.063559 
L 79.536557 247.995751 
L 80.116828 247.906492 
L 80.697099 247.790415 
L 81.277369 247.641278 
L 81.85764 247.451962 
L 82.437911 247.214512 
L 83.018182 246.920238 
L 83.598453 246.559881 
L 84.178723 246.123854 
L 84.758994 245.602552 
L 85.339265 244.986742 
L 85.919536 244.26802 
L 86.499807 243.439318 
L 87.080077 242.495447 
L 87.660348 241.433645 
L 88.240619 240.254108 
L 88.82089 238.960461 
L 89.401161 237.560135 
L 89.981431 236.064619 
L 90.561702 234.489558 
L 91.141973 232.854667 
L 91.722244 231.183447 
L 92.302515 229.502703 
L 92.882785 227.841877 
L 93.463056 226.232197 
L 94.043327 224.7057 
L 94.623598 223.294155 
L 95.203868 222.027943 
L 95.784139 220.934955 
L 96.36441 220.039553 
L 96.944681 219.361664 
L 97.524952 218.916035 
L 98.105222 218.711712 
L 98.685493 218.751745 
L 99.265764 219.033147 
L 99.846035 219.547094 
L 100.426306 220.279365 
L 101.006576 221.210969 
L 101.586847 222.318951 
L 102.167118 223.5773 
L 102.747389 224.957939 
L 103.32766 226.431724 
L 103.90793 227.969415 
L 104.488201 229.542578 
L 105.068472 231.124376 
L 105.648743 232.690233 
L 106.229014 234.218344 
L 106.809284 235.690032 
L 107.389555 237.089944 
L 107.969826 238.406112 
L 108.550097 239.629878 
L 109.130368 240.755708 
L 109.710638 241.780925 
L 110.290909 242.705375 
L 110.87118 243.531056 
L 111.451451 244.261729 
L 112.031721 244.902528 
L 112.611992 245.459593 
L 113.192263 245.939724 
L 113.772534 246.350082 
L 114.352805 246.697929 
L 114.933075 246.99041 
L 115.513346 247.234391 
L 116.093617 247.436328 
L 116.673888 247.602186 
L 117.254159 247.737379 
L 117.834429 247.846757 
L 118.4147 247.934597 
" style="fill:none;stroke:#ff5733;stroke-linecap:square;stroke-width:2;"/>
   </g>
   <g id="patch_90">
    <path d="M 16.2 248.245283 
L 286.2 248.245283 
" style="fill:none;stroke:#000000;stroke-linecap:square;stroke-linejoin:miter;stroke-width:0.8;"/>
   </g>
   <g id="text_6">
    <!-- 4.8 a.u. L -->
    <g transform="translate(216.220312 224.991996)scale(0.15 -0.15)">
     <defs>
      <path d="M 2419 4116 
L 825 1625 
L 2419 1625 
L 2419 4116 
z
M 2253 4666 
L 3047 4666 
L 3047 1625 
L 3713 1625 
L 3713 1100 
L 3047 1100 
L 3047 0 
L 2419 0 
L 2419 1100 
L 313 1100 
L 313 1709 
L 2253 4666 
z
" id="DejaVuSans-34" transform="scale(0.015625)"/>
      <path d="M 2034 2216 
Q 1584 2216 1326 1975 
Q 1069 1734 1069 1313 
Q 1069 891 1326 650 
Q 1584 409 2034 409 
Q 2484 409 2743 651 
Q 3003 894 3003 1313 
Q 3003 1734 2745 1975 
Q 2488 2216 2034 2216 
z
M 1403 2484 
Q 997 2584 770 2862 
Q 544 3141 544 3541 
Q 544 4100 942 4425 
Q 1341 4750 2034 4750 
Q 2731 4750 3128 4425 
Q 3525 4100 3525 3541 
Q 3525 3141 3298 2862 
Q 3072 2584 2669 2484 
Q 3125 2378 3379 2068 
Q 3634 1759 3634 1313 
Q 3634 634 3220 271 
Q 2806 -91 2034 -91 
Q 1263 -91 848 271 
Q 434 634 434 1313 
Q 434 1759 690 2068 
Q 947 2378 1403 2484 
z
M 1172 3481 
Q 1172 3119 1398 2916 
Q 1625 2713 2034 2713 
Q 2441 2713 2670 2916 
Q 2900 3119 2900 3481 
Q 2900 3844 2670 4047 
Q 2441 4250 2034 4250 
Q 1625 4250 1398 4047 
Q 1172 3844 1172 3481 
z
" id="DejaVuSans-38" transform="scale(0.015625)"/>
     </defs>
     <use xlink:href="#DejaVuSans-34"/>
     <use x="63.623047" xlink:href="#DejaVuSans-2e"/>
     <use x="95.410156" xlink:href="#DejaVuSans-38"/>
     <use x="159.033203" xlink:href="#DejaVuSans-20"/>
     <use x="190.820312" xlink:href="#DejaVuSans-61"/>
     <use x="252.099609" xlink:href="#DejaVuSans-2e"/>
     <use x="283.886719" xlink:href="#DejaVuSans-75"/>
     <use x="347.265625" xlink:href="#DejaVuSans-2e"/>
     <use x="379.052734" xlink:href="#DejaVuSans-20"/>
     <use x="410.839844" xlink:href="#DejaVuSans-4c"/>
    </g>
   </g>
  </g>
  <g id="axes_5">
   <g id="patch_91">
    <path d="M 16.2 302.596226 
L 286.2 302.596226 
L 286.2 267.945283 
L 16.2 267.945283 
z
" style="fill:#ffffff;"/>
   </g>
   <g id="patch_92">
    <path clip-path="url(#pa0da6a321d)" d="M 98.685493 302.596226 
L 101.151644 302.596226 
L 101.151644 301.667812 
L 98.685493 301.667812 
z
" style="fill:#8bd3e6;"/>
   </g>
   <g id="patch_93">
    <path clip-path="url(#pa0da6a321d)" d="M 101.151644 302.596226 
L 103.617795 302.596226 
L 103.617795 301.49901 
L 101.151644 301.49901 
z
" style="fill:#8bd3e6;"/>
   </g>
   <g id="patch_94">
    <path clip-path="url(#pa0da6a321d)" d="M 103.617795 302.596226 
L 106.083946 302.596226 
L 106.083946 299.135774 
L 103.617795 299.135774 
z
" style="fill:#8bd3e6;"/>
   </g>
   <g id="patch_95">
    <path clip-path="url(#pa0da6a321d)" d="M 106.083946 302.596226 
L 108.550097 302.596226 
L 108.550097 297.53215 
L 106.083946 297.53215 
z
" style="fill:#8bd3e6;"/>
   </g>
   <g id="patch_96">
    <path clip-path="url(#pa0da6a321d)" d="M 108.550097 302.596226 
L 111.016248 302.596226 
L 111.016248 291.033252 
L 108.550097 291.033252 
z
" style="fill:#8bd3e6;"/>
   </g>
   <g id="patch_97">
    <path clip-path="url(#pa0da6a321d)" d="M 111.016248 302.596226 
L 113.482398 302.596226 
L 113.482398 288.079207 
L 111.016248 288.079207 
z
" style="fill:#8bd3e6;"/>
   </g>
   <g id="patch_98">
    <path clip-path="url(#pa0da6a321d)" d="M 113.482398 302.596226 
L 115.948549 302.596226 
L 115.948549 281.158303 
L 113.482398 281.158303 
z
" style="fill:#8bd3e6;"/>
   </g>
   <g id="patch_99">
    <path clip-path="url(#pa0da6a321d)" d="M 115.948549 302.596226 
L 118.4147 302.596226 
L 118.4147 275.841022 
L 115.948549 275.841022 
z
" style="fill:#8bd3e6;"/>
   </g>
   <g id="patch_100">
    <path clip-path="url(#pa0da6a321d)" d="M 118.4147 302.596226 
L 120.880851 302.596226 
L 120.880851 269.595328 
L 118.4147 269.595328 
z
" style="fill:#8bd3e6;"/>
   </g>
   <g id="patch_101">
    <path clip-path="url(#pa0da6a321d)" d="M 120.880851 302.596226 
L 123.347002 302.596226 
L 123.347002 277.782252 
L 120.880851 277.782252 
z
" style="fill:#8bd3e6;"/>
   </g>
   <g id="patch_102">
    <path clip-path="url(#pa0da6a321d)" d="M 123.347002 302.596226 
L 125.813153 302.596226 
L 125.813153 280.736296 
L 123.347002 280.736296 
z
" style="fill:#8bd3e6;"/>
   </g>
   <g id="patch_103">
    <path clip-path="url(#pa0da6a321d)" d="M 125.813153 302.596226 
L 128.279304 302.596226 
L 128.279304 284.365551 
L 125.813153 284.365551 
z
" style="fill:#8bd3e6;"/>
   </g>
   <g id="patch_104">
    <path clip-path="url(#pa0da6a321d)" d="M 128.279304 302.596226 
L 130.745455 302.596226 
L 130.745455 288.079207 
L 128.279304 288.079207 
z
" style="fill:#8bd3e6;"/>
   </g>
   <g id="patch_105">
    <path clip-path="url(#pa0da6a321d)" d="M 130.745455 302.596226 
L 133.211605 302.596226 
L 133.211605 297.025742 
L 130.745455 297.025742 
z
" style="fill:#8bd3e6;"/>
   </g>
   <g id="patch_106">
    <path clip-path="url(#pa0da6a321d)" d="M 133.211605 302.596226 
L 135.677756 302.596226 
L 135.677756 297.785354 
L 133.211605 297.785354 
z
" style="fill:#8bd3e6;"/>
   </g>
   <g id="patch_107">
    <path clip-path="url(#pa0da6a321d)" d="M 135.677756 302.596226 
L 138.143907 302.596226 
L 138.143907 300.992602 
L 135.677756 300.992602 
z
" style="fill:#8bd3e6;"/>
   </g>
   <g id="patch_108">
    <path clip-path="url(#pa0da6a321d)" d="M 138.143907 302.596226 
L 140.610058 302.596226 
L 140.610058 301.49901 
L 138.143907 301.49901 
z
" style="fill:#8bd3e6;"/>
   </g>
   <g id="patch_109">
    <path clip-path="url(#pa0da6a321d)" d="M 140.610058 302.596226 
L 143.076209 302.596226 
L 143.076209 302.005417 
L 140.610058 302.005417 
z
" style="fill:#8bd3e6;"/>
   </g>
   <g id="patch_110">
    <path clip-path="url(#pa0da6a321d)" d="M 143.076209 302.596226 
L 145.54236 302.596226 
L 145.54236 302.596226 
L 143.076209 302.596226 
z
" style="fill:#8bd3e6;"/>
   </g>
   <g id="patch_111">
    <path clip-path="url(#pa0da6a321d)" d="M 145.54236 302.596226 
L 148.008511 302.596226 
L 148.008511 302.511825 
L 145.54236 302.511825 
z
" style="fill:#8bd3e6;"/>
   </g>
   <g id="matplotlib.axis_5">
    <g id="xtick_21">
     <g id="line2d_27">
      <g>
       <use style="stroke:#000000;stroke-width:0.8;" x="28.472727" xlink:href="#md129815752" y="302.596226"/>
      </g>
     </g>
    </g>
    <g id="xtick_22">
     <g id="line2d_28">
      <g>
       <use style="stroke:#000000;stroke-width:0.8;" x="86.499807" xlink:href="#md129815752" y="302.596226"/>
      </g>
     </g>
    </g>
    <g id="xtick_23">
     <g id="line2d_29">
      <g>
       <use style="stroke:#000000;stroke-width:0.8;" x="144.526886" xlink:href="#md129815752" y="302.596226"/>
      </g>
     </g>
    </g>
    <g id="xtick_24">
     <g id="line2d_30">
      <g>
       <use style="stroke:#000000;stroke-width:0.8;" x="202.553965" xlink:href="#md129815752" y="302.596226"/>
      </g>
     </g>
    </g>
    <g id="xtick_25">
     <g id="line2d_31">
      <g>
       <use style="stroke:#000000;stroke-width:0.8;" x="260.581044" xlink:href="#md129815752" y="302.596226"/>
      </g>
     </g>
    </g>
   </g>
   <g id="line2d_32">
    <path clip-path="url(#pa0da6a321d)" d="M 98.685493 302.307248 
L 99.265764 302.221915 
L 99.846035 302.115326 
L 100.426306 301.983366 
L 101.006576 301.821445 
L 101.586847 301.624517 
L 102.167118 301.387132 
L 102.747389 301.103508 
L 103.32766 300.767638 
L 103.90793 300.373427 
L 104.488201 299.914857 
L 105.068472 299.386187 
L 105.648743 298.782176 
L 106.229014 298.098331 
L 106.809284 297.331168 
L 107.389555 296.478472 
L 107.969826 295.539567 
L 108.550097 294.51555 
L 109.130368 293.409503 
L 109.710638 292.226668 
L 110.290909 290.974548 
L 110.87118 289.662961 
L 111.451451 288.304002 
L 112.031721 286.91193 
L 112.611992 285.502973 
L 113.192263 284.095041 
L 113.772534 282.707366 
L 114.352805 281.360072 
L 114.933075 280.07369 
L 115.513346 278.868631 
L 116.093617 277.76464 
L 116.673888 276.780249 
L 117.254159 275.932256 
L 117.834429 275.235238 
L 118.4147 274.701136 
L 118.994971 274.338913 
L 119.575242 274.154307 
L 120.155513 274.149683 
L 120.735783 274.323996 
L 121.316054 274.67286 
L 121.896325 275.188716 
L 122.476596 275.861099 
L 123.056867 276.676982 
L 123.637137 277.621187 
L 124.217408 278.676846 
L 124.797679 279.825886 
L 125.37795 281.049528 
L 125.958221 282.328775 
L 126.538491 283.644878 
L 127.118762 284.979756 
L 127.699033 286.316374 
L 128.279304 287.639047 
L 128.859574 288.933691 
L 129.439845 290.187999 
L 130.020116 291.391549 
L 130.600387 292.535846 
L 131.180658 293.614314 
L 131.760928 294.622222 
L 132.341199 295.556575 
L 132.92147 296.415972 
L 133.501741 297.200431 
L 134.082012 297.911203 
L 134.662282 298.550576 
L 135.242553 299.121679 
L 135.822824 299.628293 
L 136.403095 300.074669 
L 136.983366 300.465366 
L 137.563636 300.805106 
L 138.143907 301.098644 
L 138.724178 301.350666 
L 139.304449 301.5657 
L 139.88472 301.748051 
L 140.46499 301.901752 
L 141.045261 302.030532 
L 141.625532 302.137794 
L 142.205803 302.226614 
L 142.786074 302.299738 
L 143.366344 302.359596 
L 143.946615 302.408318 
L 144.526886 302.447755 
L 145.107157 302.479499 
L 145.687427 302.50491 
L 146.267698 302.525141 
L 146.847969 302.541161 
L 147.42824 302.553779 
" style="fill:none;stroke:#ff5733;stroke-linecap:square;stroke-width:2;"/>
   </g>
   <g id="patch_112">
    <path d="M 16.2 302.596226 
L 286.2 302.596226 
" style="fill:none;stroke:#000000;stroke-linecap:square;stroke-linejoin:miter;stroke-width:0.8;"/>
   </g>
   <g id="text_7">
    <!-- 6.9 a.u. L -->
    <g transform="translate(216.220312 279.342939)scale(0.15 -0.15)">
     <defs>
      <path d="M 2113 2584 
Q 1688 2584 1439 2293 
Q 1191 2003 1191 1497 
Q 1191 994 1439 701 
Q 1688 409 2113 409 
Q 2538 409 2786 701 
Q 3034 994 3034 1497 
Q 3034 2003 2786 2293 
Q 2538 2584 2113 2584 
z
M 3366 4563 
L 3366 3988 
Q 3128 4100 2886 4159 
Q 2644 4219 2406 4219 
Q 1781 4219 1451 3797 
Q 1122 3375 1075 2522 
Q 1259 2794 1537 2939 
Q 1816 3084 2150 3084 
Q 2853 3084 3261 2657 
Q 3669 2231 3669 1497 
Q 3669 778 3244 343 
Q 2819 -91 2113 -91 
Q 1303 -91 875 529 
Q 447 1150 447 2328 
Q 447 3434 972 4092 
Q 1497 4750 2381 4750 
Q 2619 4750 2861 4703 
Q 3103 4656 3366 4563 
z
" id="DejaVuSans-36" transform="scale(0.015625)"/>
      <path d="M 703 97 
L 703 672 
Q 941 559 1184 500 
Q 1428 441 1663 441 
Q 2288 441 2617 861 
Q 2947 1281 2994 2138 
Q 2813 1869 2534 1725 
Q 2256 1581 1919 1581 
Q 1219 1581 811 2004 
Q 403 2428 403 3163 
Q 403 3881 828 4315 
Q 1253 4750 1959 4750 
Q 2769 4750 3195 4129 
Q 3622 3509 3622 2328 
Q 3622 1225 3098 567 
Q 2575 -91 1691 -91 
Q 1453 -91 1209 -44 
Q 966 3 703 97 
z
M 1959 2075 
Q 2384 2075 2632 2365 
Q 2881 2656 2881 3163 
Q 2881 3666 2632 3958 
Q 2384 4250 1959 4250 
Q 1534 4250 1286 3958 
Q 1038 3666 1038 3163 
Q 1038 2656 1286 2365 
Q 1534 2075 1959 2075 
z
" id="DejaVuSans-39" transform="scale(0.015625)"/>
     </defs>
     <use xlink:href="#DejaVuSans-36"/>
     <use x="63.623047" xlink:href="#DejaVuSans-2e"/>
     <use x="95.410156" xlink:href="#DejaVuSans-39"/>
     <use x="159.033203" xlink:href="#DejaVuSans-20"/>
     <use x="190.820312" xlink:href="#DejaVuSans-61"/>
     <use x="252.099609" xlink:href="#DejaVuSans-2e"/>
     <use x="283.886719" xlink:href="#DejaVuSans-75"/>
     <use x="347.265625" xlink:href="#DejaVuSans-2e"/>
     <use x="379.052734" xlink:href="#DejaVuSans-20"/>
     <use x="410.839844" xlink:href="#DejaVuSans-4c"/>
    </g>
   </g>
  </g>
  <g id="axes_6">
   <g id="patch_113">
    <path d="M 16.2 356.94717 
L 286.2 356.94717 
L 286.2 322.296226 
L 16.2 322.296226 
z
" style="fill:#ffffff;"/>
   </g>
   <g id="patch_114">
    <path clip-path="url(#p27fb6cf0f1)" d="M 114.933075 356.94717 
L 117.892456 356.94717 
L 117.892456 356.492818 
L 114.933075 356.492818 
z
" style="fill:#8bd3e6;"/>
   </g>
   <g id="patch_115">
    <path clip-path="url(#p27fb6cf0f1)" d="M 117.892456 356.94717 
L 120.851838 356.94717 
L 120.851838 356.674559 
L 117.892456 356.674559 
z
" style="fill:#8bd3e6;"/>
   </g>
   <g id="patch_116">
    <path clip-path="url(#p27fb6cf0f1)" d="M 120.851838 356.94717 
L 123.811219 356.94717 
L 123.811219 355.584115 
L 120.851838 355.584115 
z
" style="fill:#8bd3e6;"/>
   </g>
   <g id="patch_117">
    <path clip-path="url(#p27fb6cf0f1)" d="M 123.811219 356.94717 
L 126.7706 356.94717 
L 126.7706 353.039746 
L 123.811219 353.039746 
z
" style="fill:#8bd3e6;"/>
   </g>
   <g id="patch_118">
    <path clip-path="url(#p27fb6cf0f1)" d="M 126.7706 356.94717 
L 129.729981 356.94717 
L 129.729981 348.223619 
L 126.7706 348.223619 
z
" style="fill:#8bd3e6;"/>
   </g>
   <g id="patch_119">
    <path clip-path="url(#p27fb6cf0f1)" d="M 129.729981 356.94717 
L 132.689362 356.94717 
L 132.689362 342.498789 
L 129.729981 342.498789 
z
" style="fill:#8bd3e6;"/>
   </g>
   <g id="patch_120">
    <path clip-path="url(#p27fb6cf0f1)" d="M 132.689362 356.94717 
L 135.648743 356.94717 
L 135.648743 337.13744 
L 132.689362 337.13744 
z
" style="fill:#8bd3e6;"/>
   </g>
   <g id="patch_121">
    <path clip-path="url(#p27fb6cf0f1)" d="M 135.648743 356.94717 
L 138.608124 356.94717 
L 138.608124 328.59563 
L 135.648743 328.59563 
z
" style="fill:#8bd3e6;"/>
   </g>
   <g id="patch_122">
    <path clip-path="url(#p27fb6cf0f1)" d="M 138.608124 356.94717 
L 141.567505 356.94717 
L 141.567505 326.596483 
L 138.608124 326.596483 
z
" style="fill:#8bd3e6;"/>
   </g>
   <g id="patch_123">
    <path clip-path="url(#p27fb6cf0f1)" d="M 141.567505 356.94717 
L 144.526886 356.94717 
L 144.526886 327.323446 
L 141.567505 327.323446 
z
" style="fill:#8bd3e6;"/>
   </g>
   <g id="patch_124">
    <path clip-path="url(#p27fb6cf0f1)" d="M 144.526886 356.94717 
L 147.486267 356.94717 
L 147.486267 324.688207 
L 144.526886 324.688207 
z
" style="fill:#8bd3e6;"/>
   </g>
   <g id="patch_125">
    <path clip-path="url(#p27fb6cf0f1)" d="M 147.486267 356.94717 
L 150.445648 356.94717 
L 150.445648 336.773959 
L 147.486267 336.773959 
z
" style="fill:#8bd3e6;"/>
   </g>
   <g id="patch_126">
    <path clip-path="url(#p27fb6cf0f1)" d="M 150.445648 356.94717 
L 153.405029 356.94717 
L 153.405029 341.135734 
L 150.445648 341.135734 
z
" style="fill:#8bd3e6;"/>
   </g>
   <g id="patch_127">
    <path clip-path="url(#p27fb6cf0f1)" d="M 153.405029 356.94717 
L 156.36441 356.94717 
L 156.36441 346.042732 
L 153.405029 346.042732 
z
" style="fill:#8bd3e6;"/>
   </g>
   <g id="patch_128">
    <path clip-path="url(#p27fb6cf0f1)" d="M 156.36441 356.94717 
L 159.323791 356.94717 
L 159.323791 351.131469 
L 156.36441 351.131469 
z
" style="fill:#8bd3e6;"/>
   </g>
   <g id="patch_129">
    <path clip-path="url(#p27fb6cf0f1)" d="M 159.323791 356.94717 
L 162.283172 356.94717 
L 162.283172 354.857152 
L 159.323791 354.857152 
z
" style="fill:#8bd3e6;"/>
   </g>
   <g id="patch_130">
    <path clip-path="url(#p27fb6cf0f1)" d="M 162.283172 356.94717 
L 165.242553 356.94717 
L 165.242553 354.857152 
L 162.283172 354.857152 
z
" style="fill:#8bd3e6;"/>
   </g>
   <g id="patch_131">
    <path clip-path="url(#p27fb6cf0f1)" d="M 165.242553 356.94717 
L 168.201934 356.94717 
L 168.201934 356.492818 
L 165.242553 356.492818 
z
" style="fill:#8bd3e6;"/>
   </g>
   <g id="patch_132">
    <path clip-path="url(#p27fb6cf0f1)" d="M 168.201934 356.94717 
L 171.161315 356.94717 
L 171.161315 356.765429 
L 168.201934 356.765429 
z
" style="fill:#8bd3e6;"/>
   </g>
   <g id="patch_133">
    <path clip-path="url(#p27fb6cf0f1)" d="M 171.161315 356.94717 
L 174.120696 356.94717 
L 174.120696 356.856299 
L 171.161315 356.856299 
z
" style="fill:#8bd3e6;"/>
   </g>
   <g id="matplotlib.axis_6">
    <g id="xtick_26">
     <g id="line2d_33">
      <g>
       <use style="stroke:#000000;stroke-width:0.8;" x="28.472727" xlink:href="#md129815752" y="356.94717"/>
      </g>
     </g>
    </g>
    <g id="xtick_27">
     <g id="line2d_34">
      <g>
       <use style="stroke:#000000;stroke-width:0.8;" x="86.499807" xlink:href="#md129815752" y="356.94717"/>
      </g>
     </g>
    </g>
    <g id="xtick_28">
     <g id="line2d_35">
      <g>
       <use style="stroke:#000000;stroke-width:0.8;" x="144.526886" xlink:href="#md129815752" y="356.94717"/>
      </g>
     </g>
    </g>
    <g id="xtick_29">
     <g id="line2d_36">
      <g>
       <use style="stroke:#000000;stroke-width:0.8;" x="202.553965" xlink:href="#md129815752" y="356.94717"/>
      </g>
     </g>
    </g>
    <g id="xtick_30">
     <g id="line2d_37">
      <g>
       <use style="stroke:#000000;stroke-width:0.8;" x="260.581044" xlink:href="#md129815752" y="356.94717"/>
      </g>
     </g>
    </g>
   </g>
   <g id="line2d_38">
    <path clip-path="url(#p27fb6cf0f1)" d="M 114.933075 356.867477 
L 115.513346 356.843006 
L 116.093617 356.811923 
L 116.673888 356.772721 
L 117.254159 356.723625 
L 117.834429 356.662573 
L 118.4147 356.587184 
L 118.994971 356.494744 
L 119.575242 356.382188 
L 120.155513 356.246095 
L 120.735783 356.082691 
L 121.316054 355.887865 
L 121.896325 355.657193 
L 122.476596 355.385988 
L 123.056867 355.069356 
L 123.637137 354.702277 
L 124.217408 354.279707 
L 124.797679 353.796688 
L 125.37795 353.248486 
L 125.958221 352.63074 
L 126.538491 351.939626 
L 127.118762 351.172029 
L 127.699033 350.325718 
L 128.279304 349.399524 
L 128.859574 348.393507 
L 129.439845 347.309109 
L 130.020116 346.149294 
L 130.600387 344.918644 
L 131.180658 343.623438 
L 131.760928 342.271679 
L 132.341199 340.873082 
L 132.92147 339.439007 
L 133.501741 337.982349 
L 134.082012 336.51737 
L 134.662282 335.059488 
L 135.242553 333.625014 
L 135.822824 332.230856 
L 136.403095 330.894184 
L 136.983366 329.63208 
L 137.563636 328.461166 
L 138.143907 327.397239 
L 138.724178 326.45491 
L 139.304449 325.647267 
L 139.88472 324.98557 
L 140.46499 324.47899 
L 141.045261 324.134395 
L 141.625532 323.956199 
L 142.205803 323.946271 
L 142.786074 324.103908 
L 143.366344 324.425874 
L 143.946615 324.906506 
L 144.526886 325.53787 
L 145.107157 326.309979 
L 145.687427 327.211049 
L 146.267698 328.227792 
L 146.847969 329.345739 
L 147.42824 330.549568 
L 148.008511 331.823446 
L 148.588781 333.151365 
L 149.169052 334.517452 
L 149.749323 335.906272 
L 150.329594 337.303089 
L 150.909865 338.694096 
L 151.490135 340.066608 
L 152.070406 341.409209 
L 152.650677 342.711857 
L 153.230948 343.965956 
L 153.811219 345.164376 
L 154.391489 346.301444 
L 154.97176 347.372903 
L 155.552031 348.375841 
L 156.132302 349.308597 
L 156.712573 350.17065 
L 157.292843 350.962496 
L 157.873114 351.685515 
L 158.453385 352.341836 
L 159.033656 352.934205 
L 159.613926 353.465852 
L 160.194197 353.94037 
L 160.774468 354.361599 
L 161.354739 354.733526 
L 161.93501 355.060193 
L 162.51528 355.345617 
L 163.095551 355.593726 
L 163.675822 355.808308 
L 164.256093 355.992965 
L 164.836364 356.151083 
L 165.416634 356.285814 
L 165.996905 356.400061 
L 166.577176 356.496474 
L 167.157447 356.57745 
L 167.737718 356.645141 
L 168.317988 356.701463 
L 168.898259 356.748108 
L 169.47853 356.786561 
L 170.058801 356.818117 
L 170.639072 356.843897 
L 171.219342 356.864862 
L 171.799613 356.881837 
L 172.379884 356.895521 
L 172.960155 356.906502 
L 173.540426 356.915277 
" style="fill:none;stroke:#ff5733;stroke-linecap:square;stroke-width:2;"/>
   </g>
   <g id="patch_134">
    <path d="M 16.2 356.94717 
L 286.2 356.94717 
" style="fill:none;stroke:#000000;stroke-linecap:square;stroke-linejoin:miter;stroke-width:0.8;"/>
   </g>
   <g id="text_8">
    <!-- 9.7 a.u. L -->
    <g transform="translate(16.2 333.693883)scale(0.15 -0.15)">
     <defs>
      <path d="M 525 4666 
L 3525 4666 
L 3525 4397 
L 1831 0 
L 1172 0 
L 2766 4134 
L 525 4134 
L 525 4666 
z
" id="DejaVuSans-37" transform="scale(0.015625)"/>
     </defs>
     <use xlink:href="#DejaVuSans-39"/>
     <use x="63.623047" xlink:href="#DejaVuSans-2e"/>
     <use x="95.410156" xlink:href="#DejaVuSans-37"/>
     <use x="159.033203" xlink:href="#DejaVuSans-20"/>
     <use x="190.820312" xlink:href="#DejaVuSans-61"/>
     <use x="252.099609" xlink:href="#DejaVuSans-2e"/>
     <use x="283.886719" xlink:href="#DejaVuSans-75"/>
     <use x="347.265625" xlink:href="#DejaVuSans-2e"/>
     <use x="379.052734" xlink:href="#DejaVuSans-20"/>
     <use x="410.839844" xlink:href="#DejaVuSans-4c"/>
    </g>
   </g>
  </g>
  <g id="axes_7">
   <g id="patch_135">
    <path d="M 16.2 411.298113 
L 286.2 411.298113 
L 286.2 376.64717 
L 16.2 376.64717 
z
" style="fill:#ffffff;"/>
   </g>
   <g id="patch_136">
    <path clip-path="url(#pb814e639c9)" d="M 135.822824 411.298113 
L 139.159381 411.298113 
L 139.159381 411.215611 
L 135.822824 411.215611 
z
" style="fill:#8bd3e6;"/>
   </g>
   <g id="patch_137">
    <path clip-path="url(#pb814e639c9)" d="M 139.159381 411.298113 
L 142.495938 411.298113 
L 142.495938 410.638095 
L 139.159381 410.638095 
z
" style="fill:#8bd3e6;"/>
   </g>
   <g id="patch_138">
    <path clip-path="url(#pb814e639c9)" d="M 142.495938 411.298113 
L 145.832495 411.298113 
L 145.832495 410.06058 
L 142.495938 410.06058 
z
" style="fill:#8bd3e6;"/>
   </g>
   <g id="patch_139">
    <path clip-path="url(#pb814e639c9)" d="M 145.832495 411.298113 
L 149.169052 411.298113 
L 149.169052 407.833019 
L 145.832495 407.833019 
z
" style="fill:#8bd3e6;"/>
   </g>
   <g id="patch_140">
    <path clip-path="url(#pb814e639c9)" d="M 149.169052 411.298113 
L 152.505609 411.298113 
L 152.505609 403.790409 
L 149.169052 403.790409 
z
" style="fill:#8bd3e6;"/>
   </g>
   <g id="patch_141">
    <path clip-path="url(#pb814e639c9)" d="M 152.505609 411.298113 
L 155.842166 411.298113 
L 155.842166 398.592767 
L 152.505609 398.592767 
z
" style="fill:#8bd3e6;"/>
   </g>
   <g id="patch_142">
    <path clip-path="url(#pb814e639c9)" d="M 155.842166 411.298113 
L 159.178723 411.298113 
L 159.178723 391.415072 
L 155.842166 391.415072 
z
" style="fill:#8bd3e6;"/>
   </g>
   <g id="patch_143">
    <path clip-path="url(#pb814e639c9)" d="M 159.178723 411.298113 
L 162.51528 411.298113 
L 162.51528 386.299933 
L 159.178723 386.299933 
z
" style="fill:#8bd3e6;"/>
   </g>
   <g id="patch_144">
    <path clip-path="url(#pb814e639c9)" d="M 162.51528 411.298113 
L 165.851838 411.298113 
L 165.851838 379.204739 
L 162.51528 379.204739 
z
" style="fill:#8bd3e6;"/>
   </g>
   <g id="patch_145">
    <path clip-path="url(#pb814e639c9)" d="M 165.851838 411.298113 
L 169.188395 411.298113 
L 169.188395 378.297215 
L 165.851838 378.297215 
z
" style="fill:#8bd3e6;"/>
   </g>
   <g id="patch_146">
    <path clip-path="url(#pb814e639c9)" d="M 169.188395 411.298113 
L 172.524952 411.298113 
L 172.524952 385.557412 
L 169.188395 385.557412 
z
" style="fill:#8bd3e6;"/>
   </g>
   <g id="patch_147">
    <path clip-path="url(#pb814e639c9)" d="M 172.524952 411.298113 
L 175.861509 411.298113 
L 175.861509 394.220148 
L 172.524952 394.220148 
z
" style="fill:#8bd3e6;"/>
   </g>
   <g id="patch_148">
    <path clip-path="url(#pb814e639c9)" d="M 175.861509 411.298113 
L 179.198066 411.298113 
L 179.198066 397.685243 
L 175.861509 397.685243 
z
" style="fill:#8bd3e6;"/>
   </g>
   <g id="patch_149">
    <path clip-path="url(#pb814e639c9)" d="M 179.198066 411.298113 
L 182.534623 411.298113 
L 182.534623 404.367925 
L 179.198066 404.367925 
z
" style="fill:#8bd3e6;"/>
   </g>
   <g id="patch_150">
    <path clip-path="url(#pb814e639c9)" d="M 182.534623 411.298113 
L 185.87118 411.298113 
L 185.87118 406.76049 
L 182.534623 406.76049 
z
" style="fill:#8bd3e6;"/>
   </g>
   <g id="patch_151">
    <path clip-path="url(#pb814e639c9)" d="M 185.87118 411.298113 
L 189.207737 411.298113 
L 189.207737 410.06058 
L 185.87118 410.06058 
z
" style="fill:#8bd3e6;"/>
   </g>
   <g id="patch_152">
    <path clip-path="url(#pb814e639c9)" d="M 189.207737 411.298113 
L 192.544294 411.298113 
L 192.544294 410.555593 
L 189.207737 410.555593 
z
" style="fill:#8bd3e6;"/>
   </g>
   <g id="patch_153">
    <path clip-path="url(#pb814e639c9)" d="M 192.544294 411.298113 
L 195.880851 411.298113 
L 195.880851 410.968104 
L 192.544294 410.968104 
z
" style="fill:#8bd3e6;"/>
   </g>
   <g id="patch_154">
    <path clip-path="url(#pb814e639c9)" d="M 195.880851 411.298113 
L 199.217408 411.298113 
L 199.217408 410.968104 
L 195.880851 410.968104 
z
" style="fill:#8bd3e6;"/>
   </g>
   <g id="patch_155">
    <path clip-path="url(#pb814e639c9)" d="M 199.217408 411.298113 
L 202.553965 411.298113 
L 202.553965 411.215611 
L 199.217408 411.215611 
z
" style="fill:#8bd3e6;"/>
   </g>
   <g id="matplotlib.axis_7">
    <g id="xtick_31">
     <g id="line2d_39">
      <g>
       <use style="stroke:#000000;stroke-width:0.8;" x="28.472727" xlink:href="#md129815752" y="411.298113"/>
      </g>
     </g>
    </g>
    <g id="xtick_32">
     <g id="line2d_40">
      <g>
       <use style="stroke:#000000;stroke-width:0.8;" x="86.499807" xlink:href="#md129815752" y="411.298113"/>
      </g>
     </g>
    </g>
    <g id="xtick_33">
     <g id="line2d_41">
      <g>
       <use style="stroke:#000000;stroke-width:0.8;" x="144.526886" xlink:href="#md129815752" y="411.298113"/>
      </g>
     </g>
    </g>
    <g id="xtick_34">
     <g id="line2d_42">
      <g>
       <use style="stroke:#000000;stroke-width:0.8;" x="202.553965" xlink:href="#md129815752" y="411.298113"/>
      </g>
     </g>
    </g>
    <g id="xtick_35">
     <g id="line2d_43">
      <g>
       <use style="stroke:#000000;stroke-width:0.8;" x="260.581044" xlink:href="#md129815752" y="411.298113"/>
      </g>
     </g>
    </g>
   </g>
   <g id="line2d_44">
    <path clip-path="url(#pb814e639c9)" d="M 135.822824 411.218634 
L 136.403095 411.197025 
L 136.983366 411.170227 
L 137.563636 411.137187 
L 138.143907 411.096681 
L 138.724178 411.047308 
L 139.304449 410.987467 
L 139.88472 410.915352 
L 140.46499 410.82894 
L 141.045261 410.725984 
L 141.625532 410.604013 
L 142.205803 410.460336 
L 142.786074 410.292051 
L 143.366344 410.096063 
L 143.946615 409.869114 
L 144.526886 409.60781 
L 145.107157 409.308671 
L 145.687427 408.968185 
L 146.267698 408.582868 
L 146.847969 408.149339 
L 147.42824 407.664402 
L 148.008511 407.125138 
L 148.588781 406.528995 
L 149.169052 405.873892 
L 149.749323 405.15832 
L 150.329594 404.381442 
L 150.909865 403.543194 
L 151.490135 402.644369 
L 152.070406 401.686703 
L 152.650677 400.672941 
L 153.230948 399.606884 
L 153.811219 398.493424 
L 154.391489 397.338546 
L 154.97176 396.149317 
L 155.552031 394.933843 
L 156.132302 393.701195 
L 156.712573 392.46132 
L 157.292843 391.224912 
L 157.873114 390.003271 
L 158.453385 388.808134 
L 159.033656 387.651488 
L 159.613926 386.545368 
L 160.194197 385.50165 
L 160.774468 384.531837 
L 161.354739 383.646841 
L 161.93501 382.856782 
L 162.51528 382.170789 
L 163.095551 381.596828 
L 163.675822 381.141541 
L 164.256093 380.810126 
L 164.836364 380.60623 
L 165.416634 380.531891 
L 165.996905 380.587501 
L 166.577176 380.771814 
L 167.157447 381.081979 
L 167.737718 381.513614 
L 168.317988 382.060905 
L 168.898259 382.716734 
L 169.47853 383.472833 
L 170.058801 384.319951 
L 170.639072 385.248041 
L 171.219342 386.246456 
L 171.799613 387.304141 
L 172.379884 388.409836 
L 172.960155 389.552262 
L 173.540426 390.720308 
L 174.120696 391.903194 
L 174.700967 393.090624 
L 175.281238 394.272914 
L 175.861509 395.44111 
L 176.441779 396.587066 
L 177.02205 397.703519 
L 177.602321 398.784124 
L 178.182592 399.823483 
L 178.762863 400.81714 
L 179.343133 401.761572 
L 179.923404 402.654148 
L 180.503675 403.493087 
L 181.083946 404.277399 
L 181.664217 405.006819 
L 182.244487 405.68173 
L 182.824758 406.303087 
L 183.405029 406.87234 
L 183.9853 407.391351 
L 184.565571 407.862317 
L 185.145841 408.287699 
L 185.726112 408.670148 
L 186.306383 409.012444 
L 186.886654 409.317438 
L 187.466925 409.587998 
L 188.047195 409.826969 
L 188.627466 410.037131 
L 189.207737 410.221173 
L 189.788008 410.381661 
L 190.368279 410.521029 
L 190.948549 410.641556 
L 191.52882 410.745363 
L 192.109091 410.834407 
L 192.689362 410.910482 
L 193.269632 410.975217 
L 193.849903 411.030085 
L 194.430174 411.076407 
L 195.010445 411.115363 
L 195.590716 411.147997 
L 196.170986 411.17523 
L 196.751257 411.197869 
L 197.331528 411.216619 
L 197.911799 411.232088 
L 198.49207 411.244804 
L 199.07234 411.255217 
L 199.652611 411.263713 
L 200.232882 411.27062 
L 200.813153 411.276214 
L 201.393424 411.280728 
L 201.973694 411.284358 
" style="fill:none;stroke:#ff5733;stroke-linecap:square;stroke-width:2;"/>
   </g>
   <g id="patch_156">
    <path d="M 16.2 411.298113 
L 286.2 411.298113 
" style="fill:none;stroke:#000000;stroke-linecap:square;stroke-linejoin:miter;stroke-width:0.8;"/>
   </g>
   <g id="text_9">
    <!-- 13.5 a.u. L -->
    <g transform="translate(16.2 388.044826)scale(0.15 -0.15)">
     <use xlink:href="#DejaVuSans-31"/>
     <use x="63.623047" xlink:href="#DejaVuSans-33"/>
     <use x="127.246094" xlink:href="#DejaVuSans-2e"/>
     <use x="159.033203" xlink:href="#DejaVuSans-35"/>
     <use x="222.65625" xlink:href="#DejaVuSans-20"/>
     <use x="254.443359" xlink:href="#DejaVuSans-61"/>
     <use x="315.722656" xlink:href="#DejaVuSans-2e"/>
     <use x="347.509766" xlink:href="#DejaVuSans-75"/>
     <use x="410.888672" xlink:href="#DejaVuSans-2e"/>
     <use x="442.675781" xlink:href="#DejaVuSans-20"/>
     <use x="474.462891" xlink:href="#DejaVuSans-4c"/>
    </g>
   </g>
  </g>
  <g id="axes_8">
   <g id="patch_157">
    <path d="M 16.2 465.649057 
L 286.2 465.649057 
L 286.2 430.998113 
L 16.2 430.998113 
z
" style="fill:#ffffff;"/>
   </g>
   <g id="patch_158">
    <path clip-path="url(#p3264d4f1ff)" d="M 158.453385 465.649057 
L 161.905996 465.649057 
L 161.905996 465.555414 
L 158.453385 465.555414 
z
" style="fill:#8bd3e6;"/>
   </g>
   <g id="patch_159">
    <path clip-path="url(#p3264d4f1ff)" d="M 161.905996 465.649057 
L 165.358607 465.649057 
L 165.358607 465.461771 
L 161.905996 465.461771 
z
" style="fill:#8bd3e6;"/>
   </g>
   <g id="patch_160">
    <path clip-path="url(#p3264d4f1ff)" d="M 165.358607 465.649057 
L 168.811219 465.649057 
L 168.811219 464.71263 
L 165.358607 464.71263 
z
" style="fill:#8bd3e6;"/>
   </g>
   <g id="patch_161">
    <path clip-path="url(#p3264d4f1ff)" d="M 168.811219 465.649057 
L 172.26383 465.649057 
L 172.26383 463.307991 
L 168.811219 463.307991 
z
" style="fill:#8bd3e6;"/>
   </g>
   <g id="patch_162">
    <path clip-path="url(#p3264d4f1ff)" d="M 172.26383 465.649057 
L 175.716441 465.649057 
L 175.716441 459.74957 
L 172.26383 459.74957 
z
" style="fill:#8bd3e6;"/>
   </g>
   <g id="patch_163">
    <path clip-path="url(#p3264d4f1ff)" d="M 175.716441 465.649057 
L 179.169052 465.649057 
L 179.169052 457.314861 
L 175.716441 457.314861 
z
" style="fill:#8bd3e6;"/>
   </g>
   <g id="patch_164">
    <path clip-path="url(#p3264d4f1ff)" d="M 179.169052 465.649057 
L 182.621663 465.649057 
L 182.621663 450.104378 
L 179.169052 450.104378 
z
" style="fill:#8bd3e6;"/>
   </g>
   <g id="patch_165">
    <path clip-path="url(#p3264d4f1ff)" d="M 182.621663 465.649057 
L 186.074275 465.649057 
L 186.074275 442.332038 
L 182.621663 442.332038 
z
" style="fill:#8bd3e6;"/>
   </g>
   <g id="patch_166">
    <path clip-path="url(#p3264d4f1ff)" d="M 186.074275 465.649057 
L 189.526886 465.649057 
L 189.526886 437.556264 
L 186.074275 437.556264 
z
" style="fill:#8bd3e6;"/>
   </g>
   <g id="patch_167">
    <path clip-path="url(#p3264d4f1ff)" d="M 189.526886 465.649057 
L 192.979497 465.649057 
L 192.979497 433.904201 
L 189.526886 433.904201 
z
" style="fill:#8bd3e6;"/>
   </g>
   <g id="patch_168">
    <path clip-path="url(#p3264d4f1ff)" d="M 192.979497 465.649057 
L 196.432108 465.649057 
L 196.432108 434.278771 
L 192.979497 434.278771 
z
" style="fill:#8bd3e6;"/>
   </g>
   <g id="patch_169">
    <path clip-path="url(#p3264d4f1ff)" d="M 196.432108 465.649057 
L 199.88472 465.649057 
L 199.88472 437.930834 
L 196.432108 437.930834 
z
" style="fill:#8bd3e6;"/>
   </g>
   <g id="patch_170">
    <path clip-path="url(#p3264d4f1ff)" d="M 199.88472 465.649057 
L 203.337331 465.649057 
L 203.337331 440.2719 
L 199.88472 440.2719 
z
" style="fill:#8bd3e6;"/>
   </g>
   <g id="patch_171">
    <path clip-path="url(#p3264d4f1ff)" d="M 203.337331 465.649057 
L 206.789942 465.649057 
L 206.789942 448.512453 
L 203.337331 448.512453 
z
" style="fill:#8bd3e6;"/>
   </g>
   <g id="patch_172">
    <path clip-path="url(#p3264d4f1ff)" d="M 206.789942 465.649057 
L 210.242553 465.649057 
L 210.242553 458.34493 
L 206.789942 458.34493 
z
" style="fill:#8bd3e6;"/>
   </g>
   <g id="patch_173">
    <path clip-path="url(#p3264d4f1ff)" d="M 210.242553 465.649057 
L 213.695164 465.649057 
L 213.695164 460.311426 
L 210.242553 460.311426 
z
" style="fill:#8bd3e6;"/>
   </g>
   <g id="patch_174">
    <path clip-path="url(#p3264d4f1ff)" d="M 213.695164 465.649057 
L 217.147776 465.649057 
L 217.147776 463.495276 
L 213.695164 463.495276 
z
" style="fill:#8bd3e6;"/>
   </g>
   <g id="patch_175">
    <path clip-path="url(#p3264d4f1ff)" d="M 217.147776 465.649057 
L 220.600387 465.649057 
L 220.600387 464.993558 
L 217.147776 464.993558 
z
" style="fill:#8bd3e6;"/>
   </g>
   <g id="patch_176">
    <path clip-path="url(#p3264d4f1ff)" d="M 220.600387 465.649057 
L 224.052998 465.649057 
L 224.052998 465.368129 
L 220.600387 465.368129 
z
" style="fill:#8bd3e6;"/>
   </g>
   <g id="patch_177">
    <path clip-path="url(#p3264d4f1ff)" d="M 224.052998 465.649057 
L 227.505609 465.649057 
L 227.505609 465.368129 
L 224.052998 465.368129 
z
" style="fill:#8bd3e6;"/>
   </g>
   <g id="matplotlib.axis_8">
    <g id="xtick_36">
     <g id="line2d_45">
      <g>
       <use style="stroke:#000000;stroke-width:0.8;" x="28.472727" xlink:href="#md129815752" y="465.649057"/>
      </g>
     </g>
    </g>
    <g id="xtick_37">
     <g id="line2d_46">
      <g>
       <use style="stroke:#000000;stroke-width:0.8;" x="86.499807" xlink:href="#md129815752" y="465.649057"/>
      </g>
     </g>
    </g>
    <g id="xtick_38">
     <g id="line2d_47">
      <g>
       <use style="stroke:#000000;stroke-width:0.8;" x="144.526886" xlink:href="#md129815752" y="465.649057"/>
      </g>
     </g>
    </g>
    <g id="xtick_39">
     <g id="line2d_48">
      <g>
       <use style="stroke:#000000;stroke-width:0.8;" x="202.553965" xlink:href="#md129815752" y="465.649057"/>
      </g>
     </g>
    </g>
    <g id="xtick_40">
     <g id="line2d_49">
      <g>
       <use style="stroke:#000000;stroke-width:0.8;" x="260.581044" xlink:href="#md129815752" y="465.649057"/>
      </g>
     </g>
    </g>
   </g>
   <g id="line2d_50">
    <path clip-path="url(#p3264d4f1ff)" d="M 158.453385 465.605956 
L 159.033656 465.594727 
L 159.613926 465.580876 
L 160.194197 465.56387 
L 160.774468 465.543089 
L 161.354739 465.517814 
L 161.93501 465.487218 
L 162.51528 465.450353 
L 163.095551 465.406142 
L 163.675822 465.353369 
L 164.256093 465.290668 
L 164.836364 465.216521 
L 165.416634 465.129246 
L 165.996905 465.026996 
L 166.577176 464.907761 
L 167.157447 464.769367 
L 167.737718 464.609486 
L 168.317988 464.425645 
L 168.898259 464.215242 
L 169.47853 463.97557 
L 170.058801 463.703839 
L 170.639072 463.397214 
L 171.219342 463.052854 
L 171.799613 462.667951 
L 172.379884 462.239786 
L 172.960155 461.765784 
L 173.540426 461.243573 
L 174.120696 460.671048 
L 174.700967 460.046441 
L 175.281238 459.368386 
L 175.861509 458.635988 
L 176.441779 457.848894 
L 177.02205 457.007352 
L 177.602321 456.11227 
L 178.182592 455.165272 
L 178.762863 454.168734 
L 179.343133 453.125823 
L 179.923404 452.040511 
L 180.503675 450.917583 
L 181.083946 449.762631 
L 181.664217 448.582025 
L 182.244487 447.382871 
L 182.824758 446.172957 
L 183.405029 444.960677 
L 183.9853 443.75494 
L 184.565571 442.565066 
L 185.145841 441.400668 
L 185.726112 440.271527 
L 186.306383 439.187452 
L 186.886654 438.158136 
L 187.466925 437.193016 
L 188.047195 436.301123 
L 188.627466 435.490942 
L 189.207737 434.770274 
L 189.788008 434.146114 
L 190.368279 433.624534 
L 190.948549 433.210585 
L 191.52882 432.908217 
L 192.109091 432.720215 
L 192.689362 432.648158 
L 193.269632 432.692398 
L 193.849903 432.852061 
L 194.430174 433.12507 
L 195.010445 433.508187 
L 195.590716 433.997076 
L 196.170986 434.586386 
L 196.751257 435.269842 
L 197.331528 436.040359 
L 197.911799 436.890161 
L 198.49207 437.810909 
L 199.07234 438.793835 
L 199.652611 439.829875 
L 200.232882 440.909807 
L 200.813153 442.024383 
L 201.393424 443.16445 
L 201.973694 444.32107 
L 202.553965 445.485629 
L 203.134236 446.649931 
L 203.714507 447.806281 
L 204.294778 448.947555 
L 204.875048 450.067254 
L 205.455319 451.15955 
L 206.03559 452.219307 
L 206.615861 453.242099 
L 207.196132 454.224211 
L 207.776402 455.162628 
L 208.356673 456.055014 
L 208.936944 456.899682 
L 209.517215 457.695559 
L 210.097485 458.442139 
L 210.677756 459.139436 
L 211.258027 459.787933 
L 211.838298 460.388526 
L 212.418569 460.94247 
L 212.998839 461.451325 
L 213.57911 461.916901 
L 214.159381 462.341209 
L 214.739652 462.726411 
L 215.319923 463.074775 
L 215.900193 463.388636 
L 216.480464 463.670356 
L 217.060735 463.922295 
L 217.641006 464.146778 
L 218.221277 464.346074 
L 218.801547 464.522377 
L 219.381818 464.677786 
L 219.962089 464.814296 
L 220.54236 464.933787 
L 221.122631 465.03802 
L 221.702901 465.128631 
L 222.283172 465.207132 
L 222.863443 465.274912 
L 223.443714 465.333239 
L 224.023985 465.383265 
L 224.604255 465.426028 
L 225.184526 465.462463 
L 225.764797 465.493405 
L 226.345068 465.519597 
L 226.925338 465.541696 
" style="fill:none;stroke:#ff5733;stroke-linecap:square;stroke-width:2;"/>
   </g>
   <g id="patch_178">
    <path d="M 16.2 465.649057 
L 286.2 465.649057 
" style="fill:none;stroke:#000000;stroke-linecap:square;stroke-linejoin:miter;stroke-width:0.8;"/>
   </g>
   <g id="text_10">
    <!-- 19.7 a.u. L -->
    <g transform="translate(16.2 442.395769)scale(0.15 -0.15)">
     <use xlink:href="#DejaVuSans-31"/>
     <use x="63.623047" xlink:href="#DejaVuSans-39"/>
     <use x="127.246094" xlink:href="#DejaVuSans-2e"/>
     <use x="159.033203" xlink:href="#DejaVuSans-37"/>
     <use x="222.65625" xlink:href="#DejaVuSans-20"/>
     <use x="254.443359" xlink:href="#DejaVuSans-61"/>
     <use x="315.722656" xlink:href="#DejaVuSans-2e"/>
     <use x="347.509766" xlink:href="#DejaVuSans-75"/>
     <use x="410.888672" xlink:href="#DejaVuSans-2e"/>
     <use x="442.675781" xlink:href="#DejaVuSans-20"/>
     <use x="474.462891" xlink:href="#DejaVuSans-4c"/>
    </g>
   </g>
  </g>
  <g id="axes_9">
   <g id="patch_179">
    <path d="M 16.2 520 
L 286.2 520 
L 286.2 485.349057 
L 16.2 485.349057 
z
" style="fill:#ffffff;"/>
   </g>
   <g id="patch_180">
    <path clip-path="url(#p6c0aee4aa2)" d="M 203.134236 520 
L 206.673888 520 
L 206.673888 519.454531 
L 203.134236 519.454531 
z
" style="fill:#8bd3e6;"/>
   </g>
   <g id="patch_181">
    <path clip-path="url(#p6c0aee4aa2)" d="M 206.673888 520 
L 210.21354 520 
L 210.21354 519.636354 
L 206.673888 519.636354 
z
" style="fill:#8bd3e6;"/>
   </g>
   <g id="patch_182">
    <path clip-path="url(#p6c0aee4aa2)" d="M 210.21354 520 
L 213.753191 520 
L 213.753191 517.999946 
L 210.21354 517.999946 
z
" style="fill:#8bd3e6;"/>
   </g>
   <g id="patch_183">
    <path clip-path="url(#p6c0aee4aa2)" d="M 213.753191 520 
L 217.292843 520 
L 217.292843 515.90898 
L 213.753191 515.90898 
z
" style="fill:#8bd3e6;"/>
   </g>
   <g id="patch_184">
    <path clip-path="url(#p6c0aee4aa2)" d="M 217.292843 520 
L 220.832495 520 
L 220.832495 514.272571 
L 217.292843 514.272571 
z
" style="fill:#8bd3e6;"/>
   </g>
   <g id="patch_185">
    <path clip-path="url(#p6c0aee4aa2)" d="M 220.832495 520 
L 224.372147 520 
L 224.372147 508.090585 
L 220.832495 508.090585 
z
" style="fill:#8bd3e6;"/>
   </g>
   <g id="patch_186">
    <path clip-path="url(#p6c0aee4aa2)" d="M 224.372147 520 
L 227.911799 520 
L 227.911799 502.272245 
L 224.372147 502.272245 
z
" style="fill:#8bd3e6;"/>
   </g>
   <g id="patch_187">
    <path clip-path="url(#p6c0aee4aa2)" d="M 227.911799 520 
L 231.451451 520 
L 231.451451 500.908571 
L 227.911799 500.908571 
z
" style="fill:#8bd3e6;"/>
   </g>
   <g id="patch_188">
    <path clip-path="url(#p6c0aee4aa2)" d="M 231.451451 520 
L 234.991103 520 
L 234.991103 493.453823 
L 231.451451 493.453823 
z
" style="fill:#8bd3e6;"/>
   </g>
   <g id="patch_189">
    <path clip-path="url(#p6c0aee4aa2)" d="M 234.991103 520 
L 238.530754 520 
L 238.530754 492.999265 
L 234.991103 492.999265 
z
" style="fill:#8bd3e6;"/>
   </g>
   <g id="patch_190">
    <path clip-path="url(#p6c0aee4aa2)" d="M 238.530754 520 
L 242.070406 520 
L 242.070406 486.999102 
L 238.530754 486.999102 
z
" style="fill:#8bd3e6;"/>
   </g>
   <g id="patch_191">
    <path clip-path="url(#p6c0aee4aa2)" d="M 242.070406 520 
L 245.610058 520 
L 245.610058 495.181142 
L 242.070406 495.181142 
z
" style="fill:#8bd3e6;"/>
   </g>
   <g id="patch_192">
    <path clip-path="url(#p6c0aee4aa2)" d="M 245.610058 520 
L 249.14971 520 
L 249.14971 501.181306 
L 245.610058 501.181306 
z
" style="fill:#8bd3e6;"/>
   </g>
   <g id="patch_193">
    <path clip-path="url(#p6c0aee4aa2)" d="M 249.14971 520 
L 252.689362 520 
L 252.689362 504.726857 
L 249.14971 504.726857 
z
" style="fill:#8bd3e6;"/>
   </g>
   <g id="patch_194">
    <path clip-path="url(#p6c0aee4aa2)" d="M 252.689362 520 
L 256.229014 520 
L 256.229014 510.999755 
L 252.689362 510.999755 
z
" style="fill:#8bd3e6;"/>
   </g>
   <g id="patch_195">
    <path clip-path="url(#p6c0aee4aa2)" d="M 256.229014 520 
L 259.768665 520 
L 259.768665 514.818041 
L 256.229014 514.818041 
z
" style="fill:#8bd3e6;"/>
   </g>
   <g id="patch_196">
    <path clip-path="url(#p6c0aee4aa2)" d="M 259.768665 520 
L 263.308317 520 
L 263.308317 516.909007 
L 259.768665 516.909007 
z
" style="fill:#8bd3e6;"/>
   </g>
   <g id="patch_197">
    <path clip-path="url(#p6c0aee4aa2)" d="M 263.308317 520 
L 266.847969 520 
L 266.847969 518.363592 
L 263.308317 518.363592 
z
" style="fill:#8bd3e6;"/>
   </g>
   <g id="patch_198">
    <path clip-path="url(#p6c0aee4aa2)" d="M 266.847969 520 
L 270.387621 520 
L 270.387621 518.909061 
L 266.847969 518.909061 
z
" style="fill:#8bd3e6;"/>
   </g>
   <g id="patch_199">
    <path clip-path="url(#p6c0aee4aa2)" d="M 270.387621 520 
L 273.927273 520 
L 273.927273 519.636354 
L 270.387621 519.636354 
z
" style="fill:#8bd3e6;"/>
   </g>
   <g id="matplotlib.axis_9">
    <g id="xtick_41">
     <g id="line2d_51">
      <g>
       <use style="stroke:#000000;stroke-width:0.8;" x="28.472727" xlink:href="#md129815752" y="520"/>
      </g>
     </g>
     <g id="text_11">
      <!-- 0 -->
      <g transform="translate(23.700852 538.397656)scale(0.15 -0.15)">
       <use xlink:href="#DejaVuSans-30"/>
      </g>
     </g>
    </g>
    <g id="xtick_42">
     <g id="line2d_52">
      <g>
       <use style="stroke:#000000;stroke-width:0.8;" x="86.499807" xlink:href="#md129815752" y="520"/>
      </g>
     </g>
     <g id="text_12">
      <!-- 100 -->
      <g transform="translate(72.184182 538.397656)scale(0.15 -0.15)">
       <use xlink:href="#DejaVuSans-31"/>
       <use x="63.623047" xlink:href="#DejaVuSans-30"/>
       <use x="127.246094" xlink:href="#DejaVuSans-30"/>
      </g>
     </g>
    </g>
    <g id="xtick_43">
     <g id="line2d_53">
      <g>
       <use style="stroke:#000000;stroke-width:0.8;" x="144.526886" xlink:href="#md129815752" y="520"/>
      </g>
     </g>
     <g id="text_13">
      <!-- 200 -->
      <g transform="translate(130.211261 538.397656)scale(0.15 -0.15)">
       <use xlink:href="#DejaVuSans-32"/>
       <use x="63.623047" xlink:href="#DejaVuSans-30"/>
       <use x="127.246094" xlink:href="#DejaVuSans-30"/>
      </g>
     </g>
    </g>
    <g id="xtick_44">
     <g id="line2d_54">
      <g>
       <use style="stroke:#000000;stroke-width:0.8;" x="202.553965" xlink:href="#md129815752" y="520"/>
      </g>
     </g>
     <g id="text_14">
      <!-- 300 -->
      <g transform="translate(188.23834 538.397656)scale(0.15 -0.15)">
       <use xlink:href="#DejaVuSans-33"/>
       <use x="63.623047" xlink:href="#DejaVuSans-30"/>
       <use x="127.246094" xlink:href="#DejaVuSans-30"/>
      </g>
     </g>
    </g>
    <g id="xtick_45">
     <g id="line2d_55">
      <g>
       <use style="stroke:#000000;stroke-width:0.8;" x="260.581044" xlink:href="#md129815752" y="520"/>
      </g>
     </g>
     <g id="text_15">
      <!-- 400 -->
      <g transform="translate(246.265419 538.397656)scale(0.15 -0.15)">
       <use xlink:href="#DejaVuSans-34"/>
       <use x="63.623047" xlink:href="#DejaVuSans-30"/>
       <use x="127.246094" xlink:href="#DejaVuSans-30"/>
      </g>
     </g>
    </g>
    <g id="text_16">
     <!-- Bound Receptor Count (Steady State) -->
     <g transform="translate(9.971484 556.914844)scale(0.15 -0.15)">
      <defs>
       <path d="M 1259 2228 
L 1259 519 
L 2272 519 
Q 2781 519 3026 730 
Q 3272 941 3272 1375 
Q 3272 1813 3026 2020 
Q 2781 2228 2272 2228 
L 1259 2228 
z
M 1259 4147 
L 1259 2741 
L 2194 2741 
Q 2656 2741 2882 2914 
Q 3109 3088 3109 3444 
Q 3109 3797 2882 3972 
Q 2656 4147 2194 4147 
L 1259 4147 
z
M 628 4666 
L 2241 4666 
Q 2963 4666 3353 4366 
Q 3744 4066 3744 3513 
Q 3744 3084 3544 2831 
Q 3344 2578 2956 2516 
Q 3422 2416 3680 2098 
Q 3938 1781 3938 1306 
Q 3938 681 3513 340 
Q 3088 0 2303 0 
L 628 0 
L 628 4666 
z
" id="DejaVuSans-42" transform="scale(0.015625)"/>
       <path d="M 2906 2969 
L 2906 4863 
L 3481 4863 
L 3481 0 
L 2906 0 
L 2906 525 
Q 2725 213 2448 61 
Q 2172 -91 1784 -91 
Q 1150 -91 751 415 
Q 353 922 353 1747 
Q 353 2572 751 3078 
Q 1150 3584 1784 3584 
Q 2172 3584 2448 3432 
Q 2725 3281 2906 2969 
z
M 947 1747 
Q 947 1113 1208 752 
Q 1469 391 1925 391 
Q 2381 391 2643 752 
Q 2906 1113 2906 1747 
Q 2906 2381 2643 2742 
Q 2381 3103 1925 3103 
Q 1469 3103 1208 2742 
Q 947 2381 947 1747 
z
" id="DejaVuSans-64" transform="scale(0.015625)"/>
       <path d="M 2841 2188 
Q 3044 2119 3236 1894 
Q 3428 1669 3622 1275 
L 4263 0 
L 3584 0 
L 2988 1197 
Q 2756 1666 2539 1819 
Q 2322 1972 1947 1972 
L 1259 1972 
L 1259 0 
L 628 0 
L 628 4666 
L 2053 4666 
Q 2853 4666 3247 4331 
Q 3641 3997 3641 3322 
Q 3641 2881 3436 2590 
Q 3231 2300 2841 2188 
z
M 1259 4147 
L 1259 2491 
L 2053 2491 
Q 2509 2491 2742 2702 
Q 2975 2913 2975 3322 
Q 2975 3731 2742 3939 
Q 2509 4147 2053 4147 
L 1259 4147 
z
" id="DejaVuSans-52" transform="scale(0.015625)"/>
       <path d="M 3122 3366 
L 3122 2828 
Q 2878 2963 2633 3030 
Q 2388 3097 2138 3097 
Q 1578 3097 1268 2742 
Q 959 2388 959 1747 
Q 959 1106 1268 751 
Q 1578 397 2138 397 
Q 2388 397 2633 464 
Q 2878 531 3122 666 
L 3122 134 
Q 2881 22 2623 -34 
Q 2366 -91 2075 -91 
Q 1284 -91 818 406 
Q 353 903 353 1747 
Q 353 2603 823 3093 
Q 1294 3584 2113 3584 
Q 2378 3584 2631 3529 
Q 2884 3475 3122 3366 
z
" id="DejaVuSans-63" transform="scale(0.015625)"/>
       <path d="M 1172 4494 
L 1172 3500 
L 2356 3500 
L 2356 3053 
L 1172 3053 
L 1172 1153 
Q 1172 725 1289 603 
Q 1406 481 1766 481 
L 2356 481 
L 2356 0 
L 1766 0 
Q 1100 0 847 248 
Q 594 497 594 1153 
L 594 3053 
L 172 3053 
L 172 3500 
L 594 3500 
L 594 4494 
L 1172 4494 
z
" id="DejaVuSans-74" transform="scale(0.015625)"/>
       <path d="M 2631 2963 
Q 2534 3019 2420 3045 
Q 2306 3072 2169 3072 
Q 1681 3072 1420 2755 
Q 1159 2438 1159 1844 
L 1159 0 
L 581 0 
L 581 3500 
L 1159 3500 
L 1159 2956 
Q 1341 3275 1631 3429 
Q 1922 3584 2338 3584 
Q 2397 3584 2469 3576 
Q 2541 3569 2628 3553 
L 2631 2963 
z
" id="DejaVuSans-72" transform="scale(0.015625)"/>
       <path d="M 4122 4306 
L 4122 3641 
Q 3803 3938 3442 4084 
Q 3081 4231 2675 4231 
Q 1875 4231 1450 3742 
Q 1025 3253 1025 2328 
Q 1025 1406 1450 917 
Q 1875 428 2675 428 
Q 3081 428 3442 575 
Q 3803 722 4122 1019 
L 4122 359 
Q 3791 134 3420 21 
Q 3050 -91 2638 -91 
Q 1578 -91 968 557 
Q 359 1206 359 2328 
Q 359 3453 968 4101 
Q 1578 4750 2638 4750 
Q 3056 4750 3426 4639 
Q 3797 4528 4122 4306 
z
" id="DejaVuSans-43" transform="scale(0.015625)"/>
       <path d="M 1984 4856 
Q 1566 4138 1362 3434 
Q 1159 2731 1159 2009 
Q 1159 1288 1364 580 
Q 1569 -128 1984 -844 
L 1484 -844 
Q 1016 -109 783 600 
Q 550 1309 550 2009 
Q 550 2706 781 3412 
Q 1013 4119 1484 4856 
L 1984 4856 
z
" id="DejaVuSans-28" transform="scale(0.015625)"/>
       <path d="M 3425 4513 
L 3425 3897 
Q 3066 4069 2747 4153 
Q 2428 4238 2131 4238 
Q 1616 4238 1336 4038 
Q 1056 3838 1056 3469 
Q 1056 3159 1242 3001 
Q 1428 2844 1947 2747 
L 2328 2669 
Q 3034 2534 3370 2195 
Q 3706 1856 3706 1288 
Q 3706 609 3251 259 
Q 2797 -91 1919 -91 
Q 1588 -91 1214 -16 
Q 841 59 441 206 
L 441 856 
Q 825 641 1194 531 
Q 1563 422 1919 422 
Q 2459 422 2753 634 
Q 3047 847 3047 1241 
Q 3047 1584 2836 1778 
Q 2625 1972 2144 2069 
L 1759 2144 
Q 1053 2284 737 2584 
Q 422 2884 422 3419 
Q 422 4038 858 4394 
Q 1294 4750 2059 4750 
Q 2388 4750 2728 4690 
Q 3069 4631 3425 4513 
z
" id="DejaVuSans-53" transform="scale(0.015625)"/>
       <path d="M 2059 -325 
Q 1816 -950 1584 -1140 
Q 1353 -1331 966 -1331 
L 506 -1331 
L 506 -850 
L 844 -850 
Q 1081 -850 1212 -737 
Q 1344 -625 1503 -206 
L 1606 56 
L 191 3500 
L 800 3500 
L 1894 763 
L 2988 3500 
L 3597 3500 
L 2059 -325 
z
" id="DejaVuSans-79" transform="scale(0.015625)"/>
       <path d="M 513 4856 
L 1013 4856 
Q 1481 4119 1714 3412 
Q 1947 2706 1947 2009 
Q 1947 1309 1714 600 
Q 1481 -109 1013 -844 
L 513 -844 
Q 928 -128 1133 580 
Q 1338 1288 1338 2009 
Q 1338 2731 1133 3434 
Q 928 4138 513 4856 
z
" id="DejaVuSans-29" transform="scale(0.015625)"/>
      </defs>
      <use xlink:href="#DejaVuSans-42"/>
      <use x="68.603516" xlink:href="#DejaVuSans-6f"/>
      <use x="129.785156" xlink:href="#DejaVuSans-75"/>
      <use x="193.164062" xlink:href="#DejaVuSans-6e"/>
      <use x="256.542969" xlink:href="#DejaVuSans-64"/>
      <use x="320.019531" xlink:href="#DejaVuSans-20"/>
      <use x="351.806641" xlink:href="#DejaVuSans-52"/>
      <use x="416.789062" xlink:href="#DejaVuSans-65"/>
      <use x="478.3125" xlink:href="#DejaVuSans-63"/>
      <use x="533.292969" xlink:href="#DejaVuSans-65"/>
      <use x="594.816406" xlink:href="#DejaVuSans-70"/>
      <use x="658.292969" xlink:href="#DejaVuSans-74"/>
      <use x="697.501953" xlink:href="#DejaVuSans-6f"/>
      <use x="758.683594" xlink:href="#DejaVuSans-72"/>
      <use x="799.796875" xlink:href="#DejaVuSans-20"/>
      <use x="831.583984" xlink:href="#DejaVuSans-43"/>
      <use x="901.408203" xlink:href="#DejaVuSans-6f"/>
      <use x="962.589844" xlink:href="#DejaVuSans-75"/>
      <use x="1025.96875" xlink:href="#DejaVuSans-6e"/>
      <use x="1089.347656" xlink:href="#DejaVuSans-74"/>
      <use x="1128.556641" xlink:href="#DejaVuSans-20"/>
      <use x="1160.34375" xlink:href="#DejaVuSans-28"/>
      <use x="1199.357422" xlink:href="#DejaVuSans-53"/>
      <use x="1262.833984" xlink:href="#DejaVuSans-74"/>
      <use x="1302.042969" xlink:href="#DejaVuSans-65"/>
      <use x="1363.566406" xlink:href="#DejaVuSans-61"/>
      <use x="1424.845703" xlink:href="#DejaVuSans-64"/>
      <use x="1488.322266" xlink:href="#DejaVuSans-79"/>
      <use x="1547.501953" xlink:href="#DejaVuSans-20"/>
      <use x="1579.289062" xlink:href="#DejaVuSans-53"/>
      <use x="1642.765625" xlink:href="#DejaVuSans-74"/>
      <use x="1681.974609" xlink:href="#DejaVuSans-61"/>
      <use x="1743.253906" xlink:href="#DejaVuSans-74"/>
      <use x="1782.462891" xlink:href="#DejaVuSans-65"/>
      <use x="1843.986328" xlink:href="#DejaVuSans-29"/>
     </g>
    </g>
   </g>
   <g id="line2d_56">
    <path clip-path="url(#p6c0aee4aa2)" d="M 203.134236 519.849859 
L 203.714507 519.820318 
L 204.294778 519.785675 
L 204.875048 519.745193 
L 205.455319 519.698058 
L 206.03559 519.643373 
L 206.615861 519.580157 
L 207.196132 519.507339 
L 207.776402 519.423763 
L 208.356673 519.328182 
L 208.936944 519.219266 
L 209.517215 519.095601 
L 210.097485 518.955695 
L 210.677756 518.797986 
L 211.258027 518.620852 
L 211.838298 518.422623 
L 212.418569 518.201593 
L 212.998839 517.956038 
L 213.57911 517.684239 
L 214.159381 517.384495 
L 214.739652 517.055156 
L 215.319923 516.694644 
L 215.900193 516.301484 
L 216.480464 515.874332 
L 217.060735 515.412008 
L 217.641006 514.913526 
L 218.221277 514.37813 
L 218.801547 513.805322 
L 219.381818 513.194898 
L 219.962089 512.546977 
L 220.54236 511.862027 
L 221.122631 511.140893 
L 221.702901 510.384819 
L 222.283172 509.595463 
L 222.863443 508.774913 
L 223.443714 507.925693 
L 224.023985 507.050766 
L 224.604255 506.153527 
L 225.184526 505.237795 
L 225.764797 504.307791 
L 226.345068 503.368115 
L 226.925338 502.423713 
L 227.505609 501.479837 
L 228.08588 500.542003 
L 228.666151 499.615935 
L 229.246422 498.707509 
L 229.826692 497.822695 
L 230.406963 496.967489 
L 230.987234 496.147844 
L 231.567505 495.369606 
L 232.147776 494.638437 
L 232.728046 493.959752 
L 233.308317 493.338647 
L 233.888588 492.779839 
L 234.468859 492.287602 
L 235.04913 491.865715 
L 235.6294 491.517413 
L 236.209671 491.245344 
L 236.789942 491.051537 
L 237.370213 490.937379 
L 237.950484 490.903594 
L 238.530754 490.95024 
L 239.111025 491.07671 
L 239.691296 491.281743 
L 240.271567 491.563445 
L 240.851838 491.919317 
L 241.432108 492.346292 
L 242.012379 492.840778 
L 242.59265 493.398708 
L 243.172921 494.015595 
L 243.753191 494.686591 
L 244.333462 495.40655 
L 244.913733 496.17009 
L 245.494004 496.971663 
L 246.074275 497.805617 
L 246.654545 498.66626 
L 247.234816 499.547923 
L 247.815087 500.445019 
L 248.395358 501.352099 
L 248.975629 502.2639 
L 249.555899 503.175393 
L 250.13617 504.081823 
L 250.716441 504.978741 
L 251.296712 505.862036 
L 251.876983 506.727953 
L 252.457253 507.573112 
L 253.037524 508.394518 
L 253.617795 509.189564 
L 254.198066 509.95603 
L 254.778337 510.692082 
L 255.358607 511.396254 
L 255.938878 512.067442 
L 256.519149 512.704879 
L 257.09942 513.308122 
L 257.679691 513.877022 
L 258.259961 514.411705 
L 258.840232 514.912545 
L 259.420503 515.380135 
L 260.000774 515.815263 
L 260.581044 516.218885 
L 261.161315 516.592096 
L 261.741586 516.936111 
L 262.321857 517.252234 
L 262.902128 517.54184 
L 263.482398 517.806352 
L 264.062669 518.047223 
L 264.64294 518.265916 
L 265.223211 518.463892 
L 265.803482 518.642593 
L 266.383752 518.80343 
L 266.964023 518.947777 
L 267.544294 519.076956 
L 268.124565 519.192237 
L 268.704836 519.294827 
L 269.285106 519.385871 
L 269.865377 519.466447 
L 270.445648 519.537562 
L 271.025919 519.600157 
L 271.60619 519.655105 
L 272.18646 519.70321 
L 272.766731 519.745212 
L 273.347002 519.781788 
" style="fill:none;stroke:#ff5733;stroke-linecap:square;stroke-width:2;"/>
   </g>
   <g id="patch_200">
    <path d="M 16.2 520 
L 286.2 520 
" style="fill:none;stroke:#000000;stroke-linecap:square;stroke-linejoin:miter;stroke-width:0.8;"/>
   </g>
   <g id="text_17">
    <!-- 39.1 a.u. L -->
    <g transform="translate(16.2 496.746713)scale(0.15 -0.15)">
     <use xlink:href="#DejaVuSans-33"/>
     <use x="63.623047" xlink:href="#DejaVuSans-39"/>
     <use x="127.246094" xlink:href="#DejaVuSans-2e"/>
     <use x="159.033203" xlink:href="#DejaVuSans-31"/>
     <use x="222.65625" xlink:href="#DejaVuSans-20"/>
     <use x="254.443359" xlink:href="#DejaVuSans-61"/>
     <use x="315.722656" xlink:href="#DejaVuSans-2e"/>
     <use x="347.509766" xlink:href="#DejaVuSans-75"/>
     <use x="410.888672" xlink:href="#DejaVuSans-2e"/>
     <use x="442.675781" xlink:href="#DejaVuSans-20"/>
     <use x="474.462891" xlink:href="#DejaVuSans-4c"/>
    </g>
   </g>
  </g>
 </g>
 <defs>
  <clipPath id="p3ea8da7a0b">
   <rect height="34.650943" width="270" x="16.2" y="50.541509"/>
  </clipPath>
  <clipPath id="pfddf160a95">
   <rect height="34.650943" width="270" x="16.2" y="104.892453"/>
  </clipPath>
  <clipPath id="p46d3be4e7f">
   <rect height="34.650943" width="270" x="16.2" y="159.243396"/>
  </clipPath>
  <clipPath id="p7d24405d14">
   <rect height="34.650943" width="270" x="16.2" y="213.59434"/>
  </clipPath>
  <clipPath id="pa0da6a321d">
   <rect height="34.650943" width="270" x="16.2" y="267.945283"/>
  </clipPath>
  <clipPath id="p27fb6cf0f1">
   <rect height="34.650943" width="270" x="16.2" y="322.296226"/>
  </clipPath>
  <clipPath id="pb814e639c9">
   <rect height="34.650943" width="270" x="16.2" y="376.64717"/>
  </clipPath>
  <clipPath id="p3264d4f1ff">
   <rect height="34.650943" width="270" x="16.2" y="430.998113"/>
  </clipPath>
  <clipPath id="p6c0aee4aa2">
   <rect height="34.650943" width="270" x="16.2" y="485.349057"/>
  </clipPath>
 </defs>
</svg>
