<?xml version="1.0" encoding="utf-8" standalone="no"?>
<!DOCTYPE svg PUBLIC "-//W3C//DTD SVG 1.1//EN"
  "http://www.w3.org/Graphics/SVG/1.1/DTD/svg11.dtd">
<svg height="345.6pt" version="1.1" viewBox="0 0 460.8 345.6" width="460.8pt" xmlns="http://www.w3.org/2000/svg" xmlns:xlink="http://www.w3.org/1999/xlink">
 <metadata>
  <rdf:RDF xmlns:cc="http://creativecommons.org/ns#" xmlns:dc="http://purl.org/dc/elements/1.1/" xmlns:rdf="http://www.w3.org/1999/02/22-rdf-syntax-ns#">
   <cc:Work>
    <dc:type rdf:resource="http://purl.org/dc/dcmitype/StillImage"/>
    <dc:date>2023-01-30T23:21:47.028754</dc:date>
    <dc:format>image/svg+xml</dc:format>
    <dc:creator>
     <cc:Agent>
      <dc:title>Matplotlib v3.4.3, https://matplotlib.org/</dc:title>
     </cc:Agent>
    </dc:creator>
   </cc:Work>
  </rdf:RDF>
 </metadata>
 <defs>
  <style type="text/css">*{stroke-linecap:butt;stroke-linejoin:round;}</style>
 </defs>
 <g id="figure_1">
  <g id="patch_1">
   <path d="M 0 345.6 
L 460.8 345.6 
L 460.8 0 
L 0 0 
z
" style="fill:#ffffff;"/>
  </g>
  <g id="axes_1">
   <g id="patch_2">
    <path d="M 55.892 287.008 
L 440.99143 287.008 
L 440.99143 16.2 
L 55.892 16.2 
z
" style="fill:#ffffff;"/>
   </g>
   <g id="PolyCollection_1">
    <defs>
     <path d="M 79.202882 -130.568994 
L 79.202882 -213.562395 
L 190.080414 -201.611163 
L 207.714416 -188.382725 
L 225.348418 -172.981932 
L 242.98242 -159.982028 
L 260.616422 -145.713597 
L 278.250424 -136.245344 
L 295.884426 -124.670291 
L 313.518427 -109.21489 
L 430.6762 -87.471678 
L 430.6762 -70.901455 
L 430.6762 -70.901455 
L 313.518427 -82.809026 
L 295.884426 -90.281615 
L 278.250424 -97.783011 
L 260.616422 -101.664913 
L 242.98242 -109.885307 
L 225.348418 -115.881213 
L 207.714416 -122.635637 
L 190.080414 -127.49843 
L 79.202882 -130.568994 
z
" id="mafb4a91cda" style="stroke:#fa4616;stroke-opacity:0.5;"/>
    </defs>
    <g clip-path="url(#p3cdecd3a1d)">
     <use style="fill:#fa4616;fill-opacity:0.5;stroke:#fa4616;stroke-opacity:0.5;" x="0" xlink:href="#mafb4a91cda" y="345.6"/>
    </g>
   </g>
   <g id="PathCollection_1">
    <defs>
     <path d="M 0 3 
C 0.795609 3 1.55874 2.683901 2.12132 2.12132 
C 2.683901 1.55874 3 0.795609 3 0 
C 3 -0.795609 2.683901 -1.55874 2.12132 -2.12132 
C 1.55874 -2.683901 0.795609 -3 0 -3 
C -0.795609 -3 -1.55874 -2.683901 -2.12132 -2.12132 
C -2.683901 -1.55874 -3 -0.795609 -3 0 
C -3 0.795609 -2.683901 1.55874 -2.12132 2.12132 
C -1.55874 2.683901 -0.795609 3 0 3 
z
" id="m3dc21dd22a" style="stroke:#000000;"/>
    </defs>
    <g clip-path="url(#p3cdecd3a1d)">
     <use style="stroke:#000000;" x="79.202882" xlink:href="#m3dc21dd22a" y="173.534305"/>
     <use style="stroke:#000000;" x="190.080414" xlink:href="#m3dc21dd22a" y="181.045204"/>
     <use style="stroke:#000000;" x="207.714416" xlink:href="#m3dc21dd22a" y="190.090819"/>
     <use style="stroke:#000000;" x="225.348418" xlink:href="#m3dc21dd22a" y="201.168428"/>
     <use style="stroke:#000000;" x="242.98242" xlink:href="#m3dc21dd22a" y="210.666333"/>
     <use style="stroke:#000000;" x="260.616422" xlink:href="#m3dc21dd22a" y="221.910745"/>
     <use style="stroke:#000000;" x="278.250424" xlink:href="#m3dc21dd22a" y="228.585823"/>
     <use style="stroke:#000000;" x="295.884426" xlink:href="#m3dc21dd22a" y="238.124047"/>
     <use style="stroke:#000000;" x="313.518427" xlink:href="#m3dc21dd22a" y="249.588042"/>
     <use style="stroke:#000000;" x="430.6762" xlink:href="#m3dc21dd22a" y="266.413434"/>
    </g>
   </g>
   <g id="matplotlib.axis_1">
    <g id="xtick_1">
     <g id="line2d_1">
      <defs>
       <path d="M 0 0 
L 0 3.5 
" id="md4abb8d6e8" style="stroke:#000000;stroke-width:0.8;"/>
      </defs>
      <g>
       <use style="stroke:#000000;stroke-width:0.8;" x="79.202882" xlink:href="#md4abb8d6e8" y="287.008"/>
      </g>
     </g>
     <g id="text_1">
      <!-- 0 -->
      <g transform="translate(74.431007 305.405656)scale(0.15 -0.15)">
       <defs>
        <path d="M 2034 4250 
Q 1547 4250 1301 3770 
Q 1056 3291 1056 2328 
Q 1056 1369 1301 889 
Q 1547 409 2034 409 
Q 2525 409 2770 889 
Q 3016 1369 3016 2328 
Q 3016 3291 2770 3770 
Q 2525 4250 2034 4250 
z
M 2034 4750 
Q 2819 4750 3233 4129 
Q 3647 3509 3647 2328 
Q 3647 1150 3233 529 
Q 2819 -91 2034 -91 
Q 1250 -91 836 529 
Q 422 1150 422 2328 
Q 422 3509 836 4129 
Q 1250 4750 2034 4750 
z
" id="DejaVuSans-30" transform="scale(0.015625)"/>
       </defs>
       <use xlink:href="#DejaVuSans-30"/>
      </g>
     </g>
    </g>
    <g id="xtick_2">
     <g id="line2d_2">
      <g>
       <use style="stroke:#000000;stroke-width:0.8;" x="196.360655" xlink:href="#md4abb8d6e8" y="287.008"/>
      </g>
     </g>
     <g id="text_2">
      <!-- $10^{-2}$ -->
      <g transform="translate(178.735655 305.405656)scale(0.15 -0.15)">
       <defs>
        <path d="M 794 531 
L 1825 531 
L 1825 4091 
L 703 3866 
L 703 4441 
L 1819 4666 
L 2450 4666 
L 2450 531 
L 3481 531 
L 3481 0 
L 794 0 
L 794 531 
z
" id="DejaVuSans-31" transform="scale(0.015625)"/>
        <path d="M 678 2272 
L 4684 2272 
L 4684 1741 
L 678 1741 
L 678 2272 
z
" id="DejaVuSans-2212" transform="scale(0.015625)"/>
        <path d="M 1228 531 
L 3431 531 
L 3431 0 
L 469 0 
L 469 531 
Q 828 903 1448 1529 
Q 2069 2156 2228 2338 
Q 2531 2678 2651 2914 
Q 2772 3150 2772 3378 
Q 2772 3750 2511 3984 
Q 2250 4219 1831 4219 
Q 1534 4219 1204 4116 
Q 875 4013 500 3803 
L 500 4441 
Q 881 4594 1212 4672 
Q 1544 4750 1819 4750 
Q 2544 4750 2975 4387 
Q 3406 4025 3406 3419 
Q 3406 3131 3298 2873 
Q 3191 2616 2906 2266 
Q 2828 2175 2409 1742 
Q 1991 1309 1228 531 
z
" id="DejaVuSans-32" transform="scale(0.015625)"/>
       </defs>
       <use transform="translate(0 0.765625)" xlink:href="#DejaVuSans-31"/>
       <use transform="translate(63.623047 0.765625)" xlink:href="#DejaVuSans-30"/>
       <use transform="translate(128.203125 39.046875)scale(0.7)" xlink:href="#DejaVuSans-2212"/>
       <use transform="translate(186.855469 39.046875)scale(0.7)" xlink:href="#DejaVuSans-32"/>
      </g>
     </g>
    </g>
    <g id="xtick_3">
     <g id="line2d_3">
      <g>
       <use style="stroke:#000000;stroke-width:0.8;" x="313.518427" xlink:href="#md4abb8d6e8" y="287.008"/>
      </g>
     </g>
     <g id="text_3">
      <!-- $10^{0}$ -->
      <g transform="translate(300.318427 305.405656)scale(0.15 -0.15)">
       <use transform="translate(0 0.765625)" xlink:href="#DejaVuSans-31"/>
       <use transform="translate(63.623047 0.765625)" xlink:href="#DejaVuSans-30"/>
       <use transform="translate(128.203125 39.046875)scale(0.7)" xlink:href="#DejaVuSans-30"/>
      </g>
     </g>
    </g>
    <g id="xtick_4">
     <g id="line2d_4">
      <g>
       <use style="stroke:#000000;stroke-width:0.8;" x="430.6762" xlink:href="#md4abb8d6e8" y="287.008"/>
      </g>
     </g>
     <g id="text_4">
      <!-- $10^{2}$ -->
      <g transform="translate(417.4762 305.405656)scale(0.15 -0.15)">
       <use transform="translate(0 0.765625)" xlink:href="#DejaVuSans-31"/>
       <use transform="translate(63.623047 0.765625)" xlink:href="#DejaVuSans-30"/>
       <use transform="translate(128.203125 39.046875)scale(0.7)" xlink:href="#DejaVuSans-32"/>
      </g>
     </g>
    </g>
    <g id="xtick_5">
     <g id="line2d_5">
      <defs>
       <path d="M 0 0 
L 0 2 
" id="m18b3f51e51" style="stroke:#000000;stroke-width:0.6;"/>
      </defs>
      <g>
       <use style="stroke:#000000;stroke-width:0.6;" x="55.892" xlink:href="#m18b3f51e51" y="287.008"/>
      </g>
     </g>
    </g>
    <g id="xtick_6">
     <g id="line2d_6">
      <g>
       <use style="stroke:#000000;stroke-width:0.6;" x="61.568881" xlink:href="#m18b3f51e51" y="287.008"/>
      </g>
     </g>
    </g>
    <g id="xtick_7">
     <g id="line2d_7">
      <g>
       <use style="stroke:#000000;stroke-width:0.6;" x="66.20723" xlink:href="#m18b3f51e51" y="287.008"/>
      </g>
     </g>
    </g>
    <g id="xtick_8">
     <g id="line2d_8">
      <g>
       <use style="stroke:#000000;stroke-width:0.6;" x="70.128898" xlink:href="#m18b3f51e51" y="287.008"/>
      </g>
     </g>
    </g>
    <g id="xtick_9">
     <g id="line2d_9">
      <g>
       <use style="stroke:#000000;stroke-width:0.6;" x="73.526002" xlink:href="#m18b3f51e51" y="287.008"/>
      </g>
     </g>
    </g>
    <g id="xtick_10">
     <g id="line2d_10">
      <g>
       <use style="stroke:#000000;stroke-width:0.6;" x="76.52246" xlink:href="#m18b3f51e51" y="287.008"/>
      </g>
     </g>
    </g>
    <g id="xtick_11">
     <g id="line2d_11">
      <g>
       <use style="stroke:#000000;stroke-width:0.6;" x="96.836884" xlink:href="#m18b3f51e51" y="287.008"/>
      </g>
     </g>
    </g>
    <g id="xtick_12">
     <g id="line2d_12">
      <g>
       <use style="stroke:#000000;stroke-width:0.6;" x="107.152114" xlink:href="#m18b3f51e51" y="287.008"/>
      </g>
     </g>
    </g>
    <g id="xtick_13">
     <g id="line2d_13">
      <g>
       <use style="stroke:#000000;stroke-width:0.6;" x="114.470886" xlink:href="#m18b3f51e51" y="287.008"/>
      </g>
     </g>
    </g>
    <g id="xtick_14">
     <g id="line2d_14">
      <g>
       <use style="stroke:#000000;stroke-width:0.6;" x="120.147767" xlink:href="#m18b3f51e51" y="287.008"/>
      </g>
     </g>
    </g>
    <g id="xtick_15">
     <g id="line2d_15">
      <g>
       <use style="stroke:#000000;stroke-width:0.6;" x="124.786116" xlink:href="#m18b3f51e51" y="287.008"/>
      </g>
     </g>
    </g>
    <g id="xtick_16">
     <g id="line2d_16">
      <g>
       <use style="stroke:#000000;stroke-width:0.6;" x="128.707784" xlink:href="#m18b3f51e51" y="287.008"/>
      </g>
     </g>
    </g>
    <g id="xtick_17">
     <g id="line2d_17">
      <g>
       <use style="stroke:#000000;stroke-width:0.6;" x="132.104888" xlink:href="#m18b3f51e51" y="287.008"/>
      </g>
     </g>
    </g>
    <g id="xtick_18">
     <g id="line2d_18">
      <g>
       <use style="stroke:#000000;stroke-width:0.6;" x="135.101346" xlink:href="#m18b3f51e51" y="287.008"/>
      </g>
     </g>
    </g>
    <g id="xtick_19">
     <g id="line2d_19">
      <g>
       <use style="stroke:#000000;stroke-width:0.6;" x="155.415771" xlink:href="#m18b3f51e51" y="287.008"/>
      </g>
     </g>
    </g>
    <g id="xtick_20">
     <g id="line2d_20">
      <g>
       <use style="stroke:#000000;stroke-width:0.6;" x="165.731" xlink:href="#m18b3f51e51" y="287.008"/>
      </g>
     </g>
    </g>
    <g id="xtick_21">
     <g id="line2d_21">
      <g>
       <use style="stroke:#000000;stroke-width:0.6;" x="173.049772" xlink:href="#m18b3f51e51" y="287.008"/>
      </g>
     </g>
    </g>
    <g id="xtick_22">
     <g id="line2d_22">
      <g>
       <use style="stroke:#000000;stroke-width:0.6;" x="178.726653" xlink:href="#m18b3f51e51" y="287.008"/>
      </g>
     </g>
    </g>
    <g id="xtick_23">
     <g id="line2d_23">
      <g>
       <use style="stroke:#000000;stroke-width:0.6;" x="183.365002" xlink:href="#m18b3f51e51" y="287.008"/>
      </g>
     </g>
    </g>
    <g id="xtick_24">
     <g id="line2d_24">
      <g>
       <use style="stroke:#000000;stroke-width:0.6;" x="187.286671" xlink:href="#m18b3f51e51" y="287.008"/>
      </g>
     </g>
    </g>
    <g id="xtick_25">
     <g id="line2d_25">
      <g>
       <use style="stroke:#000000;stroke-width:0.6;" x="190.683774" xlink:href="#m18b3f51e51" y="287.008"/>
      </g>
     </g>
    </g>
    <g id="xtick_26">
     <g id="line2d_26">
      <g>
       <use style="stroke:#000000;stroke-width:0.6;" x="193.680232" xlink:href="#m18b3f51e51" y="287.008"/>
      </g>
     </g>
    </g>
    <g id="xtick_27">
     <g id="line2d_27">
      <g>
       <use style="stroke:#000000;stroke-width:0.6;" x="213.994657" xlink:href="#m18b3f51e51" y="287.008"/>
      </g>
     </g>
    </g>
    <g id="xtick_28">
     <g id="line2d_28">
      <g>
       <use style="stroke:#000000;stroke-width:0.6;" x="224.309887" xlink:href="#m18b3f51e51" y="287.008"/>
      </g>
     </g>
    </g>
    <g id="xtick_29">
     <g id="line2d_29">
      <g>
       <use style="stroke:#000000;stroke-width:0.6;" x="231.628659" xlink:href="#m18b3f51e51" y="287.008"/>
      </g>
     </g>
    </g>
    <g id="xtick_30">
     <g id="line2d_30">
      <g>
       <use style="stroke:#000000;stroke-width:0.6;" x="237.305539" xlink:href="#m18b3f51e51" y="287.008"/>
      </g>
     </g>
    </g>
    <g id="xtick_31">
     <g id="line2d_31">
      <g>
       <use style="stroke:#000000;stroke-width:0.6;" x="241.943888" xlink:href="#m18b3f51e51" y="287.008"/>
      </g>
     </g>
    </g>
    <g id="xtick_32">
     <g id="line2d_32">
      <g>
       <use style="stroke:#000000;stroke-width:0.6;" x="245.865557" xlink:href="#m18b3f51e51" y="287.008"/>
      </g>
     </g>
    </g>
    <g id="xtick_33">
     <g id="line2d_33">
      <g>
       <use style="stroke:#000000;stroke-width:0.6;" x="249.262661" xlink:href="#m18b3f51e51" y="287.008"/>
      </g>
     </g>
    </g>
    <g id="xtick_34">
     <g id="line2d_34">
      <g>
       <use style="stroke:#000000;stroke-width:0.6;" x="252.259118" xlink:href="#m18b3f51e51" y="287.008"/>
      </g>
     </g>
    </g>
    <g id="xtick_35">
     <g id="line2d_35">
      <g>
       <use style="stroke:#000000;stroke-width:0.6;" x="272.573543" xlink:href="#m18b3f51e51" y="287.008"/>
      </g>
     </g>
    </g>
    <g id="xtick_36">
     <g id="line2d_36">
      <g>
       <use style="stroke:#000000;stroke-width:0.6;" x="282.888773" xlink:href="#m18b3f51e51" y="287.008"/>
      </g>
     </g>
    </g>
    <g id="xtick_37">
     <g id="line2d_37">
      <g>
       <use style="stroke:#000000;stroke-width:0.6;" x="290.207545" xlink:href="#m18b3f51e51" y="287.008"/>
      </g>
     </g>
    </g>
    <g id="xtick_38">
     <g id="line2d_38">
      <g>
       <use style="stroke:#000000;stroke-width:0.6;" x="295.884426" xlink:href="#m18b3f51e51" y="287.008"/>
      </g>
     </g>
    </g>
    <g id="xtick_39">
     <g id="line2d_39">
      <g>
       <use style="stroke:#000000;stroke-width:0.6;" x="300.522775" xlink:href="#m18b3f51e51" y="287.008"/>
      </g>
     </g>
    </g>
    <g id="xtick_40">
     <g id="line2d_40">
      <g>
       <use style="stroke:#000000;stroke-width:0.6;" x="304.444443" xlink:href="#m18b3f51e51" y="287.008"/>
      </g>
     </g>
    </g>
    <g id="xtick_41">
     <g id="line2d_41">
      <g>
       <use style="stroke:#000000;stroke-width:0.6;" x="307.841547" xlink:href="#m18b3f51e51" y="287.008"/>
      </g>
     </g>
    </g>
    <g id="xtick_42">
     <g id="line2d_42">
      <g>
       <use style="stroke:#000000;stroke-width:0.6;" x="310.838005" xlink:href="#m18b3f51e51" y="287.008"/>
      </g>
     </g>
    </g>
    <g id="xtick_43">
     <g id="line2d_43">
      <g>
       <use style="stroke:#000000;stroke-width:0.6;" x="331.152429" xlink:href="#m18b3f51e51" y="287.008"/>
      </g>
     </g>
    </g>
    <g id="xtick_44">
     <g id="line2d_44">
      <g>
       <use style="stroke:#000000;stroke-width:0.6;" x="341.467659" xlink:href="#m18b3f51e51" y="287.008"/>
      </g>
     </g>
    </g>
    <g id="xtick_45">
     <g id="line2d_45">
      <g>
       <use style="stroke:#000000;stroke-width:0.6;" x="348.786431" xlink:href="#m18b3f51e51" y="287.008"/>
      </g>
     </g>
    </g>
    <g id="xtick_46">
     <g id="line2d_46">
      <g>
       <use style="stroke:#000000;stroke-width:0.6;" x="354.463312" xlink:href="#m18b3f51e51" y="287.008"/>
      </g>
     </g>
    </g>
    <g id="xtick_47">
     <g id="line2d_47">
      <g>
       <use style="stroke:#000000;stroke-width:0.6;" x="359.101661" xlink:href="#m18b3f51e51" y="287.008"/>
      </g>
     </g>
    </g>
    <g id="xtick_48">
     <g id="line2d_48">
      <g>
       <use style="stroke:#000000;stroke-width:0.6;" x="363.023329" xlink:href="#m18b3f51e51" y="287.008"/>
      </g>
     </g>
    </g>
    <g id="xtick_49">
     <g id="line2d_49">
      <g>
       <use style="stroke:#000000;stroke-width:0.6;" x="366.420433" xlink:href="#m18b3f51e51" y="287.008"/>
      </g>
     </g>
    </g>
    <g id="xtick_50">
     <g id="line2d_50">
      <g>
       <use style="stroke:#000000;stroke-width:0.6;" x="369.416891" xlink:href="#m18b3f51e51" y="287.008"/>
      </g>
     </g>
    </g>
    <g id="xtick_51">
     <g id="line2d_51">
      <g>
       <use style="stroke:#000000;stroke-width:0.6;" x="389.731315" xlink:href="#m18b3f51e51" y="287.008"/>
      </g>
     </g>
    </g>
    <g id="xtick_52">
     <g id="line2d_52">
      <g>
       <use style="stroke:#000000;stroke-width:0.6;" x="400.046545" xlink:href="#m18b3f51e51" y="287.008"/>
      </g>
     </g>
    </g>
    <g id="xtick_53">
     <g id="line2d_53">
      <g>
       <use style="stroke:#000000;stroke-width:0.6;" x="407.365317" xlink:href="#m18b3f51e51" y="287.008"/>
      </g>
     </g>
    </g>
    <g id="xtick_54">
     <g id="line2d_54">
      <g>
       <use style="stroke:#000000;stroke-width:0.6;" x="413.042198" xlink:href="#m18b3f51e51" y="287.008"/>
      </g>
     </g>
    </g>
    <g id="xtick_55">
     <g id="line2d_55">
      <g>
       <use style="stroke:#000000;stroke-width:0.6;" x="417.680547" xlink:href="#m18b3f51e51" y="287.008"/>
      </g>
     </g>
    </g>
    <g id="xtick_56">
     <g id="line2d_56">
      <g>
       <use style="stroke:#000000;stroke-width:0.6;" x="421.602216" xlink:href="#m18b3f51e51" y="287.008"/>
      </g>
     </g>
    </g>
    <g id="xtick_57">
     <g id="line2d_57">
      <g>
       <use style="stroke:#000000;stroke-width:0.6;" x="424.999319" xlink:href="#m18b3f51e51" y="287.008"/>
      </g>
     </g>
    </g>
    <g id="xtick_58">
     <g id="line2d_58">
      <g>
       <use style="stroke:#000000;stroke-width:0.6;" x="427.995777" xlink:href="#m18b3f51e51" y="287.008"/>
      </g>
     </g>
    </g>
    <g id="text_5">
     <!-- Extracellular EGF (nM) -->
     <g transform="translate(164.514371 323.922844)scale(0.15 -0.15)">
      <defs>
       <path d="M 628 4666 
L 3578 4666 
L 3578 4134 
L 1259 4134 
L 1259 2753 
L 3481 2753 
L 3481 2222 
L 1259 2222 
L 1259 531 
L 3634 531 
L 3634 0 
L 628 0 
L 628 4666 
z
" id="DejaVuSans-45" transform="scale(0.015625)"/>
       <path d="M 3513 3500 
L 2247 1797 
L 3578 0 
L 2900 0 
L 1881 1375 
L 863 0 
L 184 0 
L 1544 1831 
L 300 3500 
L 978 3500 
L 1906 2253 
L 2834 3500 
L 3513 3500 
z
" id="DejaVuSans-78" transform="scale(0.015625)"/>
       <path d="M 1172 4494 
L 1172 3500 
L 2356 3500 
L 2356 3053 
L 1172 3053 
L 1172 1153 
Q 1172 725 1289 603 
Q 1406 481 1766 481 
L 2356 481 
L 2356 0 
L 1766 0 
Q 1100 0 847 248 
Q 594 497 594 1153 
L 594 3053 
L 172 3053 
L 172 3500 
L 594 3500 
L 594 4494 
L 1172 4494 
z
" id="DejaVuSans-74" transform="scale(0.015625)"/>
       <path d="M 2631 2963 
Q 2534 3019 2420 3045 
Q 2306 3072 2169 3072 
Q 1681 3072 1420 2755 
Q 1159 2438 1159 1844 
L 1159 0 
L 581 0 
L 581 3500 
L 1159 3500 
L 1159 2956 
Q 1341 3275 1631 3429 
Q 1922 3584 2338 3584 
Q 2397 3584 2469 3576 
Q 2541 3569 2628 3553 
L 2631 2963 
z
" id="DejaVuSans-72" transform="scale(0.015625)"/>
       <path d="M 2194 1759 
Q 1497 1759 1228 1600 
Q 959 1441 959 1056 
Q 959 750 1161 570 
Q 1363 391 1709 391 
Q 2188 391 2477 730 
Q 2766 1069 2766 1631 
L 2766 1759 
L 2194 1759 
z
M 3341 1997 
L 3341 0 
L 2766 0 
L 2766 531 
Q 2569 213 2275 61 
Q 1981 -91 1556 -91 
Q 1019 -91 701 211 
Q 384 513 384 1019 
Q 384 1609 779 1909 
Q 1175 2209 1959 2209 
L 2766 2209 
L 2766 2266 
Q 2766 2663 2505 2880 
Q 2244 3097 1772 3097 
Q 1472 3097 1187 3025 
Q 903 2953 641 2809 
L 641 3341 
Q 956 3463 1253 3523 
Q 1550 3584 1831 3584 
Q 2591 3584 2966 3190 
Q 3341 2797 3341 1997 
z
" id="DejaVuSans-61" transform="scale(0.015625)"/>
       <path d="M 3122 3366 
L 3122 2828 
Q 2878 2963 2633 3030 
Q 2388 3097 2138 3097 
Q 1578 3097 1268 2742 
Q 959 2388 959 1747 
Q 959 1106 1268 751 
Q 1578 397 2138 397 
Q 2388 397 2633 464 
Q 2878 531 3122 666 
L 3122 134 
Q 2881 22 2623 -34 
Q 2366 -91 2075 -91 
Q 1284 -91 818 406 
Q 353 903 353 1747 
Q 353 2603 823 3093 
Q 1294 3584 2113 3584 
Q 2378 3584 2631 3529 
Q 2884 3475 3122 3366 
z
" id="DejaVuSans-63" transform="scale(0.015625)"/>
       <path d="M 3597 1894 
L 3597 1613 
L 953 1613 
Q 991 1019 1311 708 
Q 1631 397 2203 397 
Q 2534 397 2845 478 
Q 3156 559 3463 722 
L 3463 178 
Q 3153 47 2828 -22 
Q 2503 -91 2169 -91 
Q 1331 -91 842 396 
Q 353 884 353 1716 
Q 353 2575 817 3079 
Q 1281 3584 2069 3584 
Q 2775 3584 3186 3129 
Q 3597 2675 3597 1894 
z
M 3022 2063 
Q 3016 2534 2758 2815 
Q 2500 3097 2075 3097 
Q 1594 3097 1305 2825 
Q 1016 2553 972 2059 
L 3022 2063 
z
" id="DejaVuSans-65" transform="scale(0.015625)"/>
       <path d="M 603 4863 
L 1178 4863 
L 1178 0 
L 603 0 
L 603 4863 
z
" id="DejaVuSans-6c" transform="scale(0.015625)"/>
       <path d="M 544 1381 
L 544 3500 
L 1119 3500 
L 1119 1403 
Q 1119 906 1312 657 
Q 1506 409 1894 409 
Q 2359 409 2629 706 
Q 2900 1003 2900 1516 
L 2900 3500 
L 3475 3500 
L 3475 0 
L 2900 0 
L 2900 538 
Q 2691 219 2414 64 
Q 2138 -91 1772 -91 
Q 1169 -91 856 284 
Q 544 659 544 1381 
z
M 1991 3584 
L 1991 3584 
z
" id="DejaVuSans-75" transform="scale(0.015625)"/>
       <path id="DejaVuSans-20" transform="scale(0.015625)"/>
       <path d="M 3809 666 
L 3809 1919 
L 2778 1919 
L 2778 2438 
L 4434 2438 
L 4434 434 
Q 4069 175 3628 42 
Q 3188 -91 2688 -91 
Q 1594 -91 976 548 
Q 359 1188 359 2328 
Q 359 3472 976 4111 
Q 1594 4750 2688 4750 
Q 3144 4750 3555 4637 
Q 3966 4525 4313 4306 
L 4313 3634 
Q 3963 3931 3569 4081 
Q 3175 4231 2741 4231 
Q 1884 4231 1454 3753 
Q 1025 3275 1025 2328 
Q 1025 1384 1454 906 
Q 1884 428 2741 428 
Q 3075 428 3337 486 
Q 3600 544 3809 666 
z
" id="DejaVuSans-47" transform="scale(0.015625)"/>
       <path d="M 628 4666 
L 3309 4666 
L 3309 4134 
L 1259 4134 
L 1259 2759 
L 3109 2759 
L 3109 2228 
L 1259 2228 
L 1259 0 
L 628 0 
L 628 4666 
z
" id="DejaVuSans-46" transform="scale(0.015625)"/>
       <path d="M 1984 4856 
Q 1566 4138 1362 3434 
Q 1159 2731 1159 2009 
Q 1159 1288 1364 580 
Q 1569 -128 1984 -844 
L 1484 -844 
Q 1016 -109 783 600 
Q 550 1309 550 2009 
Q 550 2706 781 3412 
Q 1013 4119 1484 4856 
L 1984 4856 
z
" id="DejaVuSans-28" transform="scale(0.015625)"/>
       <path d="M 3513 2113 
L 3513 0 
L 2938 0 
L 2938 2094 
Q 2938 2591 2744 2837 
Q 2550 3084 2163 3084 
Q 1697 3084 1428 2787 
Q 1159 2491 1159 1978 
L 1159 0 
L 581 0 
L 581 3500 
L 1159 3500 
L 1159 2956 
Q 1366 3272 1645 3428 
Q 1925 3584 2291 3584 
Q 2894 3584 3203 3211 
Q 3513 2838 3513 2113 
z
" id="DejaVuSans-6e" transform="scale(0.015625)"/>
       <path d="M 628 4666 
L 1569 4666 
L 2759 1491 
L 3956 4666 
L 4897 4666 
L 4897 0 
L 4281 0 
L 4281 4097 
L 3078 897 
L 2444 897 
L 1241 4097 
L 1241 0 
L 628 0 
L 628 4666 
z
" id="DejaVuSans-4d" transform="scale(0.015625)"/>
       <path d="M 513 4856 
L 1013 4856 
Q 1481 4119 1714 3412 
Q 1947 2706 1947 2009 
Q 1947 1309 1714 600 
Q 1481 -109 1013 -844 
L 513 -844 
Q 928 -128 1133 580 
Q 1338 1288 1338 2009 
Q 1338 2731 1133 3434 
Q 928 4138 513 4856 
z
" id="DejaVuSans-29" transform="scale(0.015625)"/>
      </defs>
      <use xlink:href="#DejaVuSans-45"/>
      <use x="63.183594" xlink:href="#DejaVuSans-78"/>
      <use x="122.363281" xlink:href="#DejaVuSans-74"/>
      <use x="161.572266" xlink:href="#DejaVuSans-72"/>
      <use x="202.685547" xlink:href="#DejaVuSans-61"/>
      <use x="263.964844" xlink:href="#DejaVuSans-63"/>
      <use x="318.945312" xlink:href="#DejaVuSans-65"/>
      <use x="380.46875" xlink:href="#DejaVuSans-6c"/>
      <use x="408.251953" xlink:href="#DejaVuSans-6c"/>
      <use x="436.035156" xlink:href="#DejaVuSans-75"/>
      <use x="499.414062" xlink:href="#DejaVuSans-6c"/>
      <use x="527.197266" xlink:href="#DejaVuSans-61"/>
      <use x="588.476562" xlink:href="#DejaVuSans-72"/>
      <use x="629.589844" xlink:href="#DejaVuSans-20"/>
      <use x="661.376953" xlink:href="#DejaVuSans-45"/>
      <use x="724.560547" xlink:href="#DejaVuSans-47"/>
      <use x="802.050781" xlink:href="#DejaVuSans-46"/>
      <use x="859.570312" xlink:href="#DejaVuSans-20"/>
      <use x="891.357422" xlink:href="#DejaVuSans-28"/>
      <use x="930.371094" xlink:href="#DejaVuSans-6e"/>
      <use x="993.75" xlink:href="#DejaVuSans-4d"/>
      <use x="1080.029297" xlink:href="#DejaVuSans-29"/>
     </g>
    </g>
   </g>
   <g id="matplotlib.axis_2">
    <g id="ytick_1">
     <g id="line2d_59">
      <defs>
       <path d="M 0 0 
L -3.5 0 
" id="mb28a1f1516" style="stroke:#000000;stroke-width:0.8;"/>
      </defs>
      <g>
       <use style="stroke:#000000;stroke-width:0.8;" x="55.892" xlink:href="#mb28a1f1516" y="283.80753"/>
      </g>
     </g>
     <g id="text_6">
      <!-- 0 -->
      <g transform="translate(39.34825 289.506358)scale(0.15 -0.15)">
       <use xlink:href="#DejaVuSans-30"/>
      </g>
     </g>
    </g>
    <g id="ytick_2">
     <g id="line2d_60">
      <g>
       <use style="stroke:#000000;stroke-width:0.8;" x="55.892" xlink:href="#mb28a1f1516" y="239.774911"/>
      </g>
     </g>
     <g id="text_7">
      <!-- 1 -->
      <g transform="translate(39.34825 245.473739)scale(0.15 -0.15)">
       <use xlink:href="#DejaVuSans-31"/>
      </g>
     </g>
    </g>
    <g id="ytick_3">
     <g id="line2d_61">
      <g>
       <use style="stroke:#000000;stroke-width:0.8;" x="55.892" xlink:href="#mb28a1f1516" y="151.709673"/>
      </g>
     </g>
     <g id="text_8">
      <!-- 3 -->
      <g transform="translate(39.34825 157.408501)scale(0.15 -0.15)">
       <defs>
        <path d="M 2597 2516 
Q 3050 2419 3304 2112 
Q 3559 1806 3559 1356 
Q 3559 666 3084 287 
Q 2609 -91 1734 -91 
Q 1441 -91 1130 -33 
Q 819 25 488 141 
L 488 750 
Q 750 597 1062 519 
Q 1375 441 1716 441 
Q 2309 441 2620 675 
Q 2931 909 2931 1356 
Q 2931 1769 2642 2001 
Q 2353 2234 1838 2234 
L 1294 2234 
L 1294 2753 
L 1863 2753 
Q 2328 2753 2575 2939 
Q 2822 3125 2822 3475 
Q 2822 3834 2567 4026 
Q 2313 4219 1838 4219 
Q 1578 4219 1281 4162 
Q 984 4106 628 3988 
L 628 4550 
Q 988 4650 1302 4700 
Q 1616 4750 1894 4750 
Q 2613 4750 3031 4423 
Q 3450 4097 3450 3541 
Q 3450 3153 3228 2886 
Q 3006 2619 2597 2516 
z
" id="DejaVuSans-33" transform="scale(0.015625)"/>
       </defs>
       <use xlink:href="#DejaVuSans-33"/>
      </g>
     </g>
    </g>
    <g id="ytick_4">
     <g id="line2d_62">
      <g>
       <use style="stroke:#000000;stroke-width:0.8;" x="55.892" xlink:href="#mb28a1f1516" y="63.644435"/>
      </g>
     </g>
     <g id="text_9">
      <!-- 5 -->
      <g transform="translate(39.34825 69.343263)scale(0.15 -0.15)">
       <defs>
        <path d="M 691 4666 
L 3169 4666 
L 3169 4134 
L 1269 4134 
L 1269 2991 
Q 1406 3038 1543 3061 
Q 1681 3084 1819 3084 
Q 2600 3084 3056 2656 
Q 3513 2228 3513 1497 
Q 3513 744 3044 326 
Q 2575 -91 1722 -91 
Q 1428 -91 1123 -41 
Q 819 9 494 109 
L 494 744 
Q 775 591 1075 516 
Q 1375 441 1709 441 
Q 2250 441 2565 725 
Q 2881 1009 2881 1497 
Q 2881 1984 2565 2268 
Q 2250 2553 1709 2553 
Q 1456 2553 1204 2497 
Q 953 2441 691 2322 
L 691 4666 
z
" id="DejaVuSans-35" transform="scale(0.015625)"/>
       </defs>
       <use xlink:href="#DejaVuSans-35"/>
      </g>
     </g>
    </g>
    <g id="text_10">
     <!-- Surface EGFR $\left(10^{5}\right)$ -->
     <g transform="translate(32.228719 224.054)rotate(-90)scale(0.15 -0.15)">
      <defs>
       <path d="M 3425 4513 
L 3425 3897 
Q 3066 4069 2747 4153 
Q 2428 4238 2131 4238 
Q 1616 4238 1336 4038 
Q 1056 3838 1056 3469 
Q 1056 3159 1242 3001 
Q 1428 2844 1947 2747 
L 2328 2669 
Q 3034 2534 3370 2195 
Q 3706 1856 3706 1288 
Q 3706 609 3251 259 
Q 2797 -91 1919 -91 
Q 1588 -91 1214 -16 
Q 841 59 441 206 
L 441 856 
Q 825 641 1194 531 
Q 1563 422 1919 422 
Q 2459 422 2753 634 
Q 3047 847 3047 1241 
Q 3047 1584 2836 1778 
Q 2625 1972 2144 2069 
L 1759 2144 
Q 1053 2284 737 2584 
Q 422 2884 422 3419 
Q 422 4038 858 4394 
Q 1294 4750 2059 4750 
Q 2388 4750 2728 4690 
Q 3069 4631 3425 4513 
z
" id="DejaVuSans-53" transform="scale(0.015625)"/>
       <path d="M 2375 4863 
L 2375 4384 
L 1825 4384 
Q 1516 4384 1395 4259 
Q 1275 4134 1275 3809 
L 1275 3500 
L 2222 3500 
L 2222 3053 
L 1275 3053 
L 1275 0 
L 697 0 
L 697 3053 
L 147 3053 
L 147 3500 
L 697 3500 
L 697 3744 
Q 697 4328 969 4595 
Q 1241 4863 1831 4863 
L 2375 4863 
z
" id="DejaVuSans-66" transform="scale(0.015625)"/>
       <path d="M 2841 2188 
Q 3044 2119 3236 1894 
Q 3428 1669 3622 1275 
L 4263 0 
L 3584 0 
L 2988 1197 
Q 2756 1666 2539 1819 
Q 2322 1972 1947 1972 
L 1259 1972 
L 1259 0 
L 628 0 
L 628 4666 
L 2053 4666 
Q 2853 4666 3247 4331 
Q 3641 3997 3641 3322 
Q 3641 2881 3436 2590 
Q 3231 2300 2841 2188 
z
M 1259 4147 
L 1259 2491 
L 2053 2491 
Q 2509 2491 2742 2702 
Q 2975 2913 2975 3322 
Q 2975 3731 2742 3939 
Q 2509 4147 2053 4147 
L 1259 4147 
z
" id="DejaVuSans-52" transform="scale(0.015625)"/>
      </defs>
      <use transform="translate(0 0.684375)" xlink:href="#DejaVuSans-53"/>
      <use transform="translate(63.476562 0.684375)" xlink:href="#DejaVuSans-75"/>
      <use transform="translate(126.855469 0.684375)" xlink:href="#DejaVuSans-72"/>
      <use transform="translate(167.96875 0.684375)" xlink:href="#DejaVuSans-66"/>
      <use transform="translate(203.173828 0.684375)" xlink:href="#DejaVuSans-61"/>
      <use transform="translate(264.453125 0.684375)" xlink:href="#DejaVuSans-63"/>
      <use transform="translate(319.433594 0.684375)" xlink:href="#DejaVuSans-65"/>
      <use transform="translate(380.957031 0.684375)" xlink:href="#DejaVuSans-20"/>
      <use transform="translate(412.744141 0.684375)" xlink:href="#DejaVuSans-45"/>
      <use transform="translate(475.927734 0.684375)" xlink:href="#DejaVuSans-47"/>
      <use transform="translate(553.417969 0.684375)" xlink:href="#DejaVuSans-46"/>
      <use transform="translate(610.9375 0.684375)" xlink:href="#DejaVuSans-52"/>
      <use transform="translate(680.419922 0.684375)" xlink:href="#DejaVuSans-20"/>
      <use transform="translate(712.207031 0.684375)" xlink:href="#DejaVuSans-28"/>
      <use transform="translate(751.220703 0.684375)" xlink:href="#DejaVuSans-31"/>
      <use transform="translate(814.84375 0.684375)" xlink:href="#DejaVuSans-30"/>
      <use transform="translate(879.423828 38.965625)scale(0.7)" xlink:href="#DejaVuSans-35"/>
      <use transform="translate(926.694336 0.684375)" xlink:href="#DejaVuSans-29"/>
     </g>
    </g>
   </g>
   <g id="line2d_63">
    <path clip-path="url(#p3cdecd3a1d)" d="M 79.202882 173.534305 
L 190.080414 181.045204 
L 207.714416 190.090819 
L 225.348418 201.168428 
L 242.98242 210.666333 
L 260.616422 221.910745 
L 278.250424 228.585823 
L 295.884426 238.124047 
L 313.518427 249.588042 
L 430.6762 266.413434 
" style="fill:none;stroke:#000000;stroke-linecap:square;stroke-width:1.5;"/>
   </g>
   <g id="patch_3">
    <path d="M 55.892 287.008 
L 55.892 16.2 
" style="fill:none;stroke:#000000;stroke-linecap:square;stroke-linejoin:miter;stroke-width:0.8;"/>
   </g>
   <g id="patch_4">
    <path d="M 55.892 287.008 
L 440.99143 287.008 
" style="fill:none;stroke:#000000;stroke-linecap:square;stroke-linejoin:miter;stroke-width:0.8;"/>
   </g>
   <g id="text_11">
    <!-- Count -->
    <g transform="translate(79.202882 263.552525)scale(0.15 -0.15)">
     <defs>
      <path d="M 4122 4306 
L 4122 3641 
Q 3803 3938 3442 4084 
Q 3081 4231 2675 4231 
Q 1875 4231 1450 3742 
Q 1025 3253 1025 2328 
Q 1025 1406 1450 917 
Q 1875 428 2675 428 
Q 3081 428 3442 575 
Q 3803 722 4122 1019 
L 4122 359 
Q 3791 134 3420 21 
Q 3050 -91 2638 -91 
Q 1578 -91 968 557 
Q 359 1206 359 2328 
Q 359 3453 968 4101 
Q 1578 4750 2638 4750 
Q 3056 4750 3426 4639 
Q 3797 4528 4122 4306 
z
" id="DejaVuSans-43" transform="scale(0.015625)"/>
      <path d="M 1959 3097 
Q 1497 3097 1228 2736 
Q 959 2375 959 1747 
Q 959 1119 1226 758 
Q 1494 397 1959 397 
Q 2419 397 2687 759 
Q 2956 1122 2956 1747 
Q 2956 2369 2687 2733 
Q 2419 3097 1959 3097 
z
M 1959 3584 
Q 2709 3584 3137 3096 
Q 3566 2609 3566 1747 
Q 3566 888 3137 398 
Q 2709 -91 1959 -91 
Q 1206 -91 779 398 
Q 353 888 353 1747 
Q 353 2609 779 3096 
Q 1206 3584 1959 3584 
z
" id="DejaVuSans-6f" transform="scale(0.015625)"/>
     </defs>
     <use xlink:href="#DejaVuSans-43"/>
     <use x="69.824219" xlink:href="#DejaVuSans-6f"/>
     <use x="131.005859" xlink:href="#DejaVuSans-75"/>
     <use x="194.384766" xlink:href="#DejaVuSans-6e"/>
     <use x="257.763672" xlink:href="#DejaVuSans-74"/>
    </g>
   </g>
   <g id="text_12">
    <!-- Count -->
    <g transform="translate(206.675885 263.552525)scale(0.15 -0.15)">
     <use xlink:href="#DejaVuSans-43"/>
     <use x="69.824219" xlink:href="#DejaVuSans-6f"/>
     <use x="131.005859" xlink:href="#DejaVuSans-75"/>
     <use x="194.384766" xlink:href="#DejaVuSans-6e"/>
     <use x="257.763672" xlink:href="#DejaVuSans-74"/>
    </g>
   </g>
   <g id="text_13">
    <!-- Count -->
    <g transform="translate(295.884426 281.385736)scale(0.15 -0.15)">
     <use xlink:href="#DejaVuSans-43"/>
     <use x="69.824219" xlink:href="#DejaVuSans-6f"/>
     <use x="131.005859" xlink:href="#DejaVuSans-75"/>
     <use x="194.384766" xlink:href="#DejaVuSans-6e"/>
     <use x="257.763672" xlink:href="#DejaVuSans-74"/>
    </g>
   </g>
   <g id="legend_1">
    <g id="patch_5">
     <path d="M 375.89143 41.097656 
L 405.89143 41.097656 
L 405.89143 30.597656 
L 375.89143 30.597656 
z
" style="fill:#fa4616;fill-opacity:0.5;stroke:#fa4616;stroke-linejoin:miter;stroke-opacity:0.5;"/>
    </g>
    <g id="text_14">
     <!-- $\sigma$ -->
     <g transform="translate(417.89143 41.097656)scale(0.15 -0.15)">
      <defs>
       <path d="M 2219 3044 
Q 1744 3044 1422 2700 
Q 1081 2341 969 1747 
Q 844 1119 1044 756 
Q 1241 397 1706 397 
Q 2166 397 2503 759 
Q 2844 1122 2966 1747 
Q 3075 2319 2881 2700 
Q 2700 3044 2219 3044 
z
M 2309 3503 
L 4219 3500 
L 4106 2925 
L 3463 2925 
Q 3706 2438 3575 1747 
Q 3406 888 2884 400 
Q 2359 -91 1609 -91 
Q 856 -91 525 400 
Q 194 888 363 1747 
Q 528 2609 1050 3097 
Q 1484 3503 2309 3503 
z
" id="DejaVuSans-Oblique-3c3" transform="scale(0.015625)"/>
      </defs>
      <use transform="translate(0 0.265625)" xlink:href="#DejaVuSans-Oblique-3c3"/>
     </g>
    </g>
   </g>
  </g>
  <g id="axes_2">
   <g id="patch_6">
    <path clip-path="url(#p3cdecd3a1d)" d="M 79.202882 246.822848 
L 101.962259 246.822848 
L 101.962259 224.991508 
L 79.202882 224.991508 
z
" style="fill:#0021a5;opacity:0.5;"/>
   </g>
   <g id="patch_7">
    <path clip-path="url(#p3cdecd3a1d)" d="M 79.202882 224.991508 
L 130.883226 224.991508 
L 130.883226 203.160169 
L 79.202882 203.160169 
z
" style="fill:#0021a5;opacity:0.5;"/>
   </g>
   <g id="patch_8">
    <path clip-path="url(#p3cdecd3a1d)" d="M 79.202882 203.160169 
L 141.088361 203.160169 
L 141.088361 181.32883 
L 79.202882 181.32883 
z
" style="fill:#0021a5;opacity:0.5;"/>
   </g>
   <g id="patch_9">
    <path clip-path="url(#p3cdecd3a1d)" d="M 79.202882 181.32883 
L 130.151537 181.32883 
L 130.151537 159.49749 
L 79.202882 159.49749 
z
" style="fill:#0021a5;opacity:0.5;"/>
   </g>
   <g id="patch_10">
    <path clip-path="url(#p3cdecd3a1d)" d="M 79.202882 159.49749 
L 116.711567 159.49749 
L 116.711567 137.666151 
L 79.202882 137.666151 
z
" style="fill:#0021a5;opacity:0.5;"/>
   </g>
   <g id="patch_11">
    <path clip-path="url(#p3cdecd3a1d)" d="M 79.202882 137.666151 
L 103.271597 137.666151 
L 103.271597 115.834812 
L 79.202882 115.834812 
z
" style="fill:#0021a5;opacity:0.5;"/>
   </g>
   <g id="patch_12">
    <path clip-path="url(#p3cdecd3a1d)" d="M 79.202882 115.834812 
L 93.413051 115.834812 
L 93.413051 94.003472 
L 79.202882 94.003472 
z
" style="fill:#0021a5;opacity:0.5;"/>
   </g>
   <g id="patch_13">
    <path clip-path="url(#p3cdecd3a1d)" d="M 79.202882 94.003472 
L 88.637819 94.003472 
L 88.637819 72.172133 
L 79.202882 72.172133 
z
" style="fill:#0021a5;opacity:0.5;"/>
   </g>
   <g id="patch_14">
    <path clip-path="url(#p3cdecd3a1d)" d="M 79.202882 72.172133 
L 82.938347 72.172133 
L 82.938347 50.340794 
L 79.202882 50.340794 
z
" style="fill:#0021a5;opacity:0.5;"/>
   </g>
   <g id="patch_15">
    <path clip-path="url(#p3cdecd3a1d)" d="M 79.202882 50.340794 
L 80.62775 50.340794 
L 80.62775 28.509455 
L 79.202882 28.509455 
z
" style="fill:#0021a5;opacity:0.5;"/>
   </g>
   <g id="patch_16">
    <path clip-path="url(#p3cdecd3a1d)" d="M 207.714416 247.590493 
L 231.513561 247.590493 
L 231.513561 231.731602 
L 207.714416 231.731602 
z
" style="fill:#0021a5;opacity:0.5;"/>
   </g>
   <g id="patch_17">
    <path clip-path="url(#p3cdecd3a1d)" d="M 207.714416 231.731602 
L 255.351216 231.731602 
L 255.351216 215.872712 
L 207.714416 215.872712 
z
" style="fill:#0021a5;opacity:0.5;"/>
   </g>
   <g id="patch_18">
    <path clip-path="url(#p3cdecd3a1d)" d="M 207.714416 215.872712 
L 264.015953 215.872712 
L 264.015953 200.013822 
L 207.714416 200.013822 
z
" style="fill:#0021a5;opacity:0.5;"/>
   </g>
   <g id="patch_19">
    <path clip-path="url(#p3cdecd3a1d)" d="M 207.714416 200.013822 
L 261.936416 200.013822 
L 261.936416 184.154931 
L 207.714416 184.154931 
z
" style="fill:#0021a5;opacity:0.5;"/>
   </g>
   <g id="patch_20">
    <path clip-path="url(#p3cdecd3a1d)" d="M 207.714416 184.154931 
L 249.343665 184.154931 
L 249.343665 168.296041 
L 207.714416 168.296041 
z
" style="fill:#0021a5;opacity:0.5;"/>
   </g>
   <g id="patch_21">
    <path clip-path="url(#p3cdecd3a1d)" d="M 207.714416 168.296041 
L 236.943463 168.296041 
L 236.943463 152.43715 
L 207.714416 152.43715 
z
" style="fill:#0021a5;opacity:0.5;"/>
   </g>
   <g id="patch_22">
    <path clip-path="url(#p3cdecd3a1d)" d="M 207.714416 152.43715 
L 225.35197 152.43715 
L 225.35197 136.57826 
L 207.714416 136.57826 
z
" style="fill:#0021a5;opacity:0.5;"/>
   </g>
   <g id="patch_23">
    <path clip-path="url(#p3cdecd3a1d)" d="M 207.714416 136.57826 
L 219.421439 136.57826 
L 219.421439 120.719369 
L 207.714416 120.719369 
z
" style="fill:#0021a5;opacity:0.5;"/>
   </g>
   <g id="patch_24">
    <path clip-path="url(#p3cdecd3a1d)" d="M 207.714416 120.719369 
L 215.493425 120.719369 
L 215.493425 104.860479 
L 207.714416 104.860479 
z
" style="fill:#0021a5;opacity:0.5;"/>
   </g>
   <g id="patch_25">
    <path clip-path="url(#p3cdecd3a1d)" d="M 207.714416 104.860479 
L 211.295841 104.860479 
L 211.295841 89.001589 
L 207.714416 89.001589 
z
" style="fill:#0021a5;opacity:0.5;"/>
   </g>
   <g id="patch_26">
    <path clip-path="url(#p3cdecd3a1d)" d="M 295.884426 268.43869 
L 322.148207 268.43869 
L 322.148207 259.3076 
L 295.884426 259.3076 
z
" style="fill:#0021a5;opacity:0.5;"/>
   </g>
   <g id="patch_27">
    <path clip-path="url(#p3cdecd3a1d)" d="M 295.884426 259.3076 
L 343.636755 259.3076 
L 343.636755 250.17651 
L 295.884426 250.17651 
z
" style="fill:#0021a5;opacity:0.5;"/>
   </g>
   <g id="patch_28">
    <path clip-path="url(#p3cdecd3a1d)" d="M 295.884426 250.17651 
L 358.039473 250.17651 
L 358.039473 241.045421 
L 295.884426 241.045421 
z
" style="fill:#0021a5;opacity:0.5;"/>
   </g>
   <g id="patch_29">
    <path clip-path="url(#p3cdecd3a1d)" d="M 295.884426 241.045421 
L 352.185962 241.045421 
L 352.185962 231.914331 
L 295.884426 231.914331 
z
" style="fill:#0021a5;opacity:0.5;"/>
   </g>
   <g id="patch_30">
    <path clip-path="url(#p3cdecd3a1d)" d="M 295.884426 231.914331 
L 331.621653 231.914331 
L 331.621653 222.783242 
L 295.884426 222.783242 
z
" style="fill:#0021a5;opacity:0.5;"/>
   </g>
   <g id="patch_31">
    <path clip-path="url(#p3cdecd3a1d)" d="M 295.884426 222.783242 
L 320.14569 222.783242 
L 320.14569 213.652152 
L 295.884426 213.652152 
z
" style="fill:#0021a5;opacity:0.5;"/>
   </g>
   <g id="patch_32">
    <path clip-path="url(#p3cdecd3a1d)" d="M 295.884426 213.652152 
L 310.710754 213.652152 
L 310.710754 204.521063 
L 295.884426 204.521063 
z
" style="fill:#0021a5;opacity:0.5;"/>
   </g>
   <g id="patch_33">
    <path clip-path="url(#p3cdecd3a1d)" d="M 295.884426 204.521063 
L 304.087043 204.521063 
L 304.087043 195.389973 
L 295.884426 195.389973 
z
" style="fill:#0021a5;opacity:0.5;"/>
   </g>
   <g id="patch_34">
    <path clip-path="url(#p3cdecd3a1d)" d="M 295.884426 195.389973 
L 299.080751 195.389973 
L 299.080751 186.258884 
L 295.884426 186.258884 
z
" style="fill:#0021a5;opacity:0.5;"/>
   </g>
   <g id="patch_35">
    <path clip-path="url(#p3cdecd3a1d)" d="M 295.884426 186.258884 
L 297.578863 186.258884 
L 297.578863 177.127794 
L 295.884426 177.127794 
z
" style="fill:#0021a5;opacity:0.5;"/>
   </g>
   <g id="matplotlib.axis_3"/>
   <g id="patch_36">
    <path d="M 55.892 287.008 
L 55.892 16.2 
" style="fill:none;stroke:#000000;stroke-linecap:square;stroke-linejoin:miter;stroke-width:0.8;"/>
   </g>
   <g id="patch_37">
    <path d="M 55.892 287.008 
L 440.99143 287.008 
" style="fill:none;stroke:#000000;stroke-linecap:square;stroke-linejoin:miter;stroke-width:0.8;"/>
   </g>
  </g>
 </g>
 <defs>
  <clipPath id="p3cdecd3a1d">
   <rect height="270.808" width="385.09943" x="55.892" y="16.2"/>
  </clipPath>
 </defs>
</svg>
