<?xml version="1.0" encoding="utf-8" standalone="no"?>
<!DOCTYPE svg PUBLIC "-//W3C//DTD SVG 1.1//EN"
  "http://www.w3.org/Graphics/SVG/1.1/DTD/svg11.dtd">
<svg height="720pt" version="1.1" viewBox="0 0 504 720" width="504pt" xmlns="http://www.w3.org/2000/svg" xmlns:xlink="http://www.w3.org/1999/xlink">
 <metadata>
  <rdf:RDF xmlns:cc="http://creativecommons.org/ns#" xmlns:dc="http://purl.org/dc/elements/1.1/" xmlns:rdf="http://www.w3.org/1999/02/22-rdf-syntax-ns#">
   <cc:Work>
    <dc:type rdf:resource="http://purl.org/dc/dcmitype/StillImage"/>
    <dc:date>2023-03-16T20:34:40.427223</dc:date>
    <dc:format>image/svg+xml</dc:format>
    <dc:creator>
     <cc:Agent>
      <dc:title>Matplotlib v3.4.3, https://matplotlib.org/</dc:title>
     </cc:Agent>
    </dc:creator>
   </cc:Work>
  </rdf:RDF>
 </metadata>
 <defs>
  <style type="text/css">*{stroke-linecap:butt;stroke-linejoin:round;}</style>
 </defs>
 <g id="figure_1">
  <g id="patch_1">
   <path d="M 0 720 
L 504 720 
L 504 0 
L 0 0 
z
" style="fill:#ffffff;"/>
  </g>
  <g id="axes_1">
   <g id="patch_2">
    <path d="M 16.2 98.784746 
L 487.8 98.784746 
L 487.8 55.683051 
L 16.2 55.683051 
z
" style="fill:#ffffff;"/>
   </g>
   <g id="patch_3">
    <path clip-path="url(#p38343762fd)" d="M 456.056582 98.784746 
L 456.571935 98.784746 
L 456.571935 97.914004 
L 456.056582 97.914004 
z
" style="fill:#8bd3e6;"/>
   </g>
   <g id="patch_4">
    <path clip-path="url(#p38343762fd)" d="M 456.571935 98.784746 
L 457.087288 98.784746 
L 457.087288 97.167655 
L 456.571935 97.167655 
z
" style="fill:#8bd3e6;"/>
   </g>
   <g id="patch_5">
    <path clip-path="url(#p38343762fd)" d="M 457.087288 98.784746 
L 457.60264 98.784746 
L 457.60264 93.68469 
L 457.087288 93.68469 
z
" style="fill:#8bd3e6;"/>
   </g>
   <g id="patch_6">
    <path clip-path="url(#p38343762fd)" d="M 457.60264 98.784746 
L 458.117993 98.784746 
L 458.117993 92.316382 
L 457.60264 92.316382 
z
" style="fill:#8bd3e6;"/>
   </g>
   <g id="patch_7">
    <path clip-path="url(#p38343762fd)" d="M 458.117993 98.784746 
L 458.633346 98.784746 
L 458.633346 85.723626 
L 458.117993 85.723626 
z
" style="fill:#8bd3e6;"/>
   </g>
   <g id="patch_8">
    <path clip-path="url(#p38343762fd)" d="M 458.633346 98.784746 
L 459.148699 98.784746 
L 459.148699 81.743094 
L 458.633346 81.743094 
z
" style="fill:#8bd3e6;"/>
   </g>
   <g id="patch_9">
    <path clip-path="url(#p38343762fd)" d="M 459.148699 98.784746 
L 459.664051 98.784746 
L 459.664051 70.174674 
L 459.148699 70.174674 
z
" style="fill:#8bd3e6;"/>
   </g>
   <g id="patch_10">
    <path clip-path="url(#p38343762fd)" d="M 459.664051 98.784746 
L 460.179404 98.784746 
L 460.179404 66.318534 
L 459.664051 66.318534 
z
" style="fill:#8bd3e6;"/>
   </g>
   <g id="patch_11">
    <path clip-path="url(#p38343762fd)" d="M 460.179404 98.784746 
L 460.694757 98.784746 
L 460.694757 57.735513 
L 460.179404 57.735513 
z
" style="fill:#8bd3e6;"/>
   </g>
   <g id="patch_12">
    <path clip-path="url(#p38343762fd)" d="M 460.694757 98.784746 
L 461.210109 98.784746 
L 461.210109 65.696576 
L 460.694757 65.696576 
z
" style="fill:#8bd3e6;"/>
   </g>
   <g id="patch_13">
    <path clip-path="url(#p38343762fd)" d="M 461.210109 98.784746 
L 461.725462 98.784746 
L 461.725462 62.95996 
L 461.210109 62.95996 
z
" style="fill:#8bd3e6;"/>
   </g>
   <g id="patch_14">
    <path clip-path="url(#p38343762fd)" d="M 461.725462 98.784746 
L 462.240815 98.784746 
L 462.240815 66.318534 
L 461.725462 66.318534 
z
" style="fill:#8bd3e6;"/>
   </g>
   <g id="patch_15">
    <path clip-path="url(#p38343762fd)" d="M 462.240815 98.784746 
L 462.756167 98.784746 
L 462.756167 77.389388 
L 462.240815 77.389388 
z
" style="fill:#8bd3e6;"/>
   </g>
   <g id="patch_16">
    <path clip-path="url(#p38343762fd)" d="M 462.756167 98.784746 
L 463.27152 98.784746 
L 463.27152 79.006479 
L 462.756167 79.006479 
z
" style="fill:#8bd3e6;"/>
   </g>
   <g id="patch_17">
    <path clip-path="url(#p38343762fd)" d="M 463.27152 98.784746 
L 463.786873 98.784746 
L 463.786873 88.33585 
L 463.27152 88.33585 
z
" style="fill:#8bd3e6;"/>
   </g>
   <g id="patch_18">
    <path clip-path="url(#p38343762fd)" d="M 463.786873 98.784746 
L 464.302226 98.784746 
L 464.302226 92.813948 
L 463.786873 92.813948 
z
" style="fill:#8bd3e6;"/>
   </g>
   <g id="patch_19">
    <path clip-path="url(#p38343762fd)" d="M 464.302226 98.784746 
L 464.817578 98.784746 
L 464.817578 95.674955 
L 464.302226 95.674955 
z
" style="fill:#8bd3e6;"/>
   </g>
   <g id="patch_20">
    <path clip-path="url(#p38343762fd)" d="M 464.817578 98.784746 
L 465.332931 98.784746 
L 465.332931 97.54083 
L 464.817578 97.54083 
z
" style="fill:#8bd3e6;"/>
   </g>
   <g id="patch_21">
    <path clip-path="url(#p38343762fd)" d="M 465.332931 98.784746 
L 465.848284 98.784746 
L 465.848284 97.665221 
L 465.332931 97.665221 
z
" style="fill:#8bd3e6;"/>
   </g>
   <g id="patch_22">
    <path clip-path="url(#p38343762fd)" d="M 465.848284 98.784746 
L 466.363636 98.784746 
L 466.363636 98.535963 
L 465.848284 98.535963 
z
" style="fill:#8bd3e6;"/>
   </g>
   <g id="matplotlib.axis_1">
    <g id="xtick_1">
     <g id="line2d_1">
      <defs>
       <path d="M 0 0 
L 0 3.5 
" id="mb13fe2debf" style="stroke:#000000;stroke-width:0.8;"/>
      </defs>
      <g>
       <use style="stroke:#000000;stroke-width:0.8;" x="85.629946" xlink:href="#mb13fe2debf" y="98.784746"/>
      </g>
     </g>
    </g>
    <g id="xtick_2">
     <g id="line2d_2">
      <g>
       <use style="stroke:#000000;stroke-width:0.8;" x="172.756354" xlink:href="#mb13fe2debf" y="98.784746"/>
      </g>
     </g>
    </g>
    <g id="xtick_3">
     <g id="line2d_3">
      <g>
       <use style="stroke:#000000;stroke-width:0.8;" x="259.882762" xlink:href="#mb13fe2debf" y="98.784746"/>
      </g>
     </g>
    </g>
    <g id="xtick_4">
     <g id="line2d_4">
      <g>
       <use style="stroke:#000000;stroke-width:0.8;" x="347.00917" xlink:href="#mb13fe2debf" y="98.784746"/>
      </g>
     </g>
    </g>
    <g id="xtick_5">
     <g id="line2d_5">
      <g>
       <use style="stroke:#000000;stroke-width:0.8;" x="434.135578" xlink:href="#mb13fe2debf" y="98.784746"/>
      </g>
     </g>
    </g>
   </g>
   <g id="line2d_6">
    <path clip-path="url(#p38343762fd)" d="M 456.056582 98.212285 
L 456.469936 97.640837 
L 456.870921 96.675557 
L 457.288398 95.037811 
L 457.741954 92.275647 
L 458.261482 87.608929 
L 458.939754 79.257425 
L 460.227233 63.185048 
L 460.622033 60.830268 
L 460.864273 60.393121 
L 460.992093 60.488461 
L 461.169392 60.990574 
L 461.438433 62.532541 
L 461.837356 66.299463 
L 462.535214 75.417676 
L 463.590762 88.597036 
L 464.194815 93.489395 
L 464.718466 96.082175 
L 465.200884 97.45088 
L 465.668871 98.163499 
L 466.166752 98.531742 
L 466.363636 98.61164 
L 466.363636 98.61164 
" style="fill:none;stroke:#ff5733;stroke-linecap:square;"/>
   </g>
   <g id="patch_23">
    <path d="M 16.2 98.784746 
L 487.8 98.784746 
" style="fill:none;stroke:#000000;stroke-linecap:square;stroke-linejoin:miter;stroke-width:0.8;"/>
   </g>
   <g id="text_1">
    <!-- 0 ng/mL EGF -->
    <g transform="translate(16.2 67.511724)scale(0.15 -0.15)">
     <defs>
      <path d="M 2034 4250 
Q 1547 4250 1301 3770 
Q 1056 3291 1056 2328 
Q 1056 1369 1301 889 
Q 1547 409 2034 409 
Q 2525 409 2770 889 
Q 3016 1369 3016 2328 
Q 3016 3291 2770 3770 
Q 2525 4250 2034 4250 
z
M 2034 4750 
Q 2819 4750 3233 4129 
Q 3647 3509 3647 2328 
Q 3647 1150 3233 529 
Q 2819 -91 2034 -91 
Q 1250 -91 836 529 
Q 422 1150 422 2328 
Q 422 3509 836 4129 
Q 1250 4750 2034 4750 
z
" id="DejaVuSans-30" transform="scale(0.015625)"/>
      <path id="DejaVuSans-20" transform="scale(0.015625)"/>
      <path d="M 3513 2113 
L 3513 0 
L 2938 0 
L 2938 2094 
Q 2938 2591 2744 2837 
Q 2550 3084 2163 3084 
Q 1697 3084 1428 2787 
Q 1159 2491 1159 1978 
L 1159 0 
L 581 0 
L 581 3500 
L 1159 3500 
L 1159 2956 
Q 1366 3272 1645 3428 
Q 1925 3584 2291 3584 
Q 2894 3584 3203 3211 
Q 3513 2838 3513 2113 
z
" id="DejaVuSans-6e" transform="scale(0.015625)"/>
      <path d="M 2906 1791 
Q 2906 2416 2648 2759 
Q 2391 3103 1925 3103 
Q 1463 3103 1205 2759 
Q 947 2416 947 1791 
Q 947 1169 1205 825 
Q 1463 481 1925 481 
Q 2391 481 2648 825 
Q 2906 1169 2906 1791 
z
M 3481 434 
Q 3481 -459 3084 -895 
Q 2688 -1331 1869 -1331 
Q 1566 -1331 1297 -1286 
Q 1028 -1241 775 -1147 
L 775 -588 
Q 1028 -725 1275 -790 
Q 1522 -856 1778 -856 
Q 2344 -856 2625 -561 
Q 2906 -266 2906 331 
L 2906 616 
Q 2728 306 2450 153 
Q 2172 0 1784 0 
Q 1141 0 747 490 
Q 353 981 353 1791 
Q 353 2603 747 3093 
Q 1141 3584 1784 3584 
Q 2172 3584 2450 3431 
Q 2728 3278 2906 2969 
L 2906 3500 
L 3481 3500 
L 3481 434 
z
" id="DejaVuSans-67" transform="scale(0.015625)"/>
      <path d="M 1625 4666 
L 2156 4666 
L 531 -594 
L 0 -594 
L 1625 4666 
z
" id="DejaVuSans-2f" transform="scale(0.015625)"/>
      <path d="M 3328 2828 
Q 3544 3216 3844 3400 
Q 4144 3584 4550 3584 
Q 5097 3584 5394 3201 
Q 5691 2819 5691 2113 
L 5691 0 
L 5113 0 
L 5113 2094 
Q 5113 2597 4934 2840 
Q 4756 3084 4391 3084 
Q 3944 3084 3684 2787 
Q 3425 2491 3425 1978 
L 3425 0 
L 2847 0 
L 2847 2094 
Q 2847 2600 2669 2842 
Q 2491 3084 2119 3084 
Q 1678 3084 1418 2786 
Q 1159 2488 1159 1978 
L 1159 0 
L 581 0 
L 581 3500 
L 1159 3500 
L 1159 2956 
Q 1356 3278 1631 3431 
Q 1906 3584 2284 3584 
Q 2666 3584 2933 3390 
Q 3200 3197 3328 2828 
z
" id="DejaVuSans-6d" transform="scale(0.015625)"/>
      <path d="M 628 4666 
L 1259 4666 
L 1259 531 
L 3531 531 
L 3531 0 
L 628 0 
L 628 4666 
z
" id="DejaVuSans-4c" transform="scale(0.015625)"/>
      <path d="M 628 4666 
L 3578 4666 
L 3578 4134 
L 1259 4134 
L 1259 2753 
L 3481 2753 
L 3481 2222 
L 1259 2222 
L 1259 531 
L 3634 531 
L 3634 0 
L 628 0 
L 628 4666 
z
" id="DejaVuSans-45" transform="scale(0.015625)"/>
      <path d="M 3809 666 
L 3809 1919 
L 2778 1919 
L 2778 2438 
L 4434 2438 
L 4434 434 
Q 4069 175 3628 42 
Q 3188 -91 2688 -91 
Q 1594 -91 976 548 
Q 359 1188 359 2328 
Q 359 3472 976 4111 
Q 1594 4750 2688 4750 
Q 3144 4750 3555 4637 
Q 3966 4525 4313 4306 
L 4313 3634 
Q 3963 3931 3569 4081 
Q 3175 4231 2741 4231 
Q 1884 4231 1454 3753 
Q 1025 3275 1025 2328 
Q 1025 1384 1454 906 
Q 1884 428 2741 428 
Q 3075 428 3337 486 
Q 3600 544 3809 666 
z
" id="DejaVuSans-47" transform="scale(0.015625)"/>
      <path d="M 628 4666 
L 3309 4666 
L 3309 4134 
L 1259 4134 
L 1259 2759 
L 3109 2759 
L 3109 2228 
L 1259 2228 
L 1259 0 
L 628 0 
L 628 4666 
z
" id="DejaVuSans-46" transform="scale(0.015625)"/>
     </defs>
     <use xlink:href="#DejaVuSans-30"/>
     <use x="63.623047" xlink:href="#DejaVuSans-20"/>
     <use x="95.410156" xlink:href="#DejaVuSans-6e"/>
     <use x="158.789062" xlink:href="#DejaVuSans-67"/>
     <use x="222.265625" xlink:href="#DejaVuSans-2f"/>
     <use x="255.957031" xlink:href="#DejaVuSans-6d"/>
     <use x="353.369141" xlink:href="#DejaVuSans-4c"/>
     <use x="409.082031" xlink:href="#DejaVuSans-20"/>
     <use x="440.869141" xlink:href="#DejaVuSans-45"/>
     <use x="504.052734" xlink:href="#DejaVuSans-47"/>
     <use x="581.542969" xlink:href="#DejaVuSans-46"/>
    </g>
   </g>
   <g id="legend_1">
    <g id="patch_24">
     <path d="M 146.538281 37.479012 
L 176.538281 37.479012 
L 176.538281 26.979012 
L 146.538281 26.979012 
z
" style="fill:#8bd3e6;stroke:#8bd3e6;stroke-linejoin:miter;"/>
    </g>
    <g id="text_2">
     <!-- Gillespie -->
     <g transform="translate(188.538281 37.479012)scale(0.15 -0.15)">
      <defs>
       <path d="M 603 3500 
L 1178 3500 
L 1178 0 
L 603 0 
L 603 3500 
z
M 603 4863 
L 1178 4863 
L 1178 4134 
L 603 4134 
L 603 4863 
z
" id="DejaVuSans-69" transform="scale(0.015625)"/>
       <path d="M 603 4863 
L 1178 4863 
L 1178 0 
L 603 0 
L 603 4863 
z
" id="DejaVuSans-6c" transform="scale(0.015625)"/>
       <path d="M 3597 1894 
L 3597 1613 
L 953 1613 
Q 991 1019 1311 708 
Q 1631 397 2203 397 
Q 2534 397 2845 478 
Q 3156 559 3463 722 
L 3463 178 
Q 3153 47 2828 -22 
Q 2503 -91 2169 -91 
Q 1331 -91 842 396 
Q 353 884 353 1716 
Q 353 2575 817 3079 
Q 1281 3584 2069 3584 
Q 2775 3584 3186 3129 
Q 3597 2675 3597 1894 
z
M 3022 2063 
Q 3016 2534 2758 2815 
Q 2500 3097 2075 3097 
Q 1594 3097 1305 2825 
Q 1016 2553 972 2059 
L 3022 2063 
z
" id="DejaVuSans-65" transform="scale(0.015625)"/>
       <path d="M 2834 3397 
L 2834 2853 
Q 2591 2978 2328 3040 
Q 2066 3103 1784 3103 
Q 1356 3103 1142 2972 
Q 928 2841 928 2578 
Q 928 2378 1081 2264 
Q 1234 2150 1697 2047 
L 1894 2003 
Q 2506 1872 2764 1633 
Q 3022 1394 3022 966 
Q 3022 478 2636 193 
Q 2250 -91 1575 -91 
Q 1294 -91 989 -36 
Q 684 19 347 128 
L 347 722 
Q 666 556 975 473 
Q 1284 391 1588 391 
Q 1994 391 2212 530 
Q 2431 669 2431 922 
Q 2431 1156 2273 1281 
Q 2116 1406 1581 1522 
L 1381 1569 
Q 847 1681 609 1914 
Q 372 2147 372 2553 
Q 372 3047 722 3315 
Q 1072 3584 1716 3584 
Q 2034 3584 2315 3537 
Q 2597 3491 2834 3397 
z
" id="DejaVuSans-73" transform="scale(0.015625)"/>
       <path d="M 1159 525 
L 1159 -1331 
L 581 -1331 
L 581 3500 
L 1159 3500 
L 1159 2969 
Q 1341 3281 1617 3432 
Q 1894 3584 2278 3584 
Q 2916 3584 3314 3078 
Q 3713 2572 3713 1747 
Q 3713 922 3314 415 
Q 2916 -91 2278 -91 
Q 1894 -91 1617 61 
Q 1341 213 1159 525 
z
M 3116 1747 
Q 3116 2381 2855 2742 
Q 2594 3103 2138 3103 
Q 1681 3103 1420 2742 
Q 1159 2381 1159 1747 
Q 1159 1113 1420 752 
Q 1681 391 2138 391 
Q 2594 391 2855 752 
Q 3116 1113 3116 1747 
z
" id="DejaVuSans-70" transform="scale(0.015625)"/>
      </defs>
      <use xlink:href="#DejaVuSans-47"/>
      <use x="77.490234" xlink:href="#DejaVuSans-69"/>
      <use x="105.273438" xlink:href="#DejaVuSans-6c"/>
      <use x="133.056641" xlink:href="#DejaVuSans-6c"/>
      <use x="160.839844" xlink:href="#DejaVuSans-65"/>
      <use x="222.363281" xlink:href="#DejaVuSans-73"/>
      <use x="274.462891" xlink:href="#DejaVuSans-70"/>
      <use x="337.939453" xlink:href="#DejaVuSans-69"/>
      <use x="365.722656" xlink:href="#DejaVuSans-65"/>
     </g>
    </g>
    <g id="line2d_7">
     <path d="M 282.625781 32.229012 
L 312.625781 32.229012 
" style="fill:none;stroke:#ff5733;stroke-linecap:square;"/>
    </g>
    <g id="line2d_8"/>
    <g id="text_3">
     <!-- ODE -->
     <g transform="translate(324.625781 37.479012)scale(0.15 -0.15)">
      <defs>
       <path d="M 2522 4238 
Q 1834 4238 1429 3725 
Q 1025 3213 1025 2328 
Q 1025 1447 1429 934 
Q 1834 422 2522 422 
Q 3209 422 3611 934 
Q 4013 1447 4013 2328 
Q 4013 3213 3611 3725 
Q 3209 4238 2522 4238 
z
M 2522 4750 
Q 3503 4750 4090 4092 
Q 4678 3434 4678 2328 
Q 4678 1225 4090 567 
Q 3503 -91 2522 -91 
Q 1538 -91 948 565 
Q 359 1222 359 2328 
Q 359 3434 948 4092 
Q 1538 4750 2522 4750 
z
" id="DejaVuSans-4f" transform="scale(0.015625)"/>
       <path d="M 1259 4147 
L 1259 519 
L 2022 519 
Q 2988 519 3436 956 
Q 3884 1394 3884 2338 
Q 3884 3275 3436 3711 
Q 2988 4147 2022 4147 
L 1259 4147 
z
M 628 4666 
L 1925 4666 
Q 3281 4666 3915 4102 
Q 4550 3538 4550 2338 
Q 4550 1131 3912 565 
Q 3275 0 1925 0 
L 628 0 
L 628 4666 
z
" id="DejaVuSans-44" transform="scale(0.015625)"/>
      </defs>
      <use xlink:href="#DejaVuSans-4f"/>
      <use x="78.710938" xlink:href="#DejaVuSans-44"/>
      <use x="155.712891" xlink:href="#DejaVuSans-45"/>
     </g>
    </g>
   </g>
  </g>
  <g id="axes_2">
   <g id="patch_25">
    <path d="M 16.2 161.586441 
L 487.8 161.586441 
L 487.8 118.484746 
L 16.2 118.484746 
z
" style="fill:#ffffff;"/>
   </g>
   <g id="patch_26">
    <path clip-path="url(#p638f693331)" d="M 450.972756 161.586441 
L 451.522524 161.586441 
L 451.522524 161.337935 
L 450.972756 161.337935 
z
" style="fill:#8bd3e6;"/>
   </g>
   <g id="patch_27">
    <path clip-path="url(#p638f693331)" d="M 451.522524 161.586441 
L 452.072292 161.586441 
L 452.072292 160.965176 
L 451.522524 160.965176 
z
" style="fill:#8bd3e6;"/>
   </g>
   <g id="patch_28">
    <path clip-path="url(#p638f693331)" d="M 452.072292 161.586441 
L 452.622059 161.586441 
L 452.622059 160.468165 
L 452.072292 160.468165 
z
" style="fill:#8bd3e6;"/>
   </g>
   <g id="patch_29">
    <path clip-path="url(#p638f693331)" d="M 452.622059 161.586441 
L 453.171827 161.586441 
L 453.171827 158.355866 
L 452.622059 158.355866 
z
" style="fill:#8bd3e6;"/>
   </g>
   <g id="patch_30">
    <path clip-path="url(#p638f693331)" d="M 453.171827 161.586441 
L 453.721595 161.586441 
L 453.721595 154.131268 
L 453.171827 154.131268 
z
" style="fill:#8bd3e6;"/>
   </g>
   <g id="patch_31">
    <path clip-path="url(#p638f693331)" d="M 453.721595 161.586441 
L 454.271362 161.586441 
L 454.271362 150.155175 
L 453.721595 150.155175 
z
" style="fill:#8bd3e6;"/>
   </g>
   <g id="patch_32">
    <path clip-path="url(#p638f693331)" d="M 454.271362 161.586441 
L 454.82113 161.586441 
L 454.82113 140.587703 
L 454.271362 140.587703 
z
" style="fill:#8bd3e6;"/>
   </g>
   <g id="patch_33">
    <path clip-path="url(#p638f693331)" d="M 454.82113 161.586441 
L 455.370897 161.586441 
L 455.370897 134.375059 
L 454.82113 134.375059 
z
" style="fill:#8bd3e6;"/>
   </g>
   <g id="patch_34">
    <path clip-path="url(#p638f693331)" d="M 455.370897 161.586441 
L 455.920665 161.586441 
L 455.920665 127.044139 
L 455.370897 127.044139 
z
" style="fill:#8bd3e6;"/>
   </g>
   <g id="patch_35">
    <path clip-path="url(#p638f693331)" d="M 455.920665 161.586441 
L 456.470433 161.586441 
L 456.470433 123.068047 
L 455.920665 123.068047 
z
" style="fill:#8bd3e6;"/>
   </g>
   <g id="patch_36">
    <path clip-path="url(#p638f693331)" d="M 456.470433 161.586441 
L 457.0202 161.586441 
L 457.0202 126.422875 
L 456.470433 126.422875 
z
" style="fill:#8bd3e6;"/>
   </g>
   <g id="patch_37">
    <path clip-path="url(#p638f693331)" d="M 457.0202 161.586441 
L 457.569968 161.586441 
L 457.569968 123.565058 
L 457.0202 123.565058 
z
" style="fill:#8bd3e6;"/>
   </g>
   <g id="patch_38">
    <path clip-path="url(#p638f693331)" d="M 457.569968 161.586441 
L 458.119736 161.586441 
L 458.119736 129.032185 
L 457.569968 129.032185 
z
" style="fill:#8bd3e6;"/>
   </g>
   <g id="patch_39">
    <path clip-path="url(#p638f693331)" d="M 458.119736 161.586441 
L 458.669503 161.586441 
L 458.669503 136.238852 
L 458.119736 136.238852 
z
" style="fill:#8bd3e6;"/>
   </g>
   <g id="patch_40">
    <path clip-path="url(#p638f693331)" d="M 458.669503 161.586441 
L 459.219271 161.586441 
L 459.219271 148.042876 
L 458.669503 148.042876 
z
" style="fill:#8bd3e6;"/>
   </g>
   <g id="patch_41">
    <path clip-path="url(#p638f693331)" d="M 459.219271 161.586441 
L 459.769039 161.586441 
L 459.769039 152.018969 
L 459.219271 152.018969 
z
" style="fill:#8bd3e6;"/>
   </g>
   <g id="patch_42">
    <path clip-path="url(#p638f693331)" d="M 459.769039 161.586441 
L 460.318806 161.586441 
L 460.318806 155.498049 
L 459.769039 155.498049 
z
" style="fill:#8bd3e6;"/>
   </g>
   <g id="patch_43">
    <path clip-path="url(#p638f693331)" d="M 460.318806 161.586441 
L 460.868574 161.586441 
L 460.868574 158.97713 
L 460.318806 158.97713 
z
" style="fill:#8bd3e6;"/>
   </g>
   <g id="patch_44">
    <path clip-path="url(#p638f693331)" d="M 460.868574 161.586441 
L 461.418341 161.586441 
L 461.418341 159.8469 
L 460.868574 159.8469 
z
" style="fill:#8bd3e6;"/>
   </g>
   <g id="patch_45">
    <path clip-path="url(#p638f693331)" d="M 461.418341 161.586441 
L 461.968109 161.586441 
L 461.968109 160.965176 
L 461.418341 160.965176 
z
" style="fill:#8bd3e6;"/>
   </g>
   <g id="matplotlib.axis_2">
    <g id="xtick_6">
     <g id="line2d_9">
      <g>
       <use style="stroke:#000000;stroke-width:0.8;" x="85.629946" xlink:href="#mb13fe2debf" y="161.586441"/>
      </g>
     </g>
    </g>
    <g id="xtick_7">
     <g id="line2d_10">
      <g>
       <use style="stroke:#000000;stroke-width:0.8;" x="172.756354" xlink:href="#mb13fe2debf" y="161.586441"/>
      </g>
     </g>
    </g>
    <g id="xtick_8">
     <g id="line2d_11">
      <g>
       <use style="stroke:#000000;stroke-width:0.8;" x="259.882762" xlink:href="#mb13fe2debf" y="161.586441"/>
      </g>
     </g>
    </g>
    <g id="xtick_9">
     <g id="line2d_12">
      <g>
       <use style="stroke:#000000;stroke-width:0.8;" x="347.00917" xlink:href="#mb13fe2debf" y="161.586441"/>
      </g>
     </g>
    </g>
    <g id="xtick_10">
     <g id="line2d_13">
      <g>
       <use style="stroke:#000000;stroke-width:0.8;" x="434.135578" xlink:href="#mb13fe2debf" y="161.586441"/>
      </g>
     </g>
    </g>
   </g>
   <g id="line2d_14">
    <path clip-path="url(#p638f693331)" d="M 450.972756 161.453708 
L 451.543472 161.183164 
L 451.974533 160.724383 
L 452.371505 159.953076 
L 452.775075 158.639081 
L 453.205036 156.410929 
L 453.682282 152.656085 
L 454.251898 146.233103 
L 455.232782 132.024973 
L 455.933256 123.510959 
L 456.326929 120.999545 
L 456.567751 120.537804 
L 456.690912 120.634271 
L 456.864656 121.150215 
L 457.12967 122.752203 
L 457.523343 126.693852 
L 458.204023 136.182226 
L 459.286074 150.715113 
L 459.88868 155.942187 
L 460.411011 158.708974 
L 460.891556 160.166448 
L 461.355607 160.922694 
L 461.843849 161.312033 
L 461.968109 161.370237 
L 461.968109 161.370237 
" style="fill:none;stroke:#ff5733;stroke-linecap:square;"/>
   </g>
   <g id="patch_46">
    <path d="M 16.2 161.586441 
L 487.8 161.586441 
" style="fill:none;stroke:#000000;stroke-linecap:square;stroke-linejoin:miter;stroke-width:0.8;"/>
   </g>
   <g id="text_4">
    <!-- 0.008 ng/mL EGF -->
    <g transform="translate(16.2 130.313419)scale(0.15 -0.15)">
     <defs>
      <path d="M 684 794 
L 1344 794 
L 1344 0 
L 684 0 
L 684 794 
z
" id="DejaVuSans-2e" transform="scale(0.015625)"/>
      <path d="M 2034 2216 
Q 1584 2216 1326 1975 
Q 1069 1734 1069 1313 
Q 1069 891 1326 650 
Q 1584 409 2034 409 
Q 2484 409 2743 651 
Q 3003 894 3003 1313 
Q 3003 1734 2745 1975 
Q 2488 2216 2034 2216 
z
M 1403 2484 
Q 997 2584 770 2862 
Q 544 3141 544 3541 
Q 544 4100 942 4425 
Q 1341 4750 2034 4750 
Q 2731 4750 3128 4425 
Q 3525 4100 3525 3541 
Q 3525 3141 3298 2862 
Q 3072 2584 2669 2484 
Q 3125 2378 3379 2068 
Q 3634 1759 3634 1313 
Q 3634 634 3220 271 
Q 2806 -91 2034 -91 
Q 1263 -91 848 271 
Q 434 634 434 1313 
Q 434 1759 690 2068 
Q 947 2378 1403 2484 
z
M 1172 3481 
Q 1172 3119 1398 2916 
Q 1625 2713 2034 2713 
Q 2441 2713 2670 2916 
Q 2900 3119 2900 3481 
Q 2900 3844 2670 4047 
Q 2441 4250 2034 4250 
Q 1625 4250 1398 4047 
Q 1172 3844 1172 3481 
z
" id="DejaVuSans-38" transform="scale(0.015625)"/>
     </defs>
     <use xlink:href="#DejaVuSans-30"/>
     <use x="63.623047" xlink:href="#DejaVuSans-2e"/>
     <use x="95.410156" xlink:href="#DejaVuSans-30"/>
     <use x="159.033203" xlink:href="#DejaVuSans-30"/>
     <use x="222.65625" xlink:href="#DejaVuSans-38"/>
     <use x="286.279297" xlink:href="#DejaVuSans-20"/>
     <use x="318.066406" xlink:href="#DejaVuSans-6e"/>
     <use x="381.445312" xlink:href="#DejaVuSans-67"/>
     <use x="444.921875" xlink:href="#DejaVuSans-2f"/>
     <use x="478.613281" xlink:href="#DejaVuSans-6d"/>
     <use x="576.025391" xlink:href="#DejaVuSans-4c"/>
     <use x="631.738281" xlink:href="#DejaVuSans-20"/>
     <use x="663.525391" xlink:href="#DejaVuSans-45"/>
     <use x="726.708984" xlink:href="#DejaVuSans-47"/>
     <use x="804.199219" xlink:href="#DejaVuSans-46"/>
    </g>
   </g>
  </g>
  <g id="axes_3">
   <g id="patch_47">
    <path d="M 16.2 224.388136 
L 487.8 224.388136 
L 487.8 181.286441 
L 16.2 181.286441 
z
" style="fill:#ffffff;"/>
   </g>
   <g id="patch_48">
    <path clip-path="url(#pe084781b9e)" d="M 446.228723 224.388136 
L 446.835559 224.388136 
L 446.835559 224.173779 
L 446.228723 224.173779 
z
" style="fill:#8bd3e6;"/>
   </g>
   <g id="patch_49">
    <path clip-path="url(#pe084781b9e)" d="M 446.835559 224.388136 
L 447.442394 224.388136 
L 447.442394 224.173779 
L 446.835559 224.173779 
z
" style="fill:#8bd3e6;"/>
   </g>
   <g id="patch_50">
    <path clip-path="url(#pe084781b9e)" d="M 447.442394 224.388136 
L 448.04923 224.388136 
L 448.04923 223.959423 
L 447.442394 223.959423 
z
" style="fill:#8bd3e6;"/>
   </g>
   <g id="patch_51">
    <path clip-path="url(#pe084781b9e)" d="M 448.04923 224.388136 
L 448.656065 224.388136 
L 448.656065 222.887641 
L 448.04923 222.887641 
z
" style="fill:#8bd3e6;"/>
   </g>
   <g id="patch_52">
    <path clip-path="url(#pe084781b9e)" d="M 448.656065 224.388136 
L 449.262901 224.388136 
L 449.262901 220.851256 
L 448.656065 220.851256 
z
" style="fill:#8bd3e6;"/>
   </g>
   <g id="patch_53">
    <path clip-path="url(#pe084781b9e)" d="M 449.262901 224.388136 
L 449.869736 224.388136 
L 449.869736 213.241608 
L 449.262901 213.241608 
z
" style="fill:#8bd3e6;"/>
   </g>
   <g id="patch_54">
    <path clip-path="url(#pe084781b9e)" d="M 449.869736 224.388136 
L 450.476571 224.388136 
L 450.476571 206.810918 
L 449.869736 206.810918 
z
" style="fill:#8bd3e6;"/>
   </g>
   <g id="patch_55">
    <path clip-path="url(#pe084781b9e)" d="M 450.476571 224.388136 
L 451.083407 224.388136 
L 451.083407 201.45201 
L 450.476571 201.45201 
z
" style="fill:#8bd3e6;"/>
   </g>
   <g id="patch_56">
    <path clip-path="url(#pe084781b9e)" d="M 451.083407 224.388136 
L 451.690242 224.388136 
L 451.690242 190.305482 
L 451.083407 190.305482 
z
" style="fill:#8bd3e6;"/>
   </g>
   <g id="patch_57">
    <path clip-path="url(#pe084781b9e)" d="M 451.690242 224.388136 
L 452.297078 224.388136 
L 452.297078 183.338902 
L 451.690242 183.338902 
z
" style="fill:#8bd3e6;"/>
   </g>
   <g id="patch_58">
    <path clip-path="url(#pe084781b9e)" d="M 452.297078 224.388136 
L 452.903913 224.388136 
L 452.903913 185.696822 
L 452.297078 185.696822 
z
" style="fill:#8bd3e6;"/>
   </g>
   <g id="patch_59">
    <path clip-path="url(#pe084781b9e)" d="M 452.903913 224.388136 
L 453.510749 224.388136 
L 453.510749 190.519839 
L 452.903913 190.519839 
z
" style="fill:#8bd3e6;"/>
   </g>
   <g id="patch_60">
    <path clip-path="url(#pe084781b9e)" d="M 453.510749 224.388136 
L 454.117584 224.388136 
L 454.117584 200.165873 
L 453.510749 200.165873 
z
" style="fill:#8bd3e6;"/>
   </g>
   <g id="patch_61">
    <path clip-path="url(#pe084781b9e)" d="M 454.117584 224.388136 
L 454.72442 224.388136 
L 454.72442 206.489384 
L 454.117584 206.489384 
z
" style="fill:#8bd3e6;"/>
   </g>
   <g id="patch_62">
    <path clip-path="url(#pe084781b9e)" d="M 454.72442 224.388136 
L 455.331255 224.388136 
L 455.331255 213.777498 
L 454.72442 213.777498 
z
" style="fill:#8bd3e6;"/>
   </g>
   <g id="patch_63">
    <path clip-path="url(#pe084781b9e)" d="M 455.331255 224.388136 
L 455.93809 224.388136 
L 455.93809 218.92205 
L 455.331255 218.92205 
z
" style="fill:#8bd3e6;"/>
   </g>
   <g id="patch_64">
    <path clip-path="url(#pe084781b9e)" d="M 455.93809 224.388136 
L 456.544926 224.388136 
L 456.544926 221.601504 
L 455.93809 221.601504 
z
" style="fill:#8bd3e6;"/>
   </g>
   <g id="patch_65">
    <path clip-path="url(#pe084781b9e)" d="M 456.544926 224.388136 
L 457.151761 224.388136 
L 457.151761 223.101998 
L 456.544926 223.101998 
z
" style="fill:#8bd3e6;"/>
   </g>
   <g id="patch_66">
    <path clip-path="url(#pe084781b9e)" d="M 457.151761 224.388136 
L 457.758597 224.388136 
L 457.758597 224.173779 
L 457.151761 224.173779 
z
" style="fill:#8bd3e6;"/>
   </g>
   <g id="patch_67">
    <path clip-path="url(#pe084781b9e)" d="M 457.758597 224.388136 
L 458.365432 224.388136 
L 458.365432 224.173779 
L 457.758597 224.173779 
z
" style="fill:#8bd3e6;"/>
   </g>
   <g id="matplotlib.axis_3">
    <g id="xtick_11">
     <g id="line2d_15">
      <g>
       <use style="stroke:#000000;stroke-width:0.8;" x="85.629946" xlink:href="#mb13fe2debf" y="224.388136"/>
      </g>
     </g>
    </g>
    <g id="xtick_12">
     <g id="line2d_16">
      <g>
       <use style="stroke:#000000;stroke-width:0.8;" x="172.756354" xlink:href="#mb13fe2debf" y="224.388136"/>
      </g>
     </g>
    </g>
    <g id="xtick_13">
     <g id="line2d_17">
      <g>
       <use style="stroke:#000000;stroke-width:0.8;" x="259.882762" xlink:href="#mb13fe2debf" y="224.388136"/>
      </g>
     </g>
    </g>
    <g id="xtick_14">
     <g id="line2d_18">
      <g>
       <use style="stroke:#000000;stroke-width:0.8;" x="347.00917" xlink:href="#mb13fe2debf" y="224.388136"/>
      </g>
     </g>
    </g>
    <g id="xtick_15">
     <g id="line2d_19">
      <g>
       <use style="stroke:#000000;stroke-width:0.8;" x="434.135578" xlink:href="#mb13fe2debf" y="224.388136"/>
      </g>
     </g>
    </g>
   </g>
   <g id="line2d_20">
    <path clip-path="url(#pe084781b9e)" d="M 446.228723 224.349668 
L 447.060171 224.165784 
L 447.554185 223.829812 
L 447.96566 223.26638 
L 448.363784 222.312569 
L 448.777687 220.690266 
L 449.22679 217.946654 
L 449.739011 213.311008 
L 450.399314 205.06908 
L 451.751478 187.78659 
L 452.135037 185.552687 
L 452.366871 185.173566 
L 452.491891 185.287684 
L 452.672746 185.843603 
L 452.948277 187.531157 
L 453.357325 191.618113 
L 454.106235 201.822627 
L 455.073628 214.080993 
L 455.673241 219.039384 
L 456.193958 221.665211 
L 456.67462 223.049581 
L 457.140716 223.767212 
L 457.634729 224.135564 
L 458.269543 224.318236 
L 458.365432 224.331284 
L 458.365432 224.331284 
" style="fill:none;stroke:#ff5733;stroke-linecap:square;"/>
   </g>
   <g id="patch_68">
    <path d="M 16.2 224.388136 
L 487.8 224.388136 
" style="fill:none;stroke:#000000;stroke-linecap:square;stroke-linejoin:miter;stroke-width:0.8;"/>
   </g>
   <g id="text_5">
    <!-- 0.016 ng/mL EGF -->
    <g transform="translate(16.2 193.115114)scale(0.15 -0.15)">
     <defs>
      <path d="M 794 531 
L 1825 531 
L 1825 4091 
L 703 3866 
L 703 4441 
L 1819 4666 
L 2450 4666 
L 2450 531 
L 3481 531 
L 3481 0 
L 794 0 
L 794 531 
z
" id="DejaVuSans-31" transform="scale(0.015625)"/>
      <path d="M 2113 2584 
Q 1688 2584 1439 2293 
Q 1191 2003 1191 1497 
Q 1191 994 1439 701 
Q 1688 409 2113 409 
Q 2538 409 2786 701 
Q 3034 994 3034 1497 
Q 3034 2003 2786 2293 
Q 2538 2584 2113 2584 
z
M 3366 4563 
L 3366 3988 
Q 3128 4100 2886 4159 
Q 2644 4219 2406 4219 
Q 1781 4219 1451 3797 
Q 1122 3375 1075 2522 
Q 1259 2794 1537 2939 
Q 1816 3084 2150 3084 
Q 2853 3084 3261 2657 
Q 3669 2231 3669 1497 
Q 3669 778 3244 343 
Q 2819 -91 2113 -91 
Q 1303 -91 875 529 
Q 447 1150 447 2328 
Q 447 3434 972 4092 
Q 1497 4750 2381 4750 
Q 2619 4750 2861 4703 
Q 3103 4656 3366 4563 
z
" id="DejaVuSans-36" transform="scale(0.015625)"/>
     </defs>
     <use xlink:href="#DejaVuSans-30"/>
     <use x="63.623047" xlink:href="#DejaVuSans-2e"/>
     <use x="95.410156" xlink:href="#DejaVuSans-30"/>
     <use x="159.033203" xlink:href="#DejaVuSans-31"/>
     <use x="222.65625" xlink:href="#DejaVuSans-36"/>
     <use x="286.279297" xlink:href="#DejaVuSans-20"/>
     <use x="318.066406" xlink:href="#DejaVuSans-6e"/>
     <use x="381.445312" xlink:href="#DejaVuSans-67"/>
     <use x="444.921875" xlink:href="#DejaVuSans-2f"/>
     <use x="478.613281" xlink:href="#DejaVuSans-6d"/>
     <use x="576.025391" xlink:href="#DejaVuSans-4c"/>
     <use x="631.738281" xlink:href="#DejaVuSans-20"/>
     <use x="663.525391" xlink:href="#DejaVuSans-45"/>
     <use x="726.708984" xlink:href="#DejaVuSans-47"/>
     <use x="804.199219" xlink:href="#DejaVuSans-46"/>
    </g>
   </g>
  </g>
  <g id="axes_4">
   <g id="patch_69">
    <path d="M 16.2 287.189831 
L 487.8 287.189831 
L 487.8 244.088136 
L 16.2 244.088136 
z
" style="fill:#ffffff;"/>
   </g>
   <g id="patch_70">
    <path clip-path="url(#p9576b89968)" d="M 437.559646 287.189831 
L 438.212658 287.189831 
L 438.212658 287.086252 
L 437.559646 287.086252 
z
" style="fill:#8bd3e6;"/>
   </g>
   <g id="patch_71">
    <path clip-path="url(#p9576b89968)" d="M 438.212658 287.189831 
L 438.865671 287.189831 
L 438.865671 286.982674 
L 438.212658 286.982674 
z
" style="fill:#8bd3e6;"/>
   </g>
   <g id="patch_72">
    <path clip-path="url(#p9576b89968)" d="M 438.865671 287.189831 
L 439.518683 287.189831 
L 439.518683 286.361203 
L 438.865671 286.361203 
z
" style="fill:#8bd3e6;"/>
   </g>
   <g id="patch_73">
    <path clip-path="url(#p9576b89968)" d="M 439.518683 287.189831 
L 440.171696 287.189831 
L 440.171696 286.361203 
L 439.518683 286.361203 
z
" style="fill:#8bd3e6;"/>
   </g>
   <g id="patch_74">
    <path clip-path="url(#p9576b89968)" d="M 440.171696 287.189831 
L 440.824708 287.189831 
L 440.824708 283.253852 
L 440.171696 283.253852 
z
" style="fill:#8bd3e6;"/>
   </g>
   <g id="patch_75">
    <path clip-path="url(#p9576b89968)" d="M 440.824708 287.189831 
L 441.47772 287.189831 
L 441.47772 280.457236 
L 440.824708 280.457236 
z
" style="fill:#8bd3e6;"/>
   </g>
   <g id="patch_76">
    <path clip-path="url(#p9576b89968)" d="M 441.47772 287.189831 
L 442.130733 287.189831 
L 442.130733 272.688858 
L 441.47772 272.688858 
z
" style="fill:#8bd3e6;"/>
   </g>
   <g id="patch_77">
    <path clip-path="url(#p9576b89968)" d="M 442.130733 287.189831 
L 442.783745 287.189831 
L 442.783745 265.231215 
L 442.130733 265.231215 
z
" style="fill:#8bd3e6;"/>
   </g>
   <g id="patch_78">
    <path clip-path="url(#p9576b89968)" d="M 442.783745 287.189831 
L 443.436758 287.189831 
L 443.436758 254.873377 
L 442.783745 254.873377 
z
" style="fill:#8bd3e6;"/>
   </g>
   <g id="patch_79">
    <path clip-path="url(#p9576b89968)" d="M 443.436758 287.189831 
L 444.08977 287.189831 
L 444.08977 246.690685 
L 443.436758 246.690685 
z
" style="fill:#8bd3e6;"/>
   </g>
   <g id="patch_80">
    <path clip-path="url(#p9576b89968)" d="M 444.08977 287.189831 
L 444.742783 287.189831 
L 444.742783 247.00142 
L 444.08977 247.00142 
z
" style="fill:#8bd3e6;"/>
   </g>
   <g id="patch_81">
    <path clip-path="url(#p9576b89968)" d="M 444.742783 287.189831 
L 445.395795 287.189831 
L 445.395795 250.21235 
L 444.742783 250.21235 
z
" style="fill:#8bd3e6;"/>
   </g>
   <g id="patch_82">
    <path clip-path="url(#p9576b89968)" d="M 445.395795 287.189831 
L 446.048807 287.189831 
L 446.048807 262.227442 
L 445.395795 262.227442 
z
" style="fill:#8bd3e6;"/>
   </g>
   <g id="patch_83">
    <path clip-path="url(#p9576b89968)" d="M 446.048807 287.189831 
L 446.70182 287.189831 
L 446.70182 268.75288 
L 446.048807 268.75288 
z
" style="fill:#8bd3e6;"/>
   </g>
   <g id="patch_84">
    <path clip-path="url(#p9576b89968)" d="M 446.70182 287.189831 
L 447.354832 287.189831 
L 447.354832 278.074933 
L 446.70182 278.074933 
z
" style="fill:#8bd3e6;"/>
   </g>
   <g id="patch_85">
    <path clip-path="url(#p9576b89968)" d="M 447.354832 287.189831 
L 448.007845 287.189831 
L 448.007845 283.046695 
L 447.354832 283.046695 
z
" style="fill:#8bd3e6;"/>
   </g>
   <g id="patch_86">
    <path clip-path="url(#p9576b89968)" d="M 448.007845 287.189831 
L 448.660857 287.189831 
L 448.660857 285.428998 
L 448.007845 285.428998 
z
" style="fill:#8bd3e6;"/>
   </g>
   <g id="patch_87">
    <path clip-path="url(#p9576b89968)" d="M 448.660857 287.189831 
L 449.31387 287.189831 
L 449.31387 286.050468 
L 448.660857 286.050468 
z
" style="fill:#8bd3e6;"/>
   </g>
   <g id="patch_88">
    <path clip-path="url(#p9576b89968)" d="M 449.31387 287.189831 
L 449.966882 287.189831 
L 449.966882 287.086252 
L 449.31387 287.086252 
z
" style="fill:#8bd3e6;"/>
   </g>
   <g id="patch_89">
    <path clip-path="url(#p9576b89968)" d="M 449.966882 287.189831 
L 450.619894 287.189831 
L 450.619894 286.982674 
L 449.966882 286.982674 
z
" style="fill:#8bd3e6;"/>
   </g>
   <g id="matplotlib.axis_4">
    <g id="xtick_16">
     <g id="line2d_21">
      <g>
       <use style="stroke:#000000;stroke-width:0.8;" x="85.629946" xlink:href="#mb13fe2debf" y="287.189831"/>
      </g>
     </g>
    </g>
    <g id="xtick_17">
     <g id="line2d_22">
      <g>
       <use style="stroke:#000000;stroke-width:0.8;" x="172.756354" xlink:href="#mb13fe2debf" y="287.189831"/>
      </g>
     </g>
    </g>
    <g id="xtick_18">
     <g id="line2d_23">
      <g>
       <use style="stroke:#000000;stroke-width:0.8;" x="259.882762" xlink:href="#mb13fe2debf" y="287.189831"/>
      </g>
     </g>
    </g>
    <g id="xtick_19">
     <g id="line2d_24">
      <g>
       <use style="stroke:#000000;stroke-width:0.8;" x="347.00917" xlink:href="#mb13fe2debf" y="287.189831"/>
      </g>
     </g>
    </g>
    <g id="xtick_20">
     <g id="line2d_25">
      <g>
       <use style="stroke:#000000;stroke-width:0.8;" x="434.135578" xlink:href="#mb13fe2debf" y="287.189831"/>
      </g>
     </g>
    </g>
   </g>
   <g id="line2d_26">
    <path clip-path="url(#p9576b89968)" d="M 437.559646 287.178595 
L 438.718206 287.035105 
L 439.258954 286.747336 
L 439.679536 286.26128 
L 440.073995 285.438057 
L 440.476291 284.038385 
L 440.908628 281.653496 
L 441.391906 277.62205 
L 441.97837 270.661385 
L 443.812212 247.224841 
L 444.107403 246.195441 
L 444.243243 246.160255 
L 444.26153 246.176921 
L 444.407819 246.491752 
L 444.636396 247.611222 
L 444.977303 250.56222 
L 445.51152 257.432965 
L 447.041028 278.010216 
L 447.613125 282.448607 
L 448.118607 284.796259 
L 448.590129 286.026862 
L 449.052508 286.660247 
L 449.556684 286.984314 
L 450.239803 287.140653 
L 450.619894 287.169209 
L 450.619894 287.169209 
" style="fill:none;stroke:#ff5733;stroke-linecap:square;"/>
   </g>
   <g id="patch_90">
    <path d="M 16.2 287.189831 
L 487.8 287.189831 
" style="fill:none;stroke:#000000;stroke-linecap:square;stroke-linejoin:miter;stroke-width:0.8;"/>
   </g>
   <g id="text_6">
    <!-- 0.031 ng/mL EGF -->
    <g transform="translate(16.2 255.916809)scale(0.15 -0.15)">
     <defs>
      <path d="M 2597 2516 
Q 3050 2419 3304 2112 
Q 3559 1806 3559 1356 
Q 3559 666 3084 287 
Q 2609 -91 1734 -91 
Q 1441 -91 1130 -33 
Q 819 25 488 141 
L 488 750 
Q 750 597 1062 519 
Q 1375 441 1716 441 
Q 2309 441 2620 675 
Q 2931 909 2931 1356 
Q 2931 1769 2642 2001 
Q 2353 2234 1838 2234 
L 1294 2234 
L 1294 2753 
L 1863 2753 
Q 2328 2753 2575 2939 
Q 2822 3125 2822 3475 
Q 2822 3834 2567 4026 
Q 2313 4219 1838 4219 
Q 1578 4219 1281 4162 
Q 984 4106 628 3988 
L 628 4550 
Q 988 4650 1302 4700 
Q 1616 4750 1894 4750 
Q 2613 4750 3031 4423 
Q 3450 4097 3450 3541 
Q 3450 3153 3228 2886 
Q 3006 2619 2597 2516 
z
" id="DejaVuSans-33" transform="scale(0.015625)"/>
     </defs>
     <use xlink:href="#DejaVuSans-30"/>
     <use x="63.623047" xlink:href="#DejaVuSans-2e"/>
     <use x="95.410156" xlink:href="#DejaVuSans-30"/>
     <use x="159.033203" xlink:href="#DejaVuSans-33"/>
     <use x="222.65625" xlink:href="#DejaVuSans-31"/>
     <use x="286.279297" xlink:href="#DejaVuSans-20"/>
     <use x="318.066406" xlink:href="#DejaVuSans-6e"/>
     <use x="381.445312" xlink:href="#DejaVuSans-67"/>
     <use x="444.921875" xlink:href="#DejaVuSans-2f"/>
     <use x="478.613281" xlink:href="#DejaVuSans-6d"/>
     <use x="576.025391" xlink:href="#DejaVuSans-4c"/>
     <use x="631.738281" xlink:href="#DejaVuSans-20"/>
     <use x="663.525391" xlink:href="#DejaVuSans-45"/>
     <use x="726.708984" xlink:href="#DejaVuSans-47"/>
     <use x="804.199219" xlink:href="#DejaVuSans-46"/>
    </g>
   </g>
  </g>
  <g id="axes_5">
   <g id="patch_91">
    <path d="M 16.2 349.991525 
L 487.8 349.991525 
L 487.8 306.889831 
L 16.2 306.889831 
z
" style="fill:#ffffff;"/>
   </g>
   <g id="patch_92">
    <path clip-path="url(#p0699085ff4)" d="M 423.41903 349.991525 
L 423.976421 349.991525 
L 423.976421 349.655973 
L 423.41903 349.655973 
z
" style="fill:#8bd3e6;"/>
   </g>
   <g id="patch_93">
    <path clip-path="url(#p0699085ff4)" d="M 423.976421 349.991525 
L 424.533812 349.991525 
L 424.533812 348.537465 
L 423.976421 348.537465 
z
" style="fill:#8bd3e6;"/>
   </g>
   <g id="patch_94">
    <path clip-path="url(#p0699085ff4)" d="M 424.533812 349.991525 
L 425.091203 349.991525 
L 425.091203 348.313764 
L 424.533812 348.313764 
z
" style="fill:#8bd3e6;"/>
   </g>
   <g id="patch_95">
    <path clip-path="url(#p0699085ff4)" d="M 425.091203 349.991525 
L 425.648595 349.991525 
L 425.648595 345.405644 
L 425.091203 345.405644 
z
" style="fill:#8bd3e6;"/>
   </g>
   <g id="patch_96">
    <path clip-path="url(#p0699085ff4)" d="M 425.648595 349.991525 
L 426.205986 349.991525 
L 426.205986 340.931613 
L 425.648595 340.931613 
z
" style="fill:#8bd3e6;"/>
   </g>
   <g id="patch_97">
    <path clip-path="url(#p0699085ff4)" d="M 426.205986 349.991525 
L 426.763377 349.991525 
L 426.763377 337.016836 
L 426.205986 337.016836 
z
" style="fill:#8bd3e6;"/>
   </g>
   <g id="patch_98">
    <path clip-path="url(#p0699085ff4)" d="M 426.763377 349.991525 
L 427.320768 349.991525 
L 427.320768 330.30579 
L 426.763377 330.30579 
z
" style="fill:#8bd3e6;"/>
   </g>
   <g id="patch_99">
    <path clip-path="url(#p0699085ff4)" d="M 427.320768 349.991525 
L 427.878159 349.991525 
L 427.878159 319.679966 
L 427.320768 319.679966 
z
" style="fill:#8bd3e6;"/>
   </g>
   <g id="patch_100">
    <path clip-path="url(#p0699085ff4)" d="M 427.878159 349.991525 
L 428.435551 349.991525 
L 428.435551 315.541488 
L 427.878159 315.541488 
z
" style="fill:#8bd3e6;"/>
   </g>
   <g id="patch_101">
    <path clip-path="url(#p0699085ff4)" d="M 428.435551 349.991525 
L 428.992942 349.991525 
L 428.992942 308.942292 
L 428.435551 308.942292 
z
" style="fill:#8bd3e6;"/>
   </g>
   <g id="patch_102">
    <path clip-path="url(#p0699085ff4)" d="M 428.992942 349.991525 
L 429.550333 349.991525 
L 429.550333 314.199278 
L 428.992942 314.199278 
z
" style="fill:#8bd3e6;"/>
   </g>
   <g id="patch_103">
    <path clip-path="url(#p0699085ff4)" d="M 429.550333 349.991525 
L 430.107724 349.991525 
L 430.107724 320.351071 
L 429.550333 320.351071 
z
" style="fill:#8bd3e6;"/>
   </g>
   <g id="patch_104">
    <path clip-path="url(#p0699085ff4)" d="M 430.107724 349.991525 
L 430.665115 349.991525 
L 430.665115 326.502863 
L 430.107724 326.502863 
z
" style="fill:#8bd3e6;"/>
   </g>
   <g id="patch_105">
    <path clip-path="url(#p0699085ff4)" d="M 430.665115 349.991525 
L 431.222507 349.991525 
L 431.222507 333.549462 
L 430.665115 333.549462 
z
" style="fill:#8bd3e6;"/>
   </g>
   <g id="patch_106">
    <path clip-path="url(#p0699085ff4)" d="M 431.222507 349.991525 
L 431.779898 349.991525 
L 431.779898 340.819762 
L 431.222507 340.819762 
z
" style="fill:#8bd3e6;"/>
   </g>
   <g id="patch_107">
    <path clip-path="url(#p0699085ff4)" d="M 431.779898 349.991525 
L 432.337289 349.991525 
L 432.337289 344.84639 
L 431.779898 344.84639 
z
" style="fill:#8bd3e6;"/>
   </g>
   <g id="patch_108">
    <path clip-path="url(#p0699085ff4)" d="M 432.337289 349.991525 
L 432.89468 349.991525 
L 432.89468 347.530808 
L 432.337289 347.530808 
z
" style="fill:#8bd3e6;"/>
   </g>
   <g id="patch_109">
    <path clip-path="url(#p0699085ff4)" d="M 432.89468 349.991525 
L 433.452071 349.991525 
L 433.452071 348.425615 
L 432.89468 348.425615 
z
" style="fill:#8bd3e6;"/>
   </g>
   <g id="patch_110">
    <path clip-path="url(#p0699085ff4)" d="M 433.452071 349.991525 
L 434.009463 349.991525 
L 434.009463 349.879675 
L 433.452071 349.879675 
z
" style="fill:#8bd3e6;"/>
   </g>
   <g id="patch_111">
    <path clip-path="url(#p0699085ff4)" d="M 434.009463 349.991525 
L 434.566854 349.991525 
L 434.566854 349.767824 
L 434.009463 349.767824 
z
" style="fill:#8bd3e6;"/>
   </g>
   <g id="matplotlib.axis_5">
    <g id="xtick_21">
     <g id="line2d_27">
      <g>
       <use style="stroke:#000000;stroke-width:0.8;" x="85.629946" xlink:href="#mb13fe2debf" y="349.991525"/>
      </g>
     </g>
    </g>
    <g id="xtick_22">
     <g id="line2d_28">
      <g>
       <use style="stroke:#000000;stroke-width:0.8;" x="172.756354" xlink:href="#mb13fe2debf" y="349.991525"/>
      </g>
     </g>
    </g>
    <g id="xtick_23">
     <g id="line2d_29">
      <g>
       <use style="stroke:#000000;stroke-width:0.8;" x="259.882762" xlink:href="#mb13fe2debf" y="349.991525"/>
      </g>
     </g>
    </g>
    <g id="xtick_24">
     <g id="line2d_30">
      <g>
       <use style="stroke:#000000;stroke-width:0.8;" x="347.00917" xlink:href="#mb13fe2debf" y="349.991525"/>
      </g>
     </g>
    </g>
    <g id="xtick_25">
     <g id="line2d_31">
      <g>
       <use style="stroke:#000000;stroke-width:0.8;" x="434.135578" xlink:href="#mb13fe2debf" y="349.991525"/>
      </g>
     </g>
    </g>
   </g>
   <g id="line2d_32">
    <path clip-path="url(#p0699085ff4)" d="M 423.41903 349.831883 
L 423.951949 349.540378 
L 424.370034 349.047568 
L 424.763592 348.213048 
L 425.168298 346.785681 
L 425.604222 344.3552 
L 426.09589 340.232963 
L 426.706852 333.025493 
L 428.286656 313.37868 
L 428.624469 311.841897 
L 428.807312 311.682552 
L 428.816231 311.687204 
L 428.950018 311.89522 
L 429.157389 312.719097 
L 429.468444 315.007765 
L 429.943389 320.401892 
L 431.789653 343.121653 
L 432.331491 346.483708 
L 432.82093 348.252847 
L 433.284726 349.168526 
L 433.756326 349.637303 
L 434.313773 349.874041 
L 434.566854 349.923013 
L 434.566854 349.923013 
" style="fill:none;stroke:#ff5733;stroke-linecap:square;"/>
   </g>
   <g id="patch_112">
    <path d="M 16.2 349.991525 
L 487.8 349.991525 
" style="fill:none;stroke:#000000;stroke-linecap:square;stroke-linejoin:miter;stroke-width:0.8;"/>
   </g>
   <g id="text_7">
    <!-- 0.062 ng/mL EGF -->
    <g transform="translate(16.2 318.718504)scale(0.15 -0.15)">
     <defs>
      <path d="M 1228 531 
L 3431 531 
L 3431 0 
L 469 0 
L 469 531 
Q 828 903 1448 1529 
Q 2069 2156 2228 2338 
Q 2531 2678 2651 2914 
Q 2772 3150 2772 3378 
Q 2772 3750 2511 3984 
Q 2250 4219 1831 4219 
Q 1534 4219 1204 4116 
Q 875 4013 500 3803 
L 500 4441 
Q 881 4594 1212 4672 
Q 1544 4750 1819 4750 
Q 2544 4750 2975 4387 
Q 3406 4025 3406 3419 
Q 3406 3131 3298 2873 
Q 3191 2616 2906 2266 
Q 2828 2175 2409 1742 
Q 1991 1309 1228 531 
z
" id="DejaVuSans-32" transform="scale(0.015625)"/>
     </defs>
     <use xlink:href="#DejaVuSans-30"/>
     <use x="63.623047" xlink:href="#DejaVuSans-2e"/>
     <use x="95.410156" xlink:href="#DejaVuSans-30"/>
     <use x="159.033203" xlink:href="#DejaVuSans-36"/>
     <use x="222.65625" xlink:href="#DejaVuSans-32"/>
     <use x="286.279297" xlink:href="#DejaVuSans-20"/>
     <use x="318.066406" xlink:href="#DejaVuSans-6e"/>
     <use x="381.445312" xlink:href="#DejaVuSans-67"/>
     <use x="444.921875" xlink:href="#DejaVuSans-2f"/>
     <use x="478.613281" xlink:href="#DejaVuSans-6d"/>
     <use x="576.025391" xlink:href="#DejaVuSans-4c"/>
     <use x="631.738281" xlink:href="#DejaVuSans-20"/>
     <use x="663.525391" xlink:href="#DejaVuSans-45"/>
     <use x="726.708984" xlink:href="#DejaVuSans-47"/>
     <use x="804.199219" xlink:href="#DejaVuSans-46"/>
    </g>
   </g>
  </g>
  <g id="axes_6">
   <g id="patch_113">
    <path d="M 16.2 412.79322 
L 487.8 412.79322 
L 487.8 369.691525 
L 16.2 369.691525 
z
" style="fill:#ffffff;"/>
   </g>
   <g id="patch_114">
    <path clip-path="url(#pfd456db48e)" d="M 395.451453 412.79322 
L 396.008844 412.79322 
L 396.008844 412.687423 
L 395.451453 412.687423 
z
" style="fill:#8bd3e6;"/>
   </g>
   <g id="patch_115">
    <path clip-path="url(#pfd456db48e)" d="M 396.008844 412.79322 
L 396.566235 412.79322 
L 396.566235 412.264235 
L 396.008844 412.264235 
z
" style="fill:#8bd3e6;"/>
   </g>
   <g id="patch_116">
    <path clip-path="url(#pfd456db48e)" d="M 396.566235 412.79322 
L 397.123626 412.79322 
L 397.123626 412.052641 
L 396.566235 412.052641 
z
" style="fill:#8bd3e6;"/>
   </g>
   <g id="patch_117">
    <path clip-path="url(#pfd456db48e)" d="M 397.123626 412.79322 
L 397.681018 412.79322 
L 397.681018 410.994671 
L 397.123626 410.994671 
z
" style="fill:#8bd3e6;"/>
   </g>
   <g id="patch_118">
    <path clip-path="url(#pfd456db48e)" d="M 397.681018 412.79322 
L 398.238409 412.79322 
L 398.238409 409.196123 
L 397.681018 409.196123 
z
" style="fill:#8bd3e6;"/>
   </g>
   <g id="patch_119">
    <path clip-path="url(#pfd456db48e)" d="M 398.238409 412.79322 
L 398.7958 412.79322 
L 398.7958 404.329461 
L 398.238409 404.329461 
z
" style="fill:#8bd3e6;"/>
   </g>
   <g id="patch_120">
    <path clip-path="url(#pfd456db48e)" d="M 398.7958 412.79322 
L 399.353191 412.79322 
L 399.353191 399.039611 
L 398.7958 399.039611 
z
" style="fill:#8bd3e6;"/>
   </g>
   <g id="patch_121">
    <path clip-path="url(#pfd456db48e)" d="M 399.353191 412.79322 
L 399.910582 412.79322 
L 399.910582 391.316431 
L 399.353191 391.316431 
z
" style="fill:#8bd3e6;"/>
   </g>
   <g id="patch_122">
    <path clip-path="url(#pfd456db48e)" d="M 399.910582 412.79322 
L 400.467974 412.79322 
L 400.467974 388.8831 
L 399.910582 388.8831 
z
" style="fill:#8bd3e6;"/>
   </g>
   <g id="patch_123">
    <path clip-path="url(#pfd456db48e)" d="M 400.467974 412.79322 
L 401.025365 412.79322 
L 401.025365 373.330942 
L 400.467974 373.330942 
z
" style="fill:#8bd3e6;"/>
   </g>
   <g id="patch_124">
    <path clip-path="url(#pfd456db48e)" d="M 401.025365 412.79322 
L 401.582756 412.79322 
L 401.582756 371.743987 
L 401.025365 371.743987 
z
" style="fill:#8bd3e6;"/>
   </g>
   <g id="patch_125">
    <path clip-path="url(#pfd456db48e)" d="M 401.582756 412.79322 
L 402.140147 412.79322 
L 402.140147 379.255574 
L 401.582756 379.255574 
z
" style="fill:#8bd3e6;"/>
   </g>
   <g id="patch_126">
    <path clip-path="url(#pfd456db48e)" d="M 402.140147 412.79322 
L 402.697538 412.79322 
L 402.697538 383.59325 
L 402.140147 383.59325 
z
" style="fill:#8bd3e6;"/>
   </g>
   <g id="patch_127">
    <path clip-path="url(#pfd456db48e)" d="M 402.697538 412.79322 
L 403.25493 412.79322 
L 403.25493 393.961356 
L 402.697538 393.961356 
z
" style="fill:#8bd3e6;"/>
   </g>
   <g id="patch_128">
    <path clip-path="url(#pfd456db48e)" d="M 403.25493 412.79322 
L 403.812321 412.79322 
L 403.812321 398.933814 
L 403.25493 398.933814 
z
" style="fill:#8bd3e6;"/>
   </g>
   <g id="patch_129">
    <path clip-path="url(#pfd456db48e)" d="M 403.812321 412.79322 
L 404.369712 412.79322 
L 404.369712 405.810619 
L 403.812321 405.810619 
z
" style="fill:#8bd3e6;"/>
   </g>
   <g id="patch_130">
    <path clip-path="url(#pfd456db48e)" d="M 404.369712 412.79322 
L 404.927103 412.79322 
L 404.927103 408.772935 
L 404.369712 408.772935 
z
" style="fill:#8bd3e6;"/>
   </g>
   <g id="patch_131">
    <path clip-path="url(#pfd456db48e)" d="M 404.927103 412.79322 
L 405.484494 412.79322 
L 405.484494 410.994671 
L 404.927103 410.994671 
z
" style="fill:#8bd3e6;"/>
   </g>
   <g id="patch_132">
    <path clip-path="url(#pfd456db48e)" d="M 405.484494 412.79322 
L 406.041886 412.79322 
L 406.041886 411.841047 
L 405.484494 411.841047 
z
" style="fill:#8bd3e6;"/>
   </g>
   <g id="patch_133">
    <path clip-path="url(#pfd456db48e)" d="M 406.041886 412.79322 
L 406.599277 412.79322 
L 406.599277 412.370032 
L 406.041886 412.370032 
z
" style="fill:#8bd3e6;"/>
   </g>
   <g id="matplotlib.axis_6">
    <g id="xtick_26">
     <g id="line2d_33">
      <g>
       <use style="stroke:#000000;stroke-width:0.8;" x="85.629946" xlink:href="#mb13fe2debf" y="412.79322"/>
      </g>
     </g>
    </g>
    <g id="xtick_27">
     <g id="line2d_34">
      <g>
       <use style="stroke:#000000;stroke-width:0.8;" x="172.756354" xlink:href="#mb13fe2debf" y="412.79322"/>
      </g>
     </g>
    </g>
    <g id="xtick_28">
     <g id="line2d_35">
      <g>
       <use style="stroke:#000000;stroke-width:0.8;" x="259.882762" xlink:href="#mb13fe2debf" y="412.79322"/>
      </g>
     </g>
    </g>
    <g id="xtick_29">
     <g id="line2d_36">
      <g>
       <use style="stroke:#000000;stroke-width:0.8;" x="347.00917" xlink:href="#mb13fe2debf" y="412.79322"/>
      </g>
     </g>
    </g>
    <g id="xtick_30">
     <g id="line2d_37">
      <g>
       <use style="stroke:#000000;stroke-width:0.8;" x="434.135578" xlink:href="#mb13fe2debf" y="412.79322"/>
      </g>
     </g>
    </g>
   </g>
   <g id="line2d_38">
    <path clip-path="url(#pfd456db48e)" d="M 395.451453 412.744089 
L 396.196202 412.547623 
L 396.662228 412.193547 
L 397.060245 411.59416 
L 397.451572 410.566657 
L 397.861853 408.80609 
L 398.31227 405.801968 
L 398.8385 400.641042 
L 399.585479 390.78179 
L 400.536484 378.842813 
L 400.94119 376.200814 
L 401.187582 375.696954 
L 401.31245 375.781936 
L 401.483029 376.265611 
L 401.745029 377.793445 
L 402.137471 381.595242 
L 402.849889 391.130606 
L 403.812042 403.168396 
L 404.397361 407.878746 
L 404.905753 410.336185 
L 405.375123 411.609344 
L 405.833345 412.259227 
L 406.328358 412.587212 
L 406.599277 412.675764 
L 406.599277 412.675764 
" style="fill:none;stroke:#ff5733;stroke-linecap:square;"/>
   </g>
   <g id="patch_134">
    <path d="M 16.2 412.79322 
L 487.8 412.79322 
" style="fill:none;stroke:#000000;stroke-linecap:square;stroke-linejoin:miter;stroke-width:0.8;"/>
   </g>
   <g id="text_8">
    <!-- 0.125 ng/mL EGF -->
    <g transform="translate(16.2 381.520199)scale(0.15 -0.15)">
     <defs>
      <path d="M 691 4666 
L 3169 4666 
L 3169 4134 
L 1269 4134 
L 1269 2991 
Q 1406 3038 1543 3061 
Q 1681 3084 1819 3084 
Q 2600 3084 3056 2656 
Q 3513 2228 3513 1497 
Q 3513 744 3044 326 
Q 2575 -91 1722 -91 
Q 1428 -91 1123 -41 
Q 819 9 494 109 
L 494 744 
Q 775 591 1075 516 
Q 1375 441 1709 441 
Q 2250 441 2565 725 
Q 2881 1009 2881 1497 
Q 2881 1984 2565 2268 
Q 2250 2553 1709 2553 
Q 1456 2553 1204 2497 
Q 953 2441 691 2322 
L 691 4666 
z
" id="DejaVuSans-35" transform="scale(0.015625)"/>
     </defs>
     <use xlink:href="#DejaVuSans-30"/>
     <use x="63.623047" xlink:href="#DejaVuSans-2e"/>
     <use x="95.410156" xlink:href="#DejaVuSans-31"/>
     <use x="159.033203" xlink:href="#DejaVuSans-32"/>
     <use x="222.65625" xlink:href="#DejaVuSans-35"/>
     <use x="286.279297" xlink:href="#DejaVuSans-20"/>
     <use x="318.066406" xlink:href="#DejaVuSans-6e"/>
     <use x="381.445312" xlink:href="#DejaVuSans-67"/>
     <use x="444.921875" xlink:href="#DejaVuSans-2f"/>
     <use x="478.613281" xlink:href="#DejaVuSans-6d"/>
     <use x="576.025391" xlink:href="#DejaVuSans-4c"/>
     <use x="631.738281" xlink:href="#DejaVuSans-20"/>
     <use x="663.525391" xlink:href="#DejaVuSans-45"/>
     <use x="726.708984" xlink:href="#DejaVuSans-47"/>
     <use x="804.199219" xlink:href="#DejaVuSans-46"/>
    </g>
   </g>
  </g>
  <g id="axes_7">
   <g id="patch_135">
    <path d="M 16.2 475.594915 
L 487.8 475.594915 
L 487.8 432.49322 
L 16.2 432.49322 
z
" style="fill:#ffffff;"/>
   </g>
   <g id="patch_136">
    <path clip-path="url(#pd5b1dfb157)" d="M 351.36549 475.594915 
L 351.869734 475.594915 
L 351.869734 475.476618 
L 351.36549 475.476618 
z
" style="fill:#8bd3e6;"/>
   </g>
   <g id="patch_137">
    <path clip-path="url(#pd5b1dfb157)" d="M 351.869734 475.594915 
L 352.373978 475.594915 
L 352.373978 474.41194 
L 351.869734 474.41194 
z
" style="fill:#8bd3e6;"/>
   </g>
   <g id="patch_138">
    <path clip-path="url(#pd5b1dfb157)" d="M 352.373978 475.594915 
L 352.878223 475.594915 
L 352.878223 474.766833 
L 352.373978 474.766833 
z
" style="fill:#8bd3e6;"/>
   </g>
   <g id="patch_139">
    <path clip-path="url(#pd5b1dfb157)" d="M 352.878223 475.594915 
L 353.382467 475.594915 
L 353.382467 472.51918 
L 352.878223 472.51918 
z
" style="fill:#8bd3e6;"/>
   </g>
   <g id="patch_140">
    <path clip-path="url(#pd5b1dfb157)" d="M 353.382467 475.594915 
L 353.886711 475.594915 
L 353.886711 467.195793 
L 353.382467 467.195793 
z
" style="fill:#8bd3e6;"/>
   </g>
   <g id="patch_141">
    <path clip-path="url(#pd5b1dfb157)" d="M 353.886711 475.594915 
L 354.390955 475.594915 
L 354.390955 464.00176 
L 353.886711 464.00176 
z
" style="fill:#8bd3e6;"/>
   </g>
   <g id="patch_142">
    <path clip-path="url(#pd5b1dfb157)" d="M 354.390955 475.594915 
L 354.895199 475.594915 
L 354.895199 455.602637 
L 354.390955 455.602637 
z
" style="fill:#8bd3e6;"/>
   </g>
   <g id="patch_143">
    <path clip-path="url(#pd5b1dfb157)" d="M 354.895199 475.594915 
L 355.399443 475.594915 
L 355.399443 448.149895 
L 354.895199 448.149895 
z
" style="fill:#8bd3e6;"/>
   </g>
   <g id="patch_144">
    <path clip-path="url(#pd5b1dfb157)" d="M 355.399443 475.594915 
L 355.903687 475.594915 
L 355.903687 439.040987 
L 355.399443 439.040987 
z
" style="fill:#8bd3e6;"/>
   </g>
   <g id="patch_145">
    <path clip-path="url(#pd5b1dfb157)" d="M 355.903687 475.594915 
L 356.407931 475.594915 
L 356.407931 437.739715 
L 355.903687 437.739715 
z
" style="fill:#8bd3e6;"/>
   </g>
   <g id="patch_146">
    <path clip-path="url(#pd5b1dfb157)" d="M 356.407931 475.594915 
L 356.912175 475.594915 
L 356.912175 434.545682 
L 356.407931 434.545682 
z
" style="fill:#8bd3e6;"/>
   </g>
   <g id="patch_147">
    <path clip-path="url(#pd5b1dfb157)" d="M 356.912175 475.594915 
L 357.416419 475.594915 
L 357.416419 444.246077 
L 356.912175 444.246077 
z
" style="fill:#8bd3e6;"/>
   </g>
   <g id="patch_148">
    <path clip-path="url(#pd5b1dfb157)" d="M 357.416419 475.594915 
L 357.920663 475.594915 
L 357.920663 449.687762 
L 357.416419 449.687762 
z
" style="fill:#8bd3e6;"/>
   </g>
   <g id="patch_149">
    <path clip-path="url(#pd5b1dfb157)" d="M 357.920663 475.594915 
L 358.424908 475.594915 
L 358.424908 455.839232 
L 357.920663 455.839232 
z
" style="fill:#8bd3e6;"/>
   </g>
   <g id="patch_150">
    <path clip-path="url(#pd5b1dfb157)" d="M 358.424908 475.594915 
L 358.929152 475.594915 
L 358.929152 460.21624 
L 358.424908 460.21624 
z
" style="fill:#8bd3e6;"/>
   </g>
   <g id="patch_151">
    <path clip-path="url(#pd5b1dfb157)" d="M 358.929152 475.594915 
L 359.433396 475.594915 
L 359.433396 468.023875 
L 358.929152 468.023875 
z
" style="fill:#8bd3e6;"/>
   </g>
   <g id="patch_152">
    <path clip-path="url(#pd5b1dfb157)" d="M 359.433396 475.594915 
L 359.93764 475.594915 
L 359.93764 471.217908 
L 359.433396 471.217908 
z
" style="fill:#8bd3e6;"/>
   </g>
   <g id="patch_153">
    <path clip-path="url(#pd5b1dfb157)" d="M 359.93764 475.594915 
L 360.441884 475.594915 
L 360.441884 473.46556 
L 359.93764 473.46556 
z
" style="fill:#8bd3e6;"/>
   </g>
   <g id="patch_154">
    <path clip-path="url(#pd5b1dfb157)" d="M 360.441884 475.594915 
L 360.946128 475.594915 
L 360.946128 474.766833 
L 360.441884 474.766833 
z
" style="fill:#8bd3e6;"/>
   </g>
   <g id="patch_155">
    <path clip-path="url(#pd5b1dfb157)" d="M 360.946128 475.594915 
L 361.450372 475.594915 
L 361.450372 475.240023 
L 360.946128 475.240023 
z
" style="fill:#8bd3e6;"/>
   </g>
   <g id="matplotlib.axis_7">
    <g id="xtick_31">
     <g id="line2d_39">
      <g>
       <use style="stroke:#000000;stroke-width:0.8;" x="85.629946" xlink:href="#mb13fe2debf" y="475.594915"/>
      </g>
     </g>
    </g>
    <g id="xtick_32">
     <g id="line2d_40">
      <g>
       <use style="stroke:#000000;stroke-width:0.8;" x="172.756354" xlink:href="#mb13fe2debf" y="475.594915"/>
      </g>
     </g>
    </g>
    <g id="xtick_33">
     <g id="line2d_41">
      <g>
       <use style="stroke:#000000;stroke-width:0.8;" x="259.882762" xlink:href="#mb13fe2debf" y="475.594915"/>
      </g>
     </g>
    </g>
    <g id="xtick_34">
     <g id="line2d_42">
      <g>
       <use style="stroke:#000000;stroke-width:0.8;" x="347.00917" xlink:href="#mb13fe2debf" y="475.594915"/>
      </g>
     </g>
    </g>
    <g id="xtick_35">
     <g id="line2d_43">
      <g>
       <use style="stroke:#000000;stroke-width:0.8;" x="434.135578" xlink:href="#mb13fe2debf" y="475.594915"/>
      </g>
     </g>
    </g>
   </g>
   <g id="line2d_44">
    <path clip-path="url(#pd5b1dfb157)" d="M 351.36549 475.38932 
L 351.832467 475.062256 
L 352.220774 474.501993 
L 352.597986 473.532678 
L 352.992344 471.847638 
L 353.423012 468.938035 
L 353.920246 463.907827 
L 354.587932 454.58493 
L 355.682251 439.438052 
L 356.062489 436.921353 
L 356.287405 436.51667 
L 356.402384 436.63803 
L 356.57687 437.241443 
L 356.846163 439.106207 
L 357.254642 443.720298 
L 358.158337 457.274949 
L 358.910745 466.749419 
L 359.463452 471.153642 
L 359.9506 473.422805 
L 360.403457 474.574489 
L 360.850262 475.150303 
L 361.347496 475.435244 
L 361.450372 475.467409 
L 361.450372 475.467409 
" style="fill:none;stroke:#ff5733;stroke-linecap:square;"/>
   </g>
   <g id="patch_156">
    <path d="M 16.2 475.594915 
L 487.8 475.594915 
" style="fill:none;stroke:#000000;stroke-linecap:square;stroke-linejoin:miter;stroke-width:0.8;"/>
   </g>
   <g id="text_9">
    <!-- 0.25 ng/mL EGF -->
    <g transform="translate(16.2 444.321894)scale(0.15 -0.15)">
     <use xlink:href="#DejaVuSans-30"/>
     <use x="63.623047" xlink:href="#DejaVuSans-2e"/>
     <use x="95.410156" xlink:href="#DejaVuSans-32"/>
     <use x="159.033203" xlink:href="#DejaVuSans-35"/>
     <use x="222.65625" xlink:href="#DejaVuSans-20"/>
     <use x="254.443359" xlink:href="#DejaVuSans-6e"/>
     <use x="317.822266" xlink:href="#DejaVuSans-67"/>
     <use x="381.298828" xlink:href="#DejaVuSans-2f"/>
     <use x="414.990234" xlink:href="#DejaVuSans-6d"/>
     <use x="512.402344" xlink:href="#DejaVuSans-4c"/>
     <use x="568.115234" xlink:href="#DejaVuSans-20"/>
     <use x="599.902344" xlink:href="#DejaVuSans-45"/>
     <use x="663.085938" xlink:href="#DejaVuSans-47"/>
     <use x="740.576172" xlink:href="#DejaVuSans-46"/>
    </g>
   </g>
  </g>
  <g id="axes_8">
   <g id="patch_157">
    <path d="M 16.2 538.39661 
L 487.8 538.39661 
L 487.8 495.294915 
L 16.2 495.294915 
z
" style="fill:#ffffff;"/>
   </g>
   <g id="patch_158">
    <path clip-path="url(#pb5a2cbc192)" d="M 287.889546 538.39661 
L 288.394008 538.39661 
L 288.394008 538.280003 
L 287.889546 538.280003 
z
" style="fill:#8bd3e6;"/>
   </g>
   <g id="patch_159">
    <path clip-path="url(#pb5a2cbc192)" d="M 288.394008 538.39661 
L 288.898469 538.39661 
L 288.898469 538.046789 
L 288.394008 538.046789 
z
" style="fill:#8bd3e6;"/>
   </g>
   <g id="patch_160">
    <path clip-path="url(#pb5a2cbc192)" d="M 288.898469 538.39661 
L 289.402931 538.39661 
L 289.402931 538.163396 
L 288.898469 538.163396 
z
" style="fill:#8bd3e6;"/>
   </g>
   <g id="patch_161">
    <path clip-path="url(#pb5a2cbc192)" d="M 289.402931 538.39661 
L 289.907393 538.39661 
L 289.907393 536.647502 
L 289.402931 536.647502 
z
" style="fill:#8bd3e6;"/>
   </g>
   <g id="patch_162">
    <path clip-path="url(#pb5a2cbc192)" d="M 289.907393 538.39661 
L 290.411855 538.39661 
L 290.411855 533.032679 
L 289.907393 533.032679 
z
" style="fill:#8bd3e6;"/>
   </g>
   <g id="patch_163">
    <path clip-path="url(#pb5a2cbc192)" d="M 290.411855 538.39661 
L 290.916317 538.39661 
L 290.916317 528.01857 
L 290.411855 528.01857 
z
" style="fill:#8bd3e6;"/>
   </g>
   <g id="patch_164">
    <path clip-path="url(#pb5a2cbc192)" d="M 290.916317 538.39661 
L 291.420779 538.39661 
L 291.420779 523.237675 
L 290.916317 523.237675 
z
" style="fill:#8bd3e6;"/>
   </g>
   <g id="patch_165">
    <path clip-path="url(#pb5a2cbc192)" d="M 291.420779 538.39661 
L 291.925241 538.39661 
L 291.925241 513.209456 
L 291.420779 513.209456 
z
" style="fill:#8bd3e6;"/>
   </g>
   <g id="patch_166">
    <path clip-path="url(#pb5a2cbc192)" d="M 291.925241 538.39661 
L 292.429703 538.39661 
L 292.429703 509.128204 
L 291.925241 509.128204 
z
" style="fill:#8bd3e6;"/>
   </g>
   <g id="patch_167">
    <path clip-path="url(#pb5a2cbc192)" d="M 292.429703 538.39661 
L 292.934165 538.39661 
L 292.934165 500.732486 
L 292.429703 500.732486 
z
" style="fill:#8bd3e6;"/>
   </g>
   <g id="patch_168">
    <path clip-path="url(#pb5a2cbc192)" d="M 292.934165 538.39661 
L 293.438627 538.39661 
L 293.438627 498.750164 
L 292.934165 498.750164 
z
" style="fill:#8bd3e6;"/>
   </g>
   <g id="patch_169">
    <path clip-path="url(#pb5a2cbc192)" d="M 293.438627 538.39661 
L 293.943088 538.39661 
L 293.943088 499.099985 
L 293.438627 499.099985 
z
" style="fill:#8bd3e6;"/>
   </g>
   <g id="patch_170">
    <path clip-path="url(#pb5a2cbc192)" d="M 293.943088 538.39661 
L 294.44755 538.39661 
L 294.44755 506.213024 
L 293.943088 506.213024 
z
" style="fill:#8bd3e6;"/>
   </g>
   <g id="patch_171">
    <path clip-path="url(#pb5a2cbc192)" d="M 294.44755 538.39661 
L 294.952012 538.39661 
L 294.952012 516.707672 
L 294.44755 516.707672 
z
" style="fill:#8bd3e6;"/>
   </g>
   <g id="patch_172">
    <path clip-path="url(#pb5a2cbc192)" d="M 294.952012 538.39661 
L 295.456474 538.39661 
L 295.456474 522.538032 
L 294.952012 522.538032 
z
" style="fill:#8bd3e6;"/>
   </g>
   <g id="patch_173">
    <path clip-path="url(#pb5a2cbc192)" d="M 295.456474 538.39661 
L 295.960936 538.39661 
L 295.960936 530.93375 
L 295.456474 530.93375 
z
" style="fill:#8bd3e6;"/>
   </g>
   <g id="patch_174">
    <path clip-path="url(#pb5a2cbc192)" d="M 295.960936 538.39661 
L 296.465398 538.39661 
L 296.465398 533.149286 
L 295.960936 533.149286 
z
" style="fill:#8bd3e6;"/>
   </g>
   <g id="patch_175">
    <path clip-path="url(#pb5a2cbc192)" d="M 296.465398 538.39661 
L 296.96986 538.39661 
L 296.96986 535.131609 
L 296.465398 535.131609 
z
" style="fill:#8bd3e6;"/>
   </g>
   <g id="patch_176">
    <path clip-path="url(#pb5a2cbc192)" d="M 296.96986 538.39661 
L 297.474322 538.39661 
L 297.474322 537.347145 
L 296.96986 537.347145 
z
" style="fill:#8bd3e6;"/>
   </g>
   <g id="patch_177">
    <path clip-path="url(#pb5a2cbc192)" d="M 297.474322 538.39661 
L 297.978784 538.39661 
L 297.978784 538.046789 
L 297.474322 538.046789 
z
" style="fill:#8bd3e6;"/>
   </g>
   <g id="matplotlib.axis_8">
    <g id="xtick_36">
     <g id="line2d_45">
      <g>
       <use style="stroke:#000000;stroke-width:0.8;" x="85.629946" xlink:href="#mb13fe2debf" y="538.39661"/>
      </g>
     </g>
    </g>
    <g id="xtick_37">
     <g id="line2d_46">
      <g>
       <use style="stroke:#000000;stroke-width:0.8;" x="172.756354" xlink:href="#mb13fe2debf" y="538.39661"/>
      </g>
     </g>
    </g>
    <g id="xtick_38">
     <g id="line2d_47">
      <g>
       <use style="stroke:#000000;stroke-width:0.8;" x="259.882762" xlink:href="#mb13fe2debf" y="538.39661"/>
      </g>
     </g>
    </g>
    <g id="xtick_39">
     <g id="line2d_48">
      <g>
       <use style="stroke:#000000;stroke-width:0.8;" x="347.00917" xlink:href="#mb13fe2debf" y="538.39661"/>
      </g>
     </g>
    </g>
    <g id="xtick_40">
     <g id="line2d_49">
      <g>
       <use style="stroke:#000000;stroke-width:0.8;" x="434.135578" xlink:href="#mb13fe2debf" y="538.39661"/>
      </g>
     </g>
    </g>
   </g>
   <g id="line2d_50">
    <path clip-path="url(#pb5a2cbc192)" d="M 287.889546 538.351681 
L 288.572655 538.159961 
L 288.995437 537.807779 
L 289.359695 537.19421 
L 289.721935 536.105973 
L 290.104355 534.18219 
L 290.526127 530.806677 
L 291.021558 524.85991 
L 291.748056 512.99975 
L 292.574447 500.517366 
L 292.945768 497.753237 
L 293.159682 497.348937 
L 293.160691 497.3492 
L 293.267647 497.492821 
L 293.440191 498.200476 
L 293.7096 500.40304 
L 294.126327 505.922603 
L 295.924409 532.136061 
L 296.418832 535.371584 
L 296.867848 536.985888 
L 297.296683 537.774811 
L 297.742672 538.155133 
L 297.978784 538.255807 
L 297.978784 538.255807 
" style="fill:none;stroke:#ff5733;stroke-linecap:square;"/>
   </g>
   <g id="patch_178">
    <path d="M 16.2 538.39661 
L 487.8 538.39661 
" style="fill:none;stroke:#000000;stroke-linecap:square;stroke-linejoin:miter;stroke-width:0.8;"/>
   </g>
   <g id="text_10">
    <!-- 0.5 ng/mL EGF -->
    <g transform="translate(16.2 507.123588)scale(0.15 -0.15)">
     <use xlink:href="#DejaVuSans-30"/>
     <use x="63.623047" xlink:href="#DejaVuSans-2e"/>
     <use x="95.410156" xlink:href="#DejaVuSans-35"/>
     <use x="159.033203" xlink:href="#DejaVuSans-20"/>
     <use x="190.820312" xlink:href="#DejaVuSans-6e"/>
     <use x="254.199219" xlink:href="#DejaVuSans-67"/>
     <use x="317.675781" xlink:href="#DejaVuSans-2f"/>
     <use x="351.367188" xlink:href="#DejaVuSans-6d"/>
     <use x="448.779297" xlink:href="#DejaVuSans-4c"/>
     <use x="504.492188" xlink:href="#DejaVuSans-20"/>
     <use x="536.279297" xlink:href="#DejaVuSans-45"/>
     <use x="599.462891" xlink:href="#DejaVuSans-47"/>
     <use x="676.953125" xlink:href="#DejaVuSans-46"/>
    </g>
   </g>
  </g>
  <g id="axes_9">
   <g id="patch_179">
    <path d="M 16.2 601.198305 
L 487.8 601.198305 
L 487.8 558.09661 
L 16.2 558.09661 
z
" style="fill:#ffffff;"/>
   </g>
   <g id="patch_180">
    <path clip-path="url(#pab6466c8b6)" d="M 216.175799 601.198305 
L 216.650202 601.198305 
L 216.650202 600.857176 
L 216.175799 600.857176 
z
" style="fill:#8bd3e6;"/>
   </g>
   <g id="patch_181">
    <path clip-path="url(#pab6466c8b6)" d="M 216.650202 601.198305 
L 217.124606 601.198305 
L 217.124606 600.970886 
L 216.650202 600.970886 
z
" style="fill:#8bd3e6;"/>
   </g>
   <g id="patch_182">
    <path clip-path="url(#pab6466c8b6)" d="M 217.124606 601.198305 
L 217.599009 601.198305 
L 217.599009 599.833788 
L 217.124606 599.833788 
z
" style="fill:#8bd3e6;"/>
   </g>
   <g id="patch_183">
    <path clip-path="url(#pab6466c8b6)" d="M 217.599009 601.198305 
L 218.073412 601.198305 
L 218.073412 596.991043 
L 217.599009 596.991043 
z
" style="fill:#8bd3e6;"/>
   </g>
   <g id="patch_184">
    <path clip-path="url(#pab6466c8b6)" d="M 218.073412 601.198305 
L 218.547816 601.198305 
L 218.547816 594.262008 
L 218.073412 594.262008 
z
" style="fill:#8bd3e6;"/>
   </g>
   <g id="patch_185">
    <path clip-path="url(#pab6466c8b6)" d="M 218.547816 601.198305 
L 219.022219 601.198305 
L 219.022219 588.235389 
L 218.547816 588.235389 
z
" style="fill:#8bd3e6;"/>
   </g>
   <g id="patch_186">
    <path clip-path="url(#pab6466c8b6)" d="M 219.022219 601.198305 
L 219.496622 601.198305 
L 219.496622 577.09183 
L 219.022219 577.09183 
z
" style="fill:#8bd3e6;"/>
   </g>
   <g id="patch_187">
    <path clip-path="url(#pab6466c8b6)" d="M 219.496622 601.198305 
L 219.971025 601.198305 
L 219.971025 565.720851 
L 219.496622 565.720851 
z
" style="fill:#8bd3e6;"/>
   </g>
   <g id="patch_188">
    <path clip-path="url(#pab6466c8b6)" d="M 219.971025 601.198305 
L 220.445429 601.198305 
L 220.445429 560.149072 
L 219.971025 560.149072 
z
" style="fill:#8bd3e6;"/>
   </g>
   <g id="patch_189">
    <path clip-path="url(#pab6466c8b6)" d="M 220.445429 601.198305 
L 220.919832 601.198305 
L 220.919832 561.28617 
L 220.445429 561.28617 
z
" style="fill:#8bd3e6;"/>
   </g>
   <g id="patch_190">
    <path clip-path="url(#pab6466c8b6)" d="M 220.919832 601.198305 
L 221.394235 601.198305 
L 221.394235 562.082138 
L 220.919832 562.082138 
z
" style="fill:#8bd3e6;"/>
   </g>
   <g id="patch_191">
    <path clip-path="url(#pab6466c8b6)" d="M 221.394235 601.198305 
L 221.868639 601.198305 
L 221.868639 569.928114 
L 221.394235 569.928114 
z
" style="fill:#8bd3e6;"/>
   </g>
   <g id="patch_192">
    <path clip-path="url(#pab6466c8b6)" d="M 221.868639 601.198305 
L 222.343042 601.198305 
L 222.343042 581.071673 
L 221.868639 581.071673 
z
" style="fill:#8bd3e6;"/>
   </g>
   <g id="patch_193">
    <path clip-path="url(#pab6466c8b6)" d="M 222.343042 601.198305 
L 222.817445 601.198305 
L 222.817445 589.145068 
L 222.343042 589.145068 
z
" style="fill:#8bd3e6;"/>
   </g>
   <g id="patch_194">
    <path clip-path="url(#pab6466c8b6)" d="M 222.817445 601.198305 
L 223.291849 601.198305 
L 223.291849 594.716847 
L 222.817445 594.716847 
z
" style="fill:#8bd3e6;"/>
   </g>
   <g id="patch_195">
    <path clip-path="url(#pab6466c8b6)" d="M 223.291849 601.198305 
L 223.766252 601.198305 
L 223.766252 596.422494 
L 223.291849 596.422494 
z
" style="fill:#8bd3e6;"/>
   </g>
   <g id="patch_196">
    <path clip-path="url(#pab6466c8b6)" d="M 223.766252 601.198305 
L 224.240655 601.198305 
L 224.240655 598.924109 
L 223.766252 598.924109 
z
" style="fill:#8bd3e6;"/>
   </g>
   <g id="patch_197">
    <path clip-path="url(#pab6466c8b6)" d="M 224.240655 601.198305 
L 224.715058 601.198305 
L 224.715058 600.288627 
L 224.240655 600.288627 
z
" style="fill:#8bd3e6;"/>
   </g>
   <g id="patch_198">
    <path clip-path="url(#pab6466c8b6)" d="M 224.715058 601.198305 
L 225.189462 601.198305 
L 225.189462 600.629756 
L 224.715058 600.629756 
z
" style="fill:#8bd3e6;"/>
   </g>
   <g id="patch_199">
    <path clip-path="url(#pab6466c8b6)" d="M 225.189462 601.198305 
L 225.663865 601.198305 
L 225.663865 601.084595 
L 225.189462 601.084595 
z
" style="fill:#8bd3e6;"/>
   </g>
   <g id="matplotlib.axis_9">
    <g id="xtick_41">
     <g id="line2d_51">
      <g>
       <use style="stroke:#000000;stroke-width:0.8;" x="85.629946" xlink:href="#mb13fe2debf" y="601.198305"/>
      </g>
     </g>
    </g>
    <g id="xtick_42">
     <g id="line2d_52">
      <g>
       <use style="stroke:#000000;stroke-width:0.8;" x="172.756354" xlink:href="#mb13fe2debf" y="601.198305"/>
      </g>
     </g>
    </g>
    <g id="xtick_43">
     <g id="line2d_53">
      <g>
       <use style="stroke:#000000;stroke-width:0.8;" x="259.882762" xlink:href="#mb13fe2debf" y="601.198305"/>
      </g>
     </g>
    </g>
    <g id="xtick_44">
     <g id="line2d_54">
      <g>
       <use style="stroke:#000000;stroke-width:0.8;" x="347.00917" xlink:href="#mb13fe2debf" y="601.198305"/>
      </g>
     </g>
    </g>
    <g id="xtick_45">
     <g id="line2d_55">
      <g>
       <use style="stroke:#000000;stroke-width:0.8;" x="434.135578" xlink:href="#mb13fe2debf" y="601.198305"/>
      </g>
     </g>
    </g>
   </g>
   <g id="line2d_56">
    <path clip-path="url(#pab6466c8b6)" d="M 216.175799 601.076481 
L 216.642659 600.811045 
L 217.000395 600.337291 
L 217.340101 599.483641 
L 217.693093 597.93407 
L 218.078347 595.136003 
L 218.519586 590.12925 
L 219.096518 580.717579 
L 220.195346 562.547585 
L 220.517972 560.435523 
L 220.655563 560.258313 
L 220.687826 560.28163 
L 220.806438 560.578192 
L 221.005708 561.800158 
L 221.315998 565.307989 
L 221.847383 574.308278 
L 222.87789 591.528346 
L 223.397888 596.617337 
L 223.850514 599.090044 
L 224.26898 600.271006 
L 224.679854 600.822547 
L 225.141969 601.076976 
L 225.663865 601.169038 
L 225.663865 601.169038 
" style="fill:none;stroke:#ff5733;stroke-linecap:square;"/>
   </g>
   <g id="patch_200">
    <path d="M 16.2 601.198305 
L 487.8 601.198305 
" style="fill:none;stroke:#000000;stroke-linecap:square;stroke-linejoin:miter;stroke-width:0.8;"/>
   </g>
   <g id="text_11">
    <!-- 1 ng/mL EGF -->
    <g transform="translate(16.2 569.925283)scale(0.15 -0.15)">
     <use xlink:href="#DejaVuSans-31"/>
     <use x="63.623047" xlink:href="#DejaVuSans-20"/>
     <use x="95.410156" xlink:href="#DejaVuSans-6e"/>
     <use x="158.789062" xlink:href="#DejaVuSans-67"/>
     <use x="222.265625" xlink:href="#DejaVuSans-2f"/>
     <use x="255.957031" xlink:href="#DejaVuSans-6d"/>
     <use x="353.369141" xlink:href="#DejaVuSans-4c"/>
     <use x="409.082031" xlink:href="#DejaVuSans-20"/>
     <use x="440.869141" xlink:href="#DejaVuSans-45"/>
     <use x="504.052734" xlink:href="#DejaVuSans-47"/>
     <use x="581.542969" xlink:href="#DejaVuSans-46"/>
    </g>
   </g>
  </g>
  <g id="axes_10">
   <g id="patch_201">
    <path d="M 16.2 664 
L 487.8 664 
L 487.8 620.898305 
L 16.2 620.898305 
z
" style="fill:#ffffff;"/>
   </g>
   <g id="patch_202">
    <path clip-path="url(#pbfd85a9411)" d="M 37.636364 664 
L 37.967226 664 
L 37.967226 663.647141 
L 37.636364 663.647141 
z
" style="fill:#8bd3e6;"/>
   </g>
   <g id="patch_203">
    <path clip-path="url(#pbfd85a9411)" d="M 37.967226 664 
L 38.298089 664 
L 38.298089 663.647141 
L 37.967226 663.647141 
z
" style="fill:#8bd3e6;"/>
   </g>
   <g id="patch_204">
    <path clip-path="url(#pbfd85a9411)" d="M 38.298089 664 
L 38.628951 664 
L 38.628951 662.000467 
L 38.298089 662.000467 
z
" style="fill:#8bd3e6;"/>
   </g>
   <g id="patch_205">
    <path clip-path="url(#pbfd85a9411)" d="M 38.628951 664 
L 38.959814 664 
L 38.959814 660.000934 
L 38.628951 660.000934 
z
" style="fill:#8bd3e6;"/>
   </g>
   <g id="patch_206">
    <path clip-path="url(#pbfd85a9411)" d="M 38.959814 664 
L 39.290676 664 
L 39.290676 658.707119 
L 38.959814 658.707119 
z
" style="fill:#8bd3e6;"/>
   </g>
   <g id="patch_207">
    <path clip-path="url(#pbfd85a9411)" d="M 39.290676 664 
L 39.621539 664 
L 39.621539 650.944227 
L 39.290676 650.944227 
z
" style="fill:#8bd3e6;"/>
   </g>
   <g id="patch_208">
    <path clip-path="url(#pbfd85a9411)" d="M 39.621539 664 
L 39.952401 664 
L 39.952401 644.122291 
L 39.621539 644.122291 
z
" style="fill:#8bd3e6;"/>
   </g>
   <g id="patch_209">
    <path clip-path="url(#pbfd85a9411)" d="M 39.952401 664 
L 40.283264 664 
L 40.283264 640.123225 
L 39.952401 640.123225 
z
" style="fill:#8bd3e6;"/>
   </g>
   <g id="patch_210">
    <path clip-path="url(#pbfd85a9411)" d="M 40.283264 664 
L 40.614126 664 
L 40.614126 625.067919 
L 40.283264 625.067919 
z
" style="fill:#8bd3e6;"/>
   </g>
   <g id="patch_211">
    <path clip-path="url(#pbfd85a9411)" d="M 40.614126 664 
L 40.944989 664 
L 40.944989 623.421245 
L 40.614126 623.421245 
z
" style="fill:#8bd3e6;"/>
   </g>
   <g id="patch_212">
    <path clip-path="url(#pbfd85a9411)" d="M 40.944989 664 
L 41.275852 664 
L 41.275852 622.950767 
L 40.944989 622.950767 
z
" style="fill:#8bd3e6;"/>
   </g>
   <g id="patch_213">
    <path clip-path="url(#pbfd85a9411)" d="M 41.275852 664 
L 41.606714 664 
L 41.606714 630.47842 
L 41.275852 630.47842 
z
" style="fill:#8bd3e6;"/>
   </g>
   <g id="patch_214">
    <path clip-path="url(#pbfd85a9411)" d="M 41.606714 664 
L 41.937577 664 
L 41.937577 634.477486 
L 41.606714 634.477486 
z
" style="fill:#8bd3e6;"/>
   </g>
   <g id="patch_215">
    <path clip-path="url(#pbfd85a9411)" d="M 41.937577 664 
L 42.268439 664 
L 42.268439 645.768965 
L 41.937577 645.768965 
z
" style="fill:#8bd3e6;"/>
   </g>
   <g id="patch_216">
    <path clip-path="url(#pbfd85a9411)" d="M 42.268439 664 
L 42.599302 664 
L 42.599302 652.82614 
L 42.268439 652.82614 
z
" style="fill:#8bd3e6;"/>
   </g>
   <g id="patch_217">
    <path clip-path="url(#pbfd85a9411)" d="M 42.599302 664 
L 42.930164 664 
L 42.930164 656.942825 
L 42.599302 656.942825 
z
" style="fill:#8bd3e6;"/>
   </g>
   <g id="patch_218">
    <path clip-path="url(#pbfd85a9411)" d="M 42.930164 664 
L 43.261027 664 
L 43.261027 661.059511 
L 42.930164 661.059511 
z
" style="fill:#8bd3e6;"/>
   </g>
   <g id="patch_219">
    <path clip-path="url(#pbfd85a9411)" d="M 43.261027 664 
L 43.591889 664 
L 43.591889 662.470945 
L 43.261027 662.470945 
z
" style="fill:#8bd3e6;"/>
   </g>
   <g id="patch_220">
    <path clip-path="url(#pbfd85a9411)" d="M 43.591889 664 
L 43.922752 664 
L 43.922752 663.529522 
L 43.591889 663.529522 
z
" style="fill:#8bd3e6;"/>
   </g>
   <g id="patch_221">
    <path clip-path="url(#pbfd85a9411)" d="M 43.922752 664 
L 44.253614 664 
L 44.253614 663.764761 
L 43.922752 663.764761 
z
" style="fill:#8bd3e6;"/>
   </g>
   <g id="matplotlib.axis_10">
    <g id="xtick_46">
     <g id="line2d_57">
      <g>
       <use style="stroke:#000000;stroke-width:0.8;" x="85.629946" xlink:href="#mb13fe2debf" y="664"/>
      </g>
     </g>
     <g id="text_12">
      <!-- 60000 -->
      <g transform="translate(61.770571 682.397656)scale(0.15 -0.15)">
       <use xlink:href="#DejaVuSans-36"/>
       <use x="63.623047" xlink:href="#DejaVuSans-30"/>
       <use x="127.246094" xlink:href="#DejaVuSans-30"/>
       <use x="190.869141" xlink:href="#DejaVuSans-30"/>
       <use x="254.492188" xlink:href="#DejaVuSans-30"/>
      </g>
     </g>
    </g>
    <g id="xtick_47">
     <g id="line2d_58">
      <g>
       <use style="stroke:#000000;stroke-width:0.8;" x="172.756354" xlink:href="#mb13fe2debf" y="664"/>
      </g>
     </g>
     <g id="text_13">
      <!-- 80000 -->
      <g transform="translate(148.896979 682.397656)scale(0.15 -0.15)">
       <use xlink:href="#DejaVuSans-38"/>
       <use x="63.623047" xlink:href="#DejaVuSans-30"/>
       <use x="127.246094" xlink:href="#DejaVuSans-30"/>
       <use x="190.869141" xlink:href="#DejaVuSans-30"/>
       <use x="254.492188" xlink:href="#DejaVuSans-30"/>
      </g>
     </g>
    </g>
    <g id="xtick_48">
     <g id="line2d_59">
      <g>
       <use style="stroke:#000000;stroke-width:0.8;" x="259.882762" xlink:href="#mb13fe2debf" y="664"/>
      </g>
     </g>
     <g id="text_14">
      <!-- 100000 -->
      <g transform="translate(231.251512 682.397656)scale(0.15 -0.15)">
       <use xlink:href="#DejaVuSans-31"/>
       <use x="63.623047" xlink:href="#DejaVuSans-30"/>
       <use x="127.246094" xlink:href="#DejaVuSans-30"/>
       <use x="190.869141" xlink:href="#DejaVuSans-30"/>
       <use x="254.492188" xlink:href="#DejaVuSans-30"/>
       <use x="318.115234" xlink:href="#DejaVuSans-30"/>
      </g>
     </g>
    </g>
    <g id="xtick_49">
     <g id="line2d_60">
      <g>
       <use style="stroke:#000000;stroke-width:0.8;" x="347.00917" xlink:href="#mb13fe2debf" y="664"/>
      </g>
     </g>
     <g id="text_15">
      <!-- 120000 -->
      <g transform="translate(318.37792 682.397656)scale(0.15 -0.15)">
       <use xlink:href="#DejaVuSans-31"/>
       <use x="63.623047" xlink:href="#DejaVuSans-32"/>
       <use x="127.246094" xlink:href="#DejaVuSans-30"/>
       <use x="190.869141" xlink:href="#DejaVuSans-30"/>
       <use x="254.492188" xlink:href="#DejaVuSans-30"/>
       <use x="318.115234" xlink:href="#DejaVuSans-30"/>
      </g>
     </g>
    </g>
    <g id="xtick_50">
     <g id="line2d_61">
      <g>
       <use style="stroke:#000000;stroke-width:0.8;" x="434.135578" xlink:href="#mb13fe2debf" y="664"/>
      </g>
     </g>
     <g id="text_16">
      <!-- 140000 -->
      <g transform="translate(405.504328 682.397656)scale(0.15 -0.15)">
       <defs>
        <path d="M 2419 4116 
L 825 1625 
L 2419 1625 
L 2419 4116 
z
M 2253 4666 
L 3047 4666 
L 3047 1625 
L 3713 1625 
L 3713 1100 
L 3047 1100 
L 3047 0 
L 2419 0 
L 2419 1100 
L 313 1100 
L 313 1709 
L 2253 4666 
z
" id="DejaVuSans-34" transform="scale(0.015625)"/>
       </defs>
       <use xlink:href="#DejaVuSans-31"/>
       <use x="63.623047" xlink:href="#DejaVuSans-34"/>
       <use x="127.246094" xlink:href="#DejaVuSans-30"/>
       <use x="190.869141" xlink:href="#DejaVuSans-30"/>
       <use x="254.492188" xlink:href="#DejaVuSans-30"/>
       <use x="318.115234" xlink:href="#DejaVuSans-30"/>
      </g>
     </g>
    </g>
    <g id="text_17">
     <!-- sEGFR at Steady State -->
     <g transform="translate(167.364844 700.914844)scale(0.15 -0.15)">
      <defs>
       <path d="M 2841 2188 
Q 3044 2119 3236 1894 
Q 3428 1669 3622 1275 
L 4263 0 
L 3584 0 
L 2988 1197 
Q 2756 1666 2539 1819 
Q 2322 1972 1947 1972 
L 1259 1972 
L 1259 0 
L 628 0 
L 628 4666 
L 2053 4666 
Q 2853 4666 3247 4331 
Q 3641 3997 3641 3322 
Q 3641 2881 3436 2590 
Q 3231 2300 2841 2188 
z
M 1259 4147 
L 1259 2491 
L 2053 2491 
Q 2509 2491 2742 2702 
Q 2975 2913 2975 3322 
Q 2975 3731 2742 3939 
Q 2509 4147 2053 4147 
L 1259 4147 
z
" id="DejaVuSans-52" transform="scale(0.015625)"/>
       <path d="M 2194 1759 
Q 1497 1759 1228 1600 
Q 959 1441 959 1056 
Q 959 750 1161 570 
Q 1363 391 1709 391 
Q 2188 391 2477 730 
Q 2766 1069 2766 1631 
L 2766 1759 
L 2194 1759 
z
M 3341 1997 
L 3341 0 
L 2766 0 
L 2766 531 
Q 2569 213 2275 61 
Q 1981 -91 1556 -91 
Q 1019 -91 701 211 
Q 384 513 384 1019 
Q 384 1609 779 1909 
Q 1175 2209 1959 2209 
L 2766 2209 
L 2766 2266 
Q 2766 2663 2505 2880 
Q 2244 3097 1772 3097 
Q 1472 3097 1187 3025 
Q 903 2953 641 2809 
L 641 3341 
Q 956 3463 1253 3523 
Q 1550 3584 1831 3584 
Q 2591 3584 2966 3190 
Q 3341 2797 3341 1997 
z
" id="DejaVuSans-61" transform="scale(0.015625)"/>
       <path d="M 1172 4494 
L 1172 3500 
L 2356 3500 
L 2356 3053 
L 1172 3053 
L 1172 1153 
Q 1172 725 1289 603 
Q 1406 481 1766 481 
L 2356 481 
L 2356 0 
L 1766 0 
Q 1100 0 847 248 
Q 594 497 594 1153 
L 594 3053 
L 172 3053 
L 172 3500 
L 594 3500 
L 594 4494 
L 1172 4494 
z
" id="DejaVuSans-74" transform="scale(0.015625)"/>
       <path d="M 3425 4513 
L 3425 3897 
Q 3066 4069 2747 4153 
Q 2428 4238 2131 4238 
Q 1616 4238 1336 4038 
Q 1056 3838 1056 3469 
Q 1056 3159 1242 3001 
Q 1428 2844 1947 2747 
L 2328 2669 
Q 3034 2534 3370 2195 
Q 3706 1856 3706 1288 
Q 3706 609 3251 259 
Q 2797 -91 1919 -91 
Q 1588 -91 1214 -16 
Q 841 59 441 206 
L 441 856 
Q 825 641 1194 531 
Q 1563 422 1919 422 
Q 2459 422 2753 634 
Q 3047 847 3047 1241 
Q 3047 1584 2836 1778 
Q 2625 1972 2144 2069 
L 1759 2144 
Q 1053 2284 737 2584 
Q 422 2884 422 3419 
Q 422 4038 858 4394 
Q 1294 4750 2059 4750 
Q 2388 4750 2728 4690 
Q 3069 4631 3425 4513 
z
" id="DejaVuSans-53" transform="scale(0.015625)"/>
       <path d="M 2906 2969 
L 2906 4863 
L 3481 4863 
L 3481 0 
L 2906 0 
L 2906 525 
Q 2725 213 2448 61 
Q 2172 -91 1784 -91 
Q 1150 -91 751 415 
Q 353 922 353 1747 
Q 353 2572 751 3078 
Q 1150 3584 1784 3584 
Q 2172 3584 2448 3432 
Q 2725 3281 2906 2969 
z
M 947 1747 
Q 947 1113 1208 752 
Q 1469 391 1925 391 
Q 2381 391 2643 752 
Q 2906 1113 2906 1747 
Q 2906 2381 2643 2742 
Q 2381 3103 1925 3103 
Q 1469 3103 1208 2742 
Q 947 2381 947 1747 
z
" id="DejaVuSans-64" transform="scale(0.015625)"/>
       <path d="M 2059 -325 
Q 1816 -950 1584 -1140 
Q 1353 -1331 966 -1331 
L 506 -1331 
L 506 -850 
L 844 -850 
Q 1081 -850 1212 -737 
Q 1344 -625 1503 -206 
L 1606 56 
L 191 3500 
L 800 3500 
L 1894 763 
L 2988 3500 
L 3597 3500 
L 2059 -325 
z
" id="DejaVuSans-79" transform="scale(0.015625)"/>
      </defs>
      <use xlink:href="#DejaVuSans-73"/>
      <use x="52.099609" xlink:href="#DejaVuSans-45"/>
      <use x="115.283203" xlink:href="#DejaVuSans-47"/>
      <use x="192.773438" xlink:href="#DejaVuSans-46"/>
      <use x="250.292969" xlink:href="#DejaVuSans-52"/>
      <use x="319.775391" xlink:href="#DejaVuSans-20"/>
      <use x="351.5625" xlink:href="#DejaVuSans-61"/>
      <use x="412.841797" xlink:href="#DejaVuSans-74"/>
      <use x="452.050781" xlink:href="#DejaVuSans-20"/>
      <use x="483.837891" xlink:href="#DejaVuSans-53"/>
      <use x="547.314453" xlink:href="#DejaVuSans-74"/>
      <use x="586.523438" xlink:href="#DejaVuSans-65"/>
      <use x="648.046875" xlink:href="#DejaVuSans-61"/>
      <use x="709.326172" xlink:href="#DejaVuSans-64"/>
      <use x="772.802734" xlink:href="#DejaVuSans-79"/>
      <use x="831.982422" xlink:href="#DejaVuSans-20"/>
      <use x="863.769531" xlink:href="#DejaVuSans-53"/>
      <use x="927.246094" xlink:href="#DejaVuSans-74"/>
      <use x="966.455078" xlink:href="#DejaVuSans-61"/>
      <use x="1027.734375" xlink:href="#DejaVuSans-74"/>
      <use x="1066.943359" xlink:href="#DejaVuSans-65"/>
     </g>
    </g>
   </g>
   <g id="line2d_62">
    <path clip-path="url(#pbfd85a9411)" d="M 37.636364 663.872525 
L 37.98248 663.595445 
L 38.266389 663.053567 
L 38.550297 661.971428 
L 38.855383 659.824263 
L 39.2015 655.613187 
L 39.634311 647.268284 
L 40.732885 624.734586 
L 40.916863 624.049527 
L 40.934731 624.05878 
L 41.01944 624.285776 
L 41.177609 625.496793 
L 41.442987 629.553612 
L 41.973743 641.931417 
L 42.646785 655.795399 
L 43.081582 660.63251 
L 43.46145 662.68293 
L 43.814847 663.519074 
L 44.176185 663.849734 
L 44.253614 663.884918 
L 44.253614 663.884918 
" style="fill:none;stroke:#ff5733;stroke-linecap:square;"/>
   </g>
   <g id="patch_222">
    <path d="M 16.2 664 
L 487.8 664 
" style="fill:none;stroke:#000000;stroke-linecap:square;stroke-linejoin:miter;stroke-width:0.8;"/>
   </g>
   <g id="text_18">
    <!-- 100 ng/mL EGF -->
    <g transform="translate(16.2 632.726978)scale(0.15 -0.15)">
     <use xlink:href="#DejaVuSans-31"/>
     <use x="63.623047" xlink:href="#DejaVuSans-30"/>
     <use x="127.246094" xlink:href="#DejaVuSans-30"/>
     <use x="190.869141" xlink:href="#DejaVuSans-20"/>
     <use x="222.65625" xlink:href="#DejaVuSans-6e"/>
     <use x="286.035156" xlink:href="#DejaVuSans-67"/>
     <use x="349.511719" xlink:href="#DejaVuSans-2f"/>
     <use x="383.203125" xlink:href="#DejaVuSans-6d"/>
     <use x="480.615234" xlink:href="#DejaVuSans-4c"/>
     <use x="536.328125" xlink:href="#DejaVuSans-20"/>
     <use x="568.115234" xlink:href="#DejaVuSans-45"/>
     <use x="631.298828" xlink:href="#DejaVuSans-47"/>
     <use x="708.789062" xlink:href="#DejaVuSans-46"/>
    </g>
   </g>
  </g>
 </g>
 <defs>
  <clipPath id="p38343762fd">
   <rect height="43.101695" width="471.6" x="16.2" y="55.683051"/>
  </clipPath>
  <clipPath id="p638f693331">
   <rect height="43.101695" width="471.6" x="16.2" y="118.484746"/>
  </clipPath>
  <clipPath id="pe084781b9e">
   <rect height="43.101695" width="471.6" x="16.2" y="181.286441"/>
  </clipPath>
  <clipPath id="p9576b89968">
   <rect height="43.101695" width="471.6" x="16.2" y="244.088136"/>
  </clipPath>
  <clipPath id="p0699085ff4">
   <rect height="43.101695" width="471.6" x="16.2" y="306.889831"/>
  </clipPath>
  <clipPath id="pfd456db48e">
   <rect height="43.101695" width="471.6" x="16.2" y="369.691525"/>
  </clipPath>
  <clipPath id="pd5b1dfb157">
   <rect height="43.101695" width="471.6" x="16.2" y="432.49322"/>
  </clipPath>
  <clipPath id="pb5a2cbc192">
   <rect height="43.101695" width="471.6" x="16.2" y="495.294915"/>
  </clipPath>
  <clipPath id="pab6466c8b6">
   <rect height="43.101695" width="471.6" x="16.2" y="558.09661"/>
  </clipPath>
  <clipPath id="pbfd85a9411">
   <rect height="43.101695" width="471.6" x="16.2" y="620.898305"/>
  </clipPath>
 </defs>
</svg>
