<?xml version="1.0" encoding="utf-8" standalone="no"?>
<!DOCTYPE svg PUBLIC "-//W3C//DTD SVG 1.1//EN"
  "http://www.w3.org/Graphics/SVG/1.1/DTD/svg11.dtd">
<svg height="576pt" version="1.1" viewBox="0 0 302.4 576" width="302.4pt" xmlns="http://www.w3.org/2000/svg" xmlns:xlink="http://www.w3.org/1999/xlink">
 <metadata>
  <rdf:RDF xmlns:cc="http://creativecommons.org/ns#" xmlns:dc="http://purl.org/dc/elements/1.1/" xmlns:rdf="http://www.w3.org/1999/02/22-rdf-syntax-ns#">
   <cc:Work>
    <dc:type rdf:resource="http://purl.org/dc/dcmitype/StillImage"/>
    <dc:date>2023-03-16T20:39:27.550825</dc:date>
    <dc:format>image/svg+xml</dc:format>
    <dc:creator>
     <cc:Agent>
      <dc:title>Matplotlib v3.4.3, https://matplotlib.org/</dc:title>
     </cc:Agent>
    </dc:creator>
   </cc:Work>
  </rdf:RDF>
 </metadata>
 <defs>
  <style type="text/css">*{stroke-linecap:butt;stroke-linejoin:round;}</style>
 </defs>
 <g id="figure_1">
  <g id="patch_1">
   <path d="M 0 576 
L 302.4 576 
L 302.4 0 
L 0 0 
z
" style="fill:#ffffff;"/>
  </g>
  <g id="axes_1">
   <g id="patch_2">
    <path d="M 20.97 85.192453 
L 286.2 85.192453 
L 286.2 50.541509 
L 20.97 50.541509 
z
" style="fill:#ffffff;"/>
   </g>
   <g id="matplotlib.axis_1">
    <g id="xtick_1">
     <g id="line2d_1">
      <defs>
       <path d="M 0 0 
L 0 3.5 
" id="m52792bc326" style="stroke:#000000;stroke-width:0.8;"/>
      </defs>
      <g>
       <use style="stroke:#000000;stroke-width:0.8;" x="20.97" xlink:href="#m52792bc326" y="85.192453"/>
      </g>
     </g>
    </g>
    <g id="xtick_2">
     <g id="line2d_2">
      <g>
       <use style="stroke:#000000;stroke-width:0.8;" x="91.698" xlink:href="#m52792bc326" y="85.192453"/>
      </g>
     </g>
    </g>
    <g id="xtick_3">
     <g id="line2d_3">
      <g>
       <use style="stroke:#000000;stroke-width:0.8;" x="162.426" xlink:href="#m52792bc326" y="85.192453"/>
      </g>
     </g>
    </g>
    <g id="xtick_4">
     <g id="line2d_4">
      <g>
       <use style="stroke:#000000;stroke-width:0.8;" x="233.154" xlink:href="#m52792bc326" y="85.192453"/>
      </g>
     </g>
    </g>
   </g>
   <g id="line2d_5">
    <path clip-path="url(#pf7d26aaf53)" d="M 20.97 52.116552 
L 24.5064 62.602496 
L 28.0428 76.535458 
L 31.5792 82.010494 
L 35.1156 83.341315 
L 38.652 83.579107 
L 52.7976 83.617407 
L 303.4 83.61741 
L 303.4 83.61741 
" style="fill:none;stroke:#000000;stroke-linecap:square;stroke-width:1.5;"/>
   </g>
   <g id="line2d_6">
    <path clip-path="url(#pf7d26aaf53)" d="M 20.97 52.11693 
L 24.5064 62.601623 
L 28.0428 76.535903 
L 31.5792 82.010645 
L 35.1156 83.341266 
L 38.652 83.579069 
L 52.7976 83.617407 
L 303.4 83.61741 
L 303.4 83.61741 
" style="fill:none;stroke:#ff0000;stroke-dasharray:5.55,2.4;stroke-dashoffset:0;stroke-width:1.5;"/>
   </g>
   <g id="patch_3">
    <path d="M 20.97 85.192453 
L 286.2 85.192453 
" style="fill:none;stroke:#000000;stroke-linecap:square;stroke-linejoin:miter;stroke-width:0.8;"/>
   </g>
   <g id="text_1">
    <!-- 0.2 a.u. L -->
    <g transform="translate(216.220313 62.285675)scale(0.15 -0.15)">
     <defs>
      <path d="M 2034 4250 
Q 1547 4250 1301 3770 
Q 1056 3291 1056 2328 
Q 1056 1369 1301 889 
Q 1547 409 2034 409 
Q 2525 409 2770 889 
Q 3016 1369 3016 2328 
Q 3016 3291 2770 3770 
Q 2525 4250 2034 4250 
z
M 2034 4750 
Q 2819 4750 3233 4129 
Q 3647 3509 3647 2328 
Q 3647 1150 3233 529 
Q 2819 -91 2034 -91 
Q 1250 -91 836 529 
Q 422 1150 422 2328 
Q 422 3509 836 4129 
Q 1250 4750 2034 4750 
z
" id="DejaVuSans-30" transform="scale(0.015625)"/>
      <path d="M 684 794 
L 1344 794 
L 1344 0 
L 684 0 
L 684 794 
z
" id="DejaVuSans-2e" transform="scale(0.015625)"/>
      <path d="M 1228 531 
L 3431 531 
L 3431 0 
L 469 0 
L 469 531 
Q 828 903 1448 1529 
Q 2069 2156 2228 2338 
Q 2531 2678 2651 2914 
Q 2772 3150 2772 3378 
Q 2772 3750 2511 3984 
Q 2250 4219 1831 4219 
Q 1534 4219 1204 4116 
Q 875 4013 500 3803 
L 500 4441 
Q 881 4594 1212 4672 
Q 1544 4750 1819 4750 
Q 2544 4750 2975 4387 
Q 3406 4025 3406 3419 
Q 3406 3131 3298 2873 
Q 3191 2616 2906 2266 
Q 2828 2175 2409 1742 
Q 1991 1309 1228 531 
z
" id="DejaVuSans-32" transform="scale(0.015625)"/>
      <path id="DejaVuSans-20" transform="scale(0.015625)"/>
      <path d="M 2194 1759 
Q 1497 1759 1228 1600 
Q 959 1441 959 1056 
Q 959 750 1161 570 
Q 1363 391 1709 391 
Q 2188 391 2477 730 
Q 2766 1069 2766 1631 
L 2766 1759 
L 2194 1759 
z
M 3341 1997 
L 3341 0 
L 2766 0 
L 2766 531 
Q 2569 213 2275 61 
Q 1981 -91 1556 -91 
Q 1019 -91 701 211 
Q 384 513 384 1019 
Q 384 1609 779 1909 
Q 1175 2209 1959 2209 
L 2766 2209 
L 2766 2266 
Q 2766 2663 2505 2880 
Q 2244 3097 1772 3097 
Q 1472 3097 1187 3025 
Q 903 2953 641 2809 
L 641 3341 
Q 956 3463 1253 3523 
Q 1550 3584 1831 3584 
Q 2591 3584 2966 3190 
Q 3341 2797 3341 1997 
z
" id="DejaVuSans-61" transform="scale(0.015625)"/>
      <path d="M 544 1381 
L 544 3500 
L 1119 3500 
L 1119 1403 
Q 1119 906 1312 657 
Q 1506 409 1894 409 
Q 2359 409 2629 706 
Q 2900 1003 2900 1516 
L 2900 3500 
L 3475 3500 
L 3475 0 
L 2900 0 
L 2900 538 
Q 2691 219 2414 64 
Q 2138 -91 1772 -91 
Q 1169 -91 856 284 
Q 544 659 544 1381 
z
M 1991 3584 
L 1991 3584 
z
" id="DejaVuSans-75" transform="scale(0.015625)"/>
      <path d="M 628 4666 
L 1259 4666 
L 1259 531 
L 3531 531 
L 3531 0 
L 628 0 
L 628 4666 
z
" id="DejaVuSans-4c" transform="scale(0.015625)"/>
     </defs>
     <use xlink:href="#DejaVuSans-30"/>
     <use x="63.623047" xlink:href="#DejaVuSans-2e"/>
     <use x="95.410156" xlink:href="#DejaVuSans-32"/>
     <use x="159.033203" xlink:href="#DejaVuSans-20"/>
     <use x="190.820312" xlink:href="#DejaVuSans-61"/>
     <use x="252.099609" xlink:href="#DejaVuSans-2e"/>
     <use x="283.886719" xlink:href="#DejaVuSans-75"/>
     <use x="347.265625" xlink:href="#DejaVuSans-2e"/>
     <use x="379.052734" xlink:href="#DejaVuSans-20"/>
     <use x="410.839844" xlink:href="#DejaVuSans-4c"/>
    </g>
   </g>
   <g id="legend_1">
    <g id="line2d_7">
     <path d="M 85.848281 35.538222 
L 115.848281 35.538222 
" style="fill:none;stroke:#000000;stroke-linecap:square;stroke-width:1.5;"/>
    </g>
    <g id="line2d_8"/>
    <g id="text_2">
     <!-- Avg. Poisson -->
     <g transform="translate(127.848281 40.788222)scale(0.15 -0.15)">
      <defs>
       <path d="M 2188 4044 
L 1331 1722 
L 3047 1722 
L 2188 4044 
z
M 1831 4666 
L 2547 4666 
L 4325 0 
L 3669 0 
L 3244 1197 
L 1141 1197 
L 716 0 
L 50 0 
L 1831 4666 
z
" id="DejaVuSans-41" transform="scale(0.015625)"/>
       <path d="M 191 3500 
L 800 3500 
L 1894 563 
L 2988 3500 
L 3597 3500 
L 2284 0 
L 1503 0 
L 191 3500 
z
" id="DejaVuSans-76" transform="scale(0.015625)"/>
       <path d="M 2906 1791 
Q 2906 2416 2648 2759 
Q 2391 3103 1925 3103 
Q 1463 3103 1205 2759 
Q 947 2416 947 1791 
Q 947 1169 1205 825 
Q 1463 481 1925 481 
Q 2391 481 2648 825 
Q 2906 1169 2906 1791 
z
M 3481 434 
Q 3481 -459 3084 -895 
Q 2688 -1331 1869 -1331 
Q 1566 -1331 1297 -1286 
Q 1028 -1241 775 -1147 
L 775 -588 
Q 1028 -725 1275 -790 
Q 1522 -856 1778 -856 
Q 2344 -856 2625 -561 
Q 2906 -266 2906 331 
L 2906 616 
Q 2728 306 2450 153 
Q 2172 0 1784 0 
Q 1141 0 747 490 
Q 353 981 353 1791 
Q 353 2603 747 3093 
Q 1141 3584 1784 3584 
Q 2172 3584 2450 3431 
Q 2728 3278 2906 2969 
L 2906 3500 
L 3481 3500 
L 3481 434 
z
" id="DejaVuSans-67" transform="scale(0.015625)"/>
       <path d="M 1259 4147 
L 1259 2394 
L 2053 2394 
Q 2494 2394 2734 2622 
Q 2975 2850 2975 3272 
Q 2975 3691 2734 3919 
Q 2494 4147 2053 4147 
L 1259 4147 
z
M 628 4666 
L 2053 4666 
Q 2838 4666 3239 4311 
Q 3641 3956 3641 3272 
Q 3641 2581 3239 2228 
Q 2838 1875 2053 1875 
L 1259 1875 
L 1259 0 
L 628 0 
L 628 4666 
z
" id="DejaVuSans-50" transform="scale(0.015625)"/>
       <path d="M 1959 3097 
Q 1497 3097 1228 2736 
Q 959 2375 959 1747 
Q 959 1119 1226 758 
Q 1494 397 1959 397 
Q 2419 397 2687 759 
Q 2956 1122 2956 1747 
Q 2956 2369 2687 2733 
Q 2419 3097 1959 3097 
z
M 1959 3584 
Q 2709 3584 3137 3096 
Q 3566 2609 3566 1747 
Q 3566 888 3137 398 
Q 2709 -91 1959 -91 
Q 1206 -91 779 398 
Q 353 888 353 1747 
Q 353 2609 779 3096 
Q 1206 3584 1959 3584 
z
" id="DejaVuSans-6f" transform="scale(0.015625)"/>
       <path d="M 603 3500 
L 1178 3500 
L 1178 0 
L 603 0 
L 603 3500 
z
M 603 4863 
L 1178 4863 
L 1178 4134 
L 603 4134 
L 603 4863 
z
" id="DejaVuSans-69" transform="scale(0.015625)"/>
       <path d="M 2834 3397 
L 2834 2853 
Q 2591 2978 2328 3040 
Q 2066 3103 1784 3103 
Q 1356 3103 1142 2972 
Q 928 2841 928 2578 
Q 928 2378 1081 2264 
Q 1234 2150 1697 2047 
L 1894 2003 
Q 2506 1872 2764 1633 
Q 3022 1394 3022 966 
Q 3022 478 2636 193 
Q 2250 -91 1575 -91 
Q 1294 -91 989 -36 
Q 684 19 347 128 
L 347 722 
Q 666 556 975 473 
Q 1284 391 1588 391 
Q 1994 391 2212 530 
Q 2431 669 2431 922 
Q 2431 1156 2273 1281 
Q 2116 1406 1581 1522 
L 1381 1569 
Q 847 1681 609 1914 
Q 372 2147 372 2553 
Q 372 3047 722 3315 
Q 1072 3584 1716 3584 
Q 2034 3584 2315 3537 
Q 2597 3491 2834 3397 
z
" id="DejaVuSans-73" transform="scale(0.015625)"/>
       <path d="M 3513 2113 
L 3513 0 
L 2938 0 
L 2938 2094 
Q 2938 2591 2744 2837 
Q 2550 3084 2163 3084 
Q 1697 3084 1428 2787 
Q 1159 2491 1159 1978 
L 1159 0 
L 581 0 
L 581 3500 
L 1159 3500 
L 1159 2956 
Q 1366 3272 1645 3428 
Q 1925 3584 2291 3584 
Q 2894 3584 3203 3211 
Q 3513 2838 3513 2113 
z
" id="DejaVuSans-6e" transform="scale(0.015625)"/>
      </defs>
      <use xlink:href="#DejaVuSans-41"/>
      <use x="62.533203" xlink:href="#DejaVuSans-76"/>
      <use x="121.712891" xlink:href="#DejaVuSans-67"/>
      <use x="185.189453" xlink:href="#DejaVuSans-2e"/>
      <use x="216.976562" xlink:href="#DejaVuSans-20"/>
      <use x="248.763672" xlink:href="#DejaVuSans-50"/>
      <use x="305.441406" xlink:href="#DejaVuSans-6f"/>
      <use x="366.623047" xlink:href="#DejaVuSans-69"/>
      <use x="394.40625" xlink:href="#DejaVuSans-73"/>
      <use x="446.505859" xlink:href="#DejaVuSans-73"/>
      <use x="498.605469" xlink:href="#DejaVuSans-6f"/>
      <use x="559.787109" xlink:href="#DejaVuSans-6e"/>
     </g>
    </g>
    <g id="line2d_9">
     <path d="M 85.848281 57.55541 
L 115.848281 57.55541 
" style="fill:none;stroke:#ff0000;stroke-dasharray:5.55,2.4;stroke-dashoffset:0;stroke-width:1.5;"/>
    </g>
    <g id="line2d_10"/>
    <g id="text_3">
     <!-- nBinom -->
     <g transform="translate(127.848281 62.80541)scale(0.15 -0.15)">
      <defs>
       <path d="M 1259 2228 
L 1259 519 
L 2272 519 
Q 2781 519 3026 730 
Q 3272 941 3272 1375 
Q 3272 1813 3026 2020 
Q 2781 2228 2272 2228 
L 1259 2228 
z
M 1259 4147 
L 1259 2741 
L 2194 2741 
Q 2656 2741 2882 2914 
Q 3109 3088 3109 3444 
Q 3109 3797 2882 3972 
Q 2656 4147 2194 4147 
L 1259 4147 
z
M 628 4666 
L 2241 4666 
Q 2963 4666 3353 4366 
Q 3744 4066 3744 3513 
Q 3744 3084 3544 2831 
Q 3344 2578 2956 2516 
Q 3422 2416 3680 2098 
Q 3938 1781 3938 1306 
Q 3938 681 3513 340 
Q 3088 0 2303 0 
L 628 0 
L 628 4666 
z
" id="DejaVuSans-42" transform="scale(0.015625)"/>
       <path d="M 3328 2828 
Q 3544 3216 3844 3400 
Q 4144 3584 4550 3584 
Q 5097 3584 5394 3201 
Q 5691 2819 5691 2113 
L 5691 0 
L 5113 0 
L 5113 2094 
Q 5113 2597 4934 2840 
Q 4756 3084 4391 3084 
Q 3944 3084 3684 2787 
Q 3425 2491 3425 1978 
L 3425 0 
L 2847 0 
L 2847 2094 
Q 2847 2600 2669 2842 
Q 2491 3084 2119 3084 
Q 1678 3084 1418 2786 
Q 1159 2488 1159 1978 
L 1159 0 
L 581 0 
L 581 3500 
L 1159 3500 
L 1159 2956 
Q 1356 3278 1631 3431 
Q 1906 3584 2284 3584 
Q 2666 3584 2933 3390 
Q 3200 3197 3328 2828 
z
" id="DejaVuSans-6d" transform="scale(0.015625)"/>
      </defs>
      <use xlink:href="#DejaVuSans-6e"/>
      <use x="63.378906" xlink:href="#DejaVuSans-42"/>
      <use x="131.982422" xlink:href="#DejaVuSans-69"/>
      <use x="159.765625" xlink:href="#DejaVuSans-6e"/>
      <use x="223.144531" xlink:href="#DejaVuSans-6f"/>
      <use x="284.326172" xlink:href="#DejaVuSans-6d"/>
     </g>
    </g>
   </g>
  </g>
  <g id="axes_2">
   <g id="patch_4">
    <path d="M 20.97 139.543396 
L 286.2 139.543396 
L 286.2 104.892453 
L 20.97 104.892453 
z
" style="fill:#ffffff;"/>
   </g>
   <g id="matplotlib.axis_2">
    <g id="xtick_5">
     <g id="line2d_11">
      <g>
       <use style="stroke:#000000;stroke-width:0.8;" x="20.97" xlink:href="#m52792bc326" y="139.543396"/>
      </g>
     </g>
    </g>
    <g id="xtick_6">
     <g id="line2d_12">
      <g>
       <use style="stroke:#000000;stroke-width:0.8;" x="91.698" xlink:href="#m52792bc326" y="139.543396"/>
      </g>
     </g>
    </g>
    <g id="xtick_7">
     <g id="line2d_13">
      <g>
       <use style="stroke:#000000;stroke-width:0.8;" x="162.426" xlink:href="#m52792bc326" y="139.543396"/>
      </g>
     </g>
    </g>
    <g id="xtick_8">
     <g id="line2d_14">
      <g>
       <use style="stroke:#000000;stroke-width:0.8;" x="233.154" xlink:href="#m52792bc326" y="139.543396"/>
      </g>
     </g>
    </g>
   </g>
   <g id="line2d_15">
    <path clip-path="url(#pecee74d277)" d="M 20.97 136.104901 
L 24.5064 129.721632 
L 28.0428 119.547373 
L 31.5792 110.283626 
L 35.1156 106.483281 
L 38.652 109.073343 
L 42.1884 115.683391 
L 45.7248 123.115987 
L 49.2612 129.238248 
L 52.7976 133.371982 
L 56.334 135.774177 
L 59.8704 137.009284 
L 63.4068 137.581405 
L 66.9432 137.823273 
L 74.016 137.951621 
L 112.9164 137.968353 
L 303.4 137.968353 
L 303.4 137.968353 
" style="fill:none;stroke:#000000;stroke-linecap:square;stroke-width:1.5;"/>
   </g>
   <g id="line2d_16">
    <path clip-path="url(#pecee74d277)" d="M 20.97 136.110663 
L 24.5064 129.730526 
L 28.0428 119.546068 
L 31.5792 110.26879 
L 35.1156 106.467496 
L 38.652 109.068874 
L 42.1884 115.690437 
L 45.7248 123.126747 
L 49.2612 129.245978 
L 52.7976 133.374818 
L 56.334 135.773606 
L 59.8704 137.00744 
L 63.4068 137.579645 
L 66.9432 137.822068 
L 74.016 137.951288 
L 109.38 137.968353 
L 303.4 137.968353 
L 303.4 137.968353 
" style="fill:none;stroke:#ff0000;stroke-dasharray:5.55,2.4;stroke-dashoffset:0;stroke-width:1.5;"/>
   </g>
   <g id="patch_5">
    <path d="M 20.97 139.543396 
L 286.2 139.543396 
" style="fill:none;stroke:#000000;stroke-linecap:square;stroke-linejoin:miter;stroke-width:0.8;"/>
   </g>
   <g id="text_4">
    <!-- 1.5 a.u. L -->
    <g transform="translate(216.220313 116.636619)scale(0.15 -0.15)">
     <defs>
      <path d="M 794 531 
L 1825 531 
L 1825 4091 
L 703 3866 
L 703 4441 
L 1819 4666 
L 2450 4666 
L 2450 531 
L 3481 531 
L 3481 0 
L 794 0 
L 794 531 
z
" id="DejaVuSans-31" transform="scale(0.015625)"/>
      <path d="M 691 4666 
L 3169 4666 
L 3169 4134 
L 1269 4134 
L 1269 2991 
Q 1406 3038 1543 3061 
Q 1681 3084 1819 3084 
Q 2600 3084 3056 2656 
Q 3513 2228 3513 1497 
Q 3513 744 3044 326 
Q 2575 -91 1722 -91 
Q 1428 -91 1123 -41 
Q 819 9 494 109 
L 494 744 
Q 775 591 1075 516 
Q 1375 441 1709 441 
Q 2250 441 2565 725 
Q 2881 1009 2881 1497 
Q 2881 1984 2565 2268 
Q 2250 2553 1709 2553 
Q 1456 2553 1204 2497 
Q 953 2441 691 2322 
L 691 4666 
z
" id="DejaVuSans-35" transform="scale(0.015625)"/>
     </defs>
     <use xlink:href="#DejaVuSans-31"/>
     <use x="63.623047" xlink:href="#DejaVuSans-2e"/>
     <use x="95.410156" xlink:href="#DejaVuSans-35"/>
     <use x="159.033203" xlink:href="#DejaVuSans-20"/>
     <use x="190.820312" xlink:href="#DejaVuSans-61"/>
     <use x="252.099609" xlink:href="#DejaVuSans-2e"/>
     <use x="283.886719" xlink:href="#DejaVuSans-75"/>
     <use x="347.265625" xlink:href="#DejaVuSans-2e"/>
     <use x="379.052734" xlink:href="#DejaVuSans-20"/>
     <use x="410.839844" xlink:href="#DejaVuSans-4c"/>
    </g>
   </g>
  </g>
  <g id="axes_3">
   <g id="patch_6">
    <path d="M 20.97 193.89434 
L 286.2 193.89434 
L 286.2 159.243396 
L 20.97 159.243396 
z
" style="fill:#ffffff;"/>
   </g>
   <g id="matplotlib.axis_3">
    <g id="xtick_9">
     <g id="line2d_17">
      <g>
       <use style="stroke:#000000;stroke-width:0.8;" x="20.97" xlink:href="#m52792bc326" y="193.89434"/>
      </g>
     </g>
    </g>
    <g id="xtick_10">
     <g id="line2d_18">
      <g>
       <use style="stroke:#000000;stroke-width:0.8;" x="91.698" xlink:href="#m52792bc326" y="193.89434"/>
      </g>
     </g>
    </g>
    <g id="xtick_11">
     <g id="line2d_19">
      <g>
       <use style="stroke:#000000;stroke-width:0.8;" x="162.426" xlink:href="#m52792bc326" y="193.89434"/>
      </g>
     </g>
    </g>
    <g id="xtick_12">
     <g id="line2d_20">
      <g>
       <use style="stroke:#000000;stroke-width:0.8;" x="233.154" xlink:href="#m52792bc326" y="193.89434"/>
      </g>
     </g>
    </g>
   </g>
   <g id="line2d_21">
    <path clip-path="url(#p1df65d914e)" d="M 20.97 192.252389 
L 24.5064 191.790942 
L 28.0428 190.215367 
L 31.5792 186.687468 
L 35.1156 180.920799 
L 38.652 173.716965 
L 42.1884 166.824606 
L 45.7248 162.144733 
L 49.2612 160.841234 
L 52.7976 162.92232 
L 56.334 167.440274 
L 63.4068 178.548473 
L 66.9432 183.177761 
L 70.4796 186.649689 
L 74.016 189.017857 
L 77.5524 190.506593 
L 81.0888 191.377304 
L 84.6252 191.854464 
L 88.1616 192.100851 
L 95.2344 192.277199 
L 116.4528 192.31918 
L 303.4 192.319297 
L 303.4 192.319297 
" style="fill:none;stroke:#000000;stroke-linecap:square;stroke-width:1.5;"/>
   </g>
   <g id="line2d_22">
    <path clip-path="url(#p1df65d914e)" d="M 20.97 192.253403 
L 24.5064 191.796111 
L 28.0428 190.227244 
L 31.5792 186.702241 
L 35.1156 180.927437 
L 38.652 173.705403 
L 42.1884 166.795588 
L 45.7248 162.110911 
L 49.2612 160.818439 
L 52.7976 162.919308 
L 56.334 167.454977 
L 63.4068 178.570401 
L 66.9432 183.192448 
L 70.4796 186.655956 
L 74.016 189.017687 
L 77.5524 190.502963 
L 81.0888 191.372703 
L 84.6252 191.850357 
L 88.1616 192.097793 
L 95.2344 192.275999 
L 116.4528 192.319166 
L 303.4 192.319297 
L 303.4 192.319297 
" style="fill:none;stroke:#ff0000;stroke-dasharray:5.55,2.4;stroke-dashoffset:0;stroke-width:1.5;"/>
   </g>
   <g id="patch_7">
    <path d="M 20.97 193.89434 
L 286.2 193.89434 
" style="fill:none;stroke:#000000;stroke-linecap:square;stroke-linejoin:miter;stroke-width:0.8;"/>
   </g>
   <g id="text_5">
    <!-- 3.0 a.u. L -->
    <g transform="translate(216.220313 170.987562)scale(0.15 -0.15)">
     <defs>
      <path d="M 2597 2516 
Q 3050 2419 3304 2112 
Q 3559 1806 3559 1356 
Q 3559 666 3084 287 
Q 2609 -91 1734 -91 
Q 1441 -91 1130 -33 
Q 819 25 488 141 
L 488 750 
Q 750 597 1062 519 
Q 1375 441 1716 441 
Q 2309 441 2620 675 
Q 2931 909 2931 1356 
Q 2931 1769 2642 2001 
Q 2353 2234 1838 2234 
L 1294 2234 
L 1294 2753 
L 1863 2753 
Q 2328 2753 2575 2939 
Q 2822 3125 2822 3475 
Q 2822 3834 2567 4026 
Q 2313 4219 1838 4219 
Q 1578 4219 1281 4162 
Q 984 4106 628 3988 
L 628 4550 
Q 988 4650 1302 4700 
Q 1616 4750 1894 4750 
Q 2613 4750 3031 4423 
Q 3450 4097 3450 3541 
Q 3450 3153 3228 2886 
Q 3006 2619 2597 2516 
z
" id="DejaVuSans-33" transform="scale(0.015625)"/>
     </defs>
     <use xlink:href="#DejaVuSans-33"/>
     <use x="63.623047" xlink:href="#DejaVuSans-2e"/>
     <use x="95.410156" xlink:href="#DejaVuSans-30"/>
     <use x="159.033203" xlink:href="#DejaVuSans-20"/>
     <use x="190.820312" xlink:href="#DejaVuSans-61"/>
     <use x="252.099609" xlink:href="#DejaVuSans-2e"/>
     <use x="283.886719" xlink:href="#DejaVuSans-75"/>
     <use x="347.265625" xlink:href="#DejaVuSans-2e"/>
     <use x="379.052734" xlink:href="#DejaVuSans-20"/>
     <use x="410.839844" xlink:href="#DejaVuSans-4c"/>
    </g>
   </g>
  </g>
  <g id="axes_4">
   <g id="patch_8">
    <path d="M 20.97 248.245283 
L 286.2 248.245283 
L 286.2 213.59434 
L 20.97 213.59434 
z
" style="fill:#ffffff;"/>
   </g>
   <g id="matplotlib.axis_4">
    <g id="xtick_13">
     <g id="line2d_23">
      <g>
       <use style="stroke:#000000;stroke-width:0.8;" x="20.97" xlink:href="#m52792bc326" y="248.245283"/>
      </g>
     </g>
    </g>
    <g id="xtick_14">
     <g id="line2d_24">
      <g>
       <use style="stroke:#000000;stroke-width:0.8;" x="91.698" xlink:href="#m52792bc326" y="248.245283"/>
      </g>
     </g>
    </g>
    <g id="xtick_15">
     <g id="line2d_25">
      <g>
       <use style="stroke:#000000;stroke-width:0.8;" x="162.426" xlink:href="#m52792bc326" y="248.245283"/>
      </g>
     </g>
    </g>
    <g id="xtick_16">
     <g id="line2d_26">
      <g>
       <use style="stroke:#000000;stroke-width:0.8;" x="233.154" xlink:href="#m52792bc326" y="248.245283"/>
      </g>
     </g>
    </g>
   </g>
   <g id="line2d_27">
    <path clip-path="url(#p6fc07d94d3)" d="M 20.97 246.667874 
L 28.0428 246.519923 
L 31.5792 246.099184 
L 35.1156 245.031408 
L 38.652 242.881129 
L 42.1884 239.319203 
L 45.7248 234.363752 
L 52.7976 222.734111 
L 56.334 218.075671 
L 59.8704 215.426448 
L 63.4068 215.190587 
L 66.9432 217.223268 
L 70.4796 220.948149 
L 81.0888 234.763016 
L 84.6252 238.409061 
L 88.1616 241.213737 
L 91.698 243.230127 
L 95.2344 244.595107 
L 98.7708 245.470013 
L 102.3072 246.003329 
L 105.8436 246.313602 
L 112.9164 246.578752 
L 127.062 246.666192 
L 300.3456 246.67024 
L 303.4 246.67024 
L 303.4 246.67024 
" style="fill:none;stroke:#000000;stroke-linecap:square;stroke-width:1.5;"/>
   </g>
   <g id="line2d_28">
    <path clip-path="url(#p6fc07d94d3)" d="M 20.97 246.66796 
L 28.0428 246.522947 
L 31.5792 246.107119 
L 35.1156 245.045975 
L 38.652 242.900076 
L 42.1884 239.334801 
L 45.7248 234.365459 
L 52.7976 222.6951 
L 56.334 218.028047 
L 59.8704 215.385686 
L 63.4068 215.169383 
L 66.9432 217.226286 
L 70.4796 220.971314 
L 81.0888 234.789604 
L 84.6252 238.425073 
L 88.1616 241.219672 
L 91.698 243.228654 
L 95.2344 244.589469 
L 98.7708 245.462948 
L 102.3072 245.99663 
L 105.8436 246.308145 
L 112.9164 246.576048 
L 127.062 246.665882 
L 289.7364 246.67024 
L 303.4 246.67024 
L 303.4 246.67024 
" style="fill:none;stroke:#ff0000;stroke-dasharray:5.55,2.4;stroke-dashoffset:0;stroke-width:1.5;"/>
   </g>
   <g id="patch_9">
    <path d="M 20.97 248.245283 
L 286.2 248.245283 
" style="fill:none;stroke:#000000;stroke-linecap:square;stroke-linejoin:miter;stroke-width:0.8;"/>
   </g>
   <g id="text_6">
    <!-- 4.8 a.u. L -->
    <g transform="translate(216.220313 225.338505)scale(0.15 -0.15)">
     <defs>
      <path d="M 2419 4116 
L 825 1625 
L 2419 1625 
L 2419 4116 
z
M 2253 4666 
L 3047 4666 
L 3047 1625 
L 3713 1625 
L 3713 1100 
L 3047 1100 
L 3047 0 
L 2419 0 
L 2419 1100 
L 313 1100 
L 313 1709 
L 2253 4666 
z
" id="DejaVuSans-34" transform="scale(0.015625)"/>
      <path d="M 2034 2216 
Q 1584 2216 1326 1975 
Q 1069 1734 1069 1313 
Q 1069 891 1326 650 
Q 1584 409 2034 409 
Q 2484 409 2743 651 
Q 3003 894 3003 1313 
Q 3003 1734 2745 1975 
Q 2488 2216 2034 2216 
z
M 1403 2484 
Q 997 2584 770 2862 
Q 544 3141 544 3541 
Q 544 4100 942 4425 
Q 1341 4750 2034 4750 
Q 2731 4750 3128 4425 
Q 3525 4100 3525 3541 
Q 3525 3141 3298 2862 
Q 3072 2584 2669 2484 
Q 3125 2378 3379 2068 
Q 3634 1759 3634 1313 
Q 3634 634 3220 271 
Q 2806 -91 2034 -91 
Q 1263 -91 848 271 
Q 434 634 434 1313 
Q 434 1759 690 2068 
Q 947 2378 1403 2484 
z
M 1172 3481 
Q 1172 3119 1398 2916 
Q 1625 2713 2034 2713 
Q 2441 2713 2670 2916 
Q 2900 3119 2900 3481 
Q 2900 3844 2670 4047 
Q 2441 4250 2034 4250 
Q 1625 4250 1398 4047 
Q 1172 3844 1172 3481 
z
" id="DejaVuSans-38" transform="scale(0.015625)"/>
     </defs>
     <use xlink:href="#DejaVuSans-34"/>
     <use x="63.623047" xlink:href="#DejaVuSans-2e"/>
     <use x="95.410156" xlink:href="#DejaVuSans-38"/>
     <use x="159.033203" xlink:href="#DejaVuSans-20"/>
     <use x="190.820312" xlink:href="#DejaVuSans-61"/>
     <use x="252.099609" xlink:href="#DejaVuSans-2e"/>
     <use x="283.886719" xlink:href="#DejaVuSans-75"/>
     <use x="347.265625" xlink:href="#DejaVuSans-2e"/>
     <use x="379.052734" xlink:href="#DejaVuSans-20"/>
     <use x="410.839844" xlink:href="#DejaVuSans-4c"/>
    </g>
   </g>
  </g>
  <g id="axes_5">
   <g id="patch_10">
    <path d="M 20.97 302.596226 
L 286.2 302.596226 
L 286.2 267.945283 
L 20.97 267.945283 
z
" style="fill:#ffffff;"/>
   </g>
   <g id="matplotlib.axis_5">
    <g id="xtick_17">
     <g id="line2d_29">
      <g>
       <use style="stroke:#000000;stroke-width:0.8;" x="20.97" xlink:href="#m52792bc326" y="302.596226"/>
      </g>
     </g>
    </g>
    <g id="xtick_18">
     <g id="line2d_30">
      <g>
       <use style="stroke:#000000;stroke-width:0.8;" x="91.698" xlink:href="#m52792bc326" y="302.596226"/>
      </g>
     </g>
    </g>
    <g id="xtick_19">
     <g id="line2d_31">
      <g>
       <use style="stroke:#000000;stroke-width:0.8;" x="162.426" xlink:href="#m52792bc326" y="302.596226"/>
      </g>
     </g>
    </g>
    <g id="xtick_20">
     <g id="line2d_32">
      <g>
       <use style="stroke:#000000;stroke-width:0.8;" x="233.154" xlink:href="#m52792bc326" y="302.596226"/>
      </g>
     </g>
    </g>
   </g>
   <g id="line2d_33">
    <path clip-path="url(#pc4ef07e359)" d="M 20.97 301.021104 
L 31.5792 300.979722 
L 35.1156 300.867431 
L 38.652 300.562259 
L 42.1884 299.872804 
L 45.7248 298.543557 
L 49.2612 296.316891 
L 52.7976 293.03671 
L 56.334 288.757175 
L 63.4068 278.747726 
L 66.9432 274.286285 
L 70.4796 271.073772 
L 74.016 269.558336 
L 77.5524 269.884195 
L 81.0888 271.884311 
L 84.6252 275.153871 
L 88.1616 279.169038 
L 91.698 283.408449 
L 95.2344 287.444668 
L 98.7708 290.990802 
L 102.3072 293.904686 
L 105.8436 296.163697 
L 109.38 297.826234 
L 112.9164 298.993146 
L 116.4528 299.777102 
L 119.9892 300.282705 
L 123.5256 300.596508 
L 130.5984 300.89293 
L 141.2076 301.003974 
L 190.7172 301.021183 
L 303.4 301.021184 
L 303.4 301.021184 
" style="fill:none;stroke:#000000;stroke-linecap:square;stroke-width:1.5;"/>
   </g>
   <g id="line2d_34">
    <path clip-path="url(#pc4ef07e359)" d="M 20.97 301.021109 
L 31.5792 300.981079 
L 35.1156 300.871244 
L 38.652 300.570552 
L 42.1884 299.887135 
L 45.7248 298.563252 
L 49.2612 296.337571 
L 52.7976 293.050512 
L 56.334 288.755352 
L 63.4068 278.7047 
L 66.9432 274.231713 
L 70.4796 271.020884 
L 74.016 269.520326 
L 77.5524 269.869622 
L 81.0888 271.89466 
L 84.6252 275.183997 
L 88.1616 279.209804 
L 91.698 283.450113 
L 95.2344 287.479618 
L 98.7708 291.014912 
L 102.3072 293.917262 
L 105.8436 296.166514 
L 109.38 297.822266 
L 112.9164 298.985476 
L 116.4528 299.768241 
L 119.9892 300.274325 
L 123.5256 300.589482 
L 130.5984 300.889058 
L 141.2076 301.002938 
L 187.1808 301.021183 
L 303.4 301.021184 
L 303.4 301.021184 
" style="fill:none;stroke:#ff0000;stroke-dasharray:5.55,2.4;stroke-dashoffset:0;stroke-width:1.5;"/>
   </g>
   <g id="patch_11">
    <path d="M 20.97 302.596226 
L 286.2 302.596226 
" style="fill:none;stroke:#000000;stroke-linecap:square;stroke-linejoin:miter;stroke-width:0.8;"/>
   </g>
   <g id="text_7">
    <!-- 6.9 a.u. L -->
    <g transform="translate(216.220313 279.689449)scale(0.15 -0.15)">
     <defs>
      <path d="M 2113 2584 
Q 1688 2584 1439 2293 
Q 1191 2003 1191 1497 
Q 1191 994 1439 701 
Q 1688 409 2113 409 
Q 2538 409 2786 701 
Q 3034 994 3034 1497 
Q 3034 2003 2786 2293 
Q 2538 2584 2113 2584 
z
M 3366 4563 
L 3366 3988 
Q 3128 4100 2886 4159 
Q 2644 4219 2406 4219 
Q 1781 4219 1451 3797 
Q 1122 3375 1075 2522 
Q 1259 2794 1537 2939 
Q 1816 3084 2150 3084 
Q 2853 3084 3261 2657 
Q 3669 2231 3669 1497 
Q 3669 778 3244 343 
Q 2819 -91 2113 -91 
Q 1303 -91 875 529 
Q 447 1150 447 2328 
Q 447 3434 972 4092 
Q 1497 4750 2381 4750 
Q 2619 4750 2861 4703 
Q 3103 4656 3366 4563 
z
" id="DejaVuSans-36" transform="scale(0.015625)"/>
      <path d="M 703 97 
L 703 672 
Q 941 559 1184 500 
Q 1428 441 1663 441 
Q 2288 441 2617 861 
Q 2947 1281 2994 2138 
Q 2813 1869 2534 1725 
Q 2256 1581 1919 1581 
Q 1219 1581 811 2004 
Q 403 2428 403 3163 
Q 403 3881 828 4315 
Q 1253 4750 1959 4750 
Q 2769 4750 3195 4129 
Q 3622 3509 3622 2328 
Q 3622 1225 3098 567 
Q 2575 -91 1691 -91 
Q 1453 -91 1209 -44 
Q 966 3 703 97 
z
M 1959 2075 
Q 2384 2075 2632 2365 
Q 2881 2656 2881 3163 
Q 2881 3666 2632 3958 
Q 2384 4250 1959 4250 
Q 1534 4250 1286 3958 
Q 1038 3666 1038 3163 
Q 1038 2656 1286 2365 
Q 1534 2075 1959 2075 
z
" id="DejaVuSans-39" transform="scale(0.015625)"/>
     </defs>
     <use xlink:href="#DejaVuSans-36"/>
     <use x="63.623047" xlink:href="#DejaVuSans-2e"/>
     <use x="95.410156" xlink:href="#DejaVuSans-39"/>
     <use x="159.033203" xlink:href="#DejaVuSans-20"/>
     <use x="190.820312" xlink:href="#DejaVuSans-61"/>
     <use x="252.099609" xlink:href="#DejaVuSans-2e"/>
     <use x="283.886719" xlink:href="#DejaVuSans-75"/>
     <use x="347.265625" xlink:href="#DejaVuSans-2e"/>
     <use x="379.052734" xlink:href="#DejaVuSans-20"/>
     <use x="410.839844" xlink:href="#DejaVuSans-4c"/>
    </g>
   </g>
  </g>
  <g id="axes_6">
   <g id="patch_12">
    <path d="M 20.97 356.94717 
L 286.2 356.94717 
L 286.2 322.296226 
L 20.97 322.296226 
z
" style="fill:#ffffff;"/>
   </g>
   <g id="matplotlib.axis_6">
    <g id="xtick_21">
     <g id="line2d_35">
      <g>
       <use style="stroke:#000000;stroke-width:0.8;" x="20.97" xlink:href="#m52792bc326" y="356.94717"/>
      </g>
     </g>
    </g>
    <g id="xtick_22">
     <g id="line2d_36">
      <g>
       <use style="stroke:#000000;stroke-width:0.8;" x="91.698" xlink:href="#m52792bc326" y="356.94717"/>
      </g>
     </g>
    </g>
    <g id="xtick_23">
     <g id="line2d_37">
      <g>
       <use style="stroke:#000000;stroke-width:0.8;" x="162.426" xlink:href="#m52792bc326" y="356.94717"/>
      </g>
     </g>
    </g>
    <g id="xtick_24">
     <g id="line2d_38">
      <g>
       <use style="stroke:#000000;stroke-width:0.8;" x="233.154" xlink:href="#m52792bc326" y="356.94717"/>
      </g>
     </g>
    </g>
   </g>
   <g id="line2d_39">
    <path clip-path="url(#p04ca4c6f72)" d="M 20.97 355.372125 
L 38.652 355.333697 
L 42.1884 355.253689 
L 45.7248 355.057699 
L 49.2612 354.638156 
L 52.7976 353.841877 
L 56.334 352.487263 
L 59.8704 350.405157 
L 63.4068 347.497626 
L 66.9432 343.797559 
L 70.4796 339.505945 
L 74.016 334.987349 
L 77.5524 330.71748 
L 81.0888 327.194146 
L 84.6252 324.836678 
L 88.1616 323.902988 
L 91.698 324.446599 
L 95.2344 326.321887 
L 98.7708 329.230607 
L 102.3072 332.792246 
L 109.38 340.368101 
L 112.9164 343.79281 
L 116.4528 346.739521 
L 119.9892 349.147007 
L 123.5256 351.024801 
L 127.062 352.42872 
L 130.5984 353.438003 
L 134.1348 354.137472 
L 137.6712 354.605772 
L 141.2076 354.909206 
L 148.2804 355.215952 
L 158.8896 355.3467 
L 197.79 355.372121 
L 303.4 355.372127 
L 303.4 355.372127 
" style="fill:none;stroke:#000000;stroke-linecap:square;stroke-width:1.5;"/>
   </g>
   <g id="line2d_40">
    <path clip-path="url(#p04ca4c6f72)" d="M 20.97 355.372125 
L 38.652 355.335112 
L 42.1884 355.257108 
L 45.7248 355.064611 
L 49.2612 354.649985 
L 52.7976 353.859033 
L 56.334 352.508038 
L 59.8704 350.425109 
L 63.4068 347.510097 
L 66.9432 343.795537 
L 70.4796 339.48473 
L 74.016 334.946921 
L 77.5524 330.663399 
L 81.0888 327.136433 
L 84.6252 324.787004 
L 88.1616 323.871269 
L 91.698 324.438284 
L 95.2344 326.336841 
L 98.7708 329.263781 
L 102.3072 332.835639 
L 109.38 340.407756 
L 112.9164 343.822636 
L 116.4528 346.757955 
L 119.9892 349.154835 
L 123.5256 351.024273 
L 127.062 352.422644 
L 130.5984 353.429042 
L 134.1348 354.127729 
L 137.6712 354.596652 
L 141.2076 354.901463 
L 148.2804 355.21141 
L 158.8896 355.345291 
L 194.2536 355.372109 
L 303.4 355.372127 
L 303.4 355.372127 
" style="fill:none;stroke:#ff0000;stroke-dasharray:5.55,2.4;stroke-dashoffset:0;stroke-width:1.5;"/>
   </g>
   <g id="patch_13">
    <path d="M 20.97 356.94717 
L 286.2 356.94717 
" style="fill:none;stroke:#000000;stroke-linecap:square;stroke-linejoin:miter;stroke-width:0.8;"/>
   </g>
   <g id="text_8">
    <!-- 9.7 a.u. L -->
    <g transform="translate(216.220313 334.040392)scale(0.15 -0.15)">
     <defs>
      <path d="M 525 4666 
L 3525 4666 
L 3525 4397 
L 1831 0 
L 1172 0 
L 2766 4134 
L 525 4134 
L 525 4666 
z
" id="DejaVuSans-37" transform="scale(0.015625)"/>
     </defs>
     <use xlink:href="#DejaVuSans-39"/>
     <use x="63.623047" xlink:href="#DejaVuSans-2e"/>
     <use x="95.410156" xlink:href="#DejaVuSans-37"/>
     <use x="159.033203" xlink:href="#DejaVuSans-20"/>
     <use x="190.820312" xlink:href="#DejaVuSans-61"/>
     <use x="252.099609" xlink:href="#DejaVuSans-2e"/>
     <use x="283.886719" xlink:href="#DejaVuSans-75"/>
     <use x="347.265625" xlink:href="#DejaVuSans-2e"/>
     <use x="379.052734" xlink:href="#DejaVuSans-20"/>
     <use x="410.839844" xlink:href="#DejaVuSans-4c"/>
    </g>
   </g>
  </g>
  <g id="axes_7">
   <g id="patch_14">
    <path d="M 20.97 411.298113 
L 286.2 411.298113 
L 286.2 376.64717 
L 20.97 376.64717 
z
" style="fill:#ffffff;"/>
   </g>
   <g id="matplotlib.axis_7">
    <g id="xtick_25">
     <g id="line2d_41">
      <g>
       <use style="stroke:#000000;stroke-width:0.8;" x="20.97" xlink:href="#m52792bc326" y="411.298113"/>
      </g>
     </g>
    </g>
    <g id="xtick_26">
     <g id="line2d_42">
      <g>
       <use style="stroke:#000000;stroke-width:0.8;" x="91.698" xlink:href="#m52792bc326" y="411.298113"/>
      </g>
     </g>
    </g>
    <g id="xtick_27">
     <g id="line2d_43">
      <g>
       <use style="stroke:#000000;stroke-width:0.8;" x="162.426" xlink:href="#m52792bc326" y="411.298113"/>
      </g>
     </g>
    </g>
    <g id="xtick_28">
     <g id="line2d_44">
      <g>
       <use style="stroke:#000000;stroke-width:0.8;" x="233.154" xlink:href="#m52792bc326" y="411.298113"/>
      </g>
     </g>
    </g>
   </g>
   <g id="line2d_45">
    <path clip-path="url(#p4d8c55fd44)" d="M 20.97 409.72307 
L 49.2612 409.652683 
L 52.7976 409.546681 
L 56.334 409.323733 
L 59.8704 408.898115 
L 63.4068 408.155172 
L 66.9432 406.962502 
L 70.4796 405.193894 
L 74.016 402.763682 
L 77.5524 399.66399 
L 81.0888 395.993702 
L 88.1616 387.901309 
L 91.698 384.165163 
L 95.2344 381.1282 
L 98.7708 379.093855 
L 102.3072 378.250021 
L 105.8436 378.642336 
L 109.38 380.175558 
L 112.9164 382.640073 
L 116.4528 385.754854 
L 127.062 396.091783 
L 130.5984 399.109937 
L 134.1348 401.699013 
L 137.6712 403.826634 
L 141.2076 405.507977 
L 144.744 406.78947 
L 148.2804 407.733752 
L 151.8168 408.407749 
L 155.3532 408.874514 
L 162.426 409.394179 
L 169.4988 409.606685 
L 183.6444 409.711789 
L 264.9816 409.72307 
L 303.4 409.72307 
L 303.4 409.72307 
" style="fill:none;stroke:#000000;stroke-linecap:square;stroke-width:1.5;"/>
   </g>
   <g id="line2d_46">
    <path clip-path="url(#p4d8c55fd44)" d="M 20.97 409.72307 
L 49.2612 409.654932 
L 52.7976 409.551144 
L 56.334 409.331525 
L 59.8704 408.910113 
L 63.4068 408.171393 
L 66.9432 406.981457 
L 70.4796 405.21225 
L 74.016 402.776546 
L 77.5524 399.665956 
L 81.0888 395.980458 
L 88.1616 387.856719 
L 91.698 384.111992 
L 95.2344 381.074984 
L 98.7708 379.049654 
L 102.3072 378.222213 
L 105.8436 378.63493 
L 109.38 380.188503 
L 112.9164 382.669653 
L 116.4528 385.794927 
L 127.062 396.125356 
L 130.5984 399.133807 
L 134.1348 401.712801 
L 137.6712 403.831499 
L 141.2076 405.505972 
L 144.744 406.782934 
L 148.2804 407.724846 
L 151.8168 408.398192 
L 155.3532 408.865486 
L 162.426 409.387825 
L 169.4988 409.60309 
L 183.6444 409.711065 
L 261.4452 409.72307 
L 303.4 409.72307 
L 303.4 409.72307 
" style="fill:none;stroke:#ff0000;stroke-dasharray:5.55,2.4;stroke-dashoffset:0;stroke-width:1.5;"/>
   </g>
   <g id="patch_15">
    <path d="M 20.97 411.298113 
L 286.2 411.298113 
" style="fill:none;stroke:#000000;stroke-linecap:square;stroke-linejoin:miter;stroke-width:0.8;"/>
   </g>
   <g id="text_9">
    <!-- 13.5 a.u. L -->
    <g transform="translate(206.676563 388.391335)scale(0.15 -0.15)">
     <use xlink:href="#DejaVuSans-31"/>
     <use x="63.623047" xlink:href="#DejaVuSans-33"/>
     <use x="127.246094" xlink:href="#DejaVuSans-2e"/>
     <use x="159.033203" xlink:href="#DejaVuSans-35"/>
     <use x="222.65625" xlink:href="#DejaVuSans-20"/>
     <use x="254.443359" xlink:href="#DejaVuSans-61"/>
     <use x="315.722656" xlink:href="#DejaVuSans-2e"/>
     <use x="347.509766" xlink:href="#DejaVuSans-75"/>
     <use x="410.888672" xlink:href="#DejaVuSans-2e"/>
     <use x="442.675781" xlink:href="#DejaVuSans-20"/>
     <use x="474.462891" xlink:href="#DejaVuSans-4c"/>
    </g>
   </g>
  </g>
  <g id="axes_8">
   <g id="patch_16">
    <path d="M 20.97 465.649057 
L 286.2 465.649057 
L 286.2 430.998113 
L 20.97 430.998113 
z
" style="fill:#ffffff;"/>
   </g>
   <g id="matplotlib.axis_8">
    <g id="xtick_29">
     <g id="line2d_47">
      <g>
       <use style="stroke:#000000;stroke-width:0.8;" x="20.97" xlink:href="#m52792bc326" y="465.649057"/>
      </g>
     </g>
    </g>
    <g id="xtick_30">
     <g id="line2d_48">
      <g>
       <use style="stroke:#000000;stroke-width:0.8;" x="91.698" xlink:href="#m52792bc326" y="465.649057"/>
      </g>
     </g>
    </g>
    <g id="xtick_31">
     <g id="line2d_49">
      <g>
       <use style="stroke:#000000;stroke-width:0.8;" x="162.426" xlink:href="#m52792bc326" y="465.649057"/>
      </g>
     </g>
    </g>
    <g id="xtick_32">
     <g id="line2d_50">
      <g>
       <use style="stroke:#000000;stroke-width:0.8;" x="233.154" xlink:href="#m52792bc326" y="465.649057"/>
      </g>
     </g>
    </g>
   </g>
   <g id="line2d_51">
    <path clip-path="url(#p4f5626d630)" d="M 20.97 464.074014 
L 59.8704 464.008964 
L 66.9432 463.761421 
L 70.4796 463.460302 
L 74.016 462.946606 
L 77.5524 462.127556 
L 81.0888 460.903453 
L 84.6252 459.184785 
L 88.1616 456.91454 
L 91.698 454.091408 
L 95.2344 450.787926 
L 105.8436 439.872325 
L 109.38 436.783419 
L 112.9164 434.423235 
L 116.4528 432.989748 
L 119.9892 432.588868 
L 123.5256 433.223029 
L 127.062 434.796721 
L 130.5984 437.136461 
L 134.1348 440.020023 
L 144.744 449.631231 
L 148.2804 452.53054 
L 151.8168 455.082372 
L 155.3532 457.243366 
L 158.8896 459.01003 
L 162.426 460.407926 
L 165.9624 461.48072 
L 169.4988 462.280581 
L 173.0352 462.860803 
L 176.5716 463.270805 
L 183.6444 463.743358 
L 190.7172 463.948435 
L 204.8628 464.059603 
L 272.0544 464.074014 
L 303.4 464.074014 
L 303.4 464.074014 
" style="fill:none;stroke:#000000;stroke-linecap:square;stroke-width:1.5;"/>
   </g>
   <g id="line2d_52">
    <path clip-path="url(#p4f5626d630)" d="M 20.97 464.074014 
L 59.8704 464.010742 
L 66.9432 463.766896 
L 70.4796 463.468598 
L 74.016 462.95797 
L 77.5524 462.141507 
L 81.0888 460.918493 
L 84.6252 459.198333 
L 88.1616 456.923218 
L 91.698 454.091692 
L 95.2344 450.777056 
L 105.8436 439.830708 
L 109.38 436.739748 
L 112.9164 434.383715 
L 116.4528 432.960096 
L 119.9892 432.573156 
L 123.5256 433.222934 
L 127.062 434.811353 
L 130.5984 437.162755 
L 134.1348 440.05354 
L 144.744 449.659769 
L 148.2804 452.551844 
L 151.8168 455.095892 
L 155.3532 457.249662 
L 158.8896 459.010391 
L 162.426 460.403984 
L 165.9624 461.474118 
L 169.4988 462.272749 
L 173.0352 462.852836 
L 176.5716 463.263437 
L 183.6444 463.738163 
L 190.7172 463.945395 
L 204.8628 464.058912 
L 272.0544 464.074014 
L 303.4 464.074014 
L 303.4 464.074014 
" style="fill:none;stroke:#ff0000;stroke-dasharray:5.55,2.4;stroke-dashoffset:0;stroke-width:1.5;"/>
   </g>
   <g id="patch_17">
    <path d="M 20.97 465.649057 
L 286.2 465.649057 
" style="fill:none;stroke:#000000;stroke-linecap:square;stroke-linejoin:miter;stroke-width:0.8;"/>
   </g>
   <g id="text_10">
    <!-- 19.7 a.u. L -->
    <g transform="translate(206.676563 442.742279)scale(0.15 -0.15)">
     <use xlink:href="#DejaVuSans-31"/>
     <use x="63.623047" xlink:href="#DejaVuSans-39"/>
     <use x="127.246094" xlink:href="#DejaVuSans-2e"/>
     <use x="159.033203" xlink:href="#DejaVuSans-37"/>
     <use x="222.65625" xlink:href="#DejaVuSans-20"/>
     <use x="254.443359" xlink:href="#DejaVuSans-61"/>
     <use x="315.722656" xlink:href="#DejaVuSans-2e"/>
     <use x="347.509766" xlink:href="#DejaVuSans-75"/>
     <use x="410.888672" xlink:href="#DejaVuSans-2e"/>
     <use x="442.675781" xlink:href="#DejaVuSans-20"/>
     <use x="474.462891" xlink:href="#DejaVuSans-4c"/>
    </g>
   </g>
  </g>
  <g id="axes_9">
   <g id="patch_18">
    <path d="M 20.97 520 
L 286.2 520 
L 286.2 485.349057 
L 20.97 485.349057 
z
" style="fill:#ffffff;"/>
   </g>
   <g id="matplotlib.axis_9">
    <g id="xtick_33">
     <g id="line2d_53">
      <g>
       <use style="stroke:#000000;stroke-width:0.8;" x="20.97" xlink:href="#m52792bc326" y="520"/>
      </g>
     </g>
     <g id="text_11">
      <!-- 0 -->
      <g transform="translate(16.198125 538.397656)scale(0.15 -0.15)">
       <use xlink:href="#DejaVuSans-30"/>
      </g>
     </g>
    </g>
    <g id="xtick_34">
     <g id="line2d_54">
      <g>
       <use style="stroke:#000000;stroke-width:0.8;" x="91.698" xlink:href="#m52792bc326" y="520"/>
      </g>
     </g>
     <g id="text_12">
      <!-- 20 -->
      <g transform="translate(82.15425 538.397656)scale(0.15 -0.15)">
       <use xlink:href="#DejaVuSans-32"/>
       <use x="63.623047" xlink:href="#DejaVuSans-30"/>
      </g>
     </g>
    </g>
    <g id="xtick_35">
     <g id="line2d_55">
      <g>
       <use style="stroke:#000000;stroke-width:0.8;" x="162.426" xlink:href="#m52792bc326" y="520"/>
      </g>
     </g>
     <g id="text_13">
      <!-- 40 -->
      <g transform="translate(152.88225 538.397656)scale(0.15 -0.15)">
       <use xlink:href="#DejaVuSans-34"/>
       <use x="63.623047" xlink:href="#DejaVuSans-30"/>
      </g>
     </g>
    </g>
    <g id="xtick_36">
     <g id="line2d_56">
      <g>
       <use style="stroke:#000000;stroke-width:0.8;" x="233.154" xlink:href="#m52792bc326" y="520"/>
      </g>
     </g>
     <g id="text_14">
      <!-- 60 -->
      <g transform="translate(223.61025 538.397656)scale(0.15 -0.15)">
       <use xlink:href="#DejaVuSans-36"/>
       <use x="63.623047" xlink:href="#DejaVuSans-30"/>
      </g>
     </g>
    </g>
    <g id="text_15">
     <!-- Population Response -->
     <g transform="translate(75.780703 556.914844)scale(0.15 -0.15)">
      <defs>
       <path d="M 1159 525 
L 1159 -1331 
L 581 -1331 
L 581 3500 
L 1159 3500 
L 1159 2969 
Q 1341 3281 1617 3432 
Q 1894 3584 2278 3584 
Q 2916 3584 3314 3078 
Q 3713 2572 3713 1747 
Q 3713 922 3314 415 
Q 2916 -91 2278 -91 
Q 1894 -91 1617 61 
Q 1341 213 1159 525 
z
M 3116 1747 
Q 3116 2381 2855 2742 
Q 2594 3103 2138 3103 
Q 1681 3103 1420 2742 
Q 1159 2381 1159 1747 
Q 1159 1113 1420 752 
Q 1681 391 2138 391 
Q 2594 391 2855 752 
Q 3116 1113 3116 1747 
z
" id="DejaVuSans-70" transform="scale(0.015625)"/>
       <path d="M 603 4863 
L 1178 4863 
L 1178 0 
L 603 0 
L 603 4863 
z
" id="DejaVuSans-6c" transform="scale(0.015625)"/>
       <path d="M 1172 4494 
L 1172 3500 
L 2356 3500 
L 2356 3053 
L 1172 3053 
L 1172 1153 
Q 1172 725 1289 603 
Q 1406 481 1766 481 
L 2356 481 
L 2356 0 
L 1766 0 
Q 1100 0 847 248 
Q 594 497 594 1153 
L 594 3053 
L 172 3053 
L 172 3500 
L 594 3500 
L 594 4494 
L 1172 4494 
z
" id="DejaVuSans-74" transform="scale(0.015625)"/>
       <path d="M 2841 2188 
Q 3044 2119 3236 1894 
Q 3428 1669 3622 1275 
L 4263 0 
L 3584 0 
L 2988 1197 
Q 2756 1666 2539 1819 
Q 2322 1972 1947 1972 
L 1259 1972 
L 1259 0 
L 628 0 
L 628 4666 
L 2053 4666 
Q 2853 4666 3247 4331 
Q 3641 3997 3641 3322 
Q 3641 2881 3436 2590 
Q 3231 2300 2841 2188 
z
M 1259 4147 
L 1259 2491 
L 2053 2491 
Q 2509 2491 2742 2702 
Q 2975 2913 2975 3322 
Q 2975 3731 2742 3939 
Q 2509 4147 2053 4147 
L 1259 4147 
z
" id="DejaVuSans-52" transform="scale(0.015625)"/>
       <path d="M 3597 1894 
L 3597 1613 
L 953 1613 
Q 991 1019 1311 708 
Q 1631 397 2203 397 
Q 2534 397 2845 478 
Q 3156 559 3463 722 
L 3463 178 
Q 3153 47 2828 -22 
Q 2503 -91 2169 -91 
Q 1331 -91 842 396 
Q 353 884 353 1716 
Q 353 2575 817 3079 
Q 1281 3584 2069 3584 
Q 2775 3584 3186 3129 
Q 3597 2675 3597 1894 
z
M 3022 2063 
Q 3016 2534 2758 2815 
Q 2500 3097 2075 3097 
Q 1594 3097 1305 2825 
Q 1016 2553 972 2059 
L 3022 2063 
z
" id="DejaVuSans-65" transform="scale(0.015625)"/>
      </defs>
      <use xlink:href="#DejaVuSans-50"/>
      <use x="56.677734" xlink:href="#DejaVuSans-6f"/>
      <use x="117.859375" xlink:href="#DejaVuSans-70"/>
      <use x="181.335938" xlink:href="#DejaVuSans-75"/>
      <use x="244.714844" xlink:href="#DejaVuSans-6c"/>
      <use x="272.498047" xlink:href="#DejaVuSans-61"/>
      <use x="333.777344" xlink:href="#DejaVuSans-74"/>
      <use x="372.986328" xlink:href="#DejaVuSans-69"/>
      <use x="400.769531" xlink:href="#DejaVuSans-6f"/>
      <use x="461.951172" xlink:href="#DejaVuSans-6e"/>
      <use x="525.330078" xlink:href="#DejaVuSans-20"/>
      <use x="557.117188" xlink:href="#DejaVuSans-52"/>
      <use x="622.099609" xlink:href="#DejaVuSans-65"/>
      <use x="683.623047" xlink:href="#DejaVuSans-73"/>
      <use x="735.722656" xlink:href="#DejaVuSans-70"/>
      <use x="799.199219" xlink:href="#DejaVuSans-6f"/>
      <use x="860.380859" xlink:href="#DejaVuSans-6e"/>
      <use x="923.759766" xlink:href="#DejaVuSans-73"/>
      <use x="975.859375" xlink:href="#DejaVuSans-65"/>
     </g>
    </g>
   </g>
   <g id="line2d_57">
    <path clip-path="url(#p2205ba653f)" d="M 20.97 518.424957 
L 81.0888 518.329319 
L 88.1616 518.071288 
L 91.698 517.795093 
L 95.2344 517.355524 
L 98.7708 516.689966 
L 102.3072 515.729892 
L 105.8436 514.409034 
L 109.38 512.674609 
L 112.9164 510.500224 
L 116.4528 507.898215 
L 119.9892 504.928734 
L 130.5984 495.148262 
L 134.1348 492.218835 
L 137.6712 489.790103 
L 141.2076 488.030699 
L 144.744 487.058682 
L 148.2804 486.928727 
L 151.8168 487.627951 
L 155.3532 489.080576 
L 158.8896 491.160064 
L 162.426 493.706252 
L 169.4988 499.503592 
L 173.0352 502.431125 
L 176.5716 505.203238 
L 180.108 507.730014 
L 183.6444 509.955915 
L 187.1808 511.856607 
L 190.7172 513.433392 
L 194.2536 514.706523 
L 197.79 515.708499 
L 201.3264 516.478095 
L 204.8628 517.055591 
L 208.3992 517.479345 
L 215.472 517.997666 
L 222.5448 518.244859 
L 236.6904 518.398741 
L 279.1272 518.424938 
L 303.4 518.424957 
L 303.4 518.424957 
" style="fill:none;stroke:#000000;stroke-linecap:square;stroke-width:1.5;"/>
   </g>
   <g id="line2d_58">
    <path clip-path="url(#p2205ba653f)" d="M 20.97 518.424957 
L 81.0888 518.330431 
L 88.1616 518.07401 
L 91.698 517.798919 
L 95.2344 517.360509 
L 98.7708 516.695945 
L 102.3072 515.736399 
L 105.8436 514.415272 
L 109.38 512.679495 
L 112.9164 510.502525 
L 116.4528 507.89677 
L 119.9892 504.922708 
L 130.5984 495.129889 
L 134.1348 492.199177 
L 137.6712 489.771361 
L 141.2076 488.015067 
L 144.744 487.047978 
L 148.2804 486.924099 
L 151.8168 487.629722 
L 155.3532 489.08823 
L 158.8896 491.172394 
L 162.426 493.721602 
L 169.4988 499.51965 
L 173.0352 502.445314 
L 176.5716 505.214636 
L 180.108 507.73818 
L 183.6444 509.960845 
L 187.1808 511.858632 
L 190.7172 513.433055 
L 194.2536 514.704462 
L 197.79 515.705345 
L 201.3264 516.474402 
L 204.8628 517.051796 
L 208.3992 517.47576 
L 215.472 517.99497 
L 222.5448 518.243145 
L 236.6904 518.398261 
L 279.1272 518.424937 
L 303.4 518.424957 
L 303.4 518.424957 
" style="fill:none;stroke:#ff0000;stroke-dasharray:5.55,2.4;stroke-dashoffset:0;stroke-width:1.5;"/>
   </g>
   <g id="patch_19">
    <path d="M 20.97 520 
L 286.2 520 
" style="fill:none;stroke:#000000;stroke-linecap:square;stroke-linejoin:miter;stroke-width:0.8;"/>
   </g>
   <g id="text_16">
    <!-- 39.1 a.u. L -->
    <g transform="translate(206.676563 497.093222)scale(0.15 -0.15)">
     <use xlink:href="#DejaVuSans-33"/>
     <use x="63.623047" xlink:href="#DejaVuSans-39"/>
     <use x="127.246094" xlink:href="#DejaVuSans-2e"/>
     <use x="159.033203" xlink:href="#DejaVuSans-31"/>
     <use x="222.65625" xlink:href="#DejaVuSans-20"/>
     <use x="254.443359" xlink:href="#DejaVuSans-61"/>
     <use x="315.722656" xlink:href="#DejaVuSans-2e"/>
     <use x="347.509766" xlink:href="#DejaVuSans-75"/>
     <use x="410.888672" xlink:href="#DejaVuSans-2e"/>
     <use x="442.675781" xlink:href="#DejaVuSans-20"/>
     <use x="474.462891" xlink:href="#DejaVuSans-4c"/>
    </g>
   </g>
  </g>
 </g>
 <defs>
  <clipPath id="pf7d26aaf53">
   <rect height="34.650943" width="265.23" x="20.97" y="50.541509"/>
  </clipPath>
  <clipPath id="pecee74d277">
   <rect height="34.650943" width="265.23" x="20.97" y="104.892453"/>
  </clipPath>
  <clipPath id="p1df65d914e">
   <rect height="34.650943" width="265.23" x="20.97" y="159.243396"/>
  </clipPath>
  <clipPath id="p6fc07d94d3">
   <rect height="34.650943" width="265.23" x="20.97" y="213.59434"/>
  </clipPath>
  <clipPath id="pc4ef07e359">
   <rect height="34.650943" width="265.23" x="20.97" y="267.945283"/>
  </clipPath>
  <clipPath id="p04ca4c6f72">
   <rect height="34.650943" width="265.23" x="20.97" y="322.296226"/>
  </clipPath>
  <clipPath id="p4d8c55fd44">
   <rect height="34.650943" width="265.23" x="20.97" y="376.64717"/>
  </clipPath>
  <clipPath id="p4f5626d630">
   <rect height="34.650943" width="265.23" x="20.97" y="430.998113"/>
  </clipPath>
  <clipPath id="p2205ba653f">
   <rect height="34.650943" width="265.23" x="20.97" y="485.349057"/>
  </clipPath>
 </defs>
</svg>
