<?xml version="1.0" encoding="utf-8" standalone="no"?>
<!DOCTYPE svg PUBLIC "-//W3C//DTD SVG 1.1//EN"
  "http://www.w3.org/Graphics/SVG/1.1/DTD/svg11.dtd">
<svg height="345.6pt" version="1.1" viewBox="0 0 460.8 345.6" width="460.8pt" xmlns="http://www.w3.org/2000/svg" xmlns:xlink="http://www.w3.org/1999/xlink">
 <metadata>
  <rdf:RDF xmlns:cc="http://creativecommons.org/ns#" xmlns:dc="http://purl.org/dc/elements/1.1/" xmlns:rdf="http://www.w3.org/1999/02/22-rdf-syntax-ns#">
   <cc:Work>
    <dc:type rdf:resource="http://purl.org/dc/dcmitype/StillImage"/>
    <dc:date>2023-03-16T20:34:53.067468</dc:date>
    <dc:format>image/svg+xml</dc:format>
    <dc:creator>
     <cc:Agent>
      <dc:title>Matplotlib v3.4.3, https://matplotlib.org/</dc:title>
     </cc:Agent>
    </dc:creator>
   </cc:Work>
  </rdf:RDF>
 </metadata>
 <defs>
  <style type="text/css">*{stroke-linecap:butt;stroke-linejoin:round;}</style>
 </defs>
 <g id="figure_1">
  <g id="patch_1">
   <path d="M 0 345.6 
L 460.8 345.6 
L 460.8 0 
L 0 0 
z
" style="fill:#ffffff;"/>
  </g>
  <g id="axes_1">
   <g id="patch_2">
    <path d="M 144.23567 233.816288 
L 248.104176 233.816288 
L 248.104176 161.37272 
L 144.23567 161.37272 
z
" style="fill:#ffffff;"/>
   </g>
   <g id="matplotlib.axis_1">
    <g id="xtick_1">
     <g id="line2d_1">
      <defs>
       <path d="M 0 0 
L 0 3.5 
" id="ma81c4e0611" style="stroke:#000000;stroke-width:0.8;"/>
      </defs>
      <g>
       <use style="stroke:#000000;stroke-width:0.8;" x="148.956966" xlink:href="#ma81c4e0611" y="233.816288"/>
      </g>
     </g>
     <g id="text_1">
      <!-- $\mathdefault{10^{0}}$ -->
      <g transform="translate(135.756966 252.213944)scale(0.15 -0.15)">
       <defs>
        <path d="M 794 531 
L 1825 531 
L 1825 4091 
L 703 3866 
L 703 4441 
L 1819 4666 
L 2450 4666 
L 2450 531 
L 3481 531 
L 3481 0 
L 794 0 
L 794 531 
z
" id="DejaVuSans-31" transform="scale(0.015625)"/>
        <path d="M 2034 4250 
Q 1547 4250 1301 3770 
Q 1056 3291 1056 2328 
Q 1056 1369 1301 889 
Q 1547 409 2034 409 
Q 2525 409 2770 889 
Q 3016 1369 3016 2328 
Q 3016 3291 2770 3770 
Q 2525 4250 2034 4250 
z
M 2034 4750 
Q 2819 4750 3233 4129 
Q 3647 3509 3647 2328 
Q 3647 1150 3233 529 
Q 2819 -91 2034 -91 
Q 1250 -91 836 529 
Q 422 1150 422 2328 
Q 422 3509 836 4129 
Q 1250 4750 2034 4750 
z
" id="DejaVuSans-30" transform="scale(0.015625)"/>
       </defs>
       <use transform="translate(0 0.765625)" xlink:href="#DejaVuSans-31"/>
       <use transform="translate(63.623047 0.765625)" xlink:href="#DejaVuSans-30"/>
       <use transform="translate(128.203125 39.046875)scale(0.7)" xlink:href="#DejaVuSans-30"/>
      </g>
     </g>
    </g>
    <g id="xtick_2">
     <g id="line2d_2">
      <g>
       <use style="stroke:#000000;stroke-width:0.8;" x="196.169923" xlink:href="#ma81c4e0611" y="233.816288"/>
      </g>
     </g>
     <g id="text_2">
      <!-- $\mathdefault{10^{1}}$ -->
      <g transform="translate(182.969923 252.213944)scale(0.15 -0.15)">
       <use transform="translate(0 0.684375)" xlink:href="#DejaVuSans-31"/>
       <use transform="translate(63.623047 0.684375)" xlink:href="#DejaVuSans-30"/>
       <use transform="translate(128.203125 38.965625)scale(0.7)" xlink:href="#DejaVuSans-31"/>
      </g>
     </g>
    </g>
    <g id="xtick_3">
     <g id="line2d_3">
      <g>
       <use style="stroke:#000000;stroke-width:0.8;" x="243.38288" xlink:href="#ma81c4e0611" y="233.816288"/>
      </g>
     </g>
     <g id="text_3">
      <!-- $\mathdefault{10^{2}}$ -->
      <g transform="translate(230.18288 252.213944)scale(0.15 -0.15)">
       <defs>
        <path d="M 1228 531 
L 3431 531 
L 3431 0 
L 469 0 
L 469 531 
Q 828 903 1448 1529 
Q 2069 2156 2228 2338 
Q 2531 2678 2651 2914 
Q 2772 3150 2772 3378 
Q 2772 3750 2511 3984 
Q 2250 4219 1831 4219 
Q 1534 4219 1204 4116 
Q 875 4013 500 3803 
L 500 4441 
Q 881 4594 1212 4672 
Q 1544 4750 1819 4750 
Q 2544 4750 2975 4387 
Q 3406 4025 3406 3419 
Q 3406 3131 3298 2873 
Q 3191 2616 2906 2266 
Q 2828 2175 2409 1742 
Q 1991 1309 1228 531 
z
" id="DejaVuSans-32" transform="scale(0.015625)"/>
       </defs>
       <use transform="translate(0 0.765625)" xlink:href="#DejaVuSans-31"/>
       <use transform="translate(63.623047 0.765625)" xlink:href="#DejaVuSans-30"/>
       <use transform="translate(128.203125 39.046875)scale(0.7)" xlink:href="#DejaVuSans-32"/>
      </g>
     </g>
    </g>
    <g id="xtick_4">
     <g id="line2d_4">
      <defs>
       <path d="M 0 0 
L 0 2 
" id="mbad073437c" style="stroke:#000000;stroke-width:0.6;"/>
      </defs>
      <g>
       <use style="stroke:#000000;stroke-width:0.6;" x="144.381558" xlink:href="#mbad073437c" y="233.816288"/>
      </g>
     </g>
    </g>
    <g id="xtick_5">
     <g id="line2d_5">
      <g>
       <use style="stroke:#000000;stroke-width:0.6;" x="146.79662" xlink:href="#mbad073437c" y="233.816288"/>
      </g>
     </g>
    </g>
    <g id="xtick_6">
     <g id="line2d_6">
      <g>
       <use style="stroke:#000000;stroke-width:0.6;" x="163.169482" xlink:href="#mbad073437c" y="233.816288"/>
      </g>
     </g>
    </g>
    <g id="xtick_7">
     <g id="line2d_7">
      <g>
       <use style="stroke:#000000;stroke-width:0.6;" x="171.483272" xlink:href="#mbad073437c" y="233.816288"/>
      </g>
     </g>
    </g>
    <g id="xtick_8">
     <g id="line2d_8">
      <g>
       <use style="stroke:#000000;stroke-width:0.6;" x="177.381999" xlink:href="#mbad073437c" y="233.816288"/>
      </g>
     </g>
    </g>
    <g id="xtick_9">
     <g id="line2d_9">
      <g>
       <use style="stroke:#000000;stroke-width:0.6;" x="181.957407" xlink:href="#mbad073437c" y="233.816288"/>
      </g>
     </g>
    </g>
    <g id="xtick_10">
     <g id="line2d_10">
      <g>
       <use style="stroke:#000000;stroke-width:0.6;" x="185.695788" xlink:href="#mbad073437c" y="233.816288"/>
      </g>
     </g>
    </g>
    <g id="xtick_11">
     <g id="line2d_11">
      <g>
       <use style="stroke:#000000;stroke-width:0.6;" x="188.856544" xlink:href="#mbad073437c" y="233.816288"/>
      </g>
     </g>
    </g>
    <g id="xtick_12">
     <g id="line2d_12">
      <g>
       <use style="stroke:#000000;stroke-width:0.6;" x="191.594515" xlink:href="#mbad073437c" y="233.816288"/>
      </g>
     </g>
    </g>
    <g id="xtick_13">
     <g id="line2d_13">
      <g>
       <use style="stroke:#000000;stroke-width:0.6;" x="194.009577" xlink:href="#mbad073437c" y="233.816288"/>
      </g>
     </g>
    </g>
    <g id="xtick_14">
     <g id="line2d_14">
      <g>
       <use style="stroke:#000000;stroke-width:0.6;" x="210.38244" xlink:href="#mbad073437c" y="233.816288"/>
      </g>
     </g>
    </g>
    <g id="xtick_15">
     <g id="line2d_15">
      <g>
       <use style="stroke:#000000;stroke-width:0.6;" x="218.696229" xlink:href="#mbad073437c" y="233.816288"/>
      </g>
     </g>
    </g>
    <g id="xtick_16">
     <g id="line2d_16">
      <g>
       <use style="stroke:#000000;stroke-width:0.6;" x="224.594956" xlink:href="#mbad073437c" y="233.816288"/>
      </g>
     </g>
    </g>
    <g id="xtick_17">
     <g id="line2d_17">
      <g>
       <use style="stroke:#000000;stroke-width:0.6;" x="229.170364" xlink:href="#mbad073437c" y="233.816288"/>
      </g>
     </g>
    </g>
    <g id="xtick_18">
     <g id="line2d_18">
      <g>
       <use style="stroke:#000000;stroke-width:0.6;" x="232.908745" xlink:href="#mbad073437c" y="233.816288"/>
      </g>
     </g>
    </g>
    <g id="xtick_19">
     <g id="line2d_19">
      <g>
       <use style="stroke:#000000;stroke-width:0.6;" x="236.069501" xlink:href="#mbad073437c" y="233.816288"/>
      </g>
     </g>
    </g>
    <g id="xtick_20">
     <g id="line2d_20">
      <g>
       <use style="stroke:#000000;stroke-width:0.6;" x="238.807472" xlink:href="#mbad073437c" y="233.816288"/>
      </g>
     </g>
    </g>
    <g id="xtick_21">
     <g id="line2d_21">
      <g>
       <use style="stroke:#000000;stroke-width:0.6;" x="241.222534" xlink:href="#mbad073437c" y="233.816288"/>
      </g>
     </g>
    </g>
    <g id="text_4">
     <!-- $k_{deg}$ -->
     <g transform="translate(181.694923 270.733475)scale(0.15 -0.15)">
      <defs>
       <path d="M 1172 4863 
L 1747 4863 
L 1197 2028 
L 3169 3500 
L 3916 3500 
L 1716 1825 
L 3322 0 
L 2625 0 
L 1131 1709 
L 800 0 
L 225 0 
L 1172 4863 
z
" id="DejaVuSans-Oblique-6b" transform="scale(0.015625)"/>
       <path d="M 2675 525 
Q 2444 222 2128 65 
Q 1813 -91 1428 -91 
Q 903 -91 598 267 
Q 294 625 294 1247 
Q 294 1766 478 2236 
Q 663 2706 1013 3078 
Q 1244 3325 1534 3454 
Q 1825 3584 2144 3584 
Q 2481 3584 2739 3421 
Q 2997 3259 3138 2956 
L 3513 4863 
L 4091 4863 
L 3144 0 
L 2566 0 
L 2675 525 
z
M 891 1350 
Q 891 897 1095 644 
Q 1300 391 1663 391 
Q 1931 391 2161 520 
Q 2391 650 2566 903 
Q 2750 1166 2856 1509 
Q 2963 1853 2963 2188 
Q 2963 2622 2758 2865 
Q 2553 3109 2194 3109 
Q 1922 3109 1687 2981 
Q 1453 2853 1288 2613 
Q 1106 2353 998 2009 
Q 891 1666 891 1350 
z
" id="DejaVuSans-Oblique-64" transform="scale(0.015625)"/>
       <path d="M 3078 2063 
Q 3088 2113 3092 2166 
Q 3097 2219 3097 2272 
Q 3097 2653 2873 2875 
Q 2650 3097 2266 3097 
Q 1838 3097 1509 2826 
Q 1181 2556 1013 2059 
L 3078 2063 
z
M 3578 1613 
L 903 1613 
Q 884 1494 878 1425 
Q 872 1356 872 1306 
Q 872 872 1139 634 
Q 1406 397 1894 397 
Q 2269 397 2603 481 
Q 2938 566 3225 728 
L 3116 159 
Q 2806 34 2476 -28 
Q 2147 -91 1806 -91 
Q 1078 -91 686 257 
Q 294 606 294 1247 
Q 294 1794 489 2264 
Q 684 2734 1063 3103 
Q 1306 3334 1642 3459 
Q 1978 3584 2356 3584 
Q 2950 3584 3301 3228 
Q 3653 2872 3653 2272 
Q 3653 2128 3634 1964 
Q 3616 1800 3578 1613 
z
" id="DejaVuSans-Oblique-65" transform="scale(0.015625)"/>
       <path d="M 3816 3500 
L 3219 434 
Q 3047 -456 2561 -893 
Q 2075 -1331 1253 -1331 
Q 950 -1331 690 -1286 
Q 431 -1241 206 -1147 
L 313 -588 
Q 525 -725 762 -790 
Q 1000 -856 1269 -856 
Q 1816 -856 2167 -557 
Q 2519 -259 2631 300 
L 2681 563 
Q 2441 288 2122 144 
Q 1803 0 1434 0 
Q 903 0 598 351 
Q 294 703 294 1319 
Q 294 1803 478 2267 
Q 663 2731 997 3091 
Q 1219 3328 1514 3456 
Q 1809 3584 2131 3584 
Q 2484 3584 2746 3420 
Q 3009 3256 3138 2956 
L 3238 3500 
L 3816 3500 
z
M 2950 2216 
Q 2950 2641 2750 2872 
Q 2550 3103 2181 3103 
Q 1953 3103 1747 3012 
Q 1541 2922 1394 2759 
Q 1156 2491 1023 2127 
Q 891 1763 891 1375 
Q 891 944 1092 712 
Q 1294 481 1672 481 
Q 2219 481 2584 976 
Q 2950 1472 2950 2216 
z
" id="DejaVuSans-Oblique-67" transform="scale(0.015625)"/>
      </defs>
      <use transform="translate(0 0.015625)" xlink:href="#DejaVuSans-Oblique-6b"/>
      <use transform="translate(57.910156 -16.390625)scale(0.7)" xlink:href="#DejaVuSans-Oblique-64"/>
      <use transform="translate(102.34375 -16.390625)scale(0.7)" xlink:href="#DejaVuSans-Oblique-65"/>
      <use transform="translate(145.410156 -16.390625)scale(0.7)" xlink:href="#DejaVuSans-Oblique-67"/>
     </g>
    </g>
   </g>
   <g id="matplotlib.axis_2">
    <g id="ytick_1">
     <g id="line2d_22">
      <defs>
       <path d="M 0 0 
L -3.5 0 
" id="m8f01a9fdfc" style="stroke:#000000;stroke-width:0.8;"/>
      </defs>
      <g>
       <use style="stroke:#000000;stroke-width:0.8;" x="144.23567" xlink:href="#m8f01a9fdfc" y="233.816288"/>
      </g>
     </g>
     <g id="text_5">
      <!-- 0.0 -->
      <g transform="translate(113.380983 239.515116)scale(0.15 -0.15)">
       <defs>
        <path d="M 684 794 
L 1344 794 
L 1344 0 
L 684 0 
L 684 794 
z
" id="DejaVuSans-2e" transform="scale(0.015625)"/>
       </defs>
       <use xlink:href="#DejaVuSans-30"/>
       <use x="63.623047" xlink:href="#DejaVuSans-2e"/>
       <use x="95.410156" xlink:href="#DejaVuSans-30"/>
      </g>
     </g>
    </g>
    <g id="ytick_2">
     <g id="line2d_23">
      <g>
       <use style="stroke:#000000;stroke-width:0.8;" x="144.23567" xlink:href="#m8f01a9fdfc" y="165.900443"/>
      </g>
     </g>
     <g id="text_6">
      <!-- 1.5 -->
      <g transform="translate(113.380983 171.599271)scale(0.15 -0.15)">
       <defs>
        <path d="M 691 4666 
L 3169 4666 
L 3169 4134 
L 1269 4134 
L 1269 2991 
Q 1406 3038 1543 3061 
Q 1681 3084 1819 3084 
Q 2600 3084 3056 2656 
Q 3513 2228 3513 1497 
Q 3513 744 3044 326 
Q 2575 -91 1722 -91 
Q 1428 -91 1123 -41 
Q 819 9 494 109 
L 494 744 
Q 775 591 1075 516 
Q 1375 441 1709 441 
Q 2250 441 2565 725 
Q 2881 1009 2881 1497 
Q 2881 1984 2565 2268 
Q 2250 2553 1709 2553 
Q 1456 2553 1204 2497 
Q 953 2441 691 2322 
L 691 4666 
z
" id="DejaVuSans-35" transform="scale(0.015625)"/>
       </defs>
       <use xlink:href="#DejaVuSans-31"/>
       <use x="63.623047" xlink:href="#DejaVuSans-2e"/>
       <use x="95.410156" xlink:href="#DejaVuSans-35"/>
      </g>
     </g>
    </g>
    <g id="text_7">
     <!-- $\mathcal{I}(\theta)$ -->
     <g transform="translate(106.261452 212.369504)rotate(-90)scale(0.15 -0.15)">
      <defs>
       <path d="M 3782 4237 
L 3744 4083 
Q 3482 4083 3347 4067 
Q 3213 4051 3069 3977 
Q 2925 3904 2838 3753 
Q 2752 3603 2675 3334 
L 1920 710 
Q 1901 634 1901 557 
Q 1901 352 2208 352 
Q 2790 352 3283 819 
L 3398 698 
Q 3008 320 2566 160 
Q 2125 0 1549 0 
L 243 0 
L 282 154 
Q 467 154 556 160 
Q 646 166 777 201 
Q 909 237 982 310 
Q 1056 384 1139 521 
Q 1222 659 1280 870 
L 1946 3187 
Q 2061 3590 2061 3674 
Q 2061 3878 1754 3878 
Q 1523 3878 1203 3750 
Q 883 3622 678 3411 
L 570 3533 
Q 947 3904 1385 4070 
Q 1824 4237 2579 4237 
L 3782 4237 
z
" id="STIXNonUnicode-Italic-e235" transform="scale(0.015625)"/>
       <path d="M 1984 4856 
Q 1566 4138 1362 3434 
Q 1159 2731 1159 2009 
Q 1159 1288 1364 580 
Q 1569 -128 1984 -844 
L 1484 -844 
Q 1016 -109 783 600 
Q 550 1309 550 2009 
Q 550 2706 781 3412 
Q 1013 4119 1484 4856 
L 1984 4856 
z
" id="DejaVuSans-28" transform="scale(0.015625)"/>
       <path d="M 2913 2219 
L 925 2219 
Q 791 1284 928 888 
Q 1100 400 1566 400 
Q 2034 400 2391 891 
Q 2703 1322 2913 2219 
z
M 3009 2750 
Q 3094 3638 2984 3950 
Q 2813 4444 2353 4444 
Q 1875 4444 1525 3956 
Q 1250 3563 1034 2750 
L 3009 2750 
z
M 2444 4913 
Q 3194 4913 3494 4250 
Q 3794 3591 3566 2422 
Q 3341 1256 2781 594 
Q 2225 -72 1475 -72 
Q 722 -72 425 594 
Q 128 1256 353 2422 
Q 581 3591 1134 4250 
Q 1691 4913 2444 4913 
z
" id="DejaVuSans-Oblique-3b8" transform="scale(0.015625)"/>
       <path d="M 513 4856 
L 1013 4856 
Q 1481 4119 1714 3412 
Q 1947 2706 1947 2009 
Q 1947 1309 1714 600 
Q 1481 -109 1013 -844 
L 513 -844 
Q 928 -128 1133 580 
Q 1338 1288 1338 2009 
Q 1338 2731 1133 3434 
Q 928 4138 513 4856 
z
" id="DejaVuSans-29" transform="scale(0.015625)"/>
      </defs>
      <use transform="translate(0 0.234375)" xlink:href="#STIXNonUnicode-Italic-e235"/>
      <use transform="translate(57.499985 0.234375)" xlink:href="#DejaVuSans-28"/>
      <use transform="translate(96.513657 0.234375)" xlink:href="#DejaVuSans-Oblique-3b8"/>
      <use transform="translate(157.695297 0.234375)" xlink:href="#DejaVuSans-29"/>
     </g>
    </g>
   </g>
   <g id="line2d_24">
    <path clip-path="url(#p114cbe4cb5)" d="M 148.956966 166.326568 
L 149.910763 166.31928 
L 150.86456 166.31194 
L 151.818358 166.304569 
L 152.772155 166.297193 
L 153.725952 166.289839 
L 154.679749 166.28254 
L 155.633546 166.275331 
L 156.587343 166.26825 
L 157.54114 166.261343 
L 158.494937 166.254656 
L 159.448734 166.248244 
L 160.402532 166.242164 
L 161.356329 166.236482 
L 162.310126 166.231268 
L 163.263923 166.226598 
L 164.21772 166.222558 
L 165.171517 166.219237 
L 166.125314 166.216736 
L 167.079111 166.215161 
L 168.032908 166.214629 
L 168.986706 166.215264 
L 169.940503 166.217201 
L 170.8943 166.220584 
L 171.848097 166.225568 
L 172.801894 166.23232 
L 173.755691 166.241014 
L 174.709488 166.251841 
L 175.663285 166.264999 
L 176.617082 166.280701 
L 177.57088 166.299171 
L 178.524677 166.320648 
L 179.478474 166.34538 
L 180.432271 166.373632 
L 181.386068 166.405677 
L 182.339865 166.441806 
L 183.293662 166.482319 
L 184.247459 166.527532 
L 185.201257 166.577769 
L 186.155054 166.633369 
L 187.108851 166.694683 
L 188.062648 166.76207 
L 189.016445 166.835903 
L 189.970242 166.91656 
L 190.924039 167.004432 
L 191.877836 167.099916 
L 192.831633 167.203413 
L 193.785431 167.315334 
L 194.739228 167.436091 
L 195.693025 167.566098 
L 196.646822 167.705774 
L 197.600619 167.855534 
L 198.554416 168.015792 
L 199.508213 168.18696 
L 200.46201 168.369443 
L 201.415807 168.563638 
L 202.369605 168.769935 
L 203.323402 168.988713 
L 204.277199 169.220336 
L 205.230996 169.465156 
L 206.184793 169.723507 
L 207.13859 169.995706 
L 208.092387 170.28205 
L 209.046184 170.582813 
L 209.999981 170.898247 
L 210.953779 171.22858 
L 211.907576 171.574012 
L 212.861373 171.934717 
L 213.81517 172.310841 
L 214.768967 172.702497 
L 215.722764 173.109771 
L 216.676561 173.532717 
L 217.630358 173.971356 
L 218.584155 174.425675 
L 219.537953 174.895632 
L 220.49175 175.381148 
L 221.445547 175.882114 
L 222.399344 176.398385 
L 223.353141 176.929785 
L 224.306938 177.476106 
L 225.260735 178.037106 
L 226.214532 178.612513 
L 227.16833 179.202024 
L 228.122127 179.805306 
L 229.075924 180.421998 
L 230.029721 181.051711 
L 230.983518 181.694028 
L 231.937315 182.348508 
L 232.891112 183.014686 
L 233.844909 183.692073 
L 234.798706 184.380158 
L 235.752504 185.078414 
L 236.706301 185.78629 
L 237.660098 186.503222 
L 238.613895 187.228629 
L 239.567692 187.961915 
L 240.521489 188.702474 
L 241.475286 189.449688 
L 242.429083 190.202928 
L 243.38288 190.961559 
" style="fill:none;stroke:#0000ff;stroke-linecap:square;stroke-width:1.5;"/>
   </g>
   <g id="patch_3">
    <path d="M 144.23567 233.816288 
L 144.23567 161.37272 
" style="fill:none;stroke:#000000;stroke-linecap:square;stroke-linejoin:miter;stroke-width:0.8;"/>
   </g>
   <g id="patch_4">
    <path d="M 144.23567 233.816288 
L 248.104176 233.816288 
" style="fill:none;stroke:#000000;stroke-linecap:square;stroke-linejoin:miter;stroke-width:0.8;"/>
   </g>
  </g>
  <g id="axes_2">
   <g id="patch_5">
    <path clip-path="url(#p595b309a5b)" d="M 216.307695 87.663247 
L 216.323481 87.663247 
L 216.323481 86.957096 
L 216.307695 86.957096 
z
" style="fill:#99ccff;"/>
   </g>
   <g id="patch_6">
    <path clip-path="url(#p595b309a5b)" d="M 216.307695 86.957096 
L 216.339268 86.957096 
L 216.339268 86.250946 
L 216.307695 86.250946 
z
" style="fill:#99ccff;"/>
   </g>
   <g id="patch_7">
    <path clip-path="url(#p595b309a5b)" d="M 216.307695 86.250946 
L 216.355054 86.250946 
L 216.355054 85.544795 
L 216.307695 85.544795 
z
" style="fill:#99ccff;"/>
   </g>
   <g id="patch_8">
    <path clip-path="url(#p595b309a5b)" d="M 216.307695 85.544795 
L 216.386627 85.544795 
L 216.386627 84.838644 
L 216.307695 84.838644 
z
" style="fill:#99ccff;"/>
   </g>
   <g id="patch_9">
    <path clip-path="url(#p595b309a5b)" d="M 216.307695 84.838644 
L 216.323481 84.838644 
L 216.323481 84.132493 
L 216.307695 84.132493 
z
" style="fill:#99ccff;"/>
   </g>
   <g id="patch_10">
    <path clip-path="url(#p595b309a5b)" d="M 216.307695 84.132493 
L 216.402413 84.132493 
L 216.402413 83.426343 
L 216.307695 83.426343 
z
" style="fill:#99ccff;"/>
   </g>
   <g id="patch_11">
    <path clip-path="url(#p595b309a5b)" d="M 216.307695 83.426343 
L 216.481345 83.426343 
L 216.481345 82.720192 
L 216.307695 82.720192 
z
" style="fill:#99ccff;"/>
   </g>
   <g id="patch_12">
    <path clip-path="url(#p595b309a5b)" d="M 216.307695 82.720192 
L 216.623422 82.720192 
L 216.623422 82.014041 
L 216.307695 82.014041 
z
" style="fill:#99ccff;"/>
   </g>
   <g id="patch_13">
    <path clip-path="url(#p595b309a5b)" d="M 216.307695 82.014041 
L 216.749713 82.014041 
L 216.749713 81.30789 
L 216.307695 81.30789 
z
" style="fill:#99ccff;"/>
   </g>
   <g id="patch_14">
    <path clip-path="url(#p595b309a5b)" d="M 216.307695 81.30789 
L 216.93915 81.30789 
L 216.93915 80.60174 
L 216.307695 80.60174 
z
" style="fill:#99ccff;"/>
   </g>
   <g id="patch_15">
    <path clip-path="url(#p595b309a5b)" d="M 216.307695 80.60174 
L 217.160159 80.60174 
L 217.160159 79.895589 
L 216.307695 79.895589 
z
" style="fill:#99ccff;"/>
   </g>
   <g id="patch_16">
    <path clip-path="url(#p595b309a5b)" d="M 216.307695 79.895589 
L 217.760042 79.895589 
L 217.760042 79.189438 
L 216.307695 79.189438 
z
" style="fill:#99ccff;"/>
   </g>
   <g id="patch_17">
    <path clip-path="url(#p595b309a5b)" d="M 216.307695 79.189438 
L 218.659865 79.189438 
L 218.659865 78.483287 
L 216.307695 78.483287 
z
" style="fill:#99ccff;"/>
   </g>
   <g id="patch_18">
    <path clip-path="url(#p595b309a5b)" d="M 216.307695 78.483287 
L 219.654407 78.483287 
L 219.654407 77.777137 
L 216.307695 77.777137 
z
" style="fill:#99ccff;"/>
   </g>
   <g id="patch_19">
    <path clip-path="url(#p595b309a5b)" d="M 216.307695 77.777137 
L 220.806813 77.777137 
L 220.806813 77.070986 
L 216.307695 77.070986 
z
" style="fill:#99ccff;"/>
   </g>
   <g id="patch_20">
    <path clip-path="url(#p595b309a5b)" d="M 216.307695 77.070986 
L 221.927646 77.070986 
L 221.927646 76.364835 
L 216.307695 76.364835 
z
" style="fill:#99ccff;"/>
   </g>
   <g id="patch_21">
    <path clip-path="url(#p595b309a5b)" d="M 216.307695 76.364835 
L 223.885157 76.364835 
L 223.885157 75.658684 
L 216.307695 75.658684 
z
" style="fill:#99ccff;"/>
   </g>
   <g id="patch_22">
    <path clip-path="url(#p595b309a5b)" d="M 216.307695 75.658684 
L 228.242197 75.658684 
L 228.242197 74.952534 
L 216.307695 74.952534 
z
" style="fill:#99ccff;"/>
   </g>
   <g id="patch_23">
    <path clip-path="url(#p595b309a5b)" d="M 216.307695 74.952534 
L 232.188792 74.952534 
L 232.188792 74.246383 
L 216.307695 74.246383 
z
" style="fill:#99ccff;"/>
   </g>
   <g id="patch_24">
    <path clip-path="url(#p595b309a5b)" d="M 216.307695 74.246383 
L 235.94595 74.246383 
L 235.94595 73.540232 
L 216.307695 73.540232 
z
" style="fill:#99ccff;"/>
   </g>
   <g id="patch_25">
    <path clip-path="url(#p595b309a5b)" d="M 216.307695 73.540232 
L 242.165783 73.540232 
L 242.165783 72.834081 
L 216.307695 72.834081 
z
" style="fill:#99ccff;"/>
   </g>
   <g id="patch_26">
    <path clip-path="url(#p595b309a5b)" d="M 216.307695 72.834081 
L 247.769947 72.834081 
L 247.769947 72.127931 
L 216.307695 72.127931 
z
" style="fill:#99ccff;"/>
   </g>
   <g id="patch_27">
    <path clip-path="url(#p595b309a5b)" d="M 216.307695 72.127931 
L 255.552632 72.127931 
L 255.552632 71.42178 
L 216.307695 71.42178 
z
" style="fill:#99ccff;"/>
   </g>
   <g id="patch_28">
    <path clip-path="url(#p595b309a5b)" d="M 216.307695 71.42178 
L 261.66196 71.42178 
L 261.66196 70.715629 
L 216.307695 70.715629 
z
" style="fill:#99ccff;"/>
   </g>
   <g id="patch_29">
    <path clip-path="url(#p595b309a5b)" d="M 216.307695 70.715629 
L 270.533905 70.715629 
L 270.533905 70.009478 
L 216.307695 70.009478 
z
" style="fill:#99ccff;"/>
   </g>
   <g id="patch_30">
    <path clip-path="url(#p595b309a5b)" d="M 216.307695 70.009478 
L 275.696051 70.009478 
L 275.696051 69.303327 
L 216.307695 69.303327 
z
" style="fill:#99ccff;"/>
   </g>
   <g id="patch_31">
    <path clip-path="url(#p595b309a5b)" d="M 216.307695 69.303327 
L 282.389475 69.303327 
L 282.389475 68.597177 
L 216.307695 68.597177 
z
" style="fill:#99ccff;"/>
   </g>
   <g id="patch_32">
    <path clip-path="url(#p595b309a5b)" d="M 216.307695 68.597177 
L 282.720989 68.597177 
L 282.720989 67.891026 
L 216.307695 67.891026 
z
" style="fill:#99ccff;"/>
   </g>
   <g id="patch_33">
    <path clip-path="url(#p595b309a5b)" d="M 216.307695 67.891026 
L 281.41072 67.891026 
L 281.41072 67.184875 
L 216.307695 67.184875 
z
" style="fill:#99ccff;"/>
   </g>
   <g id="patch_34">
    <path clip-path="url(#p595b309a5b)" d="M 216.307695 67.184875 
L 277.937717 67.184875 
L 277.937717 66.478724 
L 216.307695 66.478724 
z
" style="fill:#99ccff;"/>
   </g>
   <g id="patch_35">
    <path clip-path="url(#p595b309a5b)" d="M 216.307695 66.478724 
L 273.091298 66.478724 
L 273.091298 65.772574 
L 216.307695 65.772574 
z
" style="fill:#99ccff;"/>
   </g>
   <g id="patch_36">
    <path clip-path="url(#p595b309a5b)" d="M 216.307695 65.772574 
L 263.366889 65.772574 
L 263.366889 65.066423 
L 216.307695 65.066423 
z
" style="fill:#99ccff;"/>
   </g>
   <g id="patch_37">
    <path clip-path="url(#p595b309a5b)" d="M 216.307695 65.066423 
L 252.079629 65.066423 
L 252.079629 64.360272 
L 216.307695 64.360272 
z
" style="fill:#99ccff;"/>
   </g>
   <g id="patch_38">
    <path clip-path="url(#p595b309a5b)" d="M 216.307695 64.360272 
L 241.897414 64.360272 
L 241.897414 63.654121 
L 216.307695 63.654121 
z
" style="fill:#99ccff;"/>
   </g>
   <g id="patch_39">
    <path clip-path="url(#p595b309a5b)" d="M 216.307695 63.654121 
L 232.725528 63.654121 
L 232.725528 62.947971 
L 216.307695 62.947971 
z
" style="fill:#99ccff;"/>
   </g>
   <g id="patch_40">
    <path clip-path="url(#p595b309a5b)" d="M 216.307695 62.947971 
L 226.600414 62.947971 
L 226.600414 62.24182 
L 216.307695 62.24182 
z
" style="fill:#99ccff;"/>
   </g>
   <g id="patch_41">
    <path clip-path="url(#p595b309a5b)" d="M 216.307695 62.24182 
L 221.185686 62.24182 
L 221.185686 61.535669 
L 216.307695 61.535669 
z
" style="fill:#99ccff;"/>
   </g>
   <g id="patch_42">
    <path clip-path="url(#p595b309a5b)" d="M 216.307695 61.535669 
L 218.407283 61.535669 
L 218.407283 60.829518 
L 216.307695 60.829518 
z
" style="fill:#99ccff;"/>
   </g>
   <g id="patch_43">
    <path clip-path="url(#p595b309a5b)" d="M 216.307695 60.829518 
L 216.860218 60.829518 
L 216.860218 60.123368 
L 216.307695 60.123368 
z
" style="fill:#99ccff;"/>
   </g>
   <g id="patch_44">
    <path clip-path="url(#p595b309a5b)" d="M 216.307695 60.123368 
L 216.418199 60.123368 
L 216.418199 59.417217 
L 216.307695 59.417217 
z
" style="fill:#99ccff;"/>
   </g>
   <g id="patch_45">
    <path clip-path="url(#p595b309a5b)" d="M 301.098312 107.385879 
L 301.116158 107.385879 
L 301.116158 106.136561 
L 301.098312 106.136561 
z
" style="fill:#99ccff;"/>
   </g>
   <g id="patch_46">
    <path clip-path="url(#p595b309a5b)" d="M 301.098312 106.136561 
L 301.098312 106.136561 
L 301.098312 104.887244 
L 301.098312 104.887244 
z
" style="fill:#99ccff;"/>
   </g>
   <g id="patch_47">
    <path clip-path="url(#p595b309a5b)" d="M 301.098312 104.887244 
L 301.098312 104.887244 
L 301.098312 103.637927 
L 301.098312 103.637927 
z
" style="fill:#99ccff;"/>
   </g>
   <g id="patch_48">
    <path clip-path="url(#p595b309a5b)" d="M 301.098312 103.637927 
L 301.12508 103.637927 
L 301.12508 102.388609 
L 301.098312 102.388609 
z
" style="fill:#99ccff;"/>
   </g>
   <g id="patch_49">
    <path clip-path="url(#p595b309a5b)" d="M 301.098312 102.388609 
L 301.142926 102.388609 
L 301.142926 101.139292 
L 301.098312 101.139292 
z
" style="fill:#99ccff;"/>
   </g>
   <g id="patch_50">
    <path clip-path="url(#p595b309a5b)" d="M 301.098312 101.139292 
L 301.142926 101.139292 
L 301.142926 99.889974 
L 301.098312 99.889974 
z
" style="fill:#99ccff;"/>
   </g>
   <g id="patch_51">
    <path clip-path="url(#p595b309a5b)" d="M 301.098312 99.889974 
L 301.151849 99.889974 
L 301.151849 98.640657 
L 301.098312 98.640657 
z
" style="fill:#99ccff;"/>
   </g>
   <g id="patch_52">
    <path clip-path="url(#p595b309a5b)" d="M 301.098312 98.640657 
L 301.196464 98.640657 
L 301.196464 97.391339 
L 301.098312 97.391339 
z
" style="fill:#99ccff;"/>
   </g>
   <g id="patch_53">
    <path clip-path="url(#p595b309a5b)" d="M 301.098312 97.391339 
L 301.258924 97.391339 
L 301.258924 96.142022 
L 301.098312 96.142022 
z
" style="fill:#99ccff;"/>
   </g>
   <g id="patch_54">
    <path clip-path="url(#p595b309a5b)" d="M 301.098312 96.142022 
L 301.160772 96.142022 
L 301.160772 94.892705 
L 301.098312 94.892705 
z
" style="fill:#99ccff;"/>
   </g>
   <g id="patch_55">
    <path clip-path="url(#p595b309a5b)" d="M 301.098312 94.892705 
L 301.374922 94.892705 
L 301.374922 93.643387 
L 301.098312 93.643387 
z
" style="fill:#99ccff;"/>
   </g>
   <g id="patch_56">
    <path clip-path="url(#p595b309a5b)" d="M 301.098312 93.643387 
L 301.49092 93.643387 
L 301.49092 92.39407 
L 301.098312 92.39407 
z
" style="fill:#99ccff;"/>
   </g>
   <g id="patch_57">
    <path clip-path="url(#p595b309a5b)" d="M 301.098312 92.39407 
L 301.562304 92.39407 
L 301.562304 91.144752 
L 301.098312 91.144752 
z
" style="fill:#99ccff;"/>
   </g>
   <g id="patch_58">
    <path clip-path="url(#p595b309a5b)" d="M 301.098312 91.144752 
L 301.749685 91.144752 
L 301.749685 89.895435 
L 301.098312 89.895435 
z
" style="fill:#99ccff;"/>
   </g>
   <g id="patch_59">
    <path clip-path="url(#p595b309a5b)" d="M 301.098312 89.895435 
L 302.044142 89.895435 
L 302.044142 88.646117 
L 301.098312 88.646117 
z
" style="fill:#99ccff;"/>
   </g>
   <g id="patch_60">
    <path clip-path="url(#p595b309a5b)" d="M 301.098312 88.646117 
L 302.16014 88.646117 
L 302.16014 87.3968 
L 301.098312 87.3968 
z
" style="fill:#99ccff;"/>
   </g>
   <g id="patch_61">
    <path clip-path="url(#p595b309a5b)" d="M 301.098312 87.3968 
L 303.061355 87.3968 
L 303.061355 86.147483 
L 301.098312 86.147483 
z
" style="fill:#99ccff;"/>
   </g>
   <g id="patch_62">
    <path clip-path="url(#p595b309a5b)" d="M 301.098312 86.147483 
L 303.16843 86.147483 
L 303.16843 84.898165 
L 301.098312 84.898165 
z
" style="fill:#99ccff;"/>
   </g>
   <g id="patch_63">
    <path clip-path="url(#p595b309a5b)" d="M 301.098312 84.898165 
L 303.873341 84.898165 
L 303.873341 83.648848 
L 301.098312 83.648848 
z
" style="fill:#99ccff;"/>
   </g>
   <g id="patch_64">
    <path clip-path="url(#p595b309a5b)" d="M 301.098312 83.648848 
L 305.211779 83.648848 
L 305.211779 82.39953 
L 301.098312 82.39953 
z
" style="fill:#99ccff;"/>
   </g>
   <g id="patch_65">
    <path clip-path="url(#p595b309a5b)" d="M 301.098312 82.39953 
L 306.202224 82.39953 
L 306.202224 81.150213 
L 301.098312 81.150213 
z
" style="fill:#99ccff;"/>
   </g>
   <g id="patch_66">
    <path clip-path="url(#p595b309a5b)" d="M 301.098312 81.150213 
L 308.192036 81.150213 
L 308.192036 79.900896 
L 301.098312 79.900896 
z
" style="fill:#99ccff;"/>
   </g>
   <g id="patch_67">
    <path clip-path="url(#p595b309a5b)" d="M 301.098312 79.900896 
L 309.753547 79.900896 
L 309.753547 78.651578 
L 301.098312 78.651578 
z
" style="fill:#99ccff;"/>
   </g>
   <g id="patch_68">
    <path clip-path="url(#p595b309a5b)" d="M 301.098312 78.651578 
L 311.796896 78.651578 
L 311.796896 77.402261 
L 301.098312 77.402261 
z
" style="fill:#99ccff;"/>
   </g>
   <g id="patch_69">
    <path clip-path="url(#p595b309a5b)" d="M 301.098312 77.402261 
L 314.313161 77.402261 
L 314.313161 76.152943 
L 301.098312 76.152943 
z
" style="fill:#99ccff;"/>
   </g>
   <g id="patch_70">
    <path clip-path="url(#p595b309a5b)" d="M 301.098312 76.152943 
L 317.016806 76.152943 
L 317.016806 74.903626 
L 301.098312 74.903626 
z
" style="fill:#99ccff;"/>
   </g>
   <g id="patch_71">
    <path clip-path="url(#p595b309a5b)" d="M 301.098312 74.903626 
L 321.032122 74.903626 
L 321.032122 73.654308 
L 301.098312 73.654308 
z
" style="fill:#99ccff;"/>
   </g>
   <g id="patch_72">
    <path clip-path="url(#p595b309a5b)" d="M 301.098312 73.654308 
L 325.502506 73.654308 
L 325.502506 72.404991 
L 301.098312 72.404991 
z
" style="fill:#99ccff;"/>
   </g>
   <g id="patch_73">
    <path clip-path="url(#p595b309a5b)" d="M 301.098312 72.404991 
L 329.17875 72.404991 
L 329.17875 71.155674 
L 301.098312 71.155674 
z
" style="fill:#99ccff;"/>
   </g>
   <g id="patch_74">
    <path clip-path="url(#p595b309a5b)" d="M 301.098312 71.155674 
L 332.837149 71.155674 
L 332.837149 69.906356 
L 301.098312 69.906356 
z
" style="fill:#99ccff;"/>
   </g>
   <g id="patch_75">
    <path clip-path="url(#p595b309a5b)" d="M 301.098312 69.906356 
L 336.299243 69.906356 
L 336.299243 68.657039 
L 301.098312 68.657039 
z
" style="fill:#99ccff;"/>
   </g>
   <g id="patch_76">
    <path clip-path="url(#p595b309a5b)" d="M 301.098312 68.657039 
L 338.735201 68.657039 
L 338.735201 67.407721 
L 301.098312 67.407721 
z
" style="fill:#99ccff;"/>
   </g>
   <g id="patch_77">
    <path clip-path="url(#p595b309a5b)" d="M 301.098312 67.407721 
L 341.35854 67.407721 
L 341.35854 66.158404 
L 301.098312 66.158404 
z
" style="fill:#99ccff;"/>
   </g>
   <g id="patch_78">
    <path clip-path="url(#p595b309a5b)" d="M 301.098312 66.158404 
L 340.234252 66.158404 
L 340.234252 64.909086 
L 301.098312 64.909086 
z
" style="fill:#99ccff;"/>
   </g>
   <g id="patch_79">
    <path clip-path="url(#p595b309a5b)" d="M 301.098312 64.909086 
L 337.352148 64.909086 
L 337.352148 63.659769 
L 301.098312 63.659769 
z
" style="fill:#99ccff;"/>
   </g>
   <g id="patch_80">
    <path clip-path="url(#p595b309a5b)" d="M 301.098312 63.659769 
L 331.605786 63.659769 
L 331.605786 62.410452 
L 301.098312 62.410452 
z
" style="fill:#99ccff;"/>
   </g>
   <g id="patch_81">
    <path clip-path="url(#p595b309a5b)" d="M 301.098312 62.410452 
L 324.333603 62.410452 
L 324.333603 61.161134 
L 301.098312 61.161134 
z
" style="fill:#99ccff;"/>
   </g>
   <g id="patch_82">
    <path clip-path="url(#p595b309a5b)" d="M 301.098312 61.161134 
L 315.981747 61.161134 
L 315.981747 59.911817 
L 301.098312 59.911817 
z
" style="fill:#99ccff;"/>
   </g>
   <g id="patch_83">
    <path clip-path="url(#p595b309a5b)" d="M 301.098312 59.911817 
L 308.102806 59.911817 
L 308.102806 58.662499 
L 301.098312 58.662499 
z
" style="fill:#99ccff;"/>
   </g>
   <g id="patch_84">
    <path clip-path="url(#p595b309a5b)" d="M 301.098312 58.662499 
L 303.061355 58.662499 
L 303.061355 57.413182 
L 301.098312 57.413182 
z
" style="fill:#99ccff;"/>
   </g>
   <g id="patch_85">
    <path clip-path="url(#p595b309a5b)" d="M 371.757159 156.180285 
L 371.761673 156.180285 
L 371.761673 153.710527 
L 371.757159 153.710527 
z
" style="fill:#99ccff;"/>
   </g>
   <g id="patch_86">
    <path clip-path="url(#p595b309a5b)" d="M 371.757159 153.710527 
L 371.757159 153.710527 
L 371.757159 151.24077 
L 371.757159 151.24077 
z
" style="fill:#99ccff;"/>
   </g>
   <g id="patch_87">
    <path clip-path="url(#p595b309a5b)" d="M 371.757159 151.24077 
L 371.757159 151.24077 
L 371.757159 148.771013 
L 371.757159 148.771013 
z
" style="fill:#99ccff;"/>
   </g>
   <g id="patch_88">
    <path clip-path="url(#p595b309a5b)" d="M 371.757159 148.771013 
L 371.757159 148.771013 
L 371.757159 146.301256 
L 371.757159 146.301256 
z
" style="fill:#99ccff;"/>
   </g>
   <g id="patch_89">
    <path clip-path="url(#p595b309a5b)" d="M 371.757159 146.301256 
L 371.757159 146.301256 
L 371.757159 143.831499 
L 371.757159 143.831499 
z
" style="fill:#99ccff;"/>
   </g>
   <g id="patch_90">
    <path clip-path="url(#p595b309a5b)" d="M 371.757159 143.831499 
L 371.757159 143.831499 
L 371.757159 141.361742 
L 371.757159 141.361742 
z
" style="fill:#99ccff;"/>
   </g>
   <g id="patch_91">
    <path clip-path="url(#p595b309a5b)" d="M 371.757159 141.361742 
L 371.766186 141.361742 
L 371.766186 138.891985 
L 371.757159 138.891985 
z
" style="fill:#99ccff;"/>
   </g>
   <g id="patch_92">
    <path clip-path="url(#p595b309a5b)" d="M 371.757159 138.891985 
L 371.766186 138.891985 
L 371.766186 136.422228 
L 371.757159 136.422228 
z
" style="fill:#99ccff;"/>
   </g>
   <g id="patch_93">
    <path clip-path="url(#p595b309a5b)" d="M 371.757159 136.422228 
L 371.7707 136.422228 
L 371.7707 133.952471 
L 371.757159 133.952471 
z
" style="fill:#99ccff;"/>
   </g>
   <g id="patch_94">
    <path clip-path="url(#p595b309a5b)" d="M 371.757159 133.952471 
L 371.7707 133.952471 
L 371.7707 131.482714 
L 371.757159 131.482714 
z
" style="fill:#99ccff;"/>
   </g>
   <g id="patch_95">
    <path clip-path="url(#p595b309a5b)" d="M 371.757159 131.482714 
L 371.775214 131.482714 
L 371.775214 129.012957 
L 371.757159 129.012957 
z
" style="fill:#99ccff;"/>
   </g>
   <g id="patch_96">
    <path clip-path="url(#p595b309a5b)" d="M 371.757159 129.012957 
L 371.788755 129.012957 
L 371.788755 126.5432 
L 371.757159 126.5432 
z
" style="fill:#99ccff;"/>
   </g>
   <g id="patch_97">
    <path clip-path="url(#p595b309a5b)" d="M 371.757159 126.5432 
L 371.806809 126.5432 
L 371.806809 124.073443 
L 371.757159 124.073443 
z
" style="fill:#99ccff;"/>
   </g>
   <g id="patch_98">
    <path clip-path="url(#p595b309a5b)" d="M 371.757159 124.073443 
L 371.824864 124.073443 
L 371.824864 121.603686 
L 371.757159 121.603686 
z
" style="fill:#99ccff;"/>
   </g>
   <g id="patch_99">
    <path clip-path="url(#p595b309a5b)" d="M 371.757159 121.603686 
L 371.833891 121.603686 
L 371.833891 119.133928 
L 371.757159 119.133928 
z
" style="fill:#99ccff;"/>
   </g>
   <g id="patch_100">
    <path clip-path="url(#p595b309a5b)" d="M 371.757159 119.133928 
L 371.892568 119.133928 
L 371.892568 116.664171 
L 371.757159 116.664171 
z
" style="fill:#99ccff;"/>
   </g>
   <g id="patch_101">
    <path clip-path="url(#p595b309a5b)" d="M 371.757159 116.664171 
L 371.883541 116.664171 
L 371.883541 114.194414 
L 371.757159 114.194414 
z
" style="fill:#99ccff;"/>
   </g>
   <g id="patch_102">
    <path clip-path="url(#p595b309a5b)" d="M 371.757159 114.194414 
L 372.005409 114.194414 
L 372.005409 111.724657 
L 371.757159 111.724657 
z
" style="fill:#99ccff;"/>
   </g>
   <g id="patch_103">
    <path clip-path="url(#p595b309a5b)" d="M 371.757159 111.724657 
L 372.091168 111.724657 
L 372.091168 109.2549 
L 371.757159 109.2549 
z
" style="fill:#99ccff;"/>
   </g>
   <g id="patch_104">
    <path clip-path="url(#p595b309a5b)" d="M 371.757159 109.2549 
L 372.104708 109.2549 
L 372.104708 106.785143 
L 371.757159 106.785143 
z
" style="fill:#99ccff;"/>
   </g>
   <g id="patch_105">
    <path clip-path="url(#p595b309a5b)" d="M 371.757159 106.785143 
L 372.33039 106.785143 
L 372.33039 104.315386 
L 371.757159 104.315386 
z
" style="fill:#99ccff;"/>
   </g>
   <g id="patch_106">
    <path clip-path="url(#p595b309a5b)" d="M 371.757159 104.315386 
L 372.447744 104.315386 
L 372.447744 101.845629 
L 371.757159 101.845629 
z
" style="fill:#99ccff;"/>
   </g>
   <g id="patch_107">
    <path clip-path="url(#p595b309a5b)" d="M 371.757159 101.845629 
L 372.650857 101.845629 
L 372.650857 99.375872 
L 371.757159 99.375872 
z
" style="fill:#99ccff;"/>
   </g>
   <g id="patch_108">
    <path clip-path="url(#p595b309a5b)" d="M 371.757159 99.375872 
L 373.016461 99.375872 
L 373.016461 96.906115 
L 371.757159 96.906115 
z
" style="fill:#99ccff;"/>
   </g>
   <g id="patch_109">
    <path clip-path="url(#p595b309a5b)" d="M 371.757159 96.906115 
L 373.51296 96.906115 
L 373.51296 94.436358 
L 371.757159 94.436358 
z
" style="fill:#99ccff;"/>
   </g>
   <g id="patch_110">
    <path clip-path="url(#p595b309a5b)" d="M 371.757159 94.436358 
L 373.932728 94.436358 
L 373.932728 91.966601 
L 371.757159 91.966601 
z
" style="fill:#99ccff;"/>
   </g>
   <g id="patch_111">
    <path clip-path="url(#p595b309a5b)" d="M 371.757159 91.966601 
L 374.821912 91.966601 
L 374.821912 89.496844 
L 371.757159 89.496844 
z
" style="fill:#99ccff;"/>
   </g>
   <g id="patch_112">
    <path clip-path="url(#p595b309a5b)" d="M 371.757159 89.496844 
L 375.693042 89.496844 
L 375.693042 87.027087 
L 371.757159 87.027087 
z
" style="fill:#99ccff;"/>
   </g>
   <g id="patch_113">
    <path clip-path="url(#p595b309a5b)" d="M 371.757159 87.027087 
L 376.911722 87.027087 
L 376.911722 84.55733 
L 371.757159 84.55733 
z
" style="fill:#99ccff;"/>
   </g>
   <g id="patch_114">
    <path clip-path="url(#p595b309a5b)" d="M 371.757159 84.55733 
L 378.171024 84.55733 
L 378.171024 82.087572 
L 371.757159 82.087572 
z
" style="fill:#99ccff;"/>
   </g>
   <g id="patch_115">
    <path clip-path="url(#p595b309a5b)" d="M 371.757159 82.087572 
L 380.05772 82.087572 
L 380.05772 79.617815 
L 371.757159 79.617815 
z
" style="fill:#99ccff;"/>
   </g>
   <g id="patch_116">
    <path clip-path="url(#p595b309a5b)" d="M 371.757159 79.617815 
L 382.689165 79.617815 
L 382.689165 77.148058 
L 371.757159 77.148058 
z
" style="fill:#99ccff;"/>
   </g>
   <g id="patch_117">
    <path clip-path="url(#p595b309a5b)" d="M 371.757159 77.148058 
L 384.968547 77.148058 
L 384.968547 74.678301 
L 371.757159 74.678301 
z
" style="fill:#99ccff;"/>
   </g>
   <g id="patch_118">
    <path clip-path="url(#p595b309a5b)" d="M 371.757159 74.678301 
L 388.651667 74.678301 
L 388.651667 72.208544 
L 371.757159 72.208544 
z
" style="fill:#99ccff;"/>
   </g>
   <g id="patch_119">
    <path clip-path="url(#p595b309a5b)" d="M 371.757159 72.208544 
L 391.748015 72.208544 
L 391.748015 69.738787 
L 371.757159 69.738787 
z
" style="fill:#99ccff;"/>
   </g>
   <g id="patch_120">
    <path clip-path="url(#p595b309a5b)" d="M 371.757159 69.738787 
L 395.169344 69.738787 
L 395.169344 67.26903 
L 371.757159 67.26903 
z
" style="fill:#99ccff;"/>
   </g>
   <g id="patch_121">
    <path clip-path="url(#p595b309a5b)" d="M 371.757159 67.26903 
L 397.91363 67.26903 
L 397.91363 64.799273 
L 371.757159 64.799273 
z
" style="fill:#99ccff;"/>
   </g>
   <g id="patch_122">
    <path clip-path="url(#p595b309a5b)" d="M 371.757159 64.799273 
L 400.16593 64.799273 
L 400.16593 62.329516 
L 371.757159 62.329516 
z
" style="fill:#99ccff;"/>
   </g>
   <g id="patch_123">
    <path clip-path="url(#p595b309a5b)" d="M 371.757159 62.329516 
L 399.010441 62.329516 
L 399.010441 59.859759 
L 371.757159 59.859759 
z
" style="fill:#99ccff;"/>
   </g>
   <g id="patch_124">
    <path clip-path="url(#p595b309a5b)" d="M 371.757159 59.859759 
L 395.476271 59.859759 
L 395.476271 57.390002 
L 371.757159 57.390002 
z
" style="fill:#99ccff;"/>
   </g>
   <g id="matplotlib.axis_3"/>
   <g id="patch_125">
    <path d="M 74.99 282.112 
L 74.99 40.63344 
" style="fill:none;stroke:#000000;stroke-linecap:square;stroke-linejoin:miter;stroke-width:0.8;"/>
   </g>
   <g id="patch_126">
    <path d="M 74.99 282.112 
L 421.218352 282.112 
" style="fill:none;stroke:#000000;stroke-linecap:square;stroke-linejoin:miter;stroke-width:0.8;"/>
   </g>
  </g>
  <g id="axes_3">
   <g id="patch_127">
    <path d="M 74.99 282.112 
L 421.218352 282.112 
L 421.218352 40.63344 
L 74.99 40.63344 
z
" style="fill:none;"/>
   </g>
   <g id="PathCollection_1">
    <defs>
     <path d="M 0 3 
C 0.795609 3 1.55874 2.683901 2.12132 2.12132 
C 2.683901 1.55874 3 0.795609 3 0 
C 3 -0.795609 2.683901 -1.55874 2.12132 -2.12132 
C 1.55874 -2.683901 0.795609 -3 0 -3 
C -0.795609 -3 -1.55874 -2.683901 -2.12132 -2.12132 
C -2.683901 -1.55874 -3 -0.795609 -3 0 
C -3 0.795609 -2.683901 1.55874 -2.12132 2.12132 
C -1.55874 2.683901 -0.795609 3 0 3 
z
" id="m5e78c3ffb6" style="stroke:#000000;"/>
    </defs>
    <g clip-path="url(#p595b309a5b)">
     <use style="stroke:#000000;" x="216.307695" xlink:href="#m5e78c3ffb6" y="68.897665"/>
     <use style="stroke:#000000;" x="301.098312" xlink:href="#m5e78c3ffb6" y="69.330628"/>
     <use style="stroke:#000000;" x="371.757159" xlink:href="#m5e78c3ffb6" y="70.301459"/>
    </g>
   </g>
   <g id="matplotlib.axis_4">
    <g id="xtick_22">
     <g id="line2d_25">
      <g>
       <use style="stroke:#000000;stroke-width:0.8;" x="248.104176" xlink:href="#ma81c4e0611" y="282.112"/>
      </g>
     </g>
     <g id="text_8">
      <!-- $\mathdefault{10^{-1}}$ -->
      <g transform="translate(230.479176 300.509656)scale(0.15 -0.15)">
       <defs>
        <path d="M 678 2272 
L 4684 2272 
L 4684 1741 
L 678 1741 
L 678 2272 
z
" id="DejaVuSans-2212" transform="scale(0.015625)"/>
       </defs>
       <use transform="translate(0 0.684375)" xlink:href="#DejaVuSans-31"/>
       <use transform="translate(63.623047 0.684375)" xlink:href="#DejaVuSans-30"/>
       <use transform="translate(128.203125 38.965625)scale(0.7)" xlink:href="#DejaVuSans-2212"/>
       <use transform="translate(186.855469 38.965625)scale(0.7)" xlink:href="#DejaVuSans-31"/>
      </g>
     </g>
    </g>
    <g id="xtick_23">
     <g id="line2d_26">
      <g>
       <use style="stroke:#000000;stroke-width:0.6;" x="110.326063" xlink:href="#mbad073437c" y="282.112"/>
      </g>
     </g>
     <g id="text_9">
      <!-- $\mathdefault{4\times10^{-2}}$ -->
      <g transform="translate(78.751063 298.909656)scale(0.15 -0.15)">
       <defs>
        <path d="M 2419 4116 
L 825 1625 
L 2419 1625 
L 2419 4116 
z
M 2253 4666 
L 3047 4666 
L 3047 1625 
L 3713 1625 
L 3713 1100 
L 3047 1100 
L 3047 0 
L 2419 0 
L 2419 1100 
L 313 1100 
L 313 1709 
L 2253 4666 
z
" id="DejaVuSans-34" transform="scale(0.015625)"/>
        <path d="M 4488 3438 
L 3059 2003 
L 4488 575 
L 4116 197 
L 2681 1631 
L 1247 197 
L 878 575 
L 2303 2003 
L 878 3438 
L 1247 3816 
L 2681 2381 
L 4116 3816 
L 4488 3438 
z
" id="DejaVuSans-d7" transform="scale(0.015625)"/>
       </defs>
       <use transform="translate(0 0.765625)" xlink:href="#DejaVuSans-34"/>
       <use transform="translate(83.105469 0.765625)" xlink:href="#DejaVuSans-d7"/>
       <use transform="translate(186.376953 0.765625)" xlink:href="#DejaVuSans-31"/>
       <use transform="translate(250 0.765625)" xlink:href="#DejaVuSans-30"/>
       <use transform="translate(314.580078 39.046875)scale(0.7)" xlink:href="#DejaVuSans-2212"/>
       <use transform="translate(373.232422 39.046875)scale(0.7)" xlink:href="#DejaVuSans-32"/>
      </g>
     </g>
    </g>
    <g id="xtick_24">
     <g id="line2d_27">
      <g>
       <use style="stroke:#000000;stroke-width:0.6;" x="143.879057" xlink:href="#mbad073437c" y="282.112"/>
      </g>
     </g>
    </g>
    <g id="xtick_25">
     <g id="line2d_28">
      <g>
       <use style="stroke:#000000;stroke-width:0.6;" x="171.293849" xlink:href="#mbad073437c" y="282.112"/>
      </g>
     </g>
     <g id="text_10">
      <!-- $\mathdefault{6\times10^{-2}}$ -->
      <g transform="translate(139.718849 298.909656)scale(0.15 -0.15)">
       <defs>
        <path d="M 2113 2584 
Q 1688 2584 1439 2293 
Q 1191 2003 1191 1497 
Q 1191 994 1439 701 
Q 1688 409 2113 409 
Q 2538 409 2786 701 
Q 3034 994 3034 1497 
Q 3034 2003 2786 2293 
Q 2538 2584 2113 2584 
z
M 3366 4563 
L 3366 3988 
Q 3128 4100 2886 4159 
Q 2644 4219 2406 4219 
Q 1781 4219 1451 3797 
Q 1122 3375 1075 2522 
Q 1259 2794 1537 2939 
Q 1816 3084 2150 3084 
Q 2853 3084 3261 2657 
Q 3669 2231 3669 1497 
Q 3669 778 3244 343 
Q 2819 -91 2113 -91 
Q 1303 -91 875 529 
Q 447 1150 447 2328 
Q 447 3434 972 4092 
Q 1497 4750 2381 4750 
Q 2619 4750 2861 4703 
Q 3103 4656 3366 4563 
z
" id="DejaVuSans-36" transform="scale(0.015625)"/>
       </defs>
       <use transform="translate(0 0.765625)" xlink:href="#DejaVuSans-36"/>
       <use transform="translate(83.105469 0.765625)" xlink:href="#DejaVuSans-d7"/>
       <use transform="translate(186.376953 0.765625)" xlink:href="#DejaVuSans-31"/>
       <use transform="translate(250 0.765625)" xlink:href="#DejaVuSans-30"/>
       <use transform="translate(314.580078 39.046875)scale(0.7)" xlink:href="#DejaVuSans-2212"/>
       <use transform="translate(373.232422 39.046875)scale(0.7)" xlink:href="#DejaVuSans-32"/>
      </g>
     </g>
    </g>
    <g id="xtick_26">
     <g id="line2d_29">
      <g>
       <use style="stroke:#000000;stroke-width:0.6;" x="194.472726" xlink:href="#mbad073437c" y="282.112"/>
      </g>
     </g>
    </g>
    <g id="xtick_27">
     <g id="line2d_30">
      <g>
       <use style="stroke:#000000;stroke-width:0.6;" x="214.551182" xlink:href="#mbad073437c" y="282.112"/>
      </g>
     </g>
    </g>
    <g id="xtick_28">
     <g id="line2d_31">
      <g>
       <use style="stroke:#000000;stroke-width:0.6;" x="232.261636" xlink:href="#mbad073437c" y="282.112"/>
      </g>
     </g>
    </g>
    <g id="xtick_29">
     <g id="line2d_32">
      <g>
       <use style="stroke:#000000;stroke-width:0.6;" x="352.329296" xlink:href="#mbad073437c" y="282.112"/>
      </g>
     </g>
     <g id="text_11">
      <!-- $\mathdefault{2\times10^{-1}}$ -->
      <g transform="translate(320.754296 298.909656)scale(0.15 -0.15)">
       <use transform="translate(0 0.684375)" xlink:href="#DejaVuSans-32"/>
       <use transform="translate(83.105469 0.684375)" xlink:href="#DejaVuSans-d7"/>
       <use transform="translate(186.376953 0.684375)" xlink:href="#DejaVuSans-31"/>
       <use transform="translate(250 0.684375)" xlink:href="#DejaVuSans-30"/>
       <use transform="translate(314.580078 38.965625)scale(0.7)" xlink:href="#DejaVuSans-2212"/>
       <use transform="translate(373.232422 38.965625)scale(0.7)" xlink:href="#DejaVuSans-31"/>
      </g>
     </g>
    </g>
    <g id="xtick_30">
     <g id="line2d_33">
      <g>
       <use style="stroke:#000000;stroke-width:0.6;" x="413.297082" xlink:href="#mbad073437c" y="282.112"/>
      </g>
     </g>
     <g id="text_12">
      <!-- $\mathdefault{3\times10^{-1}}$ -->
      <g transform="translate(381.722082 298.909656)scale(0.15 -0.15)">
       <defs>
        <path d="M 2597 2516 
Q 3050 2419 3304 2112 
Q 3559 1806 3559 1356 
Q 3559 666 3084 287 
Q 2609 -91 1734 -91 
Q 1441 -91 1130 -33 
Q 819 25 488 141 
L 488 750 
Q 750 597 1062 519 
Q 1375 441 1716 441 
Q 2309 441 2620 675 
Q 2931 909 2931 1356 
Q 2931 1769 2642 2001 
Q 2353 2234 1838 2234 
L 1294 2234 
L 1294 2753 
L 1863 2753 
Q 2328 2753 2575 2939 
Q 2822 3125 2822 3475 
Q 2822 3834 2567 4026 
Q 2313 4219 1838 4219 
Q 1578 4219 1281 4162 
Q 984 4106 628 3988 
L 628 4550 
Q 988 4650 1302 4700 
Q 1616 4750 1894 4750 
Q 2613 4750 3031 4423 
Q 3450 4097 3450 3541 
Q 3450 3153 3228 2886 
Q 3006 2619 2597 2516 
z
" id="DejaVuSans-33" transform="scale(0.015625)"/>
       </defs>
       <use transform="translate(0 0.684375)" xlink:href="#DejaVuSans-33"/>
       <use transform="translate(83.105469 0.684375)" xlink:href="#DejaVuSans-d7"/>
       <use transform="translate(186.376953 0.684375)" xlink:href="#DejaVuSans-31"/>
       <use transform="translate(250 0.684375)" xlink:href="#DejaVuSans-30"/>
       <use transform="translate(314.580078 38.965625)scale(0.7)" xlink:href="#DejaVuSans-2212"/>
       <use transform="translate(373.232422 38.965625)scale(0.7)" xlink:href="#DejaVuSans-31"/>
      </g>
     </g>
    </g>
    <g id="text_13">
     <!-- Variation of $k_{deg}$ (CV) -->
     <g transform="translate(169.129176 319.029187)scale(0.15 -0.15)">
      <defs>
       <path d="M 1831 0 
L 50 4666 
L 709 4666 
L 2188 738 
L 3669 4666 
L 4325 4666 
L 2547 0 
L 1831 0 
z
" id="DejaVuSans-56" transform="scale(0.015625)"/>
       <path d="M 2194 1759 
Q 1497 1759 1228 1600 
Q 959 1441 959 1056 
Q 959 750 1161 570 
Q 1363 391 1709 391 
Q 2188 391 2477 730 
Q 2766 1069 2766 1631 
L 2766 1759 
L 2194 1759 
z
M 3341 1997 
L 3341 0 
L 2766 0 
L 2766 531 
Q 2569 213 2275 61 
Q 1981 -91 1556 -91 
Q 1019 -91 701 211 
Q 384 513 384 1019 
Q 384 1609 779 1909 
Q 1175 2209 1959 2209 
L 2766 2209 
L 2766 2266 
Q 2766 2663 2505 2880 
Q 2244 3097 1772 3097 
Q 1472 3097 1187 3025 
Q 903 2953 641 2809 
L 641 3341 
Q 956 3463 1253 3523 
Q 1550 3584 1831 3584 
Q 2591 3584 2966 3190 
Q 3341 2797 3341 1997 
z
" id="DejaVuSans-61" transform="scale(0.015625)"/>
       <path d="M 2631 2963 
Q 2534 3019 2420 3045 
Q 2306 3072 2169 3072 
Q 1681 3072 1420 2755 
Q 1159 2438 1159 1844 
L 1159 0 
L 581 0 
L 581 3500 
L 1159 3500 
L 1159 2956 
Q 1341 3275 1631 3429 
Q 1922 3584 2338 3584 
Q 2397 3584 2469 3576 
Q 2541 3569 2628 3553 
L 2631 2963 
z
" id="DejaVuSans-72" transform="scale(0.015625)"/>
       <path d="M 603 3500 
L 1178 3500 
L 1178 0 
L 603 0 
L 603 3500 
z
M 603 4863 
L 1178 4863 
L 1178 4134 
L 603 4134 
L 603 4863 
z
" id="DejaVuSans-69" transform="scale(0.015625)"/>
       <path d="M 1172 4494 
L 1172 3500 
L 2356 3500 
L 2356 3053 
L 1172 3053 
L 1172 1153 
Q 1172 725 1289 603 
Q 1406 481 1766 481 
L 2356 481 
L 2356 0 
L 1766 0 
Q 1100 0 847 248 
Q 594 497 594 1153 
L 594 3053 
L 172 3053 
L 172 3500 
L 594 3500 
L 594 4494 
L 1172 4494 
z
" id="DejaVuSans-74" transform="scale(0.015625)"/>
       <path d="M 1959 3097 
Q 1497 3097 1228 2736 
Q 959 2375 959 1747 
Q 959 1119 1226 758 
Q 1494 397 1959 397 
Q 2419 397 2687 759 
Q 2956 1122 2956 1747 
Q 2956 2369 2687 2733 
Q 2419 3097 1959 3097 
z
M 1959 3584 
Q 2709 3584 3137 3096 
Q 3566 2609 3566 1747 
Q 3566 888 3137 398 
Q 2709 -91 1959 -91 
Q 1206 -91 779 398 
Q 353 888 353 1747 
Q 353 2609 779 3096 
Q 1206 3584 1959 3584 
z
" id="DejaVuSans-6f" transform="scale(0.015625)"/>
       <path d="M 3513 2113 
L 3513 0 
L 2938 0 
L 2938 2094 
Q 2938 2591 2744 2837 
Q 2550 3084 2163 3084 
Q 1697 3084 1428 2787 
Q 1159 2491 1159 1978 
L 1159 0 
L 581 0 
L 581 3500 
L 1159 3500 
L 1159 2956 
Q 1366 3272 1645 3428 
Q 1925 3584 2291 3584 
Q 2894 3584 3203 3211 
Q 3513 2838 3513 2113 
z
" id="DejaVuSans-6e" transform="scale(0.015625)"/>
       <path id="DejaVuSans-20" transform="scale(0.015625)"/>
       <path d="M 2375 4863 
L 2375 4384 
L 1825 4384 
Q 1516 4384 1395 4259 
Q 1275 4134 1275 3809 
L 1275 3500 
L 2222 3500 
L 2222 3053 
L 1275 3053 
L 1275 0 
L 697 0 
L 697 3053 
L 147 3053 
L 147 3500 
L 697 3500 
L 697 3744 
Q 697 4328 969 4595 
Q 1241 4863 1831 4863 
L 2375 4863 
z
" id="DejaVuSans-66" transform="scale(0.015625)"/>
       <path d="M 4122 4306 
L 4122 3641 
Q 3803 3938 3442 4084 
Q 3081 4231 2675 4231 
Q 1875 4231 1450 3742 
Q 1025 3253 1025 2328 
Q 1025 1406 1450 917 
Q 1875 428 2675 428 
Q 3081 428 3442 575 
Q 3803 722 4122 1019 
L 4122 359 
Q 3791 134 3420 21 
Q 3050 -91 2638 -91 
Q 1578 -91 968 557 
Q 359 1206 359 2328 
Q 359 3453 968 4101 
Q 1578 4750 2638 4750 
Q 3056 4750 3426 4639 
Q 3797 4528 4122 4306 
z
" id="DejaVuSans-43" transform="scale(0.015625)"/>
      </defs>
      <use transform="translate(0 0.015625)" xlink:href="#DejaVuSans-56"/>
      <use transform="translate(68.408203 0.015625)" xlink:href="#DejaVuSans-61"/>
      <use transform="translate(129.6875 0.015625)" xlink:href="#DejaVuSans-72"/>
      <use transform="translate(170.800781 0.015625)" xlink:href="#DejaVuSans-69"/>
      <use transform="translate(198.583984 0.015625)" xlink:href="#DejaVuSans-61"/>
      <use transform="translate(259.863281 0.015625)" xlink:href="#DejaVuSans-74"/>
      <use transform="translate(299.072266 0.015625)" xlink:href="#DejaVuSans-69"/>
      <use transform="translate(326.855469 0.015625)" xlink:href="#DejaVuSans-6f"/>
      <use transform="translate(388.037109 0.015625)" xlink:href="#DejaVuSans-6e"/>
      <use transform="translate(451.416016 0.015625)" xlink:href="#DejaVuSans-20"/>
      <use transform="translate(483.203125 0.015625)" xlink:href="#DejaVuSans-6f"/>
      <use transform="translate(544.384766 0.015625)" xlink:href="#DejaVuSans-66"/>
      <use transform="translate(579.589844 0.015625)" xlink:href="#DejaVuSans-20"/>
      <use transform="translate(611.376953 0.015625)" xlink:href="#DejaVuSans-Oblique-6b"/>
      <use transform="translate(669.287109 -16.390625)scale(0.7)" xlink:href="#DejaVuSans-Oblique-64"/>
      <use transform="translate(713.720703 -16.390625)scale(0.7)" xlink:href="#DejaVuSans-Oblique-65"/>
      <use transform="translate(756.787109 -16.390625)scale(0.7)" xlink:href="#DejaVuSans-Oblique-67"/>
      <use transform="translate(803.955078 0.015625)" xlink:href="#DejaVuSans-20"/>
      <use transform="translate(835.742188 0.015625)" xlink:href="#DejaVuSans-28"/>
      <use transform="translate(874.755859 0.015625)" xlink:href="#DejaVuSans-43"/>
      <use transform="translate(944.580078 0.015625)" xlink:href="#DejaVuSans-56"/>
      <use transform="translate(1012.988281 0.015625)" xlink:href="#DejaVuSans-29"/>
     </g>
    </g>
   </g>
   <g id="matplotlib.axis_5">
    <g id="ytick_3">
     <g id="line2d_34">
      <g>
       <use style="stroke:#000000;stroke-width:0.8;" x="74.99" xlink:href="#m8f01a9fdfc" y="282.112"/>
      </g>
     </g>
     <g id="text_14">
      <!-- 1.40 -->
      <g transform="translate(34.591563 287.810828)scale(0.15 -0.15)">
       <use xlink:href="#DejaVuSans-31"/>
       <use x="63.623047" xlink:href="#DejaVuSans-2e"/>
       <use x="95.410156" xlink:href="#DejaVuSans-34"/>
       <use x="159.033203" xlink:href="#DejaVuSans-30"/>
      </g>
     </g>
    </g>
    <g id="ytick_4">
     <g id="line2d_35">
      <g>
       <use style="stroke:#000000;stroke-width:0.8;" x="74.99" xlink:href="#m8f01a9fdfc" y="233.816288"/>
      </g>
     </g>
     <g id="text_15">
      <!-- 1.42 -->
      <g transform="translate(34.591563 239.515116)scale(0.15 -0.15)">
       <use xlink:href="#DejaVuSans-31"/>
       <use x="63.623047" xlink:href="#DejaVuSans-2e"/>
       <use x="95.410156" xlink:href="#DejaVuSans-34"/>
       <use x="159.033203" xlink:href="#DejaVuSans-32"/>
      </g>
     </g>
    </g>
    <g id="ytick_5">
     <g id="line2d_36">
      <g>
       <use style="stroke:#000000;stroke-width:0.8;" x="74.99" xlink:href="#m8f01a9fdfc" y="185.520576"/>
      </g>
     </g>
     <g id="text_16">
      <!-- 1.44 -->
      <g transform="translate(34.591563 191.219404)scale(0.15 -0.15)">
       <use xlink:href="#DejaVuSans-31"/>
       <use x="63.623047" xlink:href="#DejaVuSans-2e"/>
       <use x="95.410156" xlink:href="#DejaVuSans-34"/>
       <use x="159.033203" xlink:href="#DejaVuSans-34"/>
      </g>
     </g>
    </g>
    <g id="ytick_6">
     <g id="line2d_37">
      <g>
       <use style="stroke:#000000;stroke-width:0.8;" x="74.99" xlink:href="#m8f01a9fdfc" y="137.224864"/>
      </g>
     </g>
     <g id="text_17">
      <!-- 1.46 -->
      <g transform="translate(34.591563 142.923692)scale(0.15 -0.15)">
       <use xlink:href="#DejaVuSans-31"/>
       <use x="63.623047" xlink:href="#DejaVuSans-2e"/>
       <use x="95.410156" xlink:href="#DejaVuSans-34"/>
       <use x="159.033203" xlink:href="#DejaVuSans-36"/>
      </g>
     </g>
    </g>
    <g id="ytick_7">
     <g id="line2d_38">
      <g>
       <use style="stroke:#000000;stroke-width:0.8;" x="74.99" xlink:href="#m8f01a9fdfc" y="88.929152"/>
      </g>
     </g>
     <g id="text_18">
      <!-- 1.48 -->
      <g transform="translate(34.591563 94.62798)scale(0.15 -0.15)">
       <defs>
        <path d="M 2034 2216 
Q 1584 2216 1326 1975 
Q 1069 1734 1069 1313 
Q 1069 891 1326 650 
Q 1584 409 2034 409 
Q 2484 409 2743 651 
Q 3003 894 3003 1313 
Q 3003 1734 2745 1975 
Q 2488 2216 2034 2216 
z
M 1403 2484 
Q 997 2584 770 2862 
Q 544 3141 544 3541 
Q 544 4100 942 4425 
Q 1341 4750 2034 4750 
Q 2731 4750 3128 4425 
Q 3525 4100 3525 3541 
Q 3525 3141 3298 2862 
Q 3072 2584 2669 2484 
Q 3125 2378 3379 2068 
Q 3634 1759 3634 1313 
Q 3634 634 3220 271 
Q 2806 -91 2034 -91 
Q 1263 -91 848 271 
Q 434 634 434 1313 
Q 434 1759 690 2068 
Q 947 2378 1403 2484 
z
M 1172 3481 
Q 1172 3119 1398 2916 
Q 1625 2713 2034 2713 
Q 2441 2713 2670 2916 
Q 2900 3119 2900 3481 
Q 2900 3844 2670 4047 
Q 2441 4250 2034 4250 
Q 1625 4250 1398 4047 
Q 1172 3844 1172 3481 
z
" id="DejaVuSans-38" transform="scale(0.015625)"/>
       </defs>
       <use xlink:href="#DejaVuSans-31"/>
       <use x="63.623047" xlink:href="#DejaVuSans-2e"/>
       <use x="95.410156" xlink:href="#DejaVuSans-34"/>
       <use x="159.033203" xlink:href="#DejaVuSans-38"/>
      </g>
     </g>
    </g>
    <g id="ytick_8">
     <g id="line2d_39">
      <g>
       <use style="stroke:#000000;stroke-width:0.8;" x="74.99" xlink:href="#m8f01a9fdfc" y="40.63344"/>
      </g>
     </g>
     <g id="text_19">
      <!-- 1.50 -->
      <g transform="translate(34.591563 46.332268)scale(0.15 -0.15)">
       <use xlink:href="#DejaVuSans-31"/>
       <use x="63.623047" xlink:href="#DejaVuSans-2e"/>
       <use x="95.410156" xlink:href="#DejaVuSans-35"/>
       <use x="159.033203" xlink:href="#DejaVuSans-30"/>
      </g>
     </g>
    </g>
    <g id="text_20">
     <!-- Mutual Information (Bits) -->
     <g transform="translate(27.472031 255.080533)rotate(-90)scale(0.15 -0.15)">
      <defs>
       <path d="M 628 4666 
L 1569 4666 
L 2759 1491 
L 3956 4666 
L 4897 4666 
L 4897 0 
L 4281 0 
L 4281 4097 
L 3078 897 
L 2444 897 
L 1241 4097 
L 1241 0 
L 628 0 
L 628 4666 
z
" id="DejaVuSans-4d" transform="scale(0.015625)"/>
       <path d="M 544 1381 
L 544 3500 
L 1119 3500 
L 1119 1403 
Q 1119 906 1312 657 
Q 1506 409 1894 409 
Q 2359 409 2629 706 
Q 2900 1003 2900 1516 
L 2900 3500 
L 3475 3500 
L 3475 0 
L 2900 0 
L 2900 538 
Q 2691 219 2414 64 
Q 2138 -91 1772 -91 
Q 1169 -91 856 284 
Q 544 659 544 1381 
z
M 1991 3584 
L 1991 3584 
z
" id="DejaVuSans-75" transform="scale(0.015625)"/>
       <path d="M 603 4863 
L 1178 4863 
L 1178 0 
L 603 0 
L 603 4863 
z
" id="DejaVuSans-6c" transform="scale(0.015625)"/>
       <path d="M 628 4666 
L 1259 4666 
L 1259 0 
L 628 0 
L 628 4666 
z
" id="DejaVuSans-49" transform="scale(0.015625)"/>
       <path d="M 3328 2828 
Q 3544 3216 3844 3400 
Q 4144 3584 4550 3584 
Q 5097 3584 5394 3201 
Q 5691 2819 5691 2113 
L 5691 0 
L 5113 0 
L 5113 2094 
Q 5113 2597 4934 2840 
Q 4756 3084 4391 3084 
Q 3944 3084 3684 2787 
Q 3425 2491 3425 1978 
L 3425 0 
L 2847 0 
L 2847 2094 
Q 2847 2600 2669 2842 
Q 2491 3084 2119 3084 
Q 1678 3084 1418 2786 
Q 1159 2488 1159 1978 
L 1159 0 
L 581 0 
L 581 3500 
L 1159 3500 
L 1159 2956 
Q 1356 3278 1631 3431 
Q 1906 3584 2284 3584 
Q 2666 3584 2933 3390 
Q 3200 3197 3328 2828 
z
" id="DejaVuSans-6d" transform="scale(0.015625)"/>
       <path d="M 1259 2228 
L 1259 519 
L 2272 519 
Q 2781 519 3026 730 
Q 3272 941 3272 1375 
Q 3272 1813 3026 2020 
Q 2781 2228 2272 2228 
L 1259 2228 
z
M 1259 4147 
L 1259 2741 
L 2194 2741 
Q 2656 2741 2882 2914 
Q 3109 3088 3109 3444 
Q 3109 3797 2882 3972 
Q 2656 4147 2194 4147 
L 1259 4147 
z
M 628 4666 
L 2241 4666 
Q 2963 4666 3353 4366 
Q 3744 4066 3744 3513 
Q 3744 3084 3544 2831 
Q 3344 2578 2956 2516 
Q 3422 2416 3680 2098 
Q 3938 1781 3938 1306 
Q 3938 681 3513 340 
Q 3088 0 2303 0 
L 628 0 
L 628 4666 
z
" id="DejaVuSans-42" transform="scale(0.015625)"/>
       <path d="M 2834 3397 
L 2834 2853 
Q 2591 2978 2328 3040 
Q 2066 3103 1784 3103 
Q 1356 3103 1142 2972 
Q 928 2841 928 2578 
Q 928 2378 1081 2264 
Q 1234 2150 1697 2047 
L 1894 2003 
Q 2506 1872 2764 1633 
Q 3022 1394 3022 966 
Q 3022 478 2636 193 
Q 2250 -91 1575 -91 
Q 1294 -91 989 -36 
Q 684 19 347 128 
L 347 722 
Q 666 556 975 473 
Q 1284 391 1588 391 
Q 1994 391 2212 530 
Q 2431 669 2431 922 
Q 2431 1156 2273 1281 
Q 2116 1406 1581 1522 
L 1381 1569 
Q 847 1681 609 1914 
Q 372 2147 372 2553 
Q 372 3047 722 3315 
Q 1072 3584 1716 3584 
Q 2034 3584 2315 3537 
Q 2597 3491 2834 3397 
z
" id="DejaVuSans-73" transform="scale(0.015625)"/>
      </defs>
      <use xlink:href="#DejaVuSans-4d"/>
      <use x="86.279297" xlink:href="#DejaVuSans-75"/>
      <use x="149.658203" xlink:href="#DejaVuSans-74"/>
      <use x="188.867188" xlink:href="#DejaVuSans-75"/>
      <use x="252.246094" xlink:href="#DejaVuSans-61"/>
      <use x="313.525391" xlink:href="#DejaVuSans-6c"/>
      <use x="341.308594" xlink:href="#DejaVuSans-20"/>
      <use x="373.095703" xlink:href="#DejaVuSans-49"/>
      <use x="402.587891" xlink:href="#DejaVuSans-6e"/>
      <use x="465.966797" xlink:href="#DejaVuSans-66"/>
      <use x="501.171875" xlink:href="#DejaVuSans-6f"/>
      <use x="562.353516" xlink:href="#DejaVuSans-72"/>
      <use x="601.716797" xlink:href="#DejaVuSans-6d"/>
      <use x="699.128906" xlink:href="#DejaVuSans-61"/>
      <use x="760.408203" xlink:href="#DejaVuSans-74"/>
      <use x="799.617188" xlink:href="#DejaVuSans-69"/>
      <use x="827.400391" xlink:href="#DejaVuSans-6f"/>
      <use x="888.582031" xlink:href="#DejaVuSans-6e"/>
      <use x="951.960938" xlink:href="#DejaVuSans-20"/>
      <use x="983.748047" xlink:href="#DejaVuSans-28"/>
      <use x="1022.761719" xlink:href="#DejaVuSans-42"/>
      <use x="1091.365234" xlink:href="#DejaVuSans-69"/>
      <use x="1119.148438" xlink:href="#DejaVuSans-74"/>
      <use x="1158.357422" xlink:href="#DejaVuSans-73"/>
      <use x="1210.457031" xlink:href="#DejaVuSans-29"/>
     </g>
    </g>
   </g>
   <g id="line2d_40">
    <path clip-path="url(#p595b309a5b)" d="M 74.99 68.739245 
L 82.055885 68.741116 
L 89.121769 68.741897 
L 96.187654 68.741646 
L 103.253539 68.752412 
L 110.319424 68.752657 
L 117.385308 68.770054 
L 124.451193 68.749123 
L 131.517078 68.776337 
L 138.582963 68.776508 
L 145.648847 68.775006 
L 152.714732 68.787771 
L 159.780617 68.826804 
L 166.846502 68.801562 
L 173.912386 68.819385 
L 180.978271 68.827389 
L 188.044156 68.867585 
L 195.110041 68.870137 
L 202.175925 68.868672 
L 209.24181 68.889928 
L 216.307695 68.897665 
L 223.37358 68.929234 
L 230.439464 68.965588 
L 237.505349 68.994318 
L 244.571234 69.004458 
L 251.637119 69.037563 
L 258.703003 69.069841 
L 265.768888 69.097587 
L 272.834773 69.14543 
L 279.900657 69.205161 
L 286.966542 69.189319 
L 294.032427 69.310503 
L 301.098312 69.330628 
L 308.164196 69.447133 
L 315.230081 69.429652 
L 322.295966 69.558934 
L 329.361851 69.605365 
L 336.427735 69.702059 
L 343.49362 69.824576 
L 350.559505 69.944265 
L 357.62539 70.106978 
L 364.691274 70.1144 
L 371.757159 70.301459 
L 378.823044 70.518414 
L 385.888929 70.564053 
L 392.954813 70.886253 
L 400.020698 71.047115 
L 407.086583 71.249253 
L 414.152468 71.53492 
L 421.218352 71.733452 
" style="fill:none;stroke:#000000;stroke-linecap:square;stroke-width:1.5;"/>
   </g>
   <g id="line2d_41">
    <path clip-path="url(#p595b309a5b)" d="M 74.99 69.64803 
L 82.055885 69.737741 
L 89.121769 69.864761 
L 96.187654 69.954293 
L 103.253539 70.124233 
L 110.319424 70.22227 
L 117.385308 70.383735 
L 124.451193 70.537538 
L 131.517078 70.672598 
L 138.582963 70.85826 
L 145.648847 71.086629 
L 152.714732 71.398717 
L 159.780617 71.699432 
L 166.846502 71.905686 
L 173.912386 72.26613 
L 180.978271 72.605297 
L 188.044156 72.952722 
L 195.110041 73.406677 
L 202.175925 73.812355 
L 209.24181 74.375879 
L 216.307695 74.896528 
L 223.37358 75.513108 
L 230.439464 76.113684 
L 237.505349 76.881669 
L 244.571234 77.759774 
L 251.637119 78.485027 
L 258.703003 79.434459 
L 265.768888 80.646369 
L 272.834773 81.75853 
L 279.900657 83.10754 
L 286.966542 84.241559 
L 294.032427 85.848019 
L 301.098312 87.474667 
L 308.164196 89.259709 
L 315.230081 91.454552 
L 322.295966 93.542213 
L 329.361851 95.782053 
L 336.427735 98.468589 
L 343.49362 101.477755 
L 350.559505 104.599814 
L 357.62539 107.891747 
L 364.691274 111.599872 
L 371.757159 115.946927 
L 378.823044 120.14717 
L 385.888929 125.138275 
L 392.954813 130.327808 
L 400.020698 135.64971 
L 407.086583 142.057003 
L 414.152468 148.43622 
L 421.218352 155.647674 
" style="fill:none;stroke:#0000ff;stroke-dasharray:5.55,2.4;stroke-dashoffset:0;stroke-width:1.5;"/>
   </g>
   <g id="patch_128">
    <path d="M 74.99 282.112 
L 74.99 40.63344 
" style="fill:none;stroke:#000000;stroke-linecap:square;stroke-linejoin:miter;stroke-width:0.8;"/>
   </g>
   <g id="patch_129">
    <path d="M 74.99 282.112 
L 421.218352 282.112 
" style="fill:none;stroke:#000000;stroke-linecap:square;stroke-linejoin:miter;stroke-width:0.8;"/>
   </g>
   <g id="legend_1">
    <g id="line2d_42">
     <path d="M 93.754176 31.306013 
L 123.754176 31.306013 
" style="fill:none;stroke:#000000;stroke-linecap:square;stroke-width:1.5;"/>
    </g>
    <g id="line2d_43"/>
    <g id="text_21">
     <!-- $\mathcal{I}_{Cee}$ -->
     <g transform="translate(135.754176 36.556013)scale(0.15 -0.15)">
      <defs>
       <path d="M 4447 4306 
L 4319 3641 
Q 4019 3944 3683 4091 
Q 3347 4238 2956 4238 
Q 2422 4238 2017 3981 
Q 1613 3725 1319 3200 
Q 1131 2863 1032 2486 
Q 934 2109 934 1728 
Q 934 1091 1264 756 
Q 1594 422 2222 422 
Q 2656 422 3056 561 
Q 3456 700 3834 978 
L 3688 231 
Q 3316 72 2936 -9 
Q 2556 -91 2175 -91 
Q 1278 -91 773 396 
Q 269 884 269 1753 
Q 269 2309 461 2846 
Q 653 3384 1013 3828 
Q 1394 4300 1883 4525 
Q 2372 4750 3022 4750 
Q 3422 4750 3780 4639 
Q 4138 4528 4447 4306 
z
" id="DejaVuSans-Oblique-43" transform="scale(0.015625)"/>
      </defs>
      <use transform="translate(0 0.796875)" xlink:href="#STIXNonUnicode-Italic-e235"/>
      <use transform="translate(58.457016 -15.609375)scale(0.7)" xlink:href="#DejaVuSans-Oblique-43"/>
      <use transform="translate(107.333969 -15.609375)scale(0.7)" xlink:href="#DejaVuSans-Oblique-65"/>
      <use transform="translate(150.400375 -15.609375)scale(0.7)" xlink:href="#DejaVuSans-Oblique-65"/>
     </g>
    </g>
    <g id="line2d_44">
     <path d="M 195.304176 31.306013 
L 225.304176 31.306013 
" style="fill:none;stroke:#0000ff;stroke-dasharray:5.55,2.4;stroke-dashoffset:0;stroke-width:1.5;"/>
    </g>
    <g id="line2d_45"/>
    <g id="text_22">
     <!-- $\mathcal{I}_{CSA}$ -->
     <g transform="translate(237.304176 36.556013)scale(0.15 -0.15)">
      <defs>
       <path d="M 3859 4513 
L 3738 3897 
Q 3422 4066 3111 4152 
Q 2800 4238 2509 4238 
Q 1944 4238 1609 3991 
Q 1275 3744 1275 3334 
Q 1275 3109 1398 2989 
Q 1522 2869 2034 2731 
L 2413 2638 
Q 3053 2472 3303 2217 
Q 3553 1963 3553 1503 
Q 3553 797 2998 353 
Q 2444 -91 1538 -91 
Q 1166 -91 791 -17 
Q 416 56 38 206 
L 166 856 
Q 513 641 861 531 
Q 1209 422 1556 422 
Q 2147 422 2503 684 
Q 2859 947 2859 1369 
Q 2859 1650 2717 1795 
Q 2575 1941 2106 2059 
L 1728 2156 
Q 1081 2325 845 2545 
Q 609 2766 609 3163 
Q 609 3859 1145 4304 
Q 1681 4750 2541 4750 
Q 2875 4750 3203 4690 
Q 3531 4631 3859 4513 
z
" id="DejaVuSans-Oblique-53" transform="scale(0.015625)"/>
       <path d="M 2356 4666 
L 3072 4666 
L 3938 0 
L 3278 0 
L 3084 1197 
L 984 1197 
L 325 0 
L -341 0 
L 2356 4666 
z
M 2584 4044 
L 1275 1722 
L 2988 1722 
L 2584 4044 
z
" id="DejaVuSans-Oblique-41" transform="scale(0.015625)"/>
      </defs>
      <use transform="translate(0 0.796875)" xlink:href="#STIXNonUnicode-Italic-e235"/>
      <use transform="translate(58.457016 -15.609375)scale(0.7)" xlink:href="#DejaVuSans-Oblique-43"/>
      <use transform="translate(107.333969 -15.609375)scale(0.7)" xlink:href="#DejaVuSans-Oblique-53"/>
      <use transform="translate(151.767563 -15.609375)scale(0.7)" xlink:href="#DejaVuSans-Oblique-41"/>
     </g>
    </g>
    <g id="patch_130">
     <path d="M 297.754176 36.556013 
L 327.754176 36.556013 
L 327.754176 26.056013 
L 297.754176 26.056013 
z
" style="fill:#99ccff;stroke:#99ccff;stroke-linejoin:miter;"/>
    </g>
    <g id="text_23">
     <!-- $p_{CeeMI}(\mathcal{I})$ -->
     <g transform="translate(339.754176 36.556013)scale(0.15 -0.15)">
      <defs>
       <path d="M 3175 2156 
Q 3175 2616 2975 2859 
Q 2775 3103 2400 3103 
Q 2144 3103 1911 2972 
Q 1678 2841 1497 2591 
Q 1319 2344 1212 1994 
Q 1106 1644 1106 1300 
Q 1106 863 1306 627 
Q 1506 391 1875 391 
Q 2147 391 2380 519 
Q 2613 647 2778 891 
Q 2956 1147 3065 1494 
Q 3175 1841 3175 2156 
z
M 1394 2969 
Q 1625 3272 1939 3428 
Q 2253 3584 2638 3584 
Q 3175 3584 3472 3232 
Q 3769 2881 3769 2247 
Q 3769 1728 3584 1258 
Q 3400 788 3053 416 
Q 2822 169 2531 39 
Q 2241 -91 1919 -91 
Q 1547 -91 1294 64 
Q 1041 219 916 525 
L 556 -1331 
L -19 -1331 
L 922 3500 
L 1497 3500 
L 1394 2969 
z
" id="DejaVuSans-Oblique-70" transform="scale(0.015625)"/>
       <path d="M 1081 4666 
L 2028 4666 
L 2572 1522 
L 4378 4666 
L 5350 4666 
L 4441 0 
L 3828 0 
L 4622 4091 
L 2791 897 
L 2175 897 
L 1581 4103 
L 788 0 
L 172 0 
L 1081 4666 
z
" id="DejaVuSans-Oblique-4d" transform="scale(0.015625)"/>
       <path d="M 1081 4666 
L 1716 4666 
L 806 0 
L 172 0 
L 1081 4666 
z
" id="DejaVuSans-Oblique-49" transform="scale(0.015625)"/>
      </defs>
      <use transform="translate(0 0.125)" xlink:href="#DejaVuSans-Oblique-70"/>
      <use transform="translate(63.476562 -16.28125)scale(0.7)" xlink:href="#DejaVuSans-Oblique-43"/>
      <use transform="translate(112.353516 -16.28125)scale(0.7)" xlink:href="#DejaVuSans-Oblique-65"/>
      <use transform="translate(155.419922 -16.28125)scale(0.7)" xlink:href="#DejaVuSans-Oblique-65"/>
      <use transform="translate(198.486328 -16.28125)scale(0.7)" xlink:href="#DejaVuSans-Oblique-4d"/>
      <use transform="translate(258.881836 -16.28125)scale(0.7)" xlink:href="#DejaVuSans-Oblique-49"/>
      <use transform="translate(282.260742 0.125)" xlink:href="#DejaVuSans-28"/>
      <use transform="translate(321.274414 0.125)" xlink:href="#STIXNonUnicode-Italic-e235"/>
      <use transform="translate(378.774399 0.125)" xlink:href="#DejaVuSans-29"/>
     </g>
    </g>
   </g>
  </g>
 </g>
 <defs>
  <clipPath id="p114cbe4cb5">
   <rect height="72.443568" width="103.868506" x="144.23567" y="161.37272"/>
  </clipPath>
  <clipPath id="p595b309a5b">
   <rect height="241.47856" width="346.228352" x="74.99" y="40.63344"/>
  </clipPath>
 </defs>
</svg>
